<svg width="206" height="191" viewBox="0 0 206 191" fill="none" xmlns="http://www.w3.org/2000/svg">
<path d="M64.0938 14.3264C65.4034 10.1061 68.1755 6.48535 71.9165 4.10869C76.0416 2.41647 80.2915 1.04284 84.6286 0C82.5935 3.0539 80.3231 5.94589 77.8379 8.64987C74.1581 12.2269 69.2373 14.2592 64.0938 14.3264Z" fill="#D7DBE0"/>
<path d="M56.8333 7.94709C59.939 5.00029 63.6441 2.75113 67.6982 1.35156C65.2564 5.17155 63.252 9.25159 61.7225 13.5154C59.3827 17.824 55.884 21.3993 51.6181 23.8412C51.4054 18.0951 53.2541 12.4611 56.8333 7.94709Z" fill="#D7DBE0"/>
<path d="M65.1967 24.6533C69.7294 22.9349 73.554 19.7568 76.0617 15.625C72.9848 16.5477 69.8146 17.1279 66.6091 17.355C63.8162 17.3105 61.0489 17.8896 58.5105 19.0497C55.9722 20.2098 53.7274 21.9214 51.9414 24.0586C56.2233 25.4527 60.8061 25.6583 65.1967 24.6533Z" fill="#D7DBE0"/>
<path d="M41.9429 21.6243C43.5845 16.6362 46.7104 12.2622 50.9066 9.08203C49.2101 13.4221 48.3798 18.0495 48.4619 22.7056C48.3873 24.7993 47.78 26.84 46.6969 28.6365C45.6138 30.433 44.0902 31.9265 42.2689 32.9773C41.4269 29.2491 41.3162 25.3943 41.9429 21.6243Z" fill="#D7DBE0"/>
<path d="M54.002 35.3574C59.1198 34.3992 63.8529 31.9972 67.6375 28.4375C63.0329 29.1153 58.3618 29.2243 53.7304 28.7619C51.6396 28.5194 49.5212 28.8088 47.5735 29.6031C45.6258 30.3973 43.9124 31.6703 42.5938 33.3031C46.1701 34.907 50.0876 35.6124 54.002 35.3574Z" fill="#D7DBE0"/>
<path d="M28.9596 35.1408C29.5572 26.2207 35.37 23.3013 38.6838 17.9492C37.1627 24.9772 38.6838 31.789 36.4565 38.6008C35.3775 41.408 33.732 43.9654 31.6215 46.1154C29.5528 42.845 28.6177 38.9902 28.9596 35.1408Z" fill="#D7DBE0"/>
<path d="M43.4508 47.737C51.7625 45.1961 52.5774 41.3578 57.684 37.8438C50.9477 39.1412 44.7546 37.8438 38.127 40.5468C35.5993 41.7214 33.4672 43.599 31.9883 45.953C35.4263 48.0202 39.5427 48.6608 43.4508 47.737Z" fill="#D7DBE0"/>
<path d="M22.977 29.9492C23.0093 33.6283 23.6328 37.2785 24.8241 40.7616C26.0705 44.232 26.7135 47.8885 26.7254 51.5739C25.8597 54.9077 24.466 58.083 22.5968 60.9806C20.1094 58.5345 18.3594 55.4447 17.5445 52.0605C16.9999 44.3071 18.8989 36.5778 22.977 29.9492Z" fill="#D7DBE0"/>
<path d="M48.897 48.1172C45.9196 49.5364 42.7247 50.45 39.4445 50.8203C35.4812 51.1897 31.5877 52.0992 27.8733 53.5234C25.5916 54.7668 22.9297 61.1461 22.9297 61.1461C26.2418 61.6575 29.6134 61.6575 32.9255 61.1461C39.6362 58.8303 45.2985 54.2113 48.897 48.1172Z" fill="#D7DBE0"/>
<path d="M7.00376 68.0617C6.50085 60.4076 8.21667 52.7707 11.9473 46.0586C12.3919 51.1001 13.6197 56.0425 15.5871 60.7093C16.9932 63.9942 17.6816 67.5389 17.6067 71.1086C17.5318 74.6783 16.6952 78.1914 15.1525 81.4149C12.828 79.9911 10.877 78.0378 9.46019 75.7161C8.04339 73.3944 7.20144 70.7708 7.00376 68.0617Z" fill="#D7DBE0"/>
<path d="M32.9219 67.0375C30.2057 67.47 28.1957 67.8484 25.4794 68.4971C22.5301 69.2671 19.904 70.9525 17.9826 73.3086C16.6852 75.9326 15.8055 78.7413 15.375 81.6341C20.6443 81.4216 25.747 79.737 30.0992 76.7732C34.4513 73.8093 37.877 69.6859 39.9842 64.875C37.8409 66.1544 35.4173 66.8965 32.9219 67.0375Z" fill="#D7DBE0"/>
<path d="M3.42573 91.9031C1.60145 85.4558 1.06619 78.7149 1.8503 72.0625C4.49324 76.4733 7.5102 80.6513 10.8682 84.5508C13.062 88.1147 14.2273 92.2109 14.2364 96.3903C14.2364 98.0662 14.2364 100.337 14.2364 100.337C12.3893 99.0393 7.11982 99.688 3.42573 91.9031Z" fill="#D7DBE0"/>
<path d="M33.1925 79.5234C30.7479 84.9296 30.5849 90.7142 23.7943 96.3366C21.0954 98.399 17.9204 99.7558 14.5591 100.283C13.8529 100.283 14.2875 93.4714 14.5591 92.8226C16.8951 87.4164 24.1746 85.3621 27.8144 83.3618C29.81 82.3903 31.6279 81.0929 33.1925 79.5234Z" fill="#D7DBE0"/>
<path d="M7.65981 117.964C3.02349 112.556 0.328496 105.765 0 98.6641C2.55327 102.719 7.93144 104.341 11.8972 108.125C14.3386 110.559 15.8882 113.738 16.2975 117.153C16.2975 118.288 17.6556 122.559 17.6556 122.559C15.211 121.262 11.2453 121.586 7.65981 117.964Z" fill="#D7DBE0"/>
<path d="M31.0207 96.7695C30.4488 101.419 29.4856 106.012 28.1414 110.501C26.2606 115.519 22.7654 119.776 18.2 122.611C16.8443 119.766 16.0864 116.675 15.9727 113.529C15.9715 112.314 16.2107 111.111 16.6768 109.989C17.1428 108.867 17.8266 107.847 18.6889 106.987C22.2743 102.716 27.1636 100.878 31.0207 96.7695Z" fill="#D7DBE0"/>
<path d="M25.2662 123.206C27.2219 119.097 29.7208 117.799 31.2962 113.637C32.109 117.469 32.6536 121.353 32.926 125.26C32.7545 130.83 30.8571 136.212 27.4935 140.668C25.3073 138.476 23.8151 135.694 23.2018 132.666C22.9494 129.38 23.6669 126.092 25.2662 123.206Z" fill="#D7DBE0"/>
<path d="M13.5293 138.126C8.7487 134.18 7.55355 128.557 4.45703 122.719C10.0551 124.494 15.3357 127.14 20.1026 130.558C23.0408 133.443 25.433 136.831 27.1648 140.559C24.9375 140.559 17.1691 141.046 13.5293 138.126Z" fill="#D7DBE0"/>
<path d="M42.2554 138.67C40.7488 134.847 39.4432 130.95 38.344 126.992C37.2032 130.074 35.8994 134.399 34.7586 138.183C33.8617 141.732 33.8617 145.446 34.7586 148.995C35.5191 152.401 40.1911 155.645 40.1911 155.699C41.4949 151.374 45.2976 150.942 42.2554 138.67Z" fill="#D7DBE0"/>
<path d="M33.409 149.374C30.626 147.408 27.359 146.231 23.9564 145.968C20.8268 145.453 17.6336 145.453 14.5039 145.968C15.3188 146.725 16.351 147.265 17.2202 148.022C19.4393 150.673 21.934 153.083 24.6627 155.212C29.4885 157.247 34.8906 157.477 39.8736 155.861C38.0715 153.377 35.8903 151.188 33.409 149.374Z" fill="#D7DBE0"/>
<path d="M44.875 159.591C46.8712 161.659 49.1153 163.475 51.5569 164.997C50.905 163.754 53.8386 160.997 52.8064 153.104C52.2722 149.478 51.0361 145.989 49.1666 142.832C46.8307 147.265 42.8649 154.185 44.875 159.591Z" fill="#D7DBE0"/>
<path d="M42.1099 159.157C46.5102 159.481 51.3451 165.212 51.3451 165.212C48.3756 167.145 44.8977 168.161 41.3493 168.131C38.0321 167.495 34.8632 166.248 32.0054 164.455C30.5671 163.902 29.0739 163.504 27.5508 163.266C29.3253 161.91 31.3313 160.884 33.4722 160.238C36.2915 159.503 39.1955 159.14 42.1099 159.157Z" fill="#D7DBE0"/>
<path d="M59.7526 154.453C60.7305 159.427 66 165.265 64.4246 172.672C64.4246 172.672 57.5796 170.185 55.9499 167.266C55.5647 164.983 55.707 162.643 56.3659 160.423C57.0247 158.203 58.1829 156.161 59.7526 154.453Z" fill="#D7DBE0"/>
<path d="M56.7683 175.917C59.5088 175.402 62.1378 174.414 64.5367 172.998C62.2957 171.025 59.6695 169.535 56.8226 168.619C54.2669 168.341 51.6811 168.586 49.224 169.339C46.767 170.092 44.4907 171.337 42.5352 172.998C47.859 172.998 50.195 176.566 56.7683 175.917Z" fill="#D7DBE0"/>
<path d="M69.6408 176.889C71.057 176.552 72.5449 176.685 73.8782 177.267C75.5345 177.929 77.1334 178.724 78.6588 179.646C77.3006 180.025 75.0733 182.403 72.2484 183.106C66.8159 184.512 63.8824 183.106 60.8945 183.971C62.8703 180.65 65.9715 178.139 69.6408 176.889Z" fill="#D7DBE0"/>
<path d="M69.5341 163.43C71.2182 165.646 74.0431 167.647 75.9988 170.241C77.9245 172.904 78.9689 176.097 78.9867 179.378C76.1445 178.763 73.462 177.566 71.1096 175.864C69.4198 171.949 68.8737 167.639 69.5341 163.43Z" fill="#D7DBE0"/>
<path d="M83.5587 181.863C86.1057 182.032 88.5618 182.872 90.6753 184.296C88.8746 184.925 87.1871 185.838 85.6774 186.999C82.8782 188.488 79.6133 188.855 76.5508 188.026C77.7596 187.133 78.8382 186.078 79.756 184.891C81.4943 183.485 81.8203 182.08 83.5587 181.863Z" fill="#D7DBE0"/>
<path d="M81.4887 171.375C83.3156 173.393 85.2563 175.306 87.3014 177.106C88.3674 178.007 89.2393 179.113 89.8648 180.358C90.4903 181.603 90.8564 182.961 90.9412 184.35L83.3357 181.376C81.467 178.397 80.8067 174.821 81.4887 171.375Z" fill="#D7DBE0"/>
<g style="mix-blend-mode:screen" opacity="0.8">
<path d="M71.9165 5.40617C76.3168 2.59496 80.7172 2.16247 84.6286 0C80.2915 1.04284 76.0416 2.41647 71.9165 4.10869C68.192 6.47887 65.4231 10.0764 64.0938 14.2723C65.8104 10.6428 68.522 7.56953 71.9165 5.40617Z" fill="#D7DBE0"/>
</g>
<g style="mix-blend-mode:screen" opacity="0.8">
<path d="M56.8306 8.97551C60.0282 5.91218 63.6958 3.37552 67.6956 1.46094C63.6415 2.86051 59.9364 5.10966 56.8306 8.05647C54.0318 11.2287 52.3195 15.2047 51.9414 19.4094C52.8259 15.6315 54.491 12.0782 56.8306 8.97551Z" fill="#D7DBE0"/>
</g>
<g style="mix-blend-mode:screen" opacity="0.8">
<path d="M66.7594 17.9497C69.9594 17.6651 73.0944 16.8806 76.049 15.625C72.9721 16.5477 69.8019 17.1279 66.5965 17.355C62.6035 17.4899 58.7124 18.6441 55.2969 20.7068C58.9194 19.1075 62.8028 18.1735 66.7594 17.9497Z" fill="#D7DBE0"/>
</g>
<g style="mix-blend-mode:screen" opacity="0.8">
<path d="M42.3802 21.6243C44.358 16.9214 47.2574 12.6576 50.9092 9.08203C46.7131 12.2622 43.5871 16.6362 41.9456 21.6243C41.6218 22.9898 41.4397 24.3847 41.4023 25.7871C41.5831 24.3697 41.9108 22.9746 42.3802 21.6243Z" fill="#D7DBE0"/>
</g>
<g style="mix-blend-mode:screen" opacity="0.8">
<path d="M54.7531 29.5194C58.9639 29.7693 63.189 29.4234 67.3022 28.4922C62.8001 29.0957 58.2436 29.1864 53.7209 28.7625C51.2095 28.5323 48.6841 29.0199 46.4414 30.1681C49.1501 29.4553 51.9659 29.2355 54.7531 29.5194Z" fill="#D7DBE0"/>
</g>
<g style="mix-blend-mode:screen" opacity="0.8">
<path d="M38.6734 17.9492C35.3596 23.3554 29.5468 26.2207 28.9492 35.1408V36.1139C29.5468 27.0316 37.1523 23.031 38.6734 17.9492Z" fill="#D7DBE0"/>
</g>
<g style="mix-blend-mode:screen" opacity="0.8">
<path d="M41.0657 40.0037C48.0736 38.7062 53.9407 39.6253 57.6891 37.625C50.9528 38.9225 44.7598 37.625 38.1321 40.3281C37.2539 40.6778 36.4306 41.1512 35.6875 41.7337C37.3931 40.9169 39.2024 40.3349 41.0657 40.0037Z" fill="#D7DBE0"/>
</g>
<g style="mix-blend-mode:screen" opacity="0.8">
<path d="M39.6549 51.5231C42.9547 51.1062 46.1142 49.9409 48.8901 48.1172C45.9127 49.5364 42.7178 50.45 39.4376 50.8203C35.4743 51.1897 31.5809 52.0992 27.8664 53.5234C27.5865 53.6372 27.3425 53.8239 27.1602 54.064C31.2028 52.7035 35.4 51.8499 39.6549 51.5231Z" fill="#D7DBE0"/>
</g>
<g style="mix-blend-mode:screen" opacity="0.8">
<path d="M25.5298 69.1459C28.246 68.4971 30.5277 68.2809 33.2439 67.7943C35.7619 67.6292 38.1436 66.5971 39.9802 64.875C37.8569 66.2305 35.4321 67.0473 32.918 67.2537C30.2017 67.6862 28.1917 68.0646 25.4755 68.7134C23.4988 69.2376 21.6504 70.1573 20.043 71.4165C21.7673 70.4302 23.6112 69.6672 25.5298 69.1459Z" fill="#D7DBE0"/>
</g>
<g style="mix-blend-mode:screen" opacity="0.8">
<path d="M13.4654 91.9045C13.0407 89.3194 12.1577 86.8299 10.8578 84.5522C7.48949 80.5839 4.47228 76.3332 1.83984 71.8477C3.83875 76.9142 6.7062 81.5969 10.3145 85.6875C11.5468 87.6634 12.6012 89.7438 13.4654 91.9045Z" fill="#D7DBE0"/>
</g>
<g style="mix-blend-mode:screen" opacity="0.8">
<path d="M27.8154 84.389C30.0005 83.2361 31.8664 81.5649 33.2479 79.5234C31.6669 81.0979 29.8303 82.3955 27.8154 83.3618C24.5016 85.1459 18.2542 86.8758 15.375 91.3629C19.0298 88.2598 23.2546 85.8915 27.8154 84.389Z" fill="#D7DBE0"/>
</g>
<g style="mix-blend-mode:screen" opacity="0.8">
<path d="M11.8972 108.828C13.1078 109.928 14.1672 111.182 15.048 112.558C14.3937 110.838 13.3093 109.312 11.8972 108.125C7.93144 104.341 2.55327 102.719 0 98.6641C2.06435 103.259 7.93144 105.368 11.8972 108.828Z" fill="#D7DBE0"/>
</g>
<g style="mix-blend-mode:screen" opacity="0.8">
<path d="M20.1013 106.609C24.23 102.879 29.2279 101.203 30.9663 96.7695C27.1636 100.878 22.2743 102.716 18.6889 107.095C17.2646 108.589 16.3191 110.471 15.9727 112.501C16.889 110.255 18.2998 108.241 20.1013 106.609Z" fill="#D7DBE0"/>
</g>
<g style="mix-blend-mode:screen" opacity="0.8">
<path d="M23.3602 132.775C23.4423 129.59 24.2998 126.474 25.8591 123.692C27.5975 120.773 31.2916 117.637 31.2916 113.637C29.7162 117.691 27.2172 119.043 25.2615 123.206C23.6998 126.103 23.0202 129.391 23.3058 132.666L23.3602 132.775Z" fill="#D7DBE0"/>
</g>
<g style="mix-blend-mode:screen" opacity="0.8">
<path d="M20.1026 130.558C15.3357 127.14 10.0551 124.494 4.45703 122.719C8.7487 126.125 16.2455 128.125 20.7545 131.315L20.1026 130.558Z" fill="#D7DBE0"/>
</g>
<g style="mix-blend-mode:screen" opacity="0.8">
<path d="M35.0973 139.264C36.2924 135.48 37.1616 132.777 38.3024 129.695C39.226 133.48 41.3446 136.885 42.3225 140.886C42.8909 142.81 43.2729 144.783 43.4633 146.779C43.4555 144.04 43.0902 141.314 42.3768 138.67C40.8701 134.847 39.5646 130.95 38.4654 126.992C37.3246 130.074 36.0208 134.399 34.88 138.183C34.1387 140.877 33.9905 143.698 34.4454 146.454C34.2263 144.038 34.4471 141.602 35.0973 139.264Z" fill="#D7DBE0"/>
</g>
<g style="mix-blend-mode:screen" opacity="0.8">
<path d="M26.1838 147.265C28.3458 147.68 30.4853 148.203 32.5941 148.833C29.9605 147.26 27.0118 146.282 23.9564 145.968C20.8268 145.453 17.6336 145.453 14.5039 145.968C18.4306 146.017 22.3428 146.452 26.1838 147.265Z" fill="#D7DBE0"/>
</g>
<g style="mix-blend-mode:screen" opacity="0.8">
<path d="M49.1677 144.235C50.9654 146.963 52.2195 150.01 52.8618 153.209C52.8872 153.103 52.8872 152.992 52.8618 152.885C52.3276 149.259 51.0915 145.771 49.222 142.613C46.6559 146.796 45.0253 151.479 44.4414 156.345C45.2875 152.063 46.8875 147.963 49.1677 144.235Z" fill="#D7DBE0"/>
</g>
<g style="mix-blend-mode:screen" opacity="0.8">
<path d="M43.7939 159.535C43.2527 159.333 42.686 159.205 42.1099 159.157C39.1955 159.14 36.2915 159.503 33.4722 160.238C31.3313 160.884 29.3253 161.91 27.5508 163.266C32.6009 160.785 38.162 159.508 43.7939 159.535Z" fill="#D7DBE0"/>
</g>
<g style="mix-blend-mode:screen" opacity="0.8">
<path d="M59.7584 156.183C60.6896 158.229 61.7794 160.199 63.0179 162.076C61.6768 159.65 60.5848 157.097 59.7584 154.453C57.2259 157.288 55.7994 160.932 55.7384 164.725C56.1112 161.519 57.5223 158.521 59.7584 156.183Z" fill="#D7DBE0"/>
</g>
<g style="mix-blend-mode:screen" opacity="0.8">
<path d="M57.0942 168.619C54.4949 168.303 51.8579 168.529 49.3512 169.283C46.8445 170.037 44.5232 171.302 42.5352 172.998C46.9243 170.306 51.9417 168.797 57.0942 168.619Z" fill="#D7DBE0"/>
</g>
<g style="mix-blend-mode:screen" opacity="0.8">
<path d="M71.1116 176.891H71.7092C71.0251 176.786 70.3289 176.786 69.6448 176.891C66.3187 178.05 63.4596 180.25 61.4961 183.162C64.2506 180.457 67.5195 178.325 71.1116 176.891Z" fill="#D7DBE0"/>
</g>
<g style="mix-blend-mode:screen" opacity="0.8">
<path d="M69.9801 164.836C72.3984 166.946 74.7015 169.184 76.8793 171.54C76.5737 170.993 76.2287 170.469 75.8472 169.972C73.8915 167.431 71.0666 165.431 69.3825 163.16C69.0227 166.578 69.243 170.032 70.0344 173.378C69.6635 170.544 69.6452 167.675 69.9801 164.836Z" fill="#D7DBE0"/>
</g>
<g style="mix-blend-mode:screen" opacity="0.8">
<path d="M83.9933 181.863H83.5587C81.8203 181.863 81.2227 183.485 79.756 184.891C78.8382 186.078 77.7596 187.133 76.5508 188.026C77.8076 187.337 78.9907 186.521 80.0819 185.594C81.4943 184.458 82.3092 182.62 83.9933 181.863Z" fill="#D7DBE0"/>
</g>
<g style="mix-blend-mode:screen" opacity="0.8">
<path d="M87.6814 178.403C88.5368 179.165 89.2859 180.038 89.9088 180.998C89.2282 179.639 88.3082 178.412 87.1925 177.376C85.1768 175.486 83.2723 173.483 81.4884 171.375C83.1433 174.046 85.2367 176.421 87.6814 178.403Z" fill="#D7DBE0"/>
</g>
<g style="mix-blend-mode:screen" opacity="0.8">
<path d="M22.4983 32.8157C22.9828 36.5598 24.0456 40.2069 25.6491 43.6281C25.6491 42.709 25.1058 41.844 24.8342 40.8709C23.643 37.3879 23.0194 33.7377 22.9872 30.0586C19.6099 35.9106 17.7434 42.5046 17.5547 49.2505C17.9872 43.4806 19.674 37.8731 22.4983 32.8157Z" fill="#D7DBE0"/>
</g>
<g style="mix-blend-mode:screen" opacity="0.8">
<path d="M11.7308 48.6536C12.5006 54.0802 14.1712 59.3418 16.6744 64.2233C16.3484 63.1421 16.0225 62.0068 15.5879 60.8715C13.6041 56.1535 12.3759 51.1552 11.9481 46.0586C8.64796 52.0206 6.78803 58.6654 6.51562 65.4667C7.1177 59.5739 8.89042 53.8588 11.7308 48.6536Z" fill="#D7DBE0"/>
</g>
<g style="mix-blend-mode:screen" opacity="0.8">
<path d="M59.2752 10.8125C59.2752 10.8125 58.9492 11.5153 58.5689 12.5965C58.1887 13.6778 57.5911 15.1374 57.0478 16.5971C56.5631 17.935 55.9443 19.2209 55.2008 20.4355C54.8786 21.0016 54.5155 21.5437 54.1143 22.0573L53.6797 21.733C54.1135 21.2706 54.4959 20.7631 54.8205 20.2192C55.5821 19.0359 56.2366 17.7876 56.7762 16.489L58.4603 12.5965C58.7011 11.9884 58.9731 11.3929 59.2752 10.8125Z" fill="#D7DBE0"/>
</g>
<g style="mix-blend-mode:screen" opacity="0.8">
<path d="M66.2782 20.8672H64.3225H60.0851C58.6771 20.9548 57.2784 21.1536 55.9021 21.4619C55.2921 21.5985 54.693 21.7792 54.1094 22.0025V21.5159C54.6724 21.5184 55.2348 21.5545 55.7934 21.6241C57.2079 21.3509 58.6444 21.2061 60.0851 21.1916H64.3225L66.2782 20.8672Z" fill="#D7DBE0"/>
</g>
<g style="mix-blend-mode:screen" opacity="0.8">
<path d="M46.179 19.1406C45.7733 21.1527 45.5551 23.1977 45.5271 25.2496C45.45 26.6731 45.2316 28.0856 44.8752 29.4664C44.7315 30.1025 44.5126 30.7195 44.2233 31.3045H43.7344C44.0314 30.7547 44.2682 30.1747 44.4406 29.5745C44.806 28.2251 45.0783 26.8523 45.2555 25.4658C45.3452 23.3316 45.6547 21.2121 46.179 19.1406Z" fill="#D7DBE0"/>
</g>
<g style="mix-blend-mode:screen" opacity="0.8">
<path d="M34.4489 30.8672C34.2396 31.6104 34.0943 32.37 34.0143 33.1378C34.0143 34.4893 34.0143 36.3274 34.0143 38.1655C33.8427 39.8812 33.5338 41.5805 33.0908 43.2473C32.9685 43.9945 32.8053 44.7344 32.6018 45.4638H32.0586C32.2917 44.7386 32.4733 43.9979 32.6018 43.2473C33.0184 41.6162 33.291 39.952 33.4167 38.2736C33.4167 36.4355 33.4167 34.5974 33.9056 33.1918C33.9972 32.3989 34.1795 31.619 34.4489 30.8672Z" fill="#D7DBE0"/>
</g>
<g style="mix-blend-mode:screen" opacity="0.8">
<path d="M55.9052 31.7881C53.8446 31.9611 51.7729 31.9611 49.7122 31.7881C48.3202 31.6737 46.9212 31.6737 45.5292 31.7881C44.818 31.9235 44.1252 32.1412 43.4648 32.4368V31.9503C44.1001 31.7504 44.7563 31.6234 45.4205 31.5718C46.831 31.4656 48.2475 31.4656 49.6579 31.5718C51.7317 31.803 53.8203 31.8753 55.9052 31.7881Z" fill="#D7DBE0"/>
</g>
<g style="mix-blend-mode:screen" opacity="0.8">
<path d="M46.993 42.9258C46.2406 43.0845 45.4784 43.1929 44.7114 43.2502C43.3533 43.2502 41.5062 43.5745 39.6592 43.7367C37.9721 43.8573 36.2994 44.1287 34.6613 44.5476C33.9228 44.7578 33.1973 45.0105 32.4883 45.3045V44.7639C33.218 44.5067 33.9616 44.2901 34.7156 44.1151C36.3967 43.7582 38.1048 43.5412 39.8221 43.4664L44.7114 43.2502C45.479 43.1988 46.2417 43.0904 46.993 42.9258Z" fill="#D7DBE0"/>
</g>
<g style="mix-blend-mode:screen" opacity="0.8">
<path d="M22.1623 43.8438C22.1008 44.6716 22.1008 45.5028 22.1623 46.3306C22.1623 47.7903 22.7056 49.7365 23.0315 51.7368C23.3477 53.5228 23.5293 55.3299 23.5748 57.1429C23.6369 57.9707 23.6369 58.802 23.5748 59.6298H23.0315C23.0786 58.8195 23.0786 58.0072 23.0315 57.197C23.0715 55.3891 22.9625 53.581 22.7056 51.7908C22.7056 49.8446 22.1623 47.8984 22.0537 46.3847C22.0398 45.5363 22.076 44.6879 22.1623 43.8438Z" fill="#D7DBE0"/>
</g>
<g style="mix-blend-mode:screen" opacity="0.8">
<path d="M38.6783 55.0352C37.9189 55.3728 37.1387 55.6617 36.3423 55.9001L30.9098 57.1436C29.0534 57.4947 27.2345 58.0196 25.4773 58.7113C24.715 59.0093 23.9712 59.3524 23.25 59.7385V59.252C24.0051 58.8742 24.7856 58.549 25.586 58.2789C27.3547 57.6619 29.1717 57.1918 31.0185 56.8733C32.9742 56.4948 34.9299 56.1704 36.4509 55.792C37.2156 55.6097 37.9613 55.3563 38.6783 55.0352Z" fill="#D7DBE0"/>
</g>
<g style="mix-blend-mode:screen" opacity="0.8">
<path d="M11.4648 62.0078C11.5733 62.9573 11.7549 63.8972 12.0081 64.819C12.497 66.4409 13.3119 68.5493 14.0724 70.7117C14.8249 72.6832 15.3533 74.7323 15.6479 76.8207C15.7223 77.7744 15.7223 78.7323 15.6479 79.686H15.1046C15.1864 78.7507 15.1864 77.8101 15.1046 76.8748C14.866 74.8097 14.3922 72.7783 13.6922 70.8199C13.0403 68.6574 12.2254 66.4949 11.8451 64.819C11.6276 63.8963 11.5003 62.9549 11.4648 62.0078Z" fill="#D7DBE0"/>
</g>
<g style="mix-blend-mode:screen" opacity="0.8">
<path d="M32.1029 70.6562C31.3529 71.2579 30.532 71.7662 29.6583 72.17C28.1372 72.9268 25.9642 73.7378 23.8998 74.6028C21.9948 75.3914 20.1748 76.3694 18.4673 77.5221C17.7004 78.0634 16.9741 78.6597 16.2943 79.3061L15.9141 78.8736C16.6578 78.2517 17.4378 77.674 18.25 77.1437C19.9511 76.0246 21.7734 75.0997 23.6825 74.3865C25.8012 73.5215 27.9742 72.8187 29.5496 72.0619C30.4465 71.6809 31.302 71.21 32.1029 70.6562Z" fill="#D7DBE0"/>
</g>
<g style="mix-blend-mode:screen" opacity="0.8">
<path d="M5.4375 83.6875C5.70303 84.53 6.08712 85.3309 6.57832 86.0662C7.67551 87.6918 8.85403 89.2616 10.1094 90.7696C11.3816 92.307 12.391 94.0421 13.0973 95.9054C13.4098 96.744 13.6284 97.6142 13.7492 98.5004H13.2603C13.147 97.6357 12.9468 96.7844 12.6627 95.9595C11.9954 94.1224 11.0621 92.3922 9.89214 90.8236C8.64267 89.0937 7.28455 87.4178 6.46967 86.0122C6.01971 85.2883 5.67237 84.506 5.4375 83.6875Z" fill="#D7DBE0"/>
</g>
<g style="mix-blend-mode:screen" opacity="0.8">
<path d="M27.5915 87.7422C26.9984 88.4175 26.3232 89.0168 25.5815 89.5262C24.2777 90.4453 22.322 91.3643 20.4749 92.4456C18.7554 93.3615 17.1961 94.5482 15.8573 95.9596C15.2442 96.5864 14.698 97.2749 14.2276 98.0139L13.793 97.7436C14.279 96.9843 14.8434 96.2777 15.477 95.6352C16.9099 94.2429 18.5613 93.0925 20.3663 92.2293C22.2677 91.2021 24.2233 90.3372 25.7988 89.4181C26.4617 88.933 27.0636 88.3703 27.5915 87.7422Z" fill="#D7DBE0"/>
</g>
<g style="mix-blend-mode:screen" opacity="0.8">
<path d="M5.4375 108.445C5.89486 109.208 6.46226 109.901 7.12157 110.5C8.31672 111.581 10.0551 112.77 11.7935 114.068C13.3873 115.262 14.7966 116.683 15.9765 118.285C16.498 119.027 16.9353 119.825 17.2803 120.663H16.7914C16.4664 119.853 16.0663 119.075 15.5963 118.339C14.4875 116.733 13.1518 115.294 11.6305 114.068C9.94647 112.716 8.20807 111.473 7.06725 110.337C6.4397 109.784 5.89135 109.147 5.4375 108.445Z" fill="#D7DBE0"/>
</g>
<g style="mix-blend-mode:screen" opacity="0.8">
<path d="M26.5158 105.961C26.2116 106.791 25.791 107.573 25.2663 108.286C24.3971 109.637 22.9303 111.205 21.5722 112.881C20.2891 114.35 19.2443 116.01 18.4757 117.8C18.1359 118.601 17.881 119.434 17.7151 120.287H17.1719C17.3758 119.414 17.667 118.562 18.0411 117.746C18.8686 115.938 19.988 114.276 21.3549 112.827C22.7673 111.205 24.2884 109.691 25.212 108.394C25.7457 107.639 26.1836 106.822 26.5158 105.961Z" fill="#D7DBE0"/>
</g>
<g style="mix-blend-mode:screen" opacity="0.8">
<path d="M13.3633 131.156C13.9547 131.703 14.6116 132.175 15.319 132.562C16.5684 133.265 18.3612 133.859 20.0996 134.616C21.7625 135.256 23.3052 136.169 24.6629 137.319C25.2684 137.852 25.8315 138.43 26.3469 139.049L25.9123 139.374C25.4385 138.753 24.9114 138.174 24.3369 137.644C23.0482 136.482 21.581 135.533 19.9909 134.832C18.3068 134.022 16.5141 133.373 15.2647 132.616C14.5714 132.211 13.9325 131.721 13.3633 131.156Z" fill="#D7DBE0"/>
</g>
<g style="mix-blend-mode:screen" opacity="0.8">
<path d="M29.7668 124.344C29.7727 125.13 29.6629 125.914 29.4408 126.668C28.8943 128.323 28.2596 129.947 27.5394 131.534C26.8923 133.139 26.5071 134.836 26.3986 136.562C26.3234 137.335 26.3234 138.113 26.3986 138.886H25.8554C25.767 138.078 25.767 137.262 25.8554 136.454C26.0383 134.792 26.4781 133.169 27.1592 131.642C27.9227 130.097 28.5939 128.508 29.1692 126.885C29.4948 126.072 29.6962 125.216 29.7668 124.344Z" fill="#D7DBE0"/>
</g>
<g style="mix-blend-mode:screen" opacity="0.8">
<path d="M24.3905 150.508C25.0875 150.901 25.8376 151.192 26.6178 151.373C28.0303 151.697 29.9316 151.805 32.0503 152.022C33.812 152.175 35.5367 152.614 37.1569 153.319C37.8935 153.68 38.6018 154.095 39.2755 154.562L38.8953 154.995C38.2869 154.516 37.6317 154.1 36.9396 153.752C35.38 153.007 33.7112 152.514 31.996 152.292C30.1489 151.967 28.1932 151.805 26.8351 151.481C25.9729 151.29 25.1474 150.961 24.3905 150.508Z" fill="#D7DBE0"/>
</g>
<g style="mix-blend-mode:screen" opacity="0.8">
<path d="M38.6823 139.695C38.9109 140.449 39.0209 141.233 39.0083 142.02C39.0083 143.48 38.6823 145.372 38.5193 147.426C38.2356 149.126 38.2356 150.862 38.5193 152.562C38.6833 153.328 38.9386 154.072 39.2799 154.779H38.7366C38.4389 154.028 38.2204 153.249 38.0847 152.454C37.7634 150.666 37.7634 148.836 38.0847 147.048C38.4148 145.261 38.6325 143.455 38.7366 141.642C38.7988 140.993 38.7805 140.339 38.6823 139.695Z" fill="#D7DBE0"/>
</g>
<g style="mix-blend-mode:screen" opacity="0.8">
<path d="M37.2148 163.104H39.3335C40.583 163.104 42.2671 162.834 43.9511 162.725C45.498 162.629 47.0509 162.738 48.5687 163.05C49.2686 163.227 49.9578 163.444 50.6331 163.699V164.185C48.5911 163.324 46.3847 162.919 44.1684 162.996C42.4844 162.996 40.8003 162.996 39.5508 162.996C38.7754 163.083 37.995 163.119 37.2148 163.104Z" fill="#D7DBE0"/>
</g>
<g style="mix-blend-mode:screen" opacity="0.8">
<path d="M50.1992 172.241C50.8867 172.281 51.576 172.281 52.2636 172.241C53.513 172.241 55.1428 171.701 56.8269 171.43C58.3767 171.216 59.9489 171.216 61.4988 171.43C62.1982 171.515 62.8889 171.66 63.5631 171.863V172.404C61.464 171.715 59.2387 171.494 57.0442 171.755C55.3601 171.755 53.7303 172.295 52.4265 172.35C51.6823 172.385 50.9365 172.348 50.1992 172.241Z" fill="#D7DBE0"/>
</g>
<g style="mix-blend-mode:screen" opacity="0.8">
<path d="M66.9336 181.325C67.4701 181.179 67.9964 180.999 68.509 180.784L71.9315 179.271C73.6356 178.511 75.5005 178.177 77.364 178.298V178.838C75.5271 178.617 73.6637 178.84 71.9315 179.487L68.4547 180.838C67.9629 181.045 67.4539 181.207 66.9336 181.325Z" fill="#D7DBE0"/>
</g>
<g style="mix-blend-mode:screen" opacity="0.8">
<path d="M81.1602 186.512L82.2467 185.863L84.4197 184.296C85.5275 183.543 86.7891 183.045 88.1137 182.836V183.377C86.8478 183.481 85.6221 183.869 84.5283 184.512L82.1923 185.972L81.1602 186.512Z" fill="#D7DBE0"/>
</g>
<g style="mix-blend-mode:screen" opacity="0.8">
<path d="M48.2912 150.617C48.3567 151.3 48.3567 151.988 48.2912 152.672C48.2912 153.915 48.2912 155.591 48.2912 157.267C48.3867 159.478 48.9808 161.64 50.0296 163.592H49.5406C49.2026 162.954 48.9297 162.284 48.7258 161.592C48.2638 160.103 48.0258 158.555 48.0195 156.996C48.0195 155.321 48.0195 153.645 48.0195 152.401C48.1463 151.813 48.237 151.217 48.2912 150.617Z" fill="#D7DBE0"/>
</g>
<g style="mix-blend-mode:screen" opacity="0.8">
<path d="M59.207 160.781C59.4691 161.34 59.687 161.919 59.8589 162.511C59.8589 163.592 60.4565 165.052 60.8368 166.458C61.2698 168.438 62.1629 170.289 63.4444 171.864L63.0098 172.188C61.7949 170.593 60.9591 168.745 60.5652 166.782L59.7503 162.565C59.6024 161.961 59.421 161.366 59.207 160.781Z" fill="#D7DBE0"/>
</g>
<g style="mix-blend-mode:screen" opacity="0.8">
<path d="M71.8711 169.266C72.1716 169.754 72.4437 170.26 72.686 170.779L74.1527 174.185C74.854 175.833 75.9553 177.282 77.3579 178.402L77.032 178.78C75.6322 177.572 74.5662 176.027 73.9354 174.293L72.6316 170.833C72.4252 170.289 72.1707 169.765 71.8711 169.266Z" fill="#D7DBE0"/>
</g>
<g style="mix-blend-mode:screen" opacity="0.8">
<path d="M83.6094 177.051C83.8655 177.36 84.1014 177.685 84.3156 178.024L85.5651 180.403C86.1722 181.519 87.0498 182.467 88.1183 183.16V183.646C87.0336 182.827 86.1741 181.748 85.6194 180.511C85.1848 179.646 84.8045 178.727 84.4786 178.078C84.2169 177.713 83.9263 177.369 83.6094 177.051Z" fill="#D7DBE0"/>
</g>
<path d="M76.0594 5.83859C76.0594 5.83859 75.3531 6.48733 73.8864 7.62263C72.4196 8.75792 70.1379 10.2176 67.3674 12.2179C59.6028 17.5667 52.3309 23.5912 45.6374 30.2204C36.1761 39.6746 28.3722 50.6385 22.5493 62.6574C19.3352 69.4129 17.0861 76.5824 15.8674 83.9577C14.6181 91.5583 14.5082 99.3013 15.5414 106.934C16.5468 114.541 18.632 121.967 21.7345 128.991C24.8315 135.795 28.8529 142.144 33.6859 147.859C42.5509 157.875 53.2421 166.13 65.1944 172.186C70.3552 174.944 75.2445 177.16 79.6448 178.998C84.0451 180.836 87.9022 182.62 91.053 184.404C94.2039 186.188 96.4855 187.162 98.1696 188.081C99.0628 188.532 99.9169 189.056 100.723 189.648C100.895 189.821 100.992 190.054 100.992 190.297C100.992 190.54 100.895 190.774 100.723 190.946C100.544 191.105 100.311 191.194 100.071 191.194C99.8304 191.194 99.5983 191.105 99.4191 190.946C98.8204 190.296 98.1661 189.699 97.4634 189.162C95.3284 187.623 93.0552 186.284 90.6728 185.161C87.6306 183.648 83.7192 181.918 79.2645 180.079C74.8099 178.241 69.9206 176.079 64.6511 173.322C52.5063 167.204 41.6319 158.858 32.5994 148.724C22.3809 136.959 15.8633 122.464 13.8574 107.042C11.9144 91.637 14.5391 76.0027 21.4085 62.0628C27.413 50.0009 35.4207 39.0344 45.0942 29.6257C51.8723 22.9929 59.2561 17.0022 67.1501 11.7313L73.7777 7.29826C74.5637 6.81329 75.3252 6.29006 76.0594 5.73047V5.83859Z" fill="#D7DBE0"/>
<g style="mix-blend-mode:screen" opacity="0.8">
<g style="mix-blend-mode:screen" opacity="0.8">
<path d="M20.959 130.346C17.7656 123.071 15.5904 115.395 14.4944 107.532C12.4392 92.0001 14.9487 76.2085 21.7196 62.0659C27.8425 49.912 35.9574 38.8582 45.7312 29.3585C50.6422 24.4168 55.9471 19.8788 61.594 15.7891C55.7864 19.9858 50.3355 24.6508 45.2966 29.737C35.6231 39.1456 27.6154 50.1121 21.6109 62.174C14.6882 76.0599 11.9883 91.6545 13.8425 107.045C14.8913 114.883 17.0685 122.53 20.3071 129.751C22.814 135.155 25.9111 140.267 29.5423 144.997C26.1901 140.415 23.3142 135.506 20.959 130.346Z" fill="#D7DBE0"/>
</g>
<path d="M79.6791 179.379C84.0795 181.271 87.8822 183.001 90.9787 184.785C94.0752 186.569 96.4112 187.813 98.1496 188.732C99.0521 189.167 99.9077 189.692 100.703 190.3C100.765 190.183 100.797 190.053 100.797 189.921C100.797 189.789 100.765 189.659 100.703 189.543C99.8969 188.951 99.0429 188.426 98.1496 187.975C96.5199 187.056 94.1296 185.758 91.033 184.299C87.9365 182.839 84.0251 180.947 79.6248 178.893L73.1602 176.027C75.2542 177.291 77.4322 178.41 79.6791 179.379Z" fill="#D7DBE0"/>
</g>
<path d="M141.902 14.3264C140.571 10.1169 137.804 6.5026 134.079 4.10869C129.935 2.41644 125.667 1.04285 121.312 0C123.38 3.04484 125.668 5.93577 128.157 8.64987C131.834 12.2316 136.757 14.2647 141.902 14.3264Z" fill="#D7DBE0"/>
<path d="M149.123 7.94709C146.027 4.98802 142.319 2.73714 138.258 1.35156C140.717 5.16976 142.74 9.24976 144.288 13.5154C146.628 17.824 150.126 21.3993 154.392 23.8412C154.604 18.0863 152.734 12.4467 149.123 7.94709Z" fill="#D7DBE0"/>
<path d="M140.916 24.6533C136.383 22.9349 132.558 19.7568 130.051 15.625C133.125 16.5588 136.296 17.1393 139.503 17.355C142.305 17.3023 145.083 17.8775 147.632 19.0379C150.18 20.1983 152.434 21.9142 154.225 24.0586C149.929 25.4765 145.322 25.6823 140.916 24.6533Z" fill="#D7DBE0"/>
<path d="M164.065 21.6223C162.395 16.6933 159.271 12.3793 155.102 9.24219C156.779 13.5312 157.609 18.1017 157.546 22.7035C157.636 24.8001 158.256 26.8403 159.348 28.6356C160.44 30.4309 161.969 31.9234 163.794 32.9753C164.589 29.2402 164.681 25.3908 164.065 21.6223Z" fill="#D7DBE0"/>
<path d="M152.112 35.3574C146.986 34.4229 142.247 32.0176 138.477 28.4375C142.992 29.0937 147.57 29.2027 152.112 28.7619C154.161 28.5513 156.229 28.8568 158.128 29.6504C160.027 30.444 161.694 31.7001 162.977 33.3031C159.567 34.8256 155.845 35.5293 152.112 35.3574Z" fill="#D7DBE0"/>
<path d="M177.048 35.1408C176.451 26.2207 170.638 23.3013 167.324 17.9492C168.845 24.9772 167.324 31.789 169.552 38.6008C170.631 41.408 172.276 43.9654 174.386 46.1154C176.43 42.8344 177.363 38.9881 177.048 35.1408Z" fill="#D7DBE0"/>
<path d="M162.98 47.737C154.179 45.1961 153.419 41.3578 148.312 37.8438C155.049 39.1412 161.187 37.8438 167.869 40.5468C170.397 41.7214 172.529 43.599 174.008 45.953C170.685 47.8979 166.751 48.5343 162.98 47.737Z" fill="#D7DBE0"/>
<path d="M183.018 29.9492C182.94 33.6285 182.299 37.2745 181.117 40.7616C179.914 44.2418 179.29 47.8938 179.27 51.5739C180.118 54.9044 181.494 58.0796 183.344 60.9806C185.87 58.5558 187.643 55.4595 188.45 52.0605C188.995 44.3071 187.096 36.5778 183.018 29.9492Z" fill="#D7DBE0"/>
<path d="M157 48.1172C159.977 49.5364 163.172 50.45 166.453 50.8203C170.415 51.1944 174.308 52.1038 178.024 53.5234C180.305 54.7668 182.967 61.1461 182.967 61.1461C179.655 61.6575 176.284 61.6575 172.972 61.1461C166.244 58.8601 160.572 54.2334 157 48.1172Z" fill="#D7DBE0"/>
<path d="M198.937 68.0617C199.484 60.4108 197.786 52.7664 194.048 46.0586C193.542 51.1193 192.221 56.0661 190.136 60.7093C188.739 63.998 188.059 67.5447 188.144 71.1144C188.228 74.6841 189.074 78.1953 190.625 81.4149C192.989 80.0201 194.979 78.0775 196.426 75.7526C197.874 73.4276 198.735 70.7891 198.937 68.0617Z" fill="#D7DBE0"/>
<path d="M173.074 67.0375C175.79 67.47 177.8 67.8484 180.462 68.4971C183.434 69.2495 186.083 70.9371 188.013 73.3086C189.31 75.9326 190.19 78.7413 190.621 81.6341C185.345 81.419 180.236 79.7341 175.876 76.7711C171.516 73.8082 168.079 69.6864 165.957 64.875C168.12 66.1549 170.561 66.8967 173.074 67.0375Z" fill="#D7DBE0"/>
<path d="M202.583 91.9031C204.408 85.4558 204.943 78.7149 204.159 72.0625C201.636 76.446 198.766 80.622 195.575 84.5508C193.358 88.1042 192.19 92.2073 192.207 96.3903C192.207 98.0662 192.207 100.337 192.207 100.337C193.62 99.0393 198.835 99.688 202.583 91.9031Z" fill="#D7DBE0"/>
<path d="M172.754 79.5234C175.253 84.9296 175.416 90.7142 182.152 96.3366C184.861 98.3815 188.032 99.7363 191.387 100.283C192.148 100.283 191.713 93.4714 191.387 92.8226C189.051 87.4164 181.772 85.3621 178.132 83.3618C176.147 82.373 174.332 81.0774 172.754 79.5234Z" fill="#D7DBE0"/>
<path d="M198.332 117.964C202.94 112.539 205.631 105.759 205.992 98.6641C203.438 102.665 198.006 104.341 194.04 107.855C191.599 110.397 190.055 113.661 189.64 117.153C189.64 118.288 188.336 122.559 188.336 122.559C190.726 121.262 194.692 121.586 198.332 117.964Z" fill="#D7DBE0"/>
<path d="M174.98 96.7695C175.534 101.417 176.479 106.011 177.805 110.501C179.697 115.529 183.213 119.788 187.801 122.611C189.165 119.763 189.959 116.678 190.137 113.529C190.116 111.081 189.143 108.736 187.421 106.987C183.727 102.716 178.675 100.878 174.98 96.7695Z" fill="#D7DBE0"/>
<path d="M180.742 123.206C178.786 119.097 176.233 117.799 174.712 113.637C173.899 117.469 173.354 121.353 173.082 125.26C173.285 130.825 175.179 136.197 178.515 140.668C180.723 138.485 182.235 135.701 182.861 132.666C183.069 129.377 182.334 126.096 180.742 123.206Z" fill="#D7DBE0"/>
<path d="M192.418 138.126C197.252 134.18 198.448 128.557 201.544 122.719C195.941 124.482 190.659 127.129 185.899 130.558C182.98 133.447 180.606 136.835 178.891 140.559C181.009 140.559 188.832 141.046 192.418 138.126Z" fill="#D7DBE0"/>
<path d="M163.729 138.67C164.707 134.669 166.989 131.047 167.641 126.992C168.782 130.074 170.031 134.399 171.226 138.183C172.121 141.732 172.121 145.446 171.226 148.995C170.52 152.401 165.794 155.645 165.794 155.699C164.49 151.374 160.687 150.942 163.729 138.67Z" fill="#D7DBE0"/>
<path d="M172.547 149.374C175.354 147.415 178.637 146.239 182.054 145.968C185.184 145.453 188.377 145.453 191.506 145.968C190.692 146.725 189.605 147.265 188.79 148.022C186.566 150.687 184.052 153.099 181.293 155.212C176.491 157.268 171.098 157.499 166.137 155.861C167.934 153.39 170.095 151.203 172.547 149.374Z" fill="#D7DBE0"/>
<path d="M161.074 159.591C159.101 161.662 156.874 163.478 154.447 164.997C155.099 163.754 152.165 160.997 153.143 153.104C153.736 149.493 154.968 146.015 156.783 142.832C159.173 147.265 162.976 154.185 161.074 159.591Z" fill="#D7DBE0"/>
<path d="M163.895 159.156C159.441 159.481 154.66 165.211 154.66 165.211C157.625 167.154 161.106 168.17 164.656 168.131C167.917 167.475 171.029 166.229 173.837 164.454C175.275 163.902 176.768 163.503 178.291 163.265C176.504 161.898 174.478 160.872 172.316 160.238C169.568 159.513 166.738 159.15 163.895 159.156Z" fill="#D7DBE0"/>
<path d="M146.193 154.453C145.161 159.427 139.945 165.265 141.521 172.672C141.521 172.672 148.366 170.185 149.995 167.266C150.381 164.983 150.238 162.643 149.58 160.423C148.921 158.203 147.762 156.161 146.193 154.453Z" fill="#D7DBE0"/>
<path d="M149.232 175.915C146.413 175.436 143.707 174.446 141.246 172.996C143.471 171.03 146.078 169.539 148.906 168.617C151.489 168.371 154.096 168.657 156.563 169.456C159.03 170.256 161.306 171.553 163.248 173.266C158.141 172.996 155.805 176.564 149.232 175.915Z" fill="#D7DBE0"/>
<path d="M136.35 176.889C134.916 176.552 133.411 176.685 132.058 177.268C130.425 177.941 128.845 178.736 127.332 179.646C128.69 180.025 130.917 182.403 133.742 183.106C139.175 184.512 142.054 183.106 145.096 183.971C143.099 180.669 140.005 178.164 136.35 176.889Z" fill="#D7DBE0"/>
<path d="M136.456 163.43C134.772 165.646 131.947 167.647 129.991 170.241C128.072 172.91 127.011 176.096 126.949 179.378C129.812 178.775 132.515 177.577 134.881 175.864C136.57 171.949 137.116 167.639 136.456 163.43Z" fill="#D7DBE0"/>
<path d="M122.398 181.863C119.87 182.041 117.434 182.881 115.336 184.296C117.137 184.925 118.824 185.838 120.334 186.999C123.114 188.484 126.361 188.852 129.406 188.026C128.197 187.152 127.134 186.094 126.255 184.891C124.951 183.485 124.137 182.08 122.398 181.863Z" fill="#D7DBE0"/>
<path d="M124.624 171.375C122.397 173.754 120.821 175.267 118.811 177.106C117.74 178.006 116.861 179.111 116.227 180.355C115.592 181.6 115.215 182.958 115.117 184.35L122.723 181.376C124.637 178.414 125.318 174.828 124.624 171.375Z" fill="#D7DBE0"/>
<g style="mix-blend-mode:screen" opacity="0.8">
<path d="M134.079 5.40617C129.624 2.59496 125.278 2.16247 121.312 0C125.667 1.04285 129.935 2.41644 134.079 4.10869C137.809 6.4602 140.566 10.0672 141.847 14.2723C140.155 10.6433 137.461 7.56827 134.079 5.40617Z" fill="#D7DBE0"/>
</g>
<g style="mix-blend-mode:screen" opacity="0.8">
<path d="M149.123 8.97551C145.938 5.89676 142.268 3.35826 138.258 1.46094C142.319 2.84651 146.027 5.0974 149.123 8.05647C151.91 11.2415 153.637 15.2076 154.066 19.4094C153.149 15.6329 151.467 12.0824 149.123 8.97551Z" fill="#D7DBE0"/>
</g>
<g style="mix-blend-mode:screen" opacity="0.8">
<path d="M139.226 17.9497C135.988 17.6828 132.815 16.8979 129.828 15.625C132.902 16.5588 136.074 17.1393 139.281 17.355C143.272 17.4971 147.162 18.6508 150.58 20.7068C146.992 19.1201 143.146 18.1863 139.226 17.9497Z" fill="#D7DBE0"/>
</g>
<g style="mix-blend-mode:screen" opacity="0.8">
<path d="M163.631 21.6236C161.602 17.0278 158.707 12.8619 155.102 9.35156C159.254 12.46 162.375 16.7341 164.065 21.6236C164.373 22.9904 164.537 24.3856 164.554 25.7863C164.419 24.3663 164.109 22.9683 163.631 21.6236Z" fill="#D7DBE0"/>
</g>
<g style="mix-blend-mode:screen" opacity="0.8">
<path d="M151.237 29.5194C147.026 29.7693 142.801 29.4234 138.688 28.4922C143.19 29.0957 147.746 29.1864 152.269 28.7625C154.78 28.5323 157.306 29.0199 159.548 30.1681C156.839 29.4576 154.024 29.2379 151.237 29.5194Z" fill="#D7DBE0"/>
</g>
<g style="mix-blend-mode:screen" opacity="0.8">
<path d="M167.324 17.9492C170.638 23.3554 176.451 26.2207 177.048 35.1408C177.021 35.4646 177.021 35.7901 177.048 36.1139C176.451 27.0316 168.845 23.031 167.324 17.9492Z" fill="#D7DBE0"/>
</g>
<g style="mix-blend-mode:screen" opacity="0.8">
<path d="M164.936 40.0062C157.928 38.7087 152.115 39.6278 148.312 37.8438C155.049 39.1412 161.187 37.8438 167.869 40.5468C168.742 40.9076 169.564 41.3801 170.314 41.9524C168.615 41.0706 166.807 40.4162 164.936 40.0062Z" fill="#D7DBE0"/>
</g>
<g style="mix-blend-mode:screen" opacity="0.8">
<path d="M166.29 51.5231C162.971 51.1142 159.792 49.9487 157 48.1172C159.977 49.5364 163.172 50.45 166.453 50.8203C170.415 51.1944 174.308 52.1038 178.024 53.5234L178.621 54.0099C174.629 52.6798 170.487 51.8446 166.29 51.5231Z" fill="#D7DBE0"/>
</g>
<g style="mix-blend-mode:screen" opacity="0.8">
<path d="M180.407 69.1459C177.746 68.4971 175.464 68.2809 172.748 67.7943C170.211 67.6416 167.808 66.6086 165.957 64.875C168.1 66.2309 170.543 67.0473 173.074 67.2537C175.79 67.6862 177.8 68.0646 180.462 68.7134C182.448 69.2133 184.301 70.1355 185.894 71.4165C184.178 70.4131 182.332 69.6491 180.407 69.1459Z" fill="#D7DBE0"/>
</g>
<g style="mix-blend-mode:screen" opacity="0.8">
<path d="M192.523 91.9045C193.083 89.2909 194.113 86.7999 195.566 84.5522C198.841 80.5621 201.784 76.3133 204.366 71.8477C202.267 76.9366 199.288 81.6205 195.566 85.6875C194.37 87.6667 193.352 89.7471 192.523 91.9045Z" fill="#D7DBE0"/>
</g>
<g style="mix-blend-mode:screen" opacity="0.8">
<path d="M178.186 84.389C176.014 83.2184 174.152 81.5507 172.754 79.5234C174.348 81.0821 176.182 82.3778 178.186 83.3618C181.5 85.1459 187.748 86.8758 190.627 91.3629C186.972 88.2598 182.747 85.8915 178.186 84.389Z" fill="#D7DBE0"/>
</g>
<g style="mix-blend-mode:screen" opacity="0.8">
<path d="M194.042 108.828C192.848 109.929 191.807 111.183 190.945 112.558C191.556 110.752 192.622 109.133 194.042 107.855C198.008 104.341 203.44 102.448 205.993 98.6641C203.929 103.259 198.008 105.368 194.042 108.828Z" fill="#D7DBE0"/>
</g>
<g style="mix-blend-mode:screen" opacity="0.8">
<path d="M185.896 106.609C181.768 102.879 176.77 101.203 175.031 96.7695C178.725 100.878 183.778 102.879 187.363 107.095C188.79 108.58 189.72 110.469 190.025 112.501C189.136 110.24 187.721 108.22 185.896 106.609Z" fill="#D7DBE0"/>
</g>
<g style="mix-blend-mode:screen" opacity="0.8">
<path d="M182.642 132.775C182.533 129.594 181.677 126.484 180.143 123.692C178.405 120.773 174.711 117.637 174.711 113.637C176.232 117.691 178.785 119.043 180.741 123.206C182.277 126.113 182.955 129.392 182.697 132.666L182.642 132.775Z" fill="#D7DBE0"/>
</g>
<g style="mix-blend-mode:screen" opacity="0.8">
<path d="M185.902 130.558C190.662 127.129 195.944 124.482 201.547 122.719C197.256 126.125 189.705 128.125 185.25 131.315L185.902 130.558Z" fill="#D7DBE0"/>
</g>
<g style="mix-blend-mode:screen" opacity="0.8">
<path d="M170.898 139.264C169.702 135.48 168.833 132.777 167.692 129.695C166.769 133.48 164.65 136.885 163.618 140.886C163.14 142.825 162.795 144.793 162.586 146.779C162.62 144.039 163.004 141.314 163.727 138.67C164.705 134.669 166.986 131.047 167.638 126.992C168.779 130.074 170.028 134.399 171.224 138.183C171.975 140.876 172.105 143.704 171.604 146.454C171.807 144.035 171.567 141.599 170.898 139.264Z" fill="#D7DBE0"/>
</g>
<g style="mix-blend-mode:screen" opacity="0.8">
<path d="M179.813 147.265C177.651 147.68 175.511 148.203 173.402 148.833C176.036 147.26 178.985 146.282 182.04 145.968C185.17 145.453 188.363 145.453 191.493 145.968C187.566 146.017 183.654 146.452 179.813 147.265Z" fill="#D7DBE0"/>
</g>
<g style="mix-blend-mode:screen" opacity="0.8">
<path d="M156.78 144.239C155.042 146.992 153.809 150.031 153.141 153.213V152.889C153.734 149.278 154.966 145.8 156.78 142.617C159.364 146.796 161.013 151.479 161.615 156.349C160.709 152.068 159.074 147.972 156.78 144.239Z" fill="#D7DBE0"/>
</g>
<g style="mix-blend-mode:screen" opacity="0.8">
<path d="M162.207 159.536C162.747 159.327 163.314 159.2 163.891 159.157C166.788 159.136 169.674 159.5 172.474 160.238C174.637 160.873 176.663 161.899 178.45 163.266C173.405 160.772 167.84 159.494 162.207 159.536Z" fill="#D7DBE0"/>
</g>
<g style="mix-blend-mode:screen" opacity="0.8">
<path d="M146.685 156.183C145.733 158.218 144.644 160.186 143.426 162.076C144.669 159.632 145.687 157.08 146.468 154.453C148.972 157.305 150.394 160.939 150.488 164.725C150.176 161.545 148.842 158.55 146.685 156.183Z" fill="#D7DBE0"/>
</g>
<g style="mix-blend-mode:screen" opacity="0.8">
<path d="M148.902 168.617C151.485 168.371 154.092 168.657 156.559 169.456C159.027 170.256 161.302 171.553 163.244 173.266C158.949 170.506 154.007 168.904 148.902 168.617Z" fill="#D7DBE0"/>
</g>
<g style="mix-blend-mode:screen" opacity="0.8">
<path d="M134.887 176.89H134.289C134.973 176.787 135.669 176.787 136.353 176.89C139.66 178.059 142.498 180.258 144.448 183.161C141.721 180.448 138.468 178.314 134.887 176.89Z" fill="#D7DBE0"/>
</g>
<g style="mix-blend-mode:screen" opacity="0.8">
<path d="M135.809 164.836C133.636 167.269 130.866 168.945 128.91 171.54C129.235 170.992 129.598 170.469 129.997 169.972C131.952 167.431 134.777 165.431 136.461 163.16C136.821 166.578 136.601 170.032 135.809 173.378C136.163 170.541 136.163 167.672 135.809 164.836Z" fill="#D7DBE0"/>
</g>
<g style="mix-blend-mode:screen" opacity="0.8">
<path d="M122.012 181.863H122.392C124.13 181.863 124.782 183.485 126.249 184.891C127.127 186.094 128.191 187.152 129.4 188.026C128.159 187.338 126.994 186.523 125.923 185.594C124.945 184.458 123.696 182.62 122.012 181.863Z" fill="#D7DBE0"/>
</g>
<g style="mix-blend-mode:screen" opacity="0.8">
<path d="M118.267 178.402C117.428 179.166 116.697 180.039 116.094 180.997C116.756 179.627 117.678 178.397 118.81 177.375C120.82 175.537 122.395 174.023 124.623 171.645C122.91 174.244 120.76 176.53 118.267 178.402Z" fill="#D7DBE0"/>
</g>
<g style="mix-blend-mode:screen" opacity="0.8">
<path d="M183.51 32.8157C183.026 36.5598 181.963 40.2069 180.359 43.6281C180.359 42.709 180.848 41.844 181.12 40.8709C182.302 37.3839 182.943 33.7379 183.021 30.0586C186.399 35.9106 188.265 42.5046 188.454 49.2505C188.021 43.4806 186.334 37.8731 183.51 32.8157Z" fill="#D7DBE0"/>
</g>
<g style="mix-blend-mode:screen" opacity="0.8">
<path d="M194.272 48.6554C193.477 54.0764 191.808 59.334 189.328 64.2252C189.328 63.144 189.98 62.0087 190.36 60.8734C192.37 56.2176 193.618 51.2713 194.054 46.2227C197.243 52.2116 198.991 58.8553 199.161 65.6308C198.711 59.6998 197.047 53.9231 194.272 48.6554Z" fill="#D7DBE0"/>
</g>
<g style="mix-blend-mode:screen" opacity="0.8">
<path d="M146.672 10.8125C146.672 10.8125 147.052 11.5153 147.541 12.5965L149.171 16.489C149.754 17.7669 150.407 19.0121 151.127 20.2192C151.479 20.7582 151.879 21.2648 152.322 21.733L152.104 22.2195C151.673 21.7167 151.29 21.1736 150.964 20.5977C150.261 19.3694 149.661 18.0856 149.171 16.7593C148.628 15.2996 148.084 13.84 147.65 12.7587C147.376 12.0851 147.049 11.4343 146.672 10.8125Z" fill="#D7DBE0"/>
</g>
<g style="mix-blend-mode:screen" opacity="0.8">
<path d="M139.727 20.8672H141.628H145.92C147.36 20.8847 148.796 21.0294 150.211 21.2997C150.856 21.4176 151.491 21.5802 152.113 21.7862V22.2728C151.526 22.0598 150.927 21.8794 150.32 21.7322C148.943 21.4279 147.544 21.229 146.137 21.1375H141.845L139.727 20.8672Z" fill="#D7DBE0"/>
</g>
<g style="mix-blend-mode:screen" opacity="0.8">
<path d="M159.828 19.1406C160.277 21.1534 160.585 23.1946 160.752 25.2496C160.876 26.644 161.149 28.0214 161.567 29.3583C161.739 29.9585 161.976 30.5385 162.273 31.0883H161.784C161.494 30.5033 161.276 29.8863 161.132 29.2502C160.775 27.8694 160.557 26.4569 160.48 25.0334C160.41 23.0557 160.192 21.0861 159.828 19.1406Z" fill="#D7DBE0"/>
</g>
<g style="mix-blend-mode:screen" opacity="0.8">
<path d="M171.555 30.8672C171.766 31.5947 171.929 32.3351 172.044 33.0837C172.044 34.4893 172.37 36.3274 172.533 38.1655C172.658 39.8438 172.931 41.5081 173.347 43.1392C173.728 44.4367 174.054 45.2476 174.054 45.2476H173.565C173.314 44.5922 173.096 43.9246 172.913 43.2473C172.534 41.5777 172.316 39.8762 172.261 38.1655C172.261 36.3274 172.261 34.4893 171.935 33.1378C171.887 32.37 171.759 31.6091 171.555 30.8672Z" fill="#D7DBE0"/>
</g>
<g style="mix-blend-mode:screen" opacity="0.8">
<path d="M150.102 31.7895C152.156 31.8029 154.208 31.6584 156.24 31.357C157.669 31.2508 159.103 31.2508 160.532 31.357C161.196 31.4086 161.852 31.5356 162.488 31.7355V32.222C161.888 32.0155 161.269 31.8706 160.641 31.7895C159.249 31.6762 157.85 31.6762 156.458 31.7895C154.343 31.9718 152.216 31.9718 150.102 31.7895Z" fill="#D7DBE0"/>
</g>
<g style="mix-blend-mode:screen" opacity="0.8">
<path d="M159.008 42.9258C159.755 43.134 160.518 43.2787 161.289 43.3583L166.342 43.6286C168.058 43.7105 169.766 43.9274 171.448 44.2773C172.202 44.4523 172.946 44.6689 173.676 44.9261V45.4667C172.988 45.1661 172.28 44.9132 171.557 44.7098C169.918 44.2953 168.245 44.024 166.559 43.8989C164.712 43.8989 162.865 43.8989 161.452 43.4123C160.627 43.3082 159.81 43.1456 159.008 42.9258Z" fill="#D7DBE0"/>
</g>
<g style="mix-blend-mode:screen" opacity="0.8">
<path d="M183.786 43.8438C183.854 44.6713 183.854 45.503 183.786 46.3306C183.786 47.8443 183.352 49.7905 183.08 51.7368C182.85 53.5296 182.741 55.3357 182.754 57.1429C182.707 57.9532 182.707 58.7655 182.754 59.5757H182.211C182.211 59.5757 182.211 58.6026 182.211 57.0889C182.23 55.2743 182.412 53.465 182.754 51.6827C183.026 49.7365 183.406 47.7903 183.569 46.2765C183.7 45.4719 183.773 44.6588 183.786 43.8438Z" fill="#D7DBE0"/>
</g>
<g style="mix-blend-mode:screen" opacity="0.8">
<path d="M167.324 55.0352C168.077 55.3616 168.859 55.615 169.66 55.792C171.127 56.1704 173.083 56.4948 175.093 56.8733C176.939 57.1918 178.756 57.6619 180.525 58.2789C181.311 58.5413 182.074 58.8667 182.807 59.252V59.7385C182.086 59.3524 181.342 59.0093 180.58 58.7113C178.822 58.0196 177.003 57.4947 175.147 57.1436L169.715 55.9001C168.896 55.6766 168.096 55.3873 167.324 55.0352Z" fill="#D7DBE0"/>
</g>
<g style="mix-blend-mode:screen" opacity="0.8">
<path d="M194.488 62.0078C194.455 62.9587 194.309 63.9023 194.053 64.819C193.673 66.4949 192.858 68.6574 192.152 70.8199C191.492 72.7867 191.037 74.8156 190.794 76.8748C190.712 77.8101 190.712 78.7507 190.794 79.686H190.142C190.067 78.7323 190.067 77.7744 190.142 76.8207C190.436 74.7323 190.965 72.6832 191.717 70.7117C192.478 68.5493 193.293 66.4409 193.727 64.819C194.087 63.9136 194.342 62.9705 194.488 62.0078Z" fill="#D7DBE0"/>
</g>
<g style="mix-blend-mode:screen" opacity="0.8">
<path d="M173.844 70.6562C174.625 71.2106 175.463 71.6818 176.343 72.0619C177.918 72.8187 180.037 73.5215 182.21 74.3865C184.109 75.1222 185.929 76.0459 187.642 77.1437C188.454 77.674 189.235 78.2517 189.978 78.8736L189.598 79.3061C188.905 78.6523 188.16 78.0557 187.371 77.5221C185.672 76.3548 183.851 75.3758 181.938 74.6028C179.819 73.7378 177.701 72.9268 176.125 72.17C175.317 71.7402 174.553 71.2333 173.844 70.6562Z" fill="#D7DBE0"/>
</g>
<g style="mix-blend-mode:screen" opacity="0.8">
<path d="M200.35 83.6875C200.118 84.55 199.752 85.3708 199.264 86.1203C198.231 87.7843 197.106 89.3906 195.896 90.9318C194.706 92.4877 193.771 94.221 193.125 96.0676C192.841 96.8926 192.641 97.7438 192.528 98.6085H191.984C192.143 97.7246 192.379 96.8563 192.691 96.0136C193.397 94.1502 194.406 92.4151 195.678 90.8777C196.934 89.3697 198.112 87.8 199.21 86.1743C199.71 85.4055 200.095 84.5676 200.35 83.6875Z" fill="#D7DBE0"/>
</g>
<g style="mix-blend-mode:screen" opacity="0.8">
<path d="M178.402 87.7422C179.002 88.3795 179.677 88.9423 180.412 89.4181C181.77 90.3372 183.726 91.2021 185.845 92.2293C187.625 93.1063 189.257 94.2555 190.68 95.6352C191.318 96.2882 191.899 96.9935 192.418 97.7436L191.984 98.0139C191.513 97.2749 190.967 96.5864 190.354 95.9596C189.015 94.5482 187.456 93.3615 185.736 92.4456C183.889 91.3643 181.933 90.4453 180.63 89.5262C179.811 89.0318 179.063 88.4319 178.402 87.7422Z" fill="#D7DBE0"/>
</g>
<g style="mix-blend-mode:screen" opacity="0.8">
<path d="M200.342 108.445C199.905 109.223 199.356 109.934 198.713 110.554C197.572 111.689 195.834 112.932 194.149 114.284C192.628 115.511 191.293 116.949 190.184 118.555C189.687 119.276 189.285 120.057 188.989 120.88H188.445C188.825 120.048 189.28 119.252 189.803 118.501C190.969 116.887 192.38 115.464 193.986 114.284C195.671 112.986 197.463 111.797 198.658 110.716C199.311 110.03 199.876 109.268 200.342 108.445Z" fill="#D7DBE0"/>
</g>
<g style="mix-blend-mode:screen" opacity="0.8">
<path d="M179.27 105.961C179.582 106.798 180.022 107.582 180.573 108.286C181.497 109.583 183.018 111.097 184.43 112.719C185.782 114.169 186.883 115.831 187.69 117.638C188.064 118.454 188.355 119.305 188.559 120.179H188.07C187.872 119.334 187.618 118.504 187.31 117.692C186.521 115.913 185.478 114.256 184.213 112.773C182.855 111.097 181.388 109.529 180.465 108.177C179.976 107.49 179.575 106.746 179.27 105.961Z" fill="#D7DBE0"/>
</g>
<g style="mix-blend-mode:screen" opacity="0.8">
<path d="M192.578 131.156C192.037 131.73 191.415 132.222 190.731 132.616C189.481 133.373 187.689 134.022 185.95 134.832C184.367 135.545 182.901 136.493 181.604 137.644C181.055 138.182 180.546 138.76 180.083 139.374L179.648 139.049C180.164 138.43 180.727 137.852 181.333 137.319C182.678 136.181 184.201 135.268 185.841 134.616C187.634 133.859 189.427 133.265 190.676 132.562C191.374 132.185 192.014 131.712 192.578 131.156Z" fill="#D7DBE0"/>
</g>
<g style="mix-blend-mode:screen" opacity="0.8">
<path d="M176.229 124.344C176.229 125.134 176.357 125.919 176.61 126.668C177.044 128.02 177.913 129.696 178.674 131.426C179.408 133.033 179.867 134.75 180.032 136.508C180.1 137.317 180.1 138.131 180.032 138.94H179.272C179.347 138.167 179.347 137.389 179.272 136.616C179.146 134.887 178.742 133.19 178.076 131.588C177.424 129.858 176.61 128.128 176.229 126.722C176.111 125.934 176.111 125.132 176.229 124.344Z" fill="#D7DBE0"/>
</g>
<g style="mix-blend-mode:screen" opacity="0.8">
<path d="M181.603 150.508C180.873 150.913 180.085 151.205 179.267 151.373C177.854 151.697 175.953 151.859 173.834 152.184C172.1 152.4 170.413 152.893 168.836 153.643C168.154 154.008 167.5 154.424 166.881 154.887L166.555 154.454C167.228 153.987 167.937 153.572 168.673 153.211C170.294 152.506 172.018 152.067 173.78 151.913C175.681 151.913 177.583 151.589 179.212 151.265C180.039 151.119 180.843 150.865 181.603 150.508Z" fill="#D7DBE0"/>
</g>
<g style="mix-blend-mode:screen" opacity="0.8">
<path d="M167.262 139.695C167.148 140.466 167.148 141.249 167.262 142.02C167.262 143.426 167.697 145.318 167.969 147.426C168.262 149.216 168.262 151.042 167.969 152.832C167.833 153.634 167.596 154.415 167.262 155.157H166.773C167.115 154.451 167.37 153.707 167.534 152.94C167.818 151.24 167.818 149.505 167.534 147.805C167.244 146.016 167.081 144.21 167.045 142.398C166.98 141.492 167.054 140.58 167.262 139.695Z" fill="#D7DBE0"/>
</g>
<g style="mix-blend-mode:screen" opacity="0.8">
<path d="M168.779 163.105C168.073 163.145 167.366 163.145 166.66 163.105C165.411 163.105 163.727 163.105 162.043 163.105C159.826 163.019 157.618 163.425 155.578 164.294V163.808C156.253 163.553 156.943 163.336 157.642 163.159C159.16 162.847 160.713 162.738 162.26 162.835C163.944 162.835 165.628 163.213 166.878 163.213L168.779 163.105Z" fill="#D7DBE0"/>
</g>
<g style="mix-blend-mode:screen" opacity="0.8">
<path d="M155.798 172.24C155.093 172.301 154.384 172.301 153.68 172.24C152.43 172.24 150.8 171.862 149.116 171.645C146.904 171.389 144.662 171.61 142.543 172.294V171.754C143.235 171.547 143.944 171.402 144.662 171.321C146.211 171.107 147.784 171.107 149.334 171.321C150.963 171.591 152.593 171.97 153.843 172.132C154.492 172.203 155.145 172.239 155.798 172.24Z" fill="#D7DBE0"/>
</g>
<g style="mix-blend-mode:screen" opacity="0.8">
<path d="M139.07 181.322C138.513 181.211 137.967 181.048 137.441 180.836L133.964 179.484C132.232 178.837 130.368 178.614 128.531 178.836V178.403C130.395 178.282 132.26 178.616 133.964 179.376L137.386 180.89C137.937 181.072 138.5 181.217 139.07 181.322Z" fill="#D7DBE0"/>
</g>
<g style="mix-blend-mode:screen" opacity="0.8">
<path d="M124.942 186.512L123.801 185.972L121.519 184.512C120.422 183.876 119.198 183.488 117.934 183.377V182.836C119.258 183.045 120.52 183.543 121.628 184.296L123.801 185.863C124.159 186.116 124.541 186.334 124.942 186.512Z" fill="#D7DBE0"/>
</g>
<g style="mix-blend-mode:screen" opacity="0.8">
<path d="M157.549 150.617C157.549 150.617 157.549 151.428 157.549 152.672C157.549 153.915 157.549 155.591 157.549 157.267C157.515 158.823 157.278 160.367 156.843 161.862C156.611 162.544 156.338 163.212 156.028 163.862H155.539C156.56 161.899 157.153 159.744 157.277 157.537C157.277 155.861 157.277 154.185 157.277 152.942C157.277 151.698 157.549 150.617 157.549 150.617Z" fill="#D7DBE0"/>
</g>
<g style="mix-blend-mode:screen" opacity="0.8">
<path d="M146.667 160.781C146.459 161.363 146.295 161.959 146.178 162.565L145.364 166.566C144.944 168.52 144.111 170.363 142.919 171.972L142.484 171.648C143.766 170.073 144.659 168.221 145.092 166.241C145.472 164.836 145.798 163.376 146.07 162.295C146.341 161.214 146.667 160.781 146.667 160.781Z" fill="#D7DBE0"/>
</g>
<g style="mix-blend-mode:screen" opacity="0.8">
<path d="M134.131 169.266C133.831 169.765 133.577 170.289 133.37 170.833L132.067 174.293C131.406 176.012 130.345 177.55 128.97 178.78L128.59 178.402C130.012 177.289 131.133 175.839 131.849 174.185C132.338 172.942 132.882 171.698 133.316 170.779C133.558 170.26 133.83 169.754 134.131 169.266Z" fill="#D7DBE0"/>
</g>
<g style="mix-blend-mode:screen" opacity="0.8">
<path d="M122.399 177.051C122.144 177.368 121.925 177.712 121.747 178.078L120.661 180.511C120.086 181.736 119.23 182.81 118.162 183.646L117.836 183.16C118.927 182.477 119.825 181.528 120.444 180.403L121.693 178.024C121.907 177.685 122.143 177.36 122.399 177.051Z" fill="#D7DBE0"/>
</g>
<path d="M129.887 5.83734C129.887 5.83734 130.593 6.48608 132.06 7.62138C133.527 8.75667 135.754 10.2163 138.579 12.2166C146.354 17.552 153.627 23.5775 160.309 30.2192C169.788 39.6705 177.61 50.6344 183.451 62.6562C186.632 69.3868 188.88 76.5159 190.133 83.8484C191.364 91.4517 191.456 99.1946 190.405 106.825C189.427 114.466 187.36 121.929 184.266 128.99C181.132 135.786 177.094 142.132 172.26 147.857C163.528 157.813 153.009 166.063 141.241 172.185C136.08 174.942 131.191 177.159 126.79 178.997C122.39 180.835 118.479 182.619 115.382 184.403C112.286 186.187 109.95 187.16 108.266 188.079C107.363 188.514 106.507 189.039 105.712 189.647C105.62 189.728 105.546 189.828 105.495 189.94C105.444 190.052 105.418 190.173 105.418 190.296C105.418 190.419 105.444 190.54 105.495 190.652C105.546 190.764 105.62 190.863 105.712 190.945C105.883 191.1 106.106 191.187 106.337 191.187C106.568 191.187 106.791 191.1 106.962 190.945C106.962 190.945 107.559 190.296 108.972 189.161C111.09 187.596 113.366 186.256 115.762 185.16C118.805 183.646 122.716 181.916 127.116 180.078C131.517 178.24 136.243 175.861 141.241 172.996C153.316 166.936 164.135 158.664 173.129 148.614C178.149 142.918 182.371 136.571 185.678 129.747C188.902 122.577 191.079 114.986 192.143 107.203C194.152 91.7553 191.565 76.0605 184.701 62.0615C178.696 49.9996 170.688 39.0332 161.015 29.6245C154.225 23.0044 146.843 17.0148 138.959 11.7301L132.331 7.29701C131.543 6.77689 130.782 6.21754 130.05 5.62109C130.05 5.62109 129.832 5.78328 129.887 5.83734Z" fill="#D7DBE0"/>
<g style="mix-blend-mode:screen" opacity="0.8">
<g style="mix-blend-mode:screen" opacity="0.8">
<path d="M184.971 130.346C188.189 123.08 190.365 115.4 191.436 107.532C193.474 91.9949 190.946 76.203 184.156 62.0659C178.087 49.9071 170.007 38.8505 160.253 29.3585C155.33 24.4297 150.027 19.8927 144.391 15.7891C150.198 19.9858 155.649 24.6508 160.688 29.737C170.362 39.1456 178.369 50.1121 184.374 62.174C191.243 76.114 193.868 91.7483 191.925 107.153C190.935 114.944 188.831 122.553 185.678 129.751C183.171 135.155 180.074 140.267 176.442 144.997C179.777 140.413 182.635 135.504 184.971 130.346Z" fill="#D7DBE0"/>
</g>
<path d="M126.305 179.379C121.905 181.271 118.102 183.001 115.006 184.785C111.909 186.569 109.573 187.813 107.835 188.732C106.932 189.167 106.077 189.692 105.282 190.3C105.22 190.183 105.188 190.053 105.188 189.921C105.188 189.789 105.22 189.659 105.282 189.543C106.077 188.935 106.932 188.41 107.835 187.975C109.465 187.056 111.855 185.758 114.952 184.299C118.048 182.839 121.959 180.947 126.36 178.893L132.824 176.027C130.725 177.281 128.547 178.4 126.305 179.379Z" fill="#D7DBE0"/>
</g>
<path d="M104.144 26.8131L108.382 26.9753L104.959 29.5162L106.154 33.5708L102.677 31.0839L99.1464 33.5167L100.45 29.4621L97.082 26.8671L101.319 26.8131L102.786 22.8125L104.144 26.8131Z" fill="#D7DBE0"/>
<path d="M121.797 30.3837L125.328 30.4918L122.503 32.6002L123.481 35.9521L120.602 33.9518L117.723 35.898L118.755 32.5462L115.984 30.4378L119.515 30.3837L120.656 27.0859L121.797 30.3837Z" fill="#D7DBE0"/>
<path d="M84.1991 30.3837L80.668 30.4918L83.4929 32.6002L82.515 35.9521L85.3942 33.9518L88.2735 35.898L87.2413 32.5462L90.0118 30.4378L86.4807 30.3837L85.2856 27.0859L84.1991 30.3837Z" fill="#D7DBE0"/>
<path d="M136.465 38.8718L139.616 38.98L137.063 40.8181L137.932 43.8455L135.379 42.0074L132.771 43.7914L133.749 40.764L131.25 38.8718L134.401 38.8178L135.433 35.8984L136.465 38.8718Z" fill="#D7DBE0"/>
<path d="M69.5337 38.8718L66.3828 38.98L68.9361 40.8181L68.0126 43.8455L70.5658 42.0074L73.1734 43.7914L72.2499 40.764L74.7488 38.8718L71.598 38.8178L70.5115 35.8984L69.5337 38.8718Z" fill="#D7DBE0"/>
<path d="M147.539 49.3015L150.69 49.4096L148.191 51.3018L149.061 54.2752L146.453 52.4912L143.9 54.2211L144.823 51.2477L142.324 49.3556L145.475 49.3015L146.562 46.3281L147.539 49.3015Z" fill="#D7DBE0"/>
<path d="M58.4477 49.3015L55.2969 49.4096L57.7958 51.3018L56.9266 54.2752L59.4799 52.4912L62.0875 54.2211L61.164 51.2477L63.6629 49.3556L60.5121 49.3015L59.4256 46.3281L58.4477 49.3015Z" fill="#D7DBE0"/>
<path d="M154.663 60.2265L157.543 60.3346L155.207 62.0106L156.022 64.7677L153.686 63.0918L151.295 64.7136L152.164 62.0106L149.883 60.2265H152.762L153.74 57.5234L154.663 60.2265Z" fill="#D7DBE0"/>
<path d="M51.3402 60.2265L48.4609 60.3346L50.7426 62.0106L49.9277 64.7677L52.318 63.0918L54.654 64.7136L53.7848 62.0106L56.0664 60.2265H53.1872L52.2637 57.5234L51.3402 60.2265Z" fill="#D7DBE0"/>
</svg>
