<svg width="587" height="286" viewBox="0 0 587 286" fill="none" xmlns="http://www.w3.org/2000/svg">
<mask id="mask0_1240_114680" style="mask-type:alpha" maskUnits="userSpaceOnUse" x="0" y="0" width="587" height="286">
<rect width="587" height="286" rx="23" fill="#51A747"/>
</mask>
<g mask="url(#mask0_1240_114680)">
<g opacity="0.32">
<g style="mix-blend-mode:overlay">
<g style="mix-blend-mode:overlay">
<mask id="mask1_1240_114680" style="mask-type:luminance" maskUnits="userSpaceOnUse" x="428" y="209" width="3" height="3">
<path d="M428.793 211.682L429.109 209.816L430.694 210.103L430.378 211.969L428.793 211.682Z" fill="white"/>
</mask>
<g mask="url(#mask1_1240_114680)">
<mask id="mask2_1240_114680" style="mask-type:luminance" maskUnits="userSpaceOnUse" x="428" y="209" width="3" height="3">
<path d="M428.793 211.682L429.109 209.816L430.694 210.103L430.378 211.969L428.793 211.682Z" fill="white"/>
</mask>
<g mask="url(#mask2_1240_114680)">
<path d="M429.8 210.95C429.63 210.636 429.587 210.265 429.68 209.918C428.405 210.573 428.823 212.295 430.429 211.742C430.141 211.556 429.92 211.278 429.8 210.95Z" fill="white"/>
</g>
</g>
</g>
<path d="M609.475 486.958L609.464 489.24C607.778 487.966 605.931 486.774 605.078 487.063C608.091 494.265 606.906 505.775 597.835 495.996C595.241 493.201 592.964 500.167 590.36 500.596C586.751 501.189 583.098 496.03 581.296 493.226C579.254 490.019 577.572 483.583 573.405 482.484C570.635 481.761 573.635 489.515 573.757 490.216C575.62 500.726 565.359 491.963 562.57 487.791C561.825 487.504 561.019 487.43 560.236 487.576L560.023 487.732C559.599 488.041 559.105 488.233 558.589 488.289C558.985 489.592 560.284 493.703 558.296 494.215C561.239 509.184 541.771 513.595 535.331 500.374C535.11 500.508 534.858 500.58 534.602 500.582C534.345 500.585 534.092 500.517 533.869 500.387C531.888 504.181 530.023 504.674 527.853 504.835C527.035 508.563 524.97 515.775 522.27 518.276C517.28 522.91 508.477 522.702 505.362 515.315C503.498 510.978 503.725 502.756 504.39 498.197C503.615 496.922 501.956 496.276 501.239 492.285C499.814 484.331 509.994 478.144 516.434 478.312C514.908 470.949 508.714 469.885 502.647 471.154C501.77 473.958 504.738 476.598 502.244 479.151C500.171 481.268 496.697 481.068 494.715 483.201C493.819 484.147 495.277 486.528 494.393 488.029C493.51 489.53 492.73 489.943 492.198 491.66C491.569 493.636 485.389 519.385 481.153 537.291C492.997 529.661 505.617 524.331 517.497 524.403C522.763 520.981 528.603 519.629 534.669 518.996C539.406 518.468 547.155 521.42 551.271 519.811C555.387 518.203 558.521 521.123 562.459 520.727C566.396 520.332 571.039 510.86 578.216 511.659C582.883 512.171 581.504 514.939 584.793 517.264C585.14 517.507 590.815 514.201 593.354 515.186C595.704 516.096 600.256 515.867 601.998 517.76C602.664 518.489 602.373 519.973 602.998 520.709C603.964 521.728 606.892 520.334 608.305 521.004C608.701 521.194 609.079 521.42 609.436 521.68L609.425 523.878C609.181 523.709 608.954 523.515 608.747 523.299C606.798 521.203 604.789 523.344 602.522 522.256C599.821 520.965 601.358 518.613 597.561 518.259C594.926 518.003 592.604 515.895 590.071 516.461C587.291 517.066 585.674 520.842 582.782 517.593C580.164 514.628 578.525 513.155 574.389 513.694C570.981 514.13 565.704 522.2 562.409 522.365C568.086 524.666 573.565 527.663 579.355 529.929L579.366 529.861L579.629 530.047C582.395 531.115 585.096 532.088 587.756 533.067C593.732 532.916 599.646 531.77 605.27 529.674C602.757 531.628 596.317 533.674 590.815 534.216C597.337 536.482 603.561 539.579 609.342 543.435L609.341 548.819C608.407 546.222 606.887 543.893 604.907 542.024C597.91 537.478 590.544 535.579 583.02 532.958C587.075 537.401 589.403 546.75 588.083 553.044C587.559 542.375 584.49 535.273 578.872 531.433C569.722 527.896 561.262 522.103 551.603 521.408C546.649 523.142 539.834 519.736 534.354 520.462C537.575 521.817 540.925 522.817 544.348 523.445L544.959 523.556C550.628 524.719 552.416 527.368 554.78 532.073C554.984 532.528 555.306 532.916 555.71 533.194C556.114 533.473 556.585 533.63 557.07 533.65C558.679 533.719 561.188 532.028 562.359 534.053C563.304 535.746 562.458 537.738 563.688 539.414L564.202 539.936C566.612 541.521 568.79 535.935 571.902 537.01C575.771 538.361 576.238 543.04 576.164 546.086C576.128 547.325 574.502 555.903 576.957 555.406C580.956 554.565 581.633 561.719 582.797 563.702C583.962 565.684 586.67 569.938 589.373 570.109C590.922 570.209 591.211 560.752 593.044 559.257C600.132 553.147 602.298 572.073 603.208 574.452C604.876 578.2 606.79 579.155 609.287 578.569L609.287 581.337C607.411 581.662 605.565 581.093 603.594 578.577C603.223 581.957 600.7 582.857 598.015 584.558C596.52 585.478 599.296 591.545 598.759 593.136C596.82 598.737 587.257 596.689 583.298 589.537C584.656 600.662 572.418 593.452 571.579 587.57C571.387 586.331 568.115 585.089 567.21 584.662C564.937 583.614 566.402 580.101 567.041 578.458C567.681 576.816 571.412 570.833 569.03 569.004C567.401 569.61 567.917 573.759 567.474 574.952C567.245 575.642 566.873 576.272 566.384 576.798C565.895 577.325 565.3 577.734 564.642 577.999C563.984 578.263 563.278 578.376 562.574 578.33C561.869 578.283 561.183 578.079 560.563 577.73C557.388 575.493 554.738 572.549 552.807 569.116C551.163 565.856 554.859 563.244 555.356 560.151C548.334 563.185 545.229 561.516 547.566 555.143C547.837 554.417 551.289 546.681 549.69 545.921C548.475 545.189 545.678 550.4 543.867 548.121C542.057 545.842 543.472 540.091 543.796 537.464L543.967 536.457C544.126 535.473 544.235 534.481 544.296 533.485C541.768 532.599 538.796 531.327 540.738 527.762C540.624 525.983 534.897 523.425 533.462 522.487C533.451 524.769 531.37 524.877 529.669 524.722C528.286 524.984 526.991 525.275 525.646 525.544C530.255 527.114 534.085 530.486 536.318 534.938C538.55 539.391 539.007 544.57 537.59 549.366C540.273 551.308 542.351 554.017 543.57 557.16C544.788 560.303 545.094 563.745 544.45 567.065C544.084 569.739 542.712 572.157 540.633 573.793C539.394 574.696 537.964 575.277 536.462 575.488C534.96 575.698 533.431 575.531 532.005 575.001C527.463 581.419 512.918 592.824 505.64 584.393C501.161 579.209 502.165 573.992 506.18 568.545C507.607 566.603 509.077 563.616 510.417 561.477C511.163 559.287 509.341 558.182 509.43 555.997C508.691 557.829 504.75 562.598 502.614 558.917C493.193 563.705 481.655 557.895 485.982 547.923C483.349 545.675 489.615 541.728 491.404 540.889C493.406 539.991 495.576 539.567 497.757 539.648C499.937 539.729 502.073 540.312 504.007 541.355C507.2 537.919 502.386 533.767 498.822 533.303C489.319 536.512 477.643 545.446 464.545 557.555C464.9 559.253 465.333 560.812 465.881 561.133C467.446 562.011 469.985 559.591 471.959 561.457C476.584 565.781 477.578 575.733 474.798 580.919C472.59 585.101 463.686 589.443 468.056 595.908C469.959 592.972 470.617 588.689 474.507 587.386C477.099 586.47 477.834 591.462 479.998 592.684C484.388 595.152 482.462 600.355 480.401 603.83L478.493 603.789C480.179 600.315 482.06 596.877 478.646 594.972L478.093 594.678C477.09 594.23 476.236 593.487 475.637 592.542C475.038 591.598 474.719 590.492 474.721 589.362C472.725 590.635 469.742 599.078 467.322 597.713C464.901 596.348 465.29 591.519 465.856 589.365C467.104 584.524 472.548 583.059 473.715 578.536C474.721 574.649 473.552 570.008 471.652 566.356C471.238 565.562 469.524 562.234 468.063 562.718C466.602 563.201 464.656 563.306 463.851 561.416C462.35 557.864 462.618 554.065 458.315 552.11C453.592 549.872 454.344 554.686 451.21 555.559C448.076 556.432 446.177 548.821 445.243 547.061C443.83 544.411 438.167 538.86 435.609 543.45C434.109 546.141 431.398 547.367 429.902 549.795C425.735 556.53 438.36 563.671 438.021 570.102C437.774 575.04 422.369 564.627 425.376 571.469C426.675 574.472 432.125 578.115 427.514 580.59C423.42 582.784 422.117 584.943 426.227 589.382C427.876 590.953 440.257 598.743 439.951 603.241L437.8 603.212C437.931 602.592 437.857 601.945 437.588 601.374C435.672 596.239 427.934 593.774 424.228 589.878C417.284 586.2 413.974 592.066 407.529 587.661C404.086 585.294 400.915 586.465 400.124 590.267C399.222 594.644 402.344 595.665 403.235 599.259C404.021 602.529 391.238 592.369 395.578 602.566L392.145 602.513C390.693 597.641 392.437 592.877 399.873 597.682C394.392 590.504 397 581.743 403.933 583.191C405.908 583.548 410.908 589.061 412.663 588.34C415.844 587.033 418.136 585.441 421.917 586.914C419.227 582.081 421.932 580.341 425.449 578.472C428.321 576.929 421.363 571.754 420.826 569.47C418.921 561.263 434.166 570.803 436.197 569.883C436.794 567.222 429.55 558.992 428.004 556.497C423.791 549.742 427.143 548.134 430.634 544.045C433.377 540.818 436.186 536.246 442.413 541.234C446.766 544.706 446.644 551.522 450.624 553.875C450.437 552.609 453.231 550.346 454.311 550.057C455.685 549.659 457.134 549.622 458.526 549.949C459.918 550.276 461.21 550.956 462.283 551.928C466.175 548.479 470.276 545.138 474.54 542.019C475.354 537.211 476.264 531.839 477.318 526.161C477 519.183 473.531 512.936 464.977 512.995C465.491 520.008 459.782 531.267 451.551 530.443C449.391 530.232 447.877 527.785 445.645 527.755C443.305 528.287 440.138 528.642 437.995 529.279C431.946 531.077 428.727 529.762 425.748 523.783C420.673 513.578 430.8 507.312 438.038 505.133C437.889 503.757 438.116 502.366 438.695 501.117C439.273 499.868 440.179 498.813 441.31 498.07C443.517 496.684 446.125 496.142 448.68 496.538C455.25 497.283 461.308 501.05 463.721 507.286C466.765 507.338 469.759 508.094 472.482 509.499C475.206 510.904 477.591 512.923 479.461 515.406C482.736 500.095 487.2 483.849 493.635 471.227C498.95 460.849 507.723 452.812 518.329 448.605C521.165 443.083 525.088 441.19 530.731 440.37C533.174 440.023 536.494 431.64 539.811 436.254C542.852 436.804 541.746 429.49 547.381 432.516C551.847 434.929 551.12 434.161 554.799 430.466C557.189 428.13 562.504 422.682 566.271 424.083C567.268 424.444 567.631 426.336 567.938 428.081C570.944 423.932 573.417 420.476 573.999 419.488C574.664 418.269 575.168 416.963 575.5 415.607C576.13 414.018 578.683 413.179 578.898 411.986C579.353 409.3 577.281 407.458 577.656 404.771C578.093 401.556 581.716 401.353 583.262 398.864C580.705 394.512 576.221 391.805 570.026 396.125C574.016 399.614 575.276 409.808 568.578 414.646C565.25 417.061 563.849 416.559 562.483 417.031C559.514 420.647 553.547 426.627 549.324 428.631C542.189 432.019 537.167 427.111 537.655 420.985C537.948 417.674 541.952 411.422 544.139 408.316C543.028 406.966 542.206 405.572 543.715 401.803C543.504 401.781 543.305 401.691 543.147 401.546C542.989 401.4 542.879 401.207 542.834 400.993C529.6 406.628 520.471 392.921 532.677 384.179C531.723 382.775 535.435 380.623 536.584 379.931C536.283 379.611 536.085 379.203 536.018 378.763L535.974 378.547C535.927 378.193 534.482 377.391 534.285 377.453C529.561 378.854 516.639 379.48 525.074 373.24C525.642 372.817 532.988 369.052 530.601 368.122C526.995 366.722 521.441 370.258 517.854 371.353C514.687 372.344 508.675 373.998 506.552 371.745C505.013 370.083 508.053 364.224 504.325 364.809C491.277 366.893 498.022 358.534 504.995 355.158C504.232 353.968 497.686 354.584 496.26 354.547C493.072 354.469 487.516 354.461 485.187 352.794C483.417 351.463 479.571 342.38 481.929 340.398C483.972 338.608 488.946 338.497 491.543 337.555C493.842 336.711 492.39 334.843 493.838 333.569C497.574 330.327 507.12 333.424 509.73 335.889C510.329 334.087 507.606 332.612 508.473 330.499C509.339 328.386 512.081 327.456 514.513 327.093C514.353 326.091 513.865 325.177 513.13 324.503C511.62 323.538 509.859 321.836 510.026 320.689C510.274 319.225 514.971 315.687 515.167 315.875C513.973 313.832 509.572 312.537 507.845 310.398C504.927 306.825 508.815 304.663 509.51 302.062C510.539 298.359 513.331 293.493 520.323 294.592C521.496 294.83 522.598 295.352 523.54 296.114C524.481 296.876 525.235 297.857 525.741 298.976C526.17 299.926 525.329 303.705 527.466 303.815C529.023 303.875 529.522 299.19 531.56 298.7C534.593 297.948 535.762 301.246 537.843 301.926C541.235 302.54 551.058 296.565 550.494 303.453C550.29 305.769 548.579 307.965 548.211 310.293C548.109 310.898 549.123 313.849 548.993 314.061C551.906 312.678 549.098 306.716 553.002 304.779C556.565 303.111 564.334 304.447 566.559 306.095C569.008 307.922 567.145 314.105 571.126 313.842C583.6 313.177 574.096 326.837 575.289 332.049C575.732 333.942 580.31 328.417 582.336 328.95C585.98 329.886 586.089 336.286 586.11 339.169C586.162 343.608 585.107 343.749 589.799 344.431C595.693 345.29 586.739 350.716 589.159 351.928C594.557 350.496 590.933 358.063 592.248 359.629C595.319 363.244 592.483 368.447 590.306 373.867C595.241 386.566 590.665 400.701 581.972 415.186C583.598 414.76 585.479 415.197 587.701 417.024C590.782 419.547 594.159 412.656 597.548 412.41C600.675 412.132 606.169 412.585 607.755 416.194C609.406 420.285 602.436 424.354 603.74 427.33C603.788 427.048 606.948 424.837 607.337 424.202C608.264 422.364 609.036 420.448 609.645 418.474L609.639 423.497C609.274 424.659 608.686 425.734 607.911 426.657C607.136 427.579 606.189 428.332 605.127 428.868C601.191 430.523 601.918 425.52 603.19 423.618C604.827 421.146 607.968 418.101 603.586 416.215C601.602 415.358 595.308 414.095 594.116 416.786C590.32 425.125 583.157 414.279 578.114 420.813C577.069 422.161 569.15 439.428 566.433 430.563C563.785 421.918 556.233 432.594 552.567 435.502C549.226 438.15 547.685 432.695 544.333 433.432C543.36 433.643 542.504 436.326 541.863 437.027C539.829 438.998 539.589 436.615 537.606 436.783C535.359 436.999 535.15 439.425 533.842 440.739C532.535 442.053 530.342 442.113 528.517 442.06C525.455 441.949 522.402 445.591 520.84 447.855C522.792 447.557 524.815 448.657 526.686 448.206C528.902 447.694 529.525 444.886 531.669 444.083C535.356 442.715 542.318 450.161 544.632 446.22C547.212 441.897 548.708 436.936 555.317 440.221C559.223 442.145 562.018 439.163 565.881 439.363C569.523 438.621 573.205 438.108 576.907 437.828C583.265 435.711 594.173 430.763 595.96 427.169C594.997 430.801 587.465 434.948 581.765 437.613C585.875 437.539 590.308 437.774 596.342 438.048L597.671 438.108C601.617 438.304 605.572 438.266 609.515 437.994L609.513 439.586C605.589 440.036 601.636 440.159 597.693 439.953L596.364 439.893C584.022 439.308 578.364 439.032 568.593 440.823C570.516 443.468 568.165 446.752 569.75 449.337C571.943 452.917 576.169 447.729 577.192 446.115C579.396 442.666 590.414 436.118 593.353 443.127C595.262 448.22 598.091 445.036 601.487 447.367C605.085 449.844 597.588 454.579 596.786 456.385C595.711 458.862 601.495 456.337 601.854 456.112C604.849 454.245 606.477 451.743 609.534 451.327L609.534 454.096C609.501 454.082 609.466 454.075 609.43 454.077C604.97 454.004 600.875 462.689 595.788 458.724C592.087 455.826 599.263 452.432 599.257 449.856C599.267 448.848 595.943 449.105 595.809 449.108C593.179 449.214 591.559 446.761 590.716 444.464C587.169 435.988 575.221 451.669 572.725 452.172C563.437 454.036 572.202 439.44 562.328 443.025C558.32 444.474 556.968 443.44 553.07 442.735C547.054 441.647 548.414 445.16 545.457 448.154C542.499 451.149 538.816 447.826 535.984 446.441C531.378 444.224 531.147 448.515 527.67 449.907C525.351 450.872 522.775 449.395 520.349 449.884C516.276 450.593 512.457 452.405 509.282 455.135C503.915 460.103 498.746 465.48 495.121 472.022C485.731 488.968 479.258 523.01 476.217 540.579C477.266 539.841 478.328 539.106 479.387 538.384C483.413 519.983 490.215 489.613 491.762 488.149C493.975 486.071 491.444 483.856 493.261 481.9C495.079 479.945 497.472 479.811 499.517 478.727C503.931 476.383 497.852 470.605 502.733 468.111C509.658 460.034 522.054 456.269 539.116 456.891C539.194 456.905 539.272 456.919 539.35 456.933C554.979 457.619 570.394 460.945 584.983 466.777C591.253 469.295 597.485 472.748 603.713 475.508C605.395 476.255 607.374 477.139 609.424 477.924L609.431 479.31C607.11 478.544 604.847 477.512 602.805 476.603C595.779 473.491 588.878 470.112 581.699 467.429C586.609 471.653 591.001 479.562 591.367 483.019C588.733 476.743 580.494 466.561 574.389 465.124L574.4 465.057C564.94 462.127 555.217 460.193 545.38 459.283C552.877 463.49 560.132 472.291 562.61 478.22C559.076 472.044 547.518 460.182 539.17 458.866C527.81 458.417 518.629 459.968 511.861 463.478C514.882 463.116 517.923 463.953 520.37 465.819C521.852 467.029 524.184 470.578 526.412 469.68C531.88 467.444 531.481 471.774 535.19 475.42C541.073 481.246 538.898 471.786 542.787 469.541C547.543 466.761 550.835 478.084 552.439 480.796C553.284 482.208 556.49 487.951 558.865 486.263L559.077 486.121C563.803 482.726 566.358 494.054 571.687 492.083C572.585 491.761 567.119 475.478 575.623 481.722C578.992 484.214 584.81 500.865 590.442 497.025C592.967 495.323 594.483 489.451 598.408 493.636C600.322 495.698 604.761 498.272 604.249 493.308C604.091 491.632 601.386 485.219 604.924 485.125C606.544 485.25 608.096 485.848 609.4 486.848M527.653 335.781C527.787 336.096 530.449 340.619 531.221 338.433C531.858 336.804 529.249 329.993 533.6 330.074C537.686 330.148 537.732 333.673 542.494 331.17C549.321 327.865 553.131 337.717 552.357 341.259C552.089 342.844 551.528 348.528 555.488 347.209C558.325 346.269 558.907 342.831 562.019 342.01C556.273 335.849 551.982 333.191 542.336 327.598L541.261 326.989C527.188 318.907 523.009 311.397 521.606 308.61C522.988 311.282 528.77 317.947 542.5 325.759L543.575 326.369C548.323 329.096 551.74 331.14 554.71 333.213C552.312 328.627 549.338 322.151 550.952 319.26C550.063 322.532 554.954 331.14 558.106 335.779C560.55 337.84 562.827 340.103 564.915 342.547C565.471 342.913 565.968 343.367 566.387 343.893C565.324 337.915 565.308 330.493 566.316 327.146C566.08 333.641 566.72 340.139 568.217 346.453C569.054 347.603 570.297 348.365 571.675 348.573C578.432 349.795 576.04 353.957 574.768 358.309C573.618 362.253 583.325 360.839 584.744 363.767C585.566 365.48 583.984 367.782 585.017 369.353C585.892 370.674 587.921 371.027 588.937 372.305C589.589 369.876 594.196 363.94 592.159 362.368C590.98 361.421 589.58 360.282 589.641 358.576C589.702 356.871 591.261 355.174 589.936 353.827C588.61 352.48 586.929 354.183 586.944 351.722C586.953 350.879 590.389 347.196 589.819 346.525C588.058 344.269 584.386 347.688 583.913 344.073C583.426 340.151 585.285 329.012 577.574 333.583C569.863 338.155 575.535 322.529 575.598 321.129C576.137 314.305 563.644 318.095 566.167 310.703C566.988 308.305 561.293 306.195 559.183 305.841C554.557 305.005 551.948 309.419 551.597 311.888C551.277 313.782 548.676 317.436 546.715 314.466C544.754 311.495 547.292 307.815 548.223 304.607C549.296 300.883 540.855 303.675 537.642 303.828C535.307 303.932 533.738 300.464 531.657 300.974C529.785 301.507 530.485 304.651 527.711 305.215C523.33 306.098 524.436 300.831 523.6 299.364C522.476 297.459 518.629 296.057 515.671 297.072C511.646 298.462 512.715 303.459 511.026 305.921C510.175 307.152 508.256 308.286 509.338 309.644C510.605 311.257 516.95 313.886 516.884 315.701C516.789 317.843 512.691 318.555 512.446 320.712C512.148 323.108 516.428 324.089 516.215 326.93C518.381 326.808 520.552 327.088 522.623 327.757C527.291 329.376 526.377 332.477 527.635 335.888M544.844 398.616C544.566 399.147 543.803 400.254 544.449 400.233C545.663 398.419 547.293 396.945 549.193 395.942L549.021 395.772C550.444 394.646 551.323 392.618 552.326 391.359C551.183 390.714 549.999 390.148 548.782 389.667C550.254 389.836 551.893 389.565 553.135 390.218C553.65 389.467 554.158 388.687 554.661 387.851C553.227 386.59 551.571 385.628 549.784 385.017C549.45 385.801 548.76 386.95 548.294 387.807C548.534 386.813 548.705 385.803 548.805 384.785C547.242 384.336 545.641 384.047 544.024 383.92C545.669 383.775 547.324 383.806 548.963 384.01C548.973 382.988 548.662 381.991 548.078 381.166C547.493 380.342 546.666 379.735 545.72 379.438C543.284 380.437 540.664 380.866 538.048 380.694C536.486 381.57 535.02 382.619 533.675 383.82C540.137 386.152 549.275 389.922 544.82 398.598M568.184 384.068C568.078 382.401 558.188 385.997 555.775 384.592C556.708 387.555 556.545 390.77 555.318 393.617C558.804 392.917 562.393 392.972 565.857 393.779C571.27 389.014 577.397 387.63 582.812 390.769C582.124 389.339 581.018 388.17 579.652 387.426C578.285 386.682 576.727 386.401 575.197 386.623C572.29 387.025 568.389 387.288 568.177 384.108M553.886 392.901C553.683 392.754 553.494 392.609 553.289 392.475C552.595 393.332 550.997 394.621 550.101 395.483C551.16 394.959 552.252 394.509 553.369 394.136C553.602 393.733 553.783 393.301 553.908 392.85M553.562 384.136C552.642 382.679 551.37 381.495 549.872 380.701C550.269 381.73 550.344 382.861 550.087 383.937C551.485 384.235 552.839 384.722 554.114 385.385C553.966 384.956 553.781 384.543 553.56 384.15M554.889 382.784C555.156 381.762 555.669 380.826 556.381 380.064C555.435 380.397 554.515 380.804 553.63 381.283C554.102 381.734 554.524 382.237 554.889 382.784ZM557.518 378.249C560.565 372.198 551.114 377.396 548.747 378.324C550.091 378.779 551.356 379.451 552.494 380.317C554.073 379.402 555.763 378.706 557.518 378.249ZM542.92 400.012C543.88 398.777 544.528 397.315 544.805 395.757C541.59 397.584 536.311 400.131 533.009 398.911C535.587 399.502 541.264 397.055 544.881 394.913C545.295 388.593 538.358 385.982 533.238 384.585C521.657 392.083 531.018 405.611 542.946 400.016M561.674 415.958C561.501 414.759 561.136 413.598 560.595 412.524C560.595 412.524 553.27 421.538 549.147 424.059C552.558 421.313 560.151 411.903 560.151 411.903C559.966 411.649 559.427 410.721 559.225 410.49C555.915 414.219 552.561 417.95 549.161 421.681L558.586 409.835C556.402 408.304 553.878 407.372 551.251 407.124C551.251 407.124 544.777 415.144 543.825 418.239C543.326 415.809 550.028 407.069 550.026 407.083C548.353 407.056 546.697 407.424 545.183 408.158C538.354 415.99 536.636 432.704 548.833 427.02C554.068 424.642 558.532 420.761 561.694 415.837M544.868 407.492C553.794 404.207 561.391 407.975 562.703 415.258C566.737 413.814 569.704 412.662 570.857 408.303C572.01 403.944 571.305 399.013 567.835 396.573C562.734 393.006 541.602 394.112 544.868 407.492ZM583.023 395.693C583.134 395.035 582.448 392.917 582.691 392.269C578.376 388.651 572.283 389.28 566.778 393.876C567.647 394.193 568.474 394.622 569.24 395.152C570.068 394.546 570.95 394.024 571.874 393.594C573.73 392.78 575.776 392.545 577.759 392.919C579.742 393.292 581.576 394.257 583.035 395.695M568.275 429.567C568.454 430.333 568.699 430.862 569.063 430.928C571.196 427.978 573.398 424.86 575.51 421.796C576.344 420.269 577.323 418.833 578.432 417.507C581.592 413.124 584.406 408.486 586.847 403.637C589.334 397.291 590.709 390.537 590.906 383.692C591.009 380.164 589.952 376.704 587.908 373.876C586.732 372.196 584.107 371.805 583.306 369.888C582.064 367.02 584.936 363.899 580.459 362.978C577.626 362.466 572.888 362.689 573.078 359.111C573.269 355.533 576.664 353.752 571.705 351.402C568.533 349.887 566.928 349.874 565.128 346.821C560.602 339.304 556.922 353.767 551.66 347.749C550.302 346.119 552.069 329.511 543.743 333.528C541.608 334.664 538.784 335.524 536.939 334.166C536.835 334.147 534.567 332.353 533.855 332.999C532.224 334.725 535.26 340.52 530.62 340.719C524.247 340.95 526.858 333.118 523.387 330.995C519.917 328.873 507.836 329.041 510.785 333.533C515.465 340.774 502.092 334.729 500.099 334.715C496.18 334.767 496.76 336.243 494.934 337.933C492.776 339.924 488.69 340.167 485.989 341.492C482.519 343.162 486.946 346.039 486.953 348.214C486.984 351.513 490.208 352.719 493.927 353.06C497.342 353.373 503.705 352.254 506.346 354.06C508.986 355.866 502.684 358.837 501.449 359.887C497.823 362.955 502.75 363.431 505.502 363.001C511.145 362.098 508.286 366.882 508.903 369.333C510.287 374.843 525.594 366.455 529.621 366.477C539.759 366.553 524.886 374.908 525.277 375.602C527.52 379.759 537.024 373.297 537.825 378.134L537.869 378.35C538.26 380.788 544.335 378.523 545.87 377.997C548.814 376.98 558.844 370.89 560 375.376C560.919 379.044 552.879 384.456 560.697 383.6C565.589 383.1 568.436 379.809 570.233 384.383C570.96 386.258 574.925 385.065 576.699 385.026C577.986 385.003 579.261 385.269 580.438 385.807C581.614 386.345 582.663 387.141 583.511 388.141C581.987 381.872 577.447 375.708 569.804 369.91C563.488 366.318 547.525 368.456 540.938 370.822C546.672 368.038 557.609 365.767 565.458 366.868C558.063 362.114 550.114 358.351 541.802 355.669L541.677 355.854C536.418 353.699 523.694 356.478 517.624 359.422C520.203 357.244 528.642 354.064 534.976 353.673C528.063 351.869 520.748 350.699 513.556 349.357C508.359 348.417 501.605 347.334 498.953 343.38C502.269 346.18 509.005 347.288 513.627 348.151C520.123 349.326 526.867 350.075 533.138 351.555C547.529 354.988 560.6 360.674 571.022 368.566C571.082 368.583 571.143 368.594 571.204 368.599C582.697 377.363 587.38 386.958 585.494 396.597C586.493 401.137 578.785 401.737 579.588 405.937C579.954 407.886 581.153 409.584 580.739 411.793C580.325 414.237 577.269 414.335 576.933 417.112C576.817 418.35 572.865 423.892 568.456 429.766M441.245 527.403C442.975 527.078 444.687 526.658 446.373 526.143C447.068 524.737 447.528 523.22 447.736 521.656C447.736 521.656 435.919 526.038 433.985 524.802C436.431 524.829 447.918 520.498 447.918 520.498C448.245 517.101 447.289 513.705 445.251 511.019C445.251 511.019 434.726 515.759 432.023 516.932C435.582 514.184 444.706 510.284 444.706 510.284C444.399 509.882 443.52 508.906 443.143 508.52C443.143 508.52 432.133 513.117 429.27 515.949C430.741 512.326 442.441 507.922 442.441 507.922C441.326 507.123 440.136 506.443 438.887 505.895C437.8 506.46 437.344 506.544 435.695 507.27C430.343 509.61 423.533 513.375 426.125 520.765C429.167 529.454 434.555 528.559 441.241 527.429M462.973 509.961C461.524 503.885 456.948 499.985 451.081 498.412C446.316 497.135 440.213 498.855 439.09 504.617C447.302 508.871 451.621 517.611 447.221 526.518C458.165 533.065 465.425 520.315 462.969 509.988M478.195 521.378L478.953 517.612C477.424 514.972 475.276 512.774 472.706 511.22C470.137 509.667 467.229 508.808 464.254 508.725C464.484 509.545 464.67 510.378 464.809 511.22C472.383 511.095 476.579 515.577 478.195 521.378ZM565.921 541.645C568.989 544.858 571.692 548.421 573.98 552.266C574.146 548.988 575.414 544.898 574.086 541.668C571.617 535.685 569.585 540.73 565.933 541.578M559.28 534.838L558.817 534.962C559.651 535.653 560.446 536.336 561.15 537.003C560.984 535.133 561.37 534.275 559.241 534.831M545.893 525.317C548.118 526.835 550.182 528.298 552.087 529.703C551.452 528.528 550.562 527.52 549.488 526.759C548.413 525.998 547.183 525.504 545.893 525.317ZM539.129 524.218C541.629 525.902 542.875 527.082 542.174 528.381C540.879 530.805 542.665 531.57 544.441 531.836C546.651 532.153 545.754 535.313 545.579 536.582L545.411 537.576C544.676 543.423 545.132 546.107 545.537 546.402C547.207 546.427 548.262 543.199 550.501 544.531C552.74 545.864 551.256 550.274 550.735 552.007C550.326 553.317 548.042 557.554 549.551 559.004C551.527 560.856 558.754 555.824 556.587 561.661C555.435 564.747 553.586 566.654 555.843 569.693C557.191 571.542 561.557 576.442 564.647 575.437C567.736 574.432 564.627 568.513 568.242 567.492C573.147 566.123 569.831 576.458 569.34 577.379C568.312 579.339 566.912 581.674 570.09 582.442C574.196 583.42 573.657 587.24 576.047 589.97C584.046 598.808 580.626 584.362 583.34 586.444C586.239 588.699 585.689 591.395 590.194 592.708C594.19 593.86 596.711 592.101 596.132 588.564C595.055 581.947 602.023 582.238 601.767 575.603C599.839 571.171 601.099 564.52 597.333 560.821C592.904 556.449 592.453 567.261 592.256 568.582C590.397 580.91 581.512 567.179 577.378 556.95C577.268 556.653 576.775 557.034 576.495 557.025C578.758 561.919 580.742 566.946 582.437 572.08C583.993 576.669 586.647 580.777 590.151 584.022C586.527 581.439 583.61 577.931 581.684 573.84C580.722 576.434 578.494 580.502 576.288 580.477C578.325 579.364 580.547 574.7 580.793 572.613C578.032 565.193 575.55 557.463 571.128 550.601C570.407 554.858 566.483 562.218 562.482 563.862C567.408 560.074 570.223 550.88 569.634 548.67C567.722 546.021 565.596 543.543 563.281 541.265C562.878 540.995 562.527 540.65 562.248 540.247C560.552 538.556 558.617 536.933 556.41 535.177C555.786 535.036 555.2 534.755 554.691 534.354C554.183 533.954 553.766 533.444 553.468 532.86C550.456 530.557 547.038 528.126 543.086 525.446L543.502 524.884C542.047 524.621 540.562 524.532 539.104 524.283M523.648 525.086L529.776 523.219C532.601 523.383 530.945 522.641 531.843 520.976C530.744 521.22 528.767 521.43 527.508 521.826C524.992 522.432 522.559 523.359 520.265 524.585C521.403 524.666 522.534 524.833 523.648 525.086ZM504.997 542.074C505.796 542.674 506.543 543.347 507.228 544.083C511.127 539.722 509.58 533.906 504.869 531.199C503.873 531.545 502.29 531.882 501.282 532.295C503.979 533.294 506.753 536.052 506.588 538.528C506.452 539.846 505.895 541.08 505.004 542.034M532.008 546.585C536.484 532.169 517.581 527.463 506.736 530.692C507.857 531.457 508.796 532.473 509.485 533.664C510.174 534.855 510.594 536.191 510.715 537.573C510.836 538.955 510.655 540.347 510.184 541.647C509.714 542.947 508.966 544.12 507.997 545.08C509.506 547.187 510.261 549.77 510.134 552.388C513.664 544.43 524.92 544.154 531.957 546.645M498.805 541.314C499.742 541.871 500.159 543.123 500.673 543.963C501.76 543.679 502.877 543.537 503.999 543.541C502.463 542.382 500.683 541.619 498.805 541.314ZM502.451 557.905C502.429 557.748 502.42 557.589 502.424 557.43L502.497 557C502.536 556.314 502.438 555.627 502.209 554.982C501.014 556.043 499.603 556.811 498.081 557.228C496.558 557.645 494.964 557.702 493.418 557.393C494.974 557.442 496.522 557.157 497.966 556.555C499.409 555.954 500.716 555.049 501.803 553.898C500.333 551.645 498.301 549.843 495.924 548.683C492.574 547.108 490.491 548.655 487.042 548.461C486.322 550.063 486.183 551.88 486.65 553.58C487.117 555.28 488.158 556.751 489.585 557.724C493.048 560.288 498.101 560.343 502.485 557.939M508.375 550.837C508.582 551.747 507.573 552.727 506.75 553.713C507.264 552.256 506.692 550.81 506.796 549.639C505.419 549.389 504.401 548.679 502.86 548.29C504.368 548.161 505.577 548.061 506.859 548.003L506.814 546.61C506.614 546.28 506.395 545.963 506.157 545.661C504.451 545.194 502.697 544.933 500.933 544.882C501.074 545.643 501.091 546.423 500.984 547.189C500.83 546.359 500.108 545.716 499.832 545.057C498.475 545.158 497.158 545.03 495.647 545.255C496.878 544.723 498.169 544.352 499.49 544.151C498.775 543.341 497.896 542.705 496.915 542.288C495.935 541.871 494.877 541.684 493.818 541.741C491.348 542.014 487.196 544.627 486.658 546.855C486.411 547.917 493.824 547.085 495.102 547.524C499.515 548.986 503.679 552.231 503.41 557.068C503.143 561.255 509.545 555.866 508.342 550.873M531.178 574.187C530.986 572.81 530.639 571.461 530.145 570.166C530.145 570.166 519.585 582.79 515.085 583.264C519.204 581.24 529.781 569.312 529.729 569.302C529.433 568.833 528.657 567.724 528.341 567.293C528.341 567.293 519.183 577.568 514.969 580.308C517.178 577.939 527.755 566.564 527.714 566.571C525.353 563.764 522.094 561.927 518.533 561.395C518.533 561.395 508.03 573.918 507.141 576.318C506.551 574.107 517.298 561.254 517.244 561.258C515.522 561.05 513.781 561.104 512.074 561.417C510.966 562.911 509.938 564.468 508.995 566.078C505.519 572.371 500.439 579.757 508.797 585.047C515.93 589.507 524.483 581.461 528.683 576.906C529.993 575.495 530.224 575.08 531.178 574.187ZM534.267 549.457C524.293 544.138 508.836 547.876 511.901 560.306C522.699 558.383 530.565 564.996 532.521 574.167C533.844 574.293 535.178 574.13 536.436 573.688C537.694 573.246 538.848 572.535 539.822 571.601C540.796 570.667 541.569 569.532 542.09 568.268C542.612 567.005 542.87 565.643 542.848 564.269C542.965 561.206 542.215 558.173 540.692 555.542C539.168 552.912 536.935 550.797 534.267 549.457ZM462.973 552.759L463.076 552.86C463.558 553.834 463.878 554.883 464.024 555.966C480.59 540.691 493.013 532.889 507.597 529.007C519.694 525.658 538.361 532.315 533.544 547.32C534.391 547.68 535.216 548.097 536.011 548.569C540.075 532.472 525.473 523.797 510.621 526.495C493.429 529.559 476.954 540.103 463.012 552.766M540.596 480.661C540.076 480.814 539.568 481.009 539.078 481.245C540.677 481.574 542.234 482.092 543.718 482.79C544.476 481.749 545.482 480.929 546.638 480.411C544.624 480.076 542.565 480.175 540.59 480.701M542.27 473.545C543.338 474.962 544.177 476.549 544.755 478.244C546.402 478.306 548.033 478.601 549.602 479.12C548.395 476.839 544.864 466.609 542.278 473.339M540.641 478.579C541.414 478.408 542.199 478.295 542.988 478.242C542.638 477.287 542.207 476.366 541.699 475.49C541.629 476.601 541.263 477.67 540.641 478.579ZM520.889 479.049C520.735 475.809 519.384 472.754 517.114 470.515C514.844 468.276 511.829 467.023 508.691 467.015C508.328 467.656 505.852 468.675 505.39 469.187C510.204 469.31 515.088 471.231 516.804 475.334C517.224 476.269 517.529 477.254 517.714 478.267C518.799 478.408 519.869 478.657 520.909 479.011M521.866 479.447C525.36 481.073 528.473 483.458 530.994 486.44C532.623 483.292 535.213 480.787 538.36 479.316C535.111 478.811 529.81 469.464 528.291 470.684C525.367 472.924 522.269 470.108 520.15 467.828C517.698 465.225 513.554 464.628 509.985 465.699C517.376 467.133 521.395 472.261 521.868 479.433M526.862 504.047C526.152 502.423 525.048 501.017 523.656 499.965C523.656 499.965 521.728 510.801 519.132 512.131C521.104 509.262 522.678 499.096 522.678 499.096C520.046 497.404 517.089 496.326 514.012 495.937L511.59 510.725L512.869 495.966C512.505 495.983 511.199 496.259 510.817 496.301C510.817 496.301 508.979 508.107 509.441 512.343C508.128 507.76 509.847 496.416 509.847 496.416C508.453 496.774 507.11 497.318 505.85 498.032C504.161 503.52 504.557 509.467 506.959 514.663C512.469 527.203 525.926 514.48 526.885 504.065M517.633 480.245C512.524 479.654 507.674 482.514 504.661 486.467C501.648 490.421 503.291 493.14 505.501 496.931C509.35 494.894 513.812 494.473 517.955 495.756C522.097 497.04 525.6 499.927 527.731 503.817C542.169 496.213 525.117 481.128 517.633 480.245ZM532.245 488.148C532.87 489.163 533.415 490.229 533.875 491.335C533.739 489.874 533.696 488.405 533.749 486.939L532.864 486.862C532.612 487.26 532.404 487.687 532.247 488.134M538.776 494.422C539.993 498.463 542.736 504.094 545.422 505.314C541.62 504.045 539.279 498.569 538.105 495.062C537.039 496.319 536.318 497.847 536.017 499.488C541.429 511.817 560.882 507.653 557.408 494.083C551.871 491.822 543.855 489.334 538.759 494.364M551.222 481.891C550.091 481.524 548.888 481.464 547.729 481.718C546.57 481.971 545.493 482.529 544.603 483.337C546.135 484.224 547.563 485.291 548.859 486.515C547.357 485.522 545.762 484.686 544.099 484.021C543.325 484.922 542.609 485.875 541.955 486.873C542.306 485.912 542.693 484.57 543.088 483.742C540.984 483.033 538.782 482.681 536.568 482.701C536.27 483.671 536.033 484.597 535.827 485.501C537.464 485.797 538.603 487.138 540.001 487.973C538.455 487.693 537.228 487.111 535.536 486.902C535.263 488.514 534.318 490.613 534.599 492.435L534.322 492.413C535.045 494.448 535.138 496.666 534.587 498.759C535.125 499.216 535.433 497.873 535.652 497.29C539.365 487.857 550.301 490.97 557.687 493.303C557.584 491.492 557.238 489.706 556.657 487.995C554.827 487.097 552.978 484.81 551.267 482.023" fill="white"/>
<path d="M681.69 42.385C685.785 43.9632 689.689 46.0269 693.324 48.5347C692.139 45.4747 691.627 41.2133 689.108 38.8593C684.435 34.5028 684.642 39.963 681.673 42.3191M672.896 39.0934L672.526 39.407C673.56 39.677 674.543 39.9566 675.473 40.2459C674.549 38.6237 674.551 37.6778 672.845 39.1075M656.864 36.272C659.503 36.6927 661.972 37.127 664.272 37.5751C663.219 36.7805 662.002 36.2493 660.716 36.0232C659.431 35.7971 658.112 35.8823 656.864 36.272ZM650.279 38.2134C653.233 38.6554 654.844 39.1851 654.735 40.6685C654.546 43.4297 656.478 43.3491 658.198 42.8187C660.348 42.1558 660.799 45.3896 661.173 46.6271L661.425 47.602C663.135 53.2266 664.653 55.461 665.131 55.5691C666.666 54.8499 666.298 51.4659 668.875 51.7155C671.451 51.9652 671.878 56.5322 672.127 58.3968C672.318 59.8257 671.951 64.5973 673.897 65.2605C676.46 66.0925 680.955 58.3773 681.362 64.6147C681.572 67.9153 680.682 70.4464 683.953 72.226C685.928 73.3187 691.883 75.8688 694.277 73.6145C696.672 71.3602 691.444 67.3399 694.308 64.8432C698.216 61.4666 699.412 72.2984 699.326 73.3382C699.202 75.5593 698.869 78.2898 702.065 77.6068C706.188 76.7104 707.252 80.4107 710.531 81.8495C721.382 86.3945 712.405 74.7717 715.718 75.4957C719.275 76.2653 719.86 78.9546 724.494 78.1856C728.579 77.5114 730.161 74.8039 728.184 71.8492C724.52 66.3255 730.958 63.5498 728.031 57.6538C724.463 54.404 722.928 47.8704 717.993 46.1539C712.197 44.1106 716.2 54.1266 716.542 55.401C719.871 67.4089 706.223 58.7947 698.313 51.3086C698.092 51.0873 697.799 51.6476 697.542 51.7609C701.538 55.2185 705.332 58.9177 708.904 62.8393C712.185 66.3308 716.268 68.9051 720.773 70.3213C716.433 69.5555 712.359 67.6394 708.949 64.7601C709.132 67.5319 708.751 72.1946 706.752 73.1263C708.135 71.2355 708.271 66.0476 707.646 64.0468C702.123 58.5133 696.712 52.5679 689.922 48.2586C690.999 52.4349 690.431 60.8179 687.472 64.0602C690.411 58.4667 689.215 48.905 687.781 47.1553C684.969 45.5821 682.033 44.2574 679.005 43.1954C678.531 43.119 678.074 42.9585 677.654 42.7211C675.44 41.9199 673.015 41.304 670.295 40.6565C669.67 40.7994 669.021 40.8 668.395 40.6582C667.77 40.5163 667.181 40.2355 666.671 39.8351C663.005 39.0672 658.911 38.3326 654.235 37.6173L654.385 36.927C652.957 37.3204 651.577 37.8982 650.149 38.2915M636.623 45.6591C638.21 44.1916 639.814 42.7339 641.408 41.2927C644.038 40.2153 642.234 40.2609 642.375 38.3735C641.474 39.0593 639.765 40.1087 638.783 41.0141C636.747 42.6569 634.916 44.5548 633.333 46.6645C634.402 46.2394 635.502 45.9032 636.623 45.6591ZM630.995 25.2679C629.691 24.1024 628.117 23.3061 626.426 22.9569C626.426 22.9569 629.083 33.6263 627.268 35.9605C627.904 32.4976 625.189 22.6063 625.189 22.6063C622.113 22.2029 618.989 22.5049 616.038 23.4909L619.853 37.9615L615.013 24.0134C614.689 24.1873 613.629 25.0013 613.303 25.2183C613.303 25.2183 616.433 36.7167 618.577 40.3731C615.531 36.7676 612.466 25.7311 612.466 25.7311C611.353 26.6688 610.356 27.7445 609.497 28.9339C610.207 34.6453 612.988 39.8652 617.278 43.5392C627.364 52.5281 634.404 35.1514 631.037 25.2706M612.956 7.67577C608.076 9.34495 604.841 14.0601 603.715 18.9563C602.589 23.8526 605.197 25.6032 608.732 28.0863C611.397 24.5659 615.274 22.2458 619.555 21.6107C623.835 20.9755 628.188 22.0744 631.703 24.6778C641.712 11.5064 620.123 5.29185 612.956 7.67577ZM629.428 8.49911C630.408 9.14902 631.336 9.87955 632.203 10.6836C631.485 9.41692 630.85 8.10243 630.301 6.7488C630.02 6.82606 629.74 6.90334 629.47 7.07633C629.4 7.54701 629.386 8.02482 629.428 8.49911ZM637.912 11.3823C640.656 14.5065 645.435 18.4248 648.372 18.3776C644.405 18.8779 640.058 14.9394 637.576 12.2508C637.113 13.857 637.081 15.5632 637.484 17.1867C647.405 26.0096 663.351 13.7846 654.68 2.98034C648.737 3.33382 640.456 4.5715 637.876 11.3497M638.73 -1.21815C640.477 -1.0775 642.202 -0.729012 643.872 -0.179635C642.104 -0.422062 640.318 -0.487482 638.538 -0.37503C638.203 0.721853 637.94 1.84095 637.75 2.97461C637.665 1.95405 637.484 0.564623 637.492 -0.354912C635.294 -0.08565 633.153 0.551959 631.153 1.53285C631.277 2.54287 631.426 3.48965 631.619 4.39603C633.212 3.95702 634.791 4.6791 636.403 4.8417C634.89 5.07598 633.391 5.39485 631.912 5.7969C632.319 7.3778 632.329 9.6894 633.312 11.2247L633.061 11.3643C634.55 12.8938 635.536 14.8676 635.882 17.0074C636.556 17.1884 636.29 15.8367 636.251 15.2122C635.798 5.03663 646.974 3.1141 654.688 2.00459C653.847 0.412006 652.803 -1.05625 651.583 -2.36063C649.557 -2.38098 646.949 -3.65205 644.276 -5.44128C643.1 -5.28551 641.983 -4.81796 641.034 -4.08411C640.084 -3.35026 639.335 -2.37507 638.858 -1.25327M633.856 -2.11876C633.45 -1.75015 633.069 -1.35286 632.716 -0.92968C634.301 -1.3282 635.927 -1.52973 637.558 -1.53001C637.821 -2.81088 638.405 -3.9981 639.25 -4.97356C637.281 -4.4034 635.448 -3.41793 633.867 -2.07923M632.481 -9.30309C634.066 -8.43071 635.502 -7.29644 636.733 -5.94514C638.248 -6.60239 639.844 -7.04197 641.475 -7.25162C639.452 -8.79664 632.088 -16.5462 632.478 -9.31625M633.123 -3.84988C633.754 -4.34057 634.422 -4.77923 635.119 -5.16184C634.415 -5.88358 633.648 -6.53664 632.828 -7.11266C633.215 -6.07382 633.317 -4.94487 633.123 -3.84988ZM616.437 5.13608C620.269 5.09375 624.064 5.90587 627.564 7.51707C627.768 3.95708 629.1 0.565524 631.354 -2.13476C628.197 -1.1944 619.59 -7.35964 618.704 -5.6058C616.975 -2.30719 613.005 -3.51335 610.156 -4.66147C606.886 -5.96156 602.87 -4.69981 600.066 -2.17766C607.355 -4.08731 613.088 -1.1798 616.434 5.12291M597.319 2.99598C601.733 1.00355 606.946 0.625433 610.172 3.603C610.933 4.26891 611.611 5.03013 612.19 5.8691C613.232 5.52486 614.304 5.2861 615.391 5.15619C613.945 2.26468 611.476 0.0606305 608.498 -0.997741C605.519 -2.05611 602.261 -1.88736 599.4 -0.52656C599.331 0.212054 597.512 2.20908 597.288 2.87742M563.364 -127.751C563.617 -127.511 567.869 -124.576 567.681 -126.895C567.597 -128.65 562.459 -133.696 566.441 -135.513C570.178 -137.22 571.653 -134.043 574.957 -138.382C579.82 -144.35 587.27 -137.062 588.008 -133.512C588.409 -131.957 590.225 -126.559 593.281 -129.476C595.474 -131.561 594.604 -134.934 597.094 -137.031C589.362 -140.122 584.404 -140.66 573.361 -141.554L572.137 -141.641C556.094 -142.864 549.248 -147.864 546.829 -149.78C549.17 -147.955 557.127 -144.419 572.762 -143.294L573.985 -143.208C579.402 -142.796 583.334 -142.426 586.885 -141.838C582.832 -144.954 577.499 -149.538 577.788 -152.863C578.312 -149.508 586.263 -143.825 590.997 -140.981C594.045 -140.194 597.026 -139.151 599.91 -137.864C600.565 -137.78 601.202 -137.584 601.794 -137.282C598.41 -142.248 595.366 -148.972 594.92 -152.448C597.347 -146.451 600.569 -140.833 604.495 -135.754C605.722 -135.074 607.16 -134.922 608.494 -135.333C615.122 -137.159 614.661 -132.333 615.263 -127.828C615.823 -123.749 624.053 -129.263 626.532 -127.222C627.974 -126.025 627.475 -123.249 629.064 -122.276C630.385 -121.44 632.379 -122.018 633.82 -121.3C633.425 -123.788 635.192 -131.174 632.704 -131.717C631.249 -132.064 629.502 -132.485 628.864 -134.059C628.226 -135.633 628.964 -137.854 627.201 -138.497C625.437 -139.14 624.617 -136.868 623.63 -139.108C623.295 -139.876 624.915 -144.711 624.126 -145.072C621.611 -146.355 619.669 -141.657 617.77 -144.732C615.733 -148.079 612.89 -158.994 607.752 -151.496C602.614 -143.999 601.42 -160.645 600.895 -161.939C598.61 -168.365 588.827 -159.503 588.111 -167.307C587.868 -169.836 581.862 -169.253 579.797 -168.684C575.259 -167.434 574.687 -162.295 575.372 -159.902C575.851 -158.044 574.978 -153.599 571.99 -155.442C569.003 -157.286 569.822 -161.731 569.35 -165.044C568.809 -168.888 562.285 -162.688 559.432 -161.154C557.356 -160.046 554.522 -162.51 552.84 -161.144C551.359 -159.847 553.289 -157.288 550.985 -155.581C547.368 -152.877 546.23 -158.137 544.875 -159.104C543.093 -160.349 539.019 -159.946 536.752 -157.727C533.662 -154.731 536.667 -150.648 536.148 -147.683C535.863 -146.194 534.579 -144.344 536.114 -143.582C537.92 -142.668 544.758 -143.043 545.423 -141.363C546.221 -139.382 542.78 -136.952 543.435 -134.889C544.138 -132.585 548.421 -133.554 549.382 -130.884C551.299 -131.935 553.382 -132.624 555.534 -132.917C560.431 -133.462 560.859 -130.264 563.387 -127.715M604.474 -78.2483C604.438 -77.6458 604.196 -76.3091 604.786 -76.6129C605.146 -78.7871 606.026 -80.8339 607.346 -82.5673L607.134 -82.6499C607.954 -84.2869 607.939 -86.5125 608.338 -88.0898C607.034 -88.1698 605.726 -88.1675 604.422 -88.0831C605.838 -88.5722 607.203 -89.5267 608.608 -89.4766C608.761 -90.3653 608.901 -91.3068 609.017 -92.2843C607.204 -92.8054 605.31 -92.9591 603.44 -92.7371C603.443 -91.8773 603.284 -90.5353 603.209 -89.5551C603.049 -90.566 602.819 -91.5637 602.521 -92.5404C600.916 -92.2672 599.341 -91.8332 597.818 -91.2445C599.25 -92.0929 600.766 -92.7803 602.34 -93.2949C601.935 -94.2297 601.248 -95.0035 600.382 -95.5C599.515 -95.9966 598.516 -96.1891 597.534 -96.0486C595.734 -94.0865 593.535 -92.5604 591.096 -91.5796C590.028 -90.1074 589.119 -88.5179 588.387 -86.8399C595.211 -87.5349 605.023 -88.0795 604.508 -78.272M619.743 -101.618C618.969 -103.084 611.458 -95.5249 608.709 -95.7553C610.762 -93.4724 611.918 -90.4806 611.952 -87.3641C614.844 -89.5347 618.147 -91.0505 621.644 -91.8126C624.615 -98.5012 629.598 -102.471 635.814 -101.926C634.605 -102.922 633.125 -103.502 631.58 -103.583C630.036 -103.663 628.506 -103.241 627.206 -102.376C624.735 -100.736 621.299 -98.815 619.814 -101.609M610.425 -87.409C610.178 -87.4678 609.947 -87.517 609.706 -87.5496C609.22 -86.1485 608.663 -84.7751 608.037 -83.435C608.783 -84.3741 609.597 -85.2539 610.471 -86.067C610.511 -86.5333 610.495 -87.0029 610.424 -87.4652M606.563 -95.2346C605.139 -96.1553 603.509 -96.6783 601.831 -96.7526C602.598 -95.9827 603.12 -94.99 603.329 -93.9061C604.72 -94.2357 606.146 -94.382 607.572 -94.3414C607.27 -94.6729 606.933 -94.9682 606.567 -95.2215M607.218 -97.0377C607.045 -98.0813 607.13 -99.1533 607.465 -100.154C606.742 -99.4414 606.073 -98.6721 605.465 -97.8528C606.077 -97.6492 606.665 -97.3758 607.218 -97.0377ZM607.776 -102.285C608.063 -109.109 601.614 -100.291 599.835 -98.4039C601.236 -98.5857 602.658 -98.5292 604.042 -98.2367C605.104 -99.7542 606.36 -101.116 607.776 -102.285ZM603.362 -76.2064C603.731 -77.7437 603.725 -79.3518 603.343 -80.8858C601.168 -77.8313 597.414 -73.2269 593.921 -72.8996C596.501 -73.4834 600.657 -78.1704 603.068 -81.685C600.874 -87.5994 593.518 -86.9554 588.304 -85.9985C580.831 -74.1609 594.775 -65.9384 603.375 -76.2099M626.85 -69.8801C626.207 -70.8903 625.409 -71.7856 624.488 -72.5309C624.488 -72.5309 621.494 -61.1655 618.778 -57.0871C620.76 -61.0479 623.832 -72.9007 623.82 -72.8972C623.552 -73.0351 622.682 -73.6561 622.405 -73.7773C620.918 -68.9558 619.391 -64.1137 617.824 -59.2512C619.085 -64.208 620.33 -69.1558 621.559 -74.0945C618.955 -74.5346 616.286 -74.2846 613.801 -73.3679C613.801 -73.3679 611.188 -63.2786 611.599 -59.9912C610.158 -61.9788 612.702 -72.8111 612.689 -72.8076C611.164 -72.1003 609.812 -71.0478 608.733 -69.7279C605.72 -59.6553 610.957 -43.7425 619.714 -54.1984C623.502 -58.6269 625.975 -64.0896 626.837 -69.9328M608.128 -70.1117C614.892 -76.9704 623.331 -76.8547 627.47 -70.8128C630.544 -73.8751 632.78 -76.2128 632.045 -80.6525C631.309 -85.0922 628.67 -89.2896 624.529 -89.997C618.45 -91.0171 599.725 -80.8343 608.128 -70.1117ZM637.956 -97.3795C637.786 -98.0382 636.302 -99.6613 636.26 -100.355C630.873 -101.763 625.6 -98.5468 622.473 -91.9847C623.391 -92.0746 624.316 -92.045 625.227 -91.8966C625.732 -92.8096 626.325 -93.6678 626.996 -94.4584C628.346 -96.004 630.106 -97.1052 632.057 -97.6252C634.008 -98.1452 636.064 -98.061 637.969 -97.383M638.345 -60.249C638.831 -59.6351 639.256 -59.2583 639.613 -59.3566C640.349 -62.9601 641.062 -66.8112 641.75 -70.4437C641.884 -72.187 642.189 -73.9117 642.661 -75.5911C643.865 -82.7805 644.657 -89.024 644.565 -91.9759C644.242 -98.8109 642.744 -105.532 640.142 -111.824C638.802 -115.076 636.434 -117.762 633.426 -119.442C631.676 -120.456 629.135 -119.671 627.629 -121.062C625.336 -123.125 626.673 -127.205 622.236 -126.095C619.47 -125.333 615.248 -123.069 613.966 -126.398C612.684 -129.728 614.977 -132.801 609.585 -132.797C606.095 -132.781 604.63 -132.109 601.755 -134.096C594.592 -138.952 597.133 -124.23 589.911 -127.404C588.029 -128.297 582.867 -144.131 576.944 -136.869C575.47 -134.911 573.257 -132.904 571.03 -133.335C570.928 -133.307 568.141 -133.95 567.758 -133.054C566.979 -130.779 572.091 -126.84 567.961 -124.644C562.272 -121.665 561.457 -129.907 557.444 -130.325C553.432 -130.744 542.542 -125.33 547.041 -122.548C554.232 -118.01 539.622 -117.753 537.838 -116.838C534.303 -115.087 535.429 -114.001 534.447 -111.67C533.298 -108.926 529.693 -106.917 527.777 -104.555C525.311 -101.519 530.498 -100.832 531.385 -98.8749C532.768 -95.8974 536.171 -96.2002 539.684 -97.5067C542.913 -98.693 548.229 -102.486 551.359 -101.994C554.489 -101.502 549.98 -96.0682 549.285 -94.5787C547.246 -90.2069 551.907 -91.9288 554.242 -93.5174C558.986 -96.7719 558.334 -91.202 559.889 -89.2459C563.386 -84.8473 573.865 -99.1077 577.528 -100.837C586.758 -105.172 576.672 -91.1329 577.297 -90.67C581.022 -87.8724 587.018 -97.864 589.712 -93.8228L589.84 -93.6463C591.198 -91.6077 595.777 -96.2982 596.969 -97.4451C599.215 -99.6441 605.84 -109.527 608.712 -105.958C611.038 -103.029 605.955 -94.6295 612.689 -98.799C616.925 -101.377 618.17 -105.601 621.66 -102.231C623.095 -100.848 626.195 -103.649 627.789 -104.456C628.947 -105.036 630.213 -105.348 631.499 -105.371C632.785 -105.394 634.06 -105.127 635.236 -104.589C631.305 -109.615 624.678 -113.236 615.386 -115.177C608.195 -115.693 594.582 -106.806 589.564 -101.811C593.635 -106.827 602.648 -113.642 610.205 -116.049C601.567 -117.149 592.829 -117.112 584.199 -115.939L584.148 -115.713C578.516 -115.375 568.097 -107.339 563.774 -102.028C565.228 -105.124 571.593 -111.675 577.181 -114.781C570.187 -113.418 563.125 -111.317 555.99 -109.394C550.891 -107.989 544.336 -106.041 540.309 -108.474C544.46 -107.36 551.019 -109.294 555.563 -110.518C561.936 -112.274 568.36 -114.524 574.652 -115.905C589.106 -119.041 603.292 -119.563 615.945 -116.925C616.01 -116.937 616.074 -116.954 616.136 -116.978C630.116 -114.014 638.279 -107.346 640.487 -97.7806C643.227 -94.0908 636.48 -90.1857 638.913 -86.7357C640.038 -85.1266 641.816 -84.1068 642.351 -81.9261C642.97 -79.5283 640.239 -78.0987 641.047 -75.4428C641.446 -74.2685 640.117 -67.5104 638.501 -60.278M562.771 83.5758C564.214 82.5375 565.597 81.4121 566.912 80.2054C566.97 78.6323 566.773 77.0602 566.327 75.5549C566.327 75.5549 557.382 84.6513 555.126 84.3701C557.356 83.3321 566.018 74.4123 566.018 74.4123C564.933 71.1879 562.685 68.5214 559.744 66.9693C559.744 66.9693 552.121 75.8427 550.158 78.0769C552.273 74.0511 558.963 66.5354 558.963 66.5354C558.511 66.3211 557.326 65.8011 556.827 65.614C556.827 65.614 548.694 74.5716 547.251 78.3981C547.108 74.4582 555.934 65.3803 555.934 65.3803C554.598 65.1386 553.241 65.0396 551.885 65.0849C551.129 66.0693 550.749 66.3433 549.548 67.7186C545.644 72.1667 541.007 78.5381 546.351 84.1208C552.645 90.6837 557.186 87.5416 562.777 83.6022M575.574 58.3741C571.805 53.5003 566.051 51.9392 560.088 53.0603C555.244 53.9715 550.482 58.1622 551.713 63.8342C560.894 64.1265 568.367 70.181 567.996 80.1747C580.592 81.3745 582.005 66.6347 575.564 58.3346M594.012 62.0564L593.169 58.3097C590.709 56.577 587.865 55.5147 584.901 55.2212C581.938 54.9277 578.951 55.4126 576.217 56.6309C576.767 57.2738 577.276 57.9539 577.739 58.6668C584.57 55.2465 590.2 57.4909 594.012 62.0564ZM626.73 69.1273C627.7 69.3148 628.65 69.5963 629.568 69.9681C631.333 64.3174 627.568 59.7247 622.189 59.3018C621.423 60.0351 620.136 61.0248 619.377 61.8406C622.23 61.5765 625.868 62.874 626.738 65.1883C627.146 66.4508 627.138 67.817 626.717 69.0746M653.067 61.4613C651.267 46.4358 632.202 50.3768 623.674 58.0179C625.006 58.2207 626.277 58.7314 627.392 59.512C628.507 60.2926 629.437 61.3229 630.114 62.5264C630.79 63.7299 631.195 65.0756 631.299 66.4633C631.403 67.851 631.202 69.245 630.713 70.5416C632.95 71.7855 634.693 73.8026 635.637 76.2402C635.592 67.4901 645.705 62.3469 653.091 61.5535M620.857 71.1266C621.917 71.2154 622.805 72.1702 623.613 72.7095C624.484 71.9789 625.44 71.3647 626.459 70.8812C624.6 70.4957 622.678 70.5799 620.857 71.1266ZM630.896 84.5877C630.812 84.4543 630.739 84.3139 630.678 84.1679L630.569 83.7463C630.326 83.1071 629.958 82.5265 629.488 82.0407C628.837 83.5206 627.87 84.8292 626.661 85.8686C625.451 86.908 624.03 87.6514 622.503 88.0431C623.934 87.4146 625.223 86.4844 626.286 85.3118C627.35 84.1393 628.165 82.7502 628.679 81.2335C626.448 79.8342 623.896 79.076 621.286 79.0372C617.594 79.0668 616.349 81.3853 613.125 82.6972C613.123 84.4643 613.735 86.1733 614.85 87.5132C615.965 88.8531 617.508 89.7348 619.199 89.9978C623.383 90.8202 627.991 88.6759 630.992 84.5895M633.448 75.5875C634.006 76.3226 633.489 77.6505 633.143 78.9029C633.03 77.3537 631.91 76.2935 631.511 75.1192C630.16 75.4915 628.948 75.2894 627.391 75.6055C628.711 74.8467 629.764 74.218 630.903 73.6077L630.296 72.364C629.982 72.1428 629.653 71.9458 629.311 71.7746C627.574 72.0981 625.877 72.6224 624.253 73.3375C624.689 73.9722 625.019 74.6779 625.229 75.4252C624.748 74.7252 623.818 74.4028 623.313 73.9777C622.123 74.6583 620.875 75.1149 619.596 75.9755C620.503 74.9642 621.523 74.0674 622.634 73.304C621.656 72.8795 620.6 72.6842 619.54 72.7321C618.481 72.78 617.445 73.0699 616.507 73.5811C614.377 74.9018 611.672 79.076 612.102 81.3279C612.31 82.3994 618.689 78.4407 620.024 78.2704C624.623 77.6806 629.721 78.8157 631.446 83.3354C632.903 87.2377 636.522 79.5663 633.399 75.5585M663.601 86.7939C662.866 85.628 662.003 84.5543 661.029 83.5942C661.029 83.5942 656.579 99.6362 652.689 102.02C655.604 98.3952 660.35 82.9767 660.312 82.9873C659.841 82.6939 658.698 82.0211 658.227 81.7839C658.227 81.7839 654.091 95.0726 651.382 99.389C652.423 96.2801 657.395 81.364 657.36 81.3877C654.078 79.8643 650.373 79.6173 646.928 80.6922C646.928 80.6922 642.487 96.6051 642.669 99.1653C641.222 97.4192 645.747 81.0882 645.7 81.1154C644.054 81.6769 642.496 82.4817 641.074 83.5048C640.676 85.3421 640.376 87.2007 640.175 89.072C639.58 96.2913 637.986 105.197 647.708 106.37C655.994 107.318 660.487 96.3158 662.442 90.3447C663.057 88.496 663.098 88.0191 663.601 86.7939ZM656.125 63.0459C644.924 62.5479 632.406 72.6575 640.244 82.6185C649.257 76.1702 659.084 78.7539 664.588 86.2258C665.841 85.7674 666.986 85.0408 667.949 84.0935C668.912 83.1462 669.671 81.9994 670.175 80.7283C670.68 79.4571 670.919 78.0902 670.877 76.7169C670.836 75.3436 670.514 73.9949 669.934 72.7589C668.793 69.929 666.879 67.5036 664.427 65.7788C661.975 64.054 659.09 63.1044 656.125 63.0459ZM592.775 97.0104L592.914 97.071C593.748 97.7389 594.469 98.5468 595.045 99.461C603.858 78.4211 611.954 65.9319 623.61 56.0743C633.238 47.7772 652.869 45.7122 654.599 61.4201C655.515 61.379 656.433 61.3996 657.346 61.4818C654.489 45.1107 637.712 43.5812 625.344 52.4779C610.991 62.7262 600.315 79.4536 592.813 96.9999M625.203 213.899C625.048 212.347 625.07 210.789 624.928 209.233L624.246 209.605C621.543 205.213 619.058 201.453 616.704 198.151C616.089 197.846 615.551 197.396 615.136 196.836C614.722 196.275 614.441 195.622 614.317 194.928C612.528 192.599 610.775 190.458 609.067 188.6C608.645 188.302 608.283 187.923 608.001 187.483C605.569 184.935 602.92 182.619 600.086 180.562C597.554 179.849 586.435 182.207 581.436 186.858C583.854 182.946 592.921 179.46 598.004 178.949C590.518 174.168 581.776 171.342 573.421 168.324C570.937 168.486 565.182 170.467 563.64 172.43C563.883 170.303 569.014 168.282 572.102 167.446C567.815 165.609 564.07 162.642 561.241 158.84C564.891 162.52 569.338 165.247 574.214 166.793C579.898 168.825 585.686 170.518 591.073 173.196C591.111 172.918 591.616 172.44 591.281 172.307C579.801 167.653 564.808 158.59 579.574 157.09C581.159 156.935 593.955 156.74 589.43 152.215C585.616 148.384 577.579 149.512 572.632 147.587C564.836 147.266 564.218 154.026 556.578 152.829C552.495 152.19 550.09 154.617 550.918 158.41C551.88 162.773 555.127 162.344 557.398 165.218C559.457 167.91 542.968 164.001 552.34 172.073C555.183 174.521 559.712 174.19 560.463 178.216C560.984 181.346 563.883 180.096 566.296 179.233C567.429 178.808 579.94 176.08 577.75 180.875C576.142 184.38 569.485 181.064 568.027 183.935C566.57 186.806 571.782 191.507 573.801 192.983C577.163 195.429 579.531 193.761 583.315 192.817C590.318 191.071 583.638 197.935 585.619 200.056C587.17 201.731 592.283 199.8 593.936 199.486C595.994 199.102 601.325 197.859 602.642 200.318C603.959 202.777 600.041 203.518 599.897 205.237C600.211 205.659 603.303 206.373 610.204 206.136L611.394 206.091C612.91 206.04 616.669 205.371 616.819 207.7C616.946 209.57 617.664 211.503 620.622 210.377C622.222 209.753 623.463 211.175 625.191 213.958M607.833 184.876C609.352 181.184 615.589 179.324 608.811 176.493C605.202 174.99 600.246 176.101 596.422 176.097C600.572 178.528 604.421 181.471 607.884 184.862M614.797 192.609L614.992 192.146C615.932 189.968 614.849 190.323 612.668 189.964C613.359 190.79 614.072 191.651 614.783 192.556M624.648 206.771C624.517 205.33 624.036 203.948 623.25 202.751C622.464 201.554 621.398 200.582 620.152 199.924C621.604 202.026 623.103 204.308 624.648 206.771ZM629.259 219.357C630.614 213.706 627.32 206.175 629.903 201.104C630.158 190.817 624.429 181.573 621.494 171.94C617.743 165.918 609.856 162.602 597.355 161.771C604.96 160.607 615.625 163.214 620.273 167.578C618.234 159.673 617.099 152.042 612.84 144.848C609.063 139.835 594.025 136.683 584.48 136.04C590.053 134.942 603.027 136.757 609.81 140.349C604.885 133.747 598.526 128.36 591.853 123.341C587.406 119.966 577.267 114.11 579.001 108.341C578.487 114.127 589.85 119.97 593.845 123.018C598.335 126.205 602.574 129.756 606.522 133.635C617.244 144.876 619.043 157.305 623.267 171.353L623.454 171.654L623.365 171.679C625.256 177.846 628.048 183.694 630.063 189.814C630.66 186.361 634.259 183.535 635.225 179.925C636.395 175.567 634.902 173.749 631.787 170.882C628.358 167.749 633.022 166.195 634.146 163.247C635.174 160.565 633.034 158.036 633.156 155.336C633.323 151.325 630.307 152.918 629.196 150.091C628.268 147.708 631.129 145.622 628.964 143.58C625.248 140.074 630.629 129.18 624.101 128.749L623.493 128.719C622.398 128.754 621.317 128.455 620.386 127.858C619.455 127.261 618.715 126.393 618.259 125.364C616.968 127.399 617.691 136.343 614.94 136.156C612.188 135.968 610.578 131.417 610.215 129.217C609.392 124.279 613.723 120.588 612.944 115.977C612.276 112.013 609.328 108.31 606.119 105.821C605.42 105.28 602.513 103.005 601.396 104.075C600.279 105.145 598.53 106.092 597.044 104.724C594.225 102.156 592.927 98.6054 588.225 98.6875C583.029 98.7082 585.668 102.75 583.179 104.903C580.69 107.057 575.873 100.976 574.313 99.7974C571.95 97.9933 564.558 95.4299 564.1 100.692C563.833 103.786 561.871 106.076 561.501 108.929C560.459 116.85 574.818 117.847 577.125 123.829C578.91 128.417 560.697 125.66 566.21 130.576C568.611 132.736 575.034 133.662 571.856 137.91C569.033 141.679 568.729 144.204 574.263 146.446C576.951 147.343 598.938 149.751 590.73 156.781C588.63 158.588 577.553 158.62 577.454 160.143C577.293 162.798 582.072 165.714 584.102 166.863C586.132 168.011 594.604 169.049 593.109 173.044C592.196 175.483 602.474 174.26 603.931 174.296C607.553 174.314 612.99 175.017 614.066 179.081C614.912 182.361 608.116 184.276 609.697 186.86L610.236 187.417C612.065 188.79 614.492 188.036 616.37 189.127C618.601 190.418 616.312 192.925 616.225 194.6C616.205 195.132 616.345 195.657 616.626 196.103C616.907 196.549 617.316 196.893 617.795 197.088C623.034 199.878 625.888 201.998 626.699 208.054L626.798 208.704C627.188 212.407 628.029 216.044 629.303 219.528M584.072 292.934C583.154 291.987 582.141 291.146 581.049 290.423C581.049 290.423 580.559 302.552 577.584 305.149C579.389 301.562 580.268 289.989 580.268 289.989C579.779 289.785 578.585 289.338 578.093 289.177C578.093 289.177 577.268 298.788 575.779 302.966C576.004 300.082 577.216 288.953 577.216 288.953C573.947 288.058 570.478 288.379 567.416 289.861C567.416 289.861 566.92 301.752 567.708 303.962C565.922 302.648 566.359 290.421 566.359 290.421C564.957 291.15 563.673 292.099 562.552 293.234C562.592 294.928 562.732 296.619 562.971 298.297C563.98 304.749 564.838 309.931 574.02 309.645C581.795 309.407 583.229 301.943 583.774 296.276C583.936 294.524 583.878 294.088 584.065 292.908M561.789 292.498C568.853 285.43 578.506 286.227 585.043 292.201C590.146 289.172 589.878 283.051 587.148 279.189C585.554 276.768 583.336 274.856 580.746 273.67C578.155 272.483 575.295 272.07 572.488 272.477C561.925 273.863 552.12 284.862 561.763 292.505M551.677 260.968C552.133 261.769 552.539 262.6 552.892 263.455C560.277 261.336 567.981 262.783 570.748 271.235C571.587 271.061 572.434 270.936 573.286 270.86C569.525 261.567 559.734 259.072 551.626 260.982M493.584 209.343C495.476 209.693 497.269 210.476 498.83 211.637C502.443 214.423 500.938 217.533 501.288 221.43C501.383 221.798 502.769 227.174 503.87 225.036C504.72 223.461 503.968 215.625 507.715 216.653C511.214 217.622 510.502 221.374 515.175 219.748C521.749 217.711 523.108 228.963 521.874 232.436C521.296 234.006 519.897 239.909 523.655 239.339C526.349 238.935 527.411 235.482 530.325 235.244C526.258 227.573 522.987 223.889 515.769 215.859L514.982 214.975C504.638 203.348 503.373 194.102 502.938 190.722C503.351 193.966 506.23 202.585 516.307 213.919L517.098 214.816C520.593 218.735 523.164 221.61 525.373 224.459C524.143 219.055 522.975 211.56 525.039 208.818C523.505 212.133 525.908 222.35 527.866 227.878C529.69 230.602 531.336 233.448 532.794 236.398C535.052 238.908 534.441 242.519 537.952 244.064C543.891 246.66 541.179 250.54 539.511 254.767C538.007 258.568 547.076 259.061 548.114 262.345C548.716 264.253 547.057 266.291 547.893 268.05C548.597 269.563 550.471 270.317 551.335 271.814C552.096 269.474 553.025 265.295 551.289 263.276C550.241 262.069 549.068 260.643 549.304 258.913C549.54 257.182 551.144 255.725 550.063 254.075C549.113 252.615 547.273 253.842 547.564 251.321C547.666 250.446 549.148 248.358 548.769 247.574C547.474 244.883 542.757 246.973 542.802 243.179C542.861 239.014 546.33 227.744 538.74 230.921C530.953 234.182 538.911 218.88 539.342 217.379C541.2 210.235 529.567 211.606 533.427 204.235C534.671 201.86 530.33 198.315 528.634 197.456C524.913 195.574 524.497 199.414 523.605 201.988C522.905 203.987 519.768 207.279 518.815 203.689C517.862 200.1 520.98 196.63 522.595 193.363C524.496 189.565 520.454 189.72 517.693 189.069C515.715 188.655 515.397 184.509 513.517 184.576C511.636 184.643 511.496 188.336 509.02 188.313C505.118 188.273 507.592 182.779 507.334 180.932C507.048 179.599 506.303 178.42 505.239 177.613C504.174 176.806 502.862 176.426 501.547 176.543C497.809 177.136 497.143 182.865 495.009 185.231C493.952 186.425 492.002 187.174 492.496 188.929C493.026 190.984 497.6 195.326 497.053 197.282C496.406 199.591 492.775 199.435 491.975 201.729C491.098 204.257 494.446 206.283 493.579 209.274M512.459 305.286C512.277 304.031 511.929 302.806 511.425 301.649C511.425 301.649 504.303 309.34 500.317 311.087C503.597 308.984 510.995 300.934 510.995 300.934C510.815 300.66 510.313 299.613 510.124 299.354L500.329 308.699L509.51 298.564C507.508 296.683 505.12 295.296 502.525 294.506C502.525 294.506 496.107 301.382 495.16 304.38C494.684 301.845 501.341 294.31 501.341 294.31C499.801 293.965 498.202 294.023 496.688 294.477C489.8 301.116 488.118 317.567 500.029 314.101C505.033 312.734 509.424 309.619 512.459 305.286ZM518.68 287.063C513.975 282.475 493.936 279.573 496.405 293.751C505.023 292.124 512.135 297.361 513.435 304.89C517.351 304.193 520.228 303.597 521.34 299.439C522.452 295.28 521.885 290.173 518.68 287.063ZM544.635 294.431C544.757 293.791 544.144 291.519 544.397 290.913C540.361 286.38 523.173 280.505 517.75 284.144C518.566 284.641 519.33 285.225 520.029 285.887C521.88 284.276 527.084 284.818 534.04 287.967C538.35 289.912 541.919 291.257 544.642 294.457M542.081 312.844C544.392 309.741 546.446 306.442 548.22 302.982C550.663 296.832 552.108 290.308 552.495 283.672C552.708 280.003 551.903 276.348 550.174 273.136C549.198 271.204 546.771 270.264 546.163 268.174C545.252 265.01 548.191 262.38 544.097 260.531C541.548 259.384 537.149 258.734 537.705 255.067C538.261 251.401 541.552 250.24 537.453 246.84C534.78 244.627 533.325 244.28 532.177 240.73C529.313 231.953 523.731 246.303 519.998 238.922C518.979 236.931 523.601 219.811 515.635 222.274C513.551 223.032 510.913 223.335 509.563 221.492C509.536 221.386 507.856 218.999 507.144 219.576C505.314 221.054 506.818 227.892 502.732 227.029C497.147 225.858 501.081 218.086 498.591 215.103C496.102 212.12 485.792 209.571 487.219 215.048C489.492 223.861 479.503 214.352 477.834 213.965C474.497 213.149 474.609 214.854 472.634 216.301C470.329 217.952 466.772 217.338 464.154 218.144C460.778 219.187 463.837 223.268 463.344 225.591C462.598 229.155 465.11 231.116 468.267 232.292C471.153 233.373 476.915 233.535 478.79 236.039C480.664 238.542 474.662 240.308 473.366 241.159C469.589 243.611 473.843 245.177 476.356 245.288C481.499 245.536 478.132 249.949 478.256 252.653C478.612 258.693 493.627 253.074 497.246 253.925C506.359 256.071 491.802 261.718 492.051 262.525C493.562 267.273 502.968 262.508 503.19 267.654L503.244 267.865C503.35 270.446 509.176 269.32 510.644 269.085C513.456 268.607 523.292 264.344 523.921 269.166C524.431 273.103 516.527 277.073 523.869 277.647C528.502 278.035 531.357 275.287 532.74 280.282C533.274 282.35 537.116 281.898 538.788 282.186C540.071 282.456 541.29 282.986 542.374 283.746C543.458 284.506 544.385 285.48 545.103 286.612C543.903 280 539.992 272.88 533.467 265.421C527.966 260.502 513.188 259.523 506.908 260.632C514.445 258.71 522.35 258.973 529.752 261.393C523.695 255.204 517.009 249.709 509.811 245.002L509.676 245.166C505.313 241.853 493.58 242.095 487.675 243.919C490.353 242.18 498.37 240.605 504.063 241.506C498.222 238.177 492.053 235.432 486.015 232.453C481.686 230.33 476.035 227.739 474.659 222.883C476.853 226.624 482.459 229.2 486.344 231.135C491.699 233.794 497.533 235.982 502.775 238.841C514.81 245.297 525.659 253.878 534.831 264.199C534.88 264.245 534.932 264.287 534.987 264.325C544.713 275.572 548.808 286.155 546.875 295.493C547.772 300.241 540.336 299.411 541.093 303.775C541.434 305.783 542.615 307.715 542.25 309.848C541.971 311.519 540.41 311.766 539.433 312.741C539.645 312.692 539.859 312.656 540.074 312.634C540.764 312.585 541.456 312.622 542.137 312.743M568.114 343.487C568.606 344.497 568.852 345.615 568.832 346.746C569.935 346.801 571.026 347.008 572.076 347.362C571.124 345.719 569.754 344.378 568.114 343.487ZM597.741 337.778C597.71 336.414 597.346 335.08 596.681 333.901C596.017 332.722 595.074 331.737 593.941 331.037C595.342 333.402 596.618 335.647 597.741 337.778ZM635.278 296.364C631.862 294.977 626.576 292.426 625.376 288.989C626.574 291.411 632.036 294.379 635.942 295.871C640.89 292.08 638.588 284.954 636.42 279.992C623.253 275.52 618.949 291.649 630.936 297.631C632.462 297.587 633.954 297.151 635.278 296.364ZM637.929 299.867L637.948 299.622C639.697 300.001 641.742 299.409 643.345 299.376C643.089 298.037 642.749 296.717 642.326 295.424C643.135 296.711 644.317 297.853 644.681 299.262C645.563 299.189 646.467 299.095 647.412 298.947C647.448 297.004 647.126 295.072 646.462 293.254C645.646 293.479 644.36 293.678 643.409 293.856C644.32 293.427 645.2 292.934 646.046 292.381C645.396 290.856 644.6 289.402 643.67 288.041C644.825 289.25 645.847 290.586 646.719 292.027C647.5 291.395 648.065 290.522 648.331 289.534C648.597 288.547 648.551 287.497 648.198 286.539C645.506 284.783 643.296 282.937 642.449 281.294C640.788 280.601 639.057 280.103 637.288 279.809C639.486 286.372 642.389 296.042 633.174 298.157C632.613 298.312 631.299 298.406 631.729 298.908C633.866 298.657 636.029 298.974 638.015 299.829M643.259 300.896C642.181 300.897 640.213 300.465 639.01 300.303C640.074 300.808 641.104 301.387 642.092 302.036C642.53 301.974 642.958 301.856 643.367 301.685L643.307 300.925M651.094 288.239C651.578 289.597 651.854 291.026 651.912 292.472C653.614 293.128 655.221 294.019 656.691 295.121C663.251 293.666 653.346 289.509 651.122 288.189M654.589 295.333C653.735 294.794 652.842 294.322 651.918 293.924C651.862 294.592 651.744 295.253 651.567 295.897C652.512 295.449 653.552 295.254 654.589 295.333ZM649.689 295.709C650.214 294.057 650.323 292.293 650.006 290.585C649.45 291.553 648.629 292.33 647.646 292.815C648.306 294.119 648.797 295.506 649.106 296.942C649.339 296.552 649.534 296.139 649.689 295.709ZM632.264 323.426C632.969 322.437 633.51 321.334 633.866 320.162C633.866 320.162 622.824 320.383 618.372 318.788C622.503 319.667 634.002 319.419 634.002 319.419C634.055 319.095 634.337 318.015 634.364 317.697L619.986 317.158L634.388 316.731C633.998 313.947 632.974 311.298 631.398 309.004C631.398 309.004 621.484 309.153 618.67 310.521C619.992 308.45 630.558 308.022 630.558 308.022C629.494 306.681 628.153 305.604 626.632 304.87C616.481 304.521 603.964 314.587 616.103 320.683C621.074 323.269 626.688 324.232 632.201 323.444M622.954 230.11C623.161 231.306 623.268 232.518 623.274 233.733C624.866 231.494 626.148 229.037 627.084 226.433C627.657 225.16 628.077 223.083 628.453 221.949C626.427 222.719 625.708 220.885 625.66 223.876L622.954 230.11ZM579.771 237.353C580.256 235.686 580.445 233.941 580.327 232.204C580.327 232.204 564.553 241.179 562.014 240.228C564.867 239.752 580.262 230.896 580.262 230.896C579.823 227.061 577.939 223.559 575.019 221.151C575.019 221.151 560.833 230.252 557.955 232.061C561.456 228.274 574.221 220.439 574.221 220.439C573.77 220.07 572.535 219.197 571.992 218.838C571.992 218.838 557.192 227.883 554.524 231.567C555.395 227.32 571.034 218.354 571.034 218.354C569.546 217.723 568.003 217.237 566.427 216.9C565.282 217.752 564.782 217.932 563.039 219.061C557.348 222.718 547.263 229.984 551.969 237.436C557.519 246.249 566.619 242.416 574.134 239.795C576.068 239.088 577.964 238.274 579.812 237.355M595.573 216.419C592.49 210.128 586.274 206.832 579.08 206.359C573.232 205.966 566.537 209.123 566.546 215.612C577.093 218.449 584.103 227.1 581.072 237.686C595.358 242.526 600.825 227.149 595.573 216.419ZM590.061 240.514C593.08 240.731 595.976 241.838 598.406 243.704C603.999 240.089 612.076 242.505 615.893 247.987C619.1 235.97 615.796 215.856 598.588 219.059C600.803 226.534 599.61 238.052 590.086 240.507M593.434 264.603C593.31 261.053 595.231 259.183 593.588 255.515C592.269 252.805 590.303 250.487 587.878 248.778C585.843 250.044 583.168 253.067 583.296 256.686C583.023 255.1 583.186 253.466 583.765 251.969C584.344 250.473 585.317 249.174 586.574 248.22C585.826 247.897 585.034 247.701 584.226 247.639L583.73 247.621C583.542 247.599 583.355 247.566 583.171 247.521C581.668 249.303 580.798 251.563 580.705 253.925C580.612 256.288 581.301 258.613 582.66 260.516C583.883 262.182 585.54 263.452 587.437 264.179C589.334 264.906 591.392 265.059 593.37 264.62M599.07 252.58C598.749 253.905 598.239 255.172 597.556 256.341C597.891 254.838 597.845 253.44 598.029 252.091C597.275 251.706 596.584 250.88 595.607 250.585C596.515 250.596 597.418 250.731 598.291 250.988C598.344 249.164 598.154 247.341 597.726 245.57C597.385 245.282 597.028 245.013 596.658 244.764L595.068 244.525C594.902 245.841 594.706 247.038 594.469 248.556C594.051 246.936 593.4 245.789 593.139 244.351C591.759 244.294 590.122 243.503 588.389 243.825C589.579 243.145 590.807 242.242 591.852 242.589C586.109 240.7 579.378 246.365 584.282 246.693C589.948 247.064 593.478 251.807 594.932 256.542C595.365 257.904 593.988 265.269 595.277 265.238C597.965 265.076 601.175 261.27 601.624 258.776C602.073 256.282 600.246 253.752 599.07 252.58ZM600.052 248.076C599.984 249.223 599.751 250.352 599.36 251.428C600.304 252.07 601.747 252.689 602.332 253.741C602.062 251.68 601.276 249.727 600.052 248.076ZM614.289 254.736C614.716 253.377 614.943 251.452 615.292 249.945C612.482 244.609 604.968 241.36 599.611 244.726C600.411 245.521 601.141 246.387 601.794 247.314C603.053 246.504 604.518 246.1 606 246.155C608.784 246.362 613.258 251.747 614.282 254.71M577.397 318.874C578.954 318.989 580.503 319.198 582.037 319.5C612.976 296.174 617.101 263.472 620.458 243.667C623.114 227.978 615.939 212.176 596.755 214.809C597.221 215.644 597.627 216.513 597.972 217.409C615.914 213.876 620.473 231.923 618.048 244.754C614.989 260.893 612.781 294.04 577.397 318.874ZM547.746 318.93C547.912 319.642 548.026 320.365 548.086 321.094C550.832 320.883 553.588 320.84 556.339 320.965C568.538 321.47 581.954 334.212 573.816 346.911C574.149 347.563 574.442 348.236 574.691 348.927C575.253 348.582 575.786 348.189 576.286 347.754C584.073 334.066 574.508 321.434 560.136 319.383C556.028 318.795 551.872 318.644 547.733 318.934M403.913 284.75C404.166 284.991 408.418 287.925 408.229 285.607C408.132 283.855 402.994 278.809 406.976 276.992C410.726 275.281 412.188 278.462 415.493 274.123C420.356 268.155 427.806 275.443 428.544 278.993C428.945 280.548 430.76 285.946 433.817 283.029C436.009 280.944 435.14 277.571 437.629 275.474C429.897 272.384 424.939 271.845 413.896 270.951L412.673 270.864C396.63 269.641 389.784 264.641 387.365 262.725C389.728 264.53 397.749 268.105 413.316 269.177L414.552 269.26C419.956 269.676 423.901 270.042 427.439 270.634C423.386 267.517 418.054 262.933 418.343 259.608C418.867 262.963 426.817 268.646 431.551 271.49C434.608 272.295 437.595 273.359 440.481 274.674C441.136 274.757 441.773 274.954 442.365 275.256C438.982 270.29 435.95 263.562 435.491 260.09C437.918 266.087 441.141 271.705 445.066 276.783C446.297 277.466 447.74 277.617 449.078 277.201C455.706 275.375 455.232 280.205 455.843 284.693C456.391 288.775 464.625 283.275 467.103 285.315C468.545 286.513 468.122 289.268 469.635 290.262C470.953 291.084 472.95 290.52 474.392 291.237C473.996 288.75 475.763 281.363 473.275 280.821C471.82 280.474 470.073 280.052 469.448 278.475C468.823 276.897 469.535 274.683 467.772 274.04C466.009 273.397 465.188 275.669 464.201 273.43C463.867 272.661 465.486 267.826 464.697 267.465C462.195 266.179 460.24 270.881 458.354 267.802C456.304 264.458 453.461 253.544 448.323 261.041C443.185 268.539 441.991 251.893 441.53 250.581C439.245 244.155 429.462 253.017 428.746 245.213C428.503 242.684 422.477 243.244 420.419 243.839C415.881 245.089 415.245 250.246 415.995 252.621C416.474 254.479 415.6 258.925 412.612 257.081C409.625 255.237 410.444 250.792 409.985 247.476C409.431 243.635 402.907 249.835 400.067 251.366C397.978 252.478 395.144 250.013 393.475 251.376C391.994 252.673 393.908 255.222 391.62 256.939C387.991 259.646 386.865 254.383 385.497 253.419C383.715 252.174 379.654 252.574 377.387 254.793C374.297 257.789 377.302 261.872 376.77 264.84C376.486 266.33 375.202 268.179 376.736 268.942C378.542 269.855 385.38 269.481 386.046 271.16C386.843 273.142 383.402 275.571 384.06 277.648C384.773 279.935 389.043 278.97 390.021 281.65C391.933 280.599 394.012 279.911 396.159 279.62C401.066 279.058 401.485 282.272 404.013 284.821M445.018 334.24C444.983 334.843 444.728 336.183 445.318 335.879C445.665 333.715 446.528 331.673 447.827 329.939L447.615 329.856C448.435 328.219 448.421 325.993 448.819 324.416C447.515 324.334 446.207 324.337 444.903 324.423C446.319 323.934 447.684 322.979 449.089 323.029C449.252 322.124 449.395 321.196 449.511 320.218C447.697 319.701 445.804 319.547 443.934 319.765C443.937 320.625 443.791 321.964 443.716 322.944C443.524 321.939 443.268 320.949 442.951 319.98C441.347 320.253 439.771 320.687 438.248 321.275C439.681 320.428 441.197 319.741 442.77 319.225C442.367 318.289 441.68 317.514 440.813 317.017C439.946 316.52 438.946 316.329 437.965 316.471C436.165 318.435 433.966 319.961 431.527 320.94C430.458 322.413 429.549 324.002 428.817 325.68C435.642 324.985 445.466 324.437 444.951 334.244M460.244 310.911C459.457 309.449 451.946 317.007 449.197 316.777C451.25 319.06 452.406 322.052 452.44 325.168C455.318 323.019 458.597 321.51 462.068 320.737C465.043 314.062 470.052 310.142 476.242 310.637C475.033 309.641 473.552 309.061 472.008 308.98C470.464 308.9 468.934 309.322 467.634 310.187C465.159 311.814 461.726 313.748 460.254 310.951M450.849 325.141C450.618 325.092 450.374 325.046 450.134 325.013C449.852 326.093 448.94 327.953 448.464 329.128C449.209 328.193 450.018 327.314 450.886 326.5C450.926 326.033 450.91 325.564 450.839 325.101M446.994 317.342C445.564 316.426 443.93 315.904 442.249 315.827C443.016 316.597 443.539 317.59 443.748 318.674C445.137 318.337 446.564 318.191 447.99 318.238C447.689 317.91 447.357 317.614 446.998 317.355M447.636 315.542C447.474 314.496 447.563 313.424 447.896 312.422C447.171 313.138 446.499 313.909 445.883 314.727C446.495 314.93 447.083 315.204 447.636 315.542ZM448.216 310.274C448.507 303.463 442.058 312.281 440.279 314.169C441.684 313.989 443.109 314.044 444.498 314.332C445.556 312.814 446.807 311.449 448.216 310.274ZM443.806 336.366C444.175 334.829 444.169 333.221 443.787 331.687C441.625 334.738 437.857 339.346 434.365 339.673C436.945 339.089 441.101 334.402 443.512 330.888C441.318 324.973 433.962 325.617 428.748 326.574C421.275 338.412 435.282 346.617 443.819 336.363M467.294 342.693C466.651 341.682 465.853 340.787 464.931 340.042C464.931 340.042 461.938 351.407 459.222 355.486C461.2 351.512 464.276 339.672 464.263 339.675C463.996 339.538 463.126 338.917 462.849 338.795C461.362 343.617 459.834 348.455 458.264 353.308C459.527 348.36 460.773 343.417 462.002 338.478C459.399 338.037 456.729 338.287 454.244 339.205C454.244 339.205 451.644 349.291 452.055 352.578C450.602 350.594 453.142 339.748 453.133 339.765C451.608 340.472 450.255 341.525 449.176 342.845C446.163 352.917 451.401 368.83 460.158 358.374C463.945 353.946 466.418 348.483 467.281 342.64M448.722 342.406C455.485 335.547 463.925 335.663 468.063 341.705C471.137 338.642 473.374 336.305 472.638 331.865C471.903 327.425 469.264 323.228 465.135 322.517C459.043 321.5 440.331 331.68 448.722 342.406ZM478.549 315.138C478.379 314.479 476.896 312.856 476.853 312.162C471.466 310.754 466.193 313.971 463.067 320.533C463.985 320.449 464.909 320.479 465.82 320.621C466.325 319.708 466.918 318.849 467.589 318.059C468.939 316.513 470.699 315.412 472.65 314.892C474.601 314.372 476.657 314.456 478.562 315.134M478.938 352.268C479.424 352.882 479.849 353.259 480.206 353.161C480.942 349.557 481.672 345.772 482.343 342.074C482.479 340.327 482.783 338.598 483.251 336.913C484.321 331.518 484.963 326.041 485.171 320.538C484.838 313.704 483.336 306.985 480.735 300.693C479.395 297.441 477.028 294.756 474.019 293.075C472.282 292.058 469.728 292.847 468.223 291.455C465.942 289.389 467.266 285.313 462.829 286.423C460.063 287.185 455.854 289.445 454.559 286.119C453.265 282.793 455.634 279.699 450.179 279.72C446.672 279.727 445.21 280.412 442.336 278.424C435.172 273.569 437.726 288.288 430.492 285.117C428.61 284.224 423.447 268.39 417.525 275.651C416.05 277.61 413.85 279.613 411.611 279.186C411.509 279.214 408.722 278.571 408.338 279.467C407.56 281.741 412.671 285.681 408.525 287.811C402.835 290.79 402.02 282.548 398.008 282.13C393.996 281.711 383.102 287.112 387.617 289.903C394.795 294.445 380.186 294.702 378.401 295.617C374.866 297.368 375.993 298.454 375.01 300.785C373.861 303.529 370.266 305.521 368.34 307.9C365.871 310.923 371.058 311.61 371.962 313.577C373.331 316.558 376.747 316.251 380.247 314.948C383.474 313.749 388.792 309.969 391.923 310.461C395.053 310.953 390.543 316.387 389.849 317.876C387.822 322.245 392.471 320.526 394.805 318.938C399.546 315.67 398.897 321.253 400.466 323.206C403.949 327.608 414.428 313.347 418.104 311.615C427.334 307.279 417.236 321.322 417.873 321.781C421.586 324.583 427.582 314.591 430.289 318.629L430.34 318.826C431.698 320.865 436.277 316.174 437.469 315.027C439.714 312.828 446.352 302.942 449.212 306.514C451.538 309.444 446.455 317.843 453.188 313.673C457.437 311.092 458.67 306.872 462.16 310.242C463.595 311.624 466.695 308.823 468.289 308.017C469.446 307.436 470.712 307.123 471.999 307.1C473.285 307.077 474.56 307.345 475.736 307.884C471.805 302.857 465.191 299.233 455.886 297.296C448.695 296.78 435.095 305.663 430.063 310.662C434.135 305.646 443.148 298.83 450.705 296.423C442.067 295.323 433.328 295.36 424.699 296.534L424.661 296.756C419.015 297.098 408.596 305.133 404.273 310.445C405.74 307.345 412.092 300.797 417.693 297.688C410.687 299.054 403.574 301.169 396.502 303.075C391.404 304.48 384.835 306.431 380.809 303.999C384.969 305.096 391.519 303.179 396.063 301.955C402.436 300.199 408.872 297.946 415.152 296.568C429.606 293.432 443.779 292.913 456.432 295.551C456.497 295.539 456.561 295.522 456.624 295.498C470.603 298.462 478.767 305.13 480.974 314.695C483.714 318.385 476.977 322.274 479.413 325.737C480.525 327.349 482.303 328.369 482.838 330.55C483.46 332.961 480.726 334.377 481.534 337.033C481.933 338.208 480.617 344.962 478.988 352.198M448.742 387.158C450.545 385.731 449.968 382.912 451.588 381.252C454.38 378.423 463.734 382.139 464.283 377.543C464.853 372.503 464.197 367.365 471.526 367.462C475.852 367.511 477.176 363.591 480.775 362.091C483.752 359.811 486.86 357.72 490.082 355.83C494.99 351.147 502.876 341.919 503.049 337.878C503.652 341.592 498.504 348.627 494.402 353.525C498.102 351.673 502.233 349.956 507.883 347.567L509.113 347.044C525.214 340.237 532.677 332.861 534.803 329.778C532.586 332.985 526.408 341.743 509.871 348.712L508.64 349.234C497.204 354.065 491.957 356.273 483.832 362.138C486.639 363.707 485.855 367.704 488.331 369.364C491.789 371.657 493.501 365.118 493.773 363.208C494.384 359.117 501.72 348.39 507.223 353.477C511.027 357.269 512.312 353.147 516.34 353.787C520.616 354.486 515.735 362.025 515.729 364.016C515.761 366.731 519.986 361.94 520.23 361.563C522.64 357.78 522.8 353.955 527.883 352.808C530.024 352.354 532.235 352.385 534.364 352.899C535.08 349.484 539.511 348.983 539.975 346.019C540.402 343.333 536.684 341.832 537.258 339.19C537.75 336.967 544.594 334.657 546.26 332.858C547.676 331.31 546.155 329.698 545.71 327.972C544.84 324.599 547.186 318.506 543.763 316.19C541.251 314.497 537.245 315.742 535.633 317.964C534.393 319.717 533.972 326.395 530.035 324.629C527.539 323.525 529.139 319.726 527.506 318.793C525.873 317.86 523.159 321.895 520.944 321.405C517.9 320.72 513.944 318.72 513.793 323.375C513.688 327.412 515.097 332.188 512.111 335.536C509.125 338.885 507.837 333.892 508.219 331.614C508.699 328.659 510.31 324.533 505.581 324.721C503.435 324.818 497.207 326.393 497.219 329.353C497.178 338.564 486.256 331.838 484.336 339.958C483.94 341.648 483.772 360.743 477.702 353.879C471.631 347.015 469.285 360.149 467.141 364.38C465.173 368.238 461.57 363.954 458.815 366.082C458.018 366.697 458.408 369.482 458.048 370.413C456.994 373.103 455.817 371.028 454.073 372.045C452.123 373.217 452.931 375.506 452.267 377.27C451.602 379.033 449.662 380.033 447.971 380.781C445.148 382.011 443.858 386.642 443.362 389.375C445.025 388.253 447.295 388.376 448.809 387.154" fill="white"/>
</g>
</g>
</g>
</svg>
