<svg width="70" height="70" viewBox="0 0 70 70" fill="none" xmlns="http://www.w3.org/2000/svg">
<path d="M48.1396 29.4178C45.5267 30.8875 43.891 33.8816 43.8715 37.2299V52.098C45.1694 52.5438 46.5378 52.7748 47.9391 52.7748C48.4337 52.7748 48.9332 52.7461 49.4351 52.6873C54.1175 52.1404 58.0708 49.0219 60.0104 44.3461C61.4785 40.8064 62.2222 37.0193 62.2222 33.0859V21.5797L48.1396 29.4178ZM14.2832 52.7748C15.6844 52.7748 17.0528 52.5438 18.3507 52.098V37.2299C18.3312 33.8816 16.6955 30.8875 14.0753 29.4137L0 21.5797V33.0859C0 37.0193 0.74375 40.8064 2.21181 44.3461C4.15139 49.0219 8.10469 52.1404 12.7872 52.6873C13.2891 52.7461 13.7873 52.7748 14.2832 52.7748ZM21.9965 28.9844H29.2882V24.8828C29.2882 21.4904 26.8349 18.7305 23.8194 18.7305C20.804 18.7305 18.3507 21.4904 18.3507 24.8828V26.9336H21.9965V28.9844ZM32.934 24.8828V28.9844H40.2257V26.9336H43.8715V24.8828C43.8715 21.4904 41.4182 18.7305 38.4028 18.7305C35.3873 18.7305 32.934 21.4904 32.934 24.8828ZM32.934 57.9038V53.5938H29.2882V57.9038C25.1144 58.8611 21.9965 63.0176 21.9965 67.9492V70H40.2257V67.9492C40.2257 63.0198 37.109 58.8614 32.934 57.9038ZM40.2257 55.6459V53.5938H36.5799V54.9828C38.6847 56.1107 40.4566 57.8648 41.7278 60.0086C42.8859 60.3955 43.9238 61.1939 44.6615 62.2986L47.8819 67.1289L50.7986 64.668L47.5781 59.8377C45.8488 57.2414 43.1059 55.6828 40.2257 55.6459ZM25.6424 54.9828V53.5938H21.9965V55.6459C19.1163 55.6828 16.3734 57.2414 14.6441 59.8377L11.4236 64.668L14.3403 67.1289L17.5608 62.2986C18.2984 61.1939 19.3363 60.3955 20.4944 60.0086C21.6964 57.9592 23.4828 56.1395 25.6424 54.9828ZM21.9965 46.7578V49.4922H40.2257V33.0859H21.9965V46.7578ZM29.2882 38.5547H32.934V42.6562H29.2882V38.5547ZM28.8884 16.3652L30.2596 14.5538C30.5373 14.6029 30.8215 14.6289 31.1111 14.6289C31.4007 14.6289 31.685 14.6029 31.9627 14.5538L33.3339 16.3652C34.3911 15.5654 35.6052 15.009 36.9128 14.767L35.2195 12.5303C36.0653 11.4466 36.5799 10.0283 36.5799 8.47656V4.375H32.934V0H29.2882V4.375H25.6424V8.47656C25.6424 10.0283 26.1569 11.4466 27.0027 12.5303L25.3094 14.767C26.5906 15.0043 27.8113 15.5494 28.8884 16.3652Z" fill="#51A747"/>
</svg>
