<svg width="70" height="70" viewBox="0 0 70 70" fill="none" xmlns="http://www.w3.org/2000/svg">
<path fill-rule="evenodd" clip-rule="evenodd" d="M35 1.98047C40.4205 1.98047 44.8146 5.06963 44.8146 12.1936C44.8146 19.3178 40.4205 25.093 35 25.093C29.5794 25.093 25.1854 19.3178 25.1854 12.1936C25.1854 5.06949 29.5796 1.98047 35 1.98047ZM3.55469 61.4426H66.4453C67.1984 61.4426 67.8125 62.0567 67.8125 62.8098V66.651C67.8125 67.4041 67.1984 68.0182 66.4453 68.0182H3.55469C2.80164 68.0182 2.1875 67.4041 2.1875 66.651V62.8098C2.1875 62.0567 2.80164 61.4426 3.55469 61.4426ZM49.737 58.1613L51.8521 41.3933C51.8734 41.2241 51.7465 41.0856 51.5766 41.0856H18.4234C18.2535 41.0856 18.1266 41.2242 18.1479 41.3933L20.2629 58.1613H49.737ZM35 47.577C36.7343 47.577 38.1402 48.9829 38.1402 50.7171C38.1402 52.4514 36.7343 53.8573 35 53.8573C33.2657 53.8573 31.8598 52.4514 31.8598 50.7171C31.8598 48.9829 33.2657 47.577 35 47.577ZM14.5571 57.5119C13.8041 57.5119 13.1899 56.8978 13.1899 56.1447V37.6996C13.1899 32.8432 17.5245 30.1313 22.4314 28.8699C30.9371 26.6827 39.3098 26.8212 47.5686 28.8699C52.487 30.09 56.8101 32.8461 56.8101 37.6996V56.1447C56.8101 56.8978 56.1959 57.5119 55.4429 57.5119H52.0153L54.0139 41.6666C54.1998 40.1928 53.0626 38.8979 51.5766 38.8979H18.4234C16.9374 38.8979 15.8002 40.1928 15.9861 41.6666L17.9847 57.5119H14.5571Z" fill="#51A747"/>
</svg>
