<svg width="70" height="70" viewBox="0 0 70 70" fill="none" xmlns="http://www.w3.org/2000/svg">
<path d="M15.6051 20.8508C21.3539 20.8508 26.0303 16.1737 26.0303 10.4254C26.0303 4.67661 21.3533 0 15.6051 0C9.85681 0 5.17969 4.67661 5.17969 10.4253C5.17969 16.1735 9.85642 20.8508 15.6051 20.8508ZM33.4443 48.651C26.578 48.651 20.992 54.2375 20.992 61.1038V64.9293C20.992 66.0116 21.8692 66.8889 22.9516 66.8889H43.9411C45.0235 66.8889 45.9008 66.0116 45.9008 64.9293V61.1059C45.9008 54.2385 40.3137 48.651 33.4443 48.651Z" fill="#51A747"/>
<path d="M17.0708 61.1039C17.0708 54.7009 20.766 49.1456 26.1357 46.4562C22.5318 44.0749 20.1496 39.9888 20.1496 35.3561C20.1496 32.0973 21.3289 29.1092 23.2819 26.7945C21.0136 25.5064 18.393 24.7695 15.6031 24.7695C6.99956 24.7701 0 31.7691 0 40.3724V64.9292C0 66.0116 0.877264 66.8889 1.95964 66.8889H17.4076C17.1844 66.2597 17.0705 65.5969 17.0708 64.9292V61.1039Z" fill="#51A747"/>
<path d="M33.446 44.7317C38.616 44.7317 42.8217 40.5256 42.8217 35.3561C42.8217 30.1866 38.616 25.9805 33.446 25.9805C28.276 25.9805 24.0703 30.1866 24.0703 35.3561C24.0703 40.5262 28.276 44.7317 33.446 44.7317ZM51.2873 20.8508C57.0356 20.8508 61.7127 16.1737 61.7127 10.4254C61.7127 4.6766 57.0361 0 51.2874 0C45.5388 0 40.862 4.6766 40.862 10.4253C40.862 16.1735 45.539 20.8508 51.2873 20.8508Z" fill="#51A747"/>
<path d="M51.2902 24.7697C48.5009 24.7697 45.8798 25.506 43.6114 26.7941C45.5645 29.1088 46.7438 32.0969 46.7438 35.3557C46.7438 39.989 44.3616 44.0751 40.7578 46.4558C46.1272 49.1452 49.8226 54.7005 49.8226 61.1034V64.9289C49.8226 65.6158 49.7032 66.2751 49.4858 66.8885H64.9337C66.0161 66.8885 66.8933 66.0112 66.8933 64.9289V40.3722C66.8933 31.7687 59.8938 24.7695 51.2902 24.7695V24.7697Z" fill="#51A747"/>
</svg>
