<svg width="70" height="70" viewBox="0 0 70 70" fill="none" xmlns="http://www.w3.org/2000/svg">
<g clip-path="url(#clip0_1349_251337)">
<path d="M41.2215 14.849C41.2215 19.933 45.3811 24.0926 50.465 24.0926C55.549 24.0926 59.7086 19.933 59.7086 14.849C59.7086 9.76507 55.549 5.60547 50.465 5.60547C45.3811 5.60547 41.2215 9.67264 41.2215 14.849ZM58.1372 27.4203H47.5071C43.9946 27.4203 41.129 30.2858 41.129 33.7983V61.3441C41.129 63.008 42.5156 64.3945 44.1794 64.3945C45.8433 64.3945 47.2298 63.008 47.2298 61.3441V55.1509C47.2298 53.4871 48.6163 52.1006 50.2802 52.1006C51.944 52.1006 53.3306 53.4871 53.3306 55.1509V61.3441C53.3306 63.008 54.7171 64.3945 56.3809 64.3945C58.0448 64.3945 59.4313 63.008 59.4313 61.3441V37.7731C59.4313 37.2184 60.1708 36.9411 60.5405 37.3109L65.2547 42.0251C66.4564 43.2268 68.3975 43.2268 69.5992 42.0251C70.8009 40.8234 70.8009 38.8823 69.5992 37.6806L60.8178 28.5295C60.0783 27.8824 59.154 27.4203 58.1372 27.4203ZM0.272523 41.9327C1.47419 43.1343 3.41533 43.1343 4.617 41.9327L6.55814 39.9915C6.92789 39.6218 7.57493 39.9915 7.4825 40.4537L4.43212 54.1342C4.33969 54.6888 4.70943 55.1509 5.26404 55.1509H8.96147C9.79339 55.1509 10.4404 55.798 10.4404 56.6299V61.3441C10.4404 63.008 11.827 64.3945 13.4908 64.3945C15.1547 64.3945 16.5412 63.008 16.5412 61.3441V58.2938C16.5412 56.6299 17.9277 55.2434 19.5916 55.2434C21.2554 55.2434 22.6419 56.6299 22.6419 58.2938V61.3441C22.6419 63.008 24.0285 64.3945 25.6923 64.3945C27.3561 64.3945 28.7427 63.008 28.7427 61.3441V56.6299C28.7427 55.798 29.3897 55.1509 30.2217 55.1509H33.9191C34.4737 55.1509 34.8434 54.6888 34.751 54.1342L29.7595 31.7647C29.2049 29.1765 26.894 27.4203 24.3058 27.4203H15.432C12.1043 27.4203 8.96147 28.7144 6.65058 31.0253L0.180088 37.4957C-0.929139 38.7898 -0.92914 40.731 0.272523 41.9327ZM10.348 14.849C10.348 19.933 14.5076 24.0926 19.5916 24.0926C24.6755 24.0926 28.8351 19.933 28.8351 14.849C28.8351 9.76507 24.6755 5.60547 19.5916 5.60547C14.5076 5.60547 10.348 9.67264 10.348 14.849Z" fill="#51A747"/>
</g>
<defs>
<clipPath id="clip0_1349_251337">
<rect width="70" height="70" fill="white"/>
</clipPath>
</defs>
</svg>
