<svg width="70" height="70" viewBox="0 0 70 70" fill="none" xmlns="http://www.w3.org/2000/svg">
<path fill-rule="evenodd" clip-rule="evenodd" d="M49.444 47.7518L48.0504 50.9199C51.007 52.1892 53.8708 53.6645 56.6207 55.3351L58.378 52.3571C55.5146 50.6093 52.5288 49.0702 49.444 47.7518ZM19.7941 47.7518C16.7199 49.075 13.7431 50.6138 10.886 52.3569L12.6174 55.3351C15.3693 53.6781 18.233 52.2145 21.188 50.9548L19.7941 47.7518ZM20.5905 44.7997L21.0494 44.9985L32.4938 49.9503L33.0912 50.2018V70.0001H6.6875V56.149C6.70981 55.0779 6.96993 54.0252 7.44903 53.0671C7.92814 52.1089 8.61425 51.2692 9.45772 50.6087C12.8763 48.1574 16.6244 46.2017 20.5905 44.7997ZM48.2408 44.7822C52.2504 46.0525 56.0023 48.0252 59.3217 50.6082C60.1651 51.2689 60.8512 52.1087 61.3302 53.0669C61.8093 54.0252 62.0695 55.0779 62.0919 56.149V70.0001H35.6882V50.2018L36.2855 49.9505L47.7473 44.9987L48.2408 44.7822ZM43.8431 40.177L47.0462 43.4058L35.6882 48.3142V43.1286L43.8431 40.177ZM24.9363 40.177L33.0912 43.1286V48.3228L23.1009 44.0032L21.7333 43.4058L24.9363 40.177ZM26.6504 24.1183H42.1204C42.8855 24.117 43.6431 24.2696 44.348 24.5671C45.0529 24.8645 45.6908 25.3007 46.2237 25.8497C46.7821 26.4287 47.4502 26.8907 48.1889 27.2091C47.973 30.7293 46.4225 34.0345 43.8535 36.4508C41.2845 38.8671 37.8905 40.2124 34.3637 40.2124C30.837 40.2124 27.443 38.8671 24.874 36.4508C22.305 34.0345 20.7545 30.7293 20.5386 27.2091C21.2928 26.8959 21.9759 26.4335 22.547 25.8497C23.0794 25.3 23.7172 24.8633 24.4222 24.5658C25.1273 24.2683 25.8851 24.1161 26.6504 24.1183ZM34.1646 0.960938H34.6148C44.1374 0.960938 51.063 8.53584 51.063 14.1629V16.2493C51.4958 20.119 51.816 21.0365 53.5821 24.1701C52.8138 24.8266 51.831 25.1778 50.8207 25.1571C49.8103 25.1363 48.8428 24.745 48.1021 24.0575C47.3271 23.2539 46.3978 22.615 45.3699 22.1792C44.342 21.7434 43.2367 21.5196 42.1203 21.5212H26.659C25.5419 21.5207 24.4362 21.7459 23.4083 22.1833C22.3803 22.6206 21.4514 23.2611 20.6771 24.0664C19.9364 24.7537 18.969 25.145 17.9587 25.1658C16.9484 25.1865 15.9657 24.8354 15.1974 24.1792C15.1974 24.1792 17.474 21.5211 17.7164 16.2493V14.1629C17.7164 8.53584 24.642 0.960938 34.1646 0.960938Z" fill="#51A747"/>
</svg>
