<svg width="70" height="70" viewBox="0 0 70 70" fill="none" xmlns="http://www.w3.org/2000/svg">
<path d="M12.4345 20.043C13.4784 20.043 14.4795 19.6284 15.2176 18.8902C15.9558 18.1521 16.3704 17.151 16.3704 16.1072V2.91406C15.8954 3.27363 15.4623 3.68556 15.0795 4.14206L2.10678 19.0669C1.85816 19.3794 1.62691 19.7052 1.41406 20.043H12.4345Z" fill="#51A747"/>
<path d="M55.7007 3.6717C54.9032 2.86395 53.9515 2.22472 52.9022 1.792C51.8528 1.35927 50.7272 1.14188 49.5922 1.15273H21.0963V16.1091C21.0963 18.4056 20.1841 20.608 18.5602 22.2319C16.9363 23.8558 14.7339 24.7681 12.4374 24.7681H0V60.191C0 62.4875 0.91228 64.69 2.53615 66.3138C4.16002 67.9377 6.36245 68.85 8.65895 68.85H49.5922C51.8886 68.85 54.0911 67.9377 55.715 66.3138C57.3388 64.69 58.2511 62.4875 58.2511 60.191V9.81168C58.2532 8.67042 58.0289 7.54009 57.5911 6.48614C57.1533 5.43219 56.5107 4.47558 55.7007 3.6717ZM31.3296 49.9577H18.7348C18.1085 49.9577 17.5078 49.7089 17.065 49.266C16.6221 48.8232 16.3733 48.2225 16.3733 47.5962C16.3733 46.9699 16.6221 46.3692 17.065 45.9263C17.5078 45.4835 18.1085 45.2347 18.7348 45.2347H31.3296C31.956 45.2347 32.5566 45.4835 32.9995 45.9263C33.4424 46.3692 33.6912 46.9699 33.6912 47.5962C33.6912 48.2225 33.4424 48.8232 32.9995 49.266C32.5566 49.7089 31.956 49.9577 31.3296 49.9577ZM43.9245 37.3629H18.7348C18.1085 37.3629 17.5078 37.1141 17.065 36.6712C16.6221 36.2283 16.3733 35.6277 16.3733 35.0014C16.3733 34.375 16.6221 33.7744 17.065 33.3315C17.5078 32.8886 18.1085 32.6398 18.7348 32.6398H43.9245C44.5508 32.6398 45.1515 32.8886 45.5943 33.3315C46.0372 33.7744 46.286 34.375 46.286 35.0014C46.286 35.6277 46.0372 36.2283 45.5943 36.6712C45.1515 37.1141 44.5508 37.3629 43.9245 37.3629Z" fill="#51A747"/>
</svg>
