<svg width="70" height="70" viewBox="0 0 70 70" fill="none" xmlns="http://www.w3.org/2000/svg">
<path d="M48.2776 1.00391H8.39674C6.16978 1.00391 4.03404 1.88856 2.45935 3.46325C0.884654 5.03795 0 7.17369 0 9.40065V53.7154C0 55.9424 0.884654 58.0781 2.45935 59.6528C4.03404 61.2275 6.16978 62.1122 8.39674 62.1122H25.5423V57.1926C23.3025 54.7778 22.0572 51.6063 22.0554 48.3127C22.0554 41.0742 27.9462 35.1833 35.1847 35.1833C42.4232 35.1833 48.3116 41.0717 48.3116 48.3127C48.3109 51.6088 47.0635 54.7828 44.8198 57.1975V62.1122H48.2727C50.4997 62.1122 52.6354 61.2275 54.2101 59.6528C55.7848 58.0781 56.6695 55.9424 56.6695 53.7154V9.40065C56.6704 8.29811 56.4541 7.2062 56.0327 6.18734C55.6114 5.16849 54.9934 4.24267 54.214 3.46284C53.4346 2.683 52.5091 2.06444 51.4905 1.64251C50.4719 1.22059 49.3801 1.00359 48.2776 1.00391ZM23.0558 28.5568H12.9666C12.387 28.5568 11.8312 28.3265 11.4213 27.9167C11.0115 27.5068 10.7812 26.951 10.7812 26.3714C10.7812 25.7918 11.0115 25.2359 11.4213 24.8261C11.8312 24.4162 12.387 24.186 12.9666 24.186H23.0558C23.6354 24.186 24.1913 24.4162 24.6011 24.8261C25.011 25.2359 25.2412 25.7918 25.2412 26.3714C25.2412 26.951 25.011 27.5068 24.6011 27.9167C24.1913 28.3265 23.6354 28.5568 23.0558 28.5568ZM35.4105 16.6756H12.9666C12.387 16.6756 11.8312 16.4453 11.4213 16.0355C11.0115 15.6256 10.7812 15.0698 10.7812 14.4902C10.7812 13.9106 11.0115 13.3547 11.4213 12.9449C11.8312 12.535 12.387 12.3048 12.9666 12.3048H35.4105C35.9901 12.3048 36.546 12.535 36.9558 12.9449C37.3657 13.3547 37.5959 13.9106 37.5959 14.4902C37.5959 15.0698 37.3657 15.6256 36.9558 16.0355C36.546 16.4453 35.9901 16.6756 35.4105 16.6756Z" fill="#51A747"/>
<path d="M35.1876 61.4447C33.0241 61.4447 30.9868 60.9105 29.1875 59.9805V68.994L35.1852 64.696L41.1828 68.994V59.9805C39.3307 60.9421 37.2745 61.4443 35.1876 61.4447Z" fill="#51A747"/>
<path d="M35.1901 57.8021C40.4297 57.8021 44.6771 53.5547 44.6771 48.3151C44.6771 43.0756 40.4297 38.8281 35.1901 38.8281C29.9506 38.8281 25.7031 43.0756 25.7031 48.3151C25.7031 53.5547 29.9506 57.8021 35.1901 57.8021Z" fill="#51A747"/>
</svg>
