<svg width="65" height="46" viewBox="0 0 65 46" fill="none" xmlns="http://www.w3.org/2000/svg">
<path d="M29.3047 37.2119H35.6781V45.2606H29.3047V37.2119ZM55.8943 33.3906C55.8943 32.8383 56.342 32.3906 56.8943 32.3906H63.9915C64.5437 32.3906 64.9915 32.8383 64.9915 33.3906V44.2606C64.9915 44.8129 64.5437 45.2606 63.9915 45.2606H56.8943C56.342 45.2606 55.8943 44.8129 55.8943 44.2606V33.3906Z" fill="#51A747"/>
<path d="M51.0942 45.2621C51.6465 45.2621 52.0942 44.8144 52.0942 44.2621V29.5215C52.0942 28.9693 51.6465 28.5215 51.0942 28.5215H13.9058C13.3535 28.5215 12.9058 28.9693 12.9058 29.5215V44.2621C12.9058 44.8144 13.3535 45.2621 13.9058 45.2621H24.5046C25.0569 45.2621 25.5046 44.8144 25.5046 44.2621V34.4048C25.5046 33.8525 25.9523 33.4048 26.5046 33.4048H38.4954C39.0477 33.4048 39.4954 33.8525 39.4954 34.4048V44.2621C39.4954 44.8144 39.9431 45.2621 40.4954 45.2621H51.0942ZM12.9058 9.60641C12.9058 9.05412 13.3535 8.60641 13.9058 8.60641H18.8175C19.3698 8.60641 19.8175 9.05412 19.8175 9.60641V13.8817C19.8175 14.434 19.3698 14.8817 18.8175 14.8817H13.9058C13.3535 14.8817 12.9058 14.434 12.9058 13.8817V9.60641ZM45.1535 9.60641C45.1535 9.05412 45.6013 8.60641 46.1535 8.60641H51.0942C51.6465 8.60641 52.0942 9.05412 52.0942 9.60641V13.8817C52.0942 14.434 51.6465 14.8817 51.0942 14.8817H46.1535C45.6013 14.8817 45.1535 14.434 45.1535 13.8817V9.60641ZM0 33.3921C0 32.8398 0.447715 32.3921 1 32.3921H8.09721C8.64949 32.3921 9.09721 32.8398 9.09721 33.3921V44.2621C9.09721 44.8144 8.64949 45.2621 8.09721 45.2621H1C0.447716 45.2621 0 44.8144 0 44.2621V33.3921ZM8.09721 28.5835C8.64949 28.5835 9.09721 28.1358 9.09721 27.5835V18.7651C9.09721 18.0034 8.27972 17.5214 7.61323 17.89L0.516019 21.8152C0.197623 21.9913 0 22.3265 0 22.6903V27.5835C0 28.1358 0.447715 28.5835 1 28.5835H8.09721ZM9.31696 1C9.31696 0.447716 9.76468 0 10.317 0H54.6832C55.2355 0 55.6832 0.447715 55.6832 1V3.79781C55.6832 4.3501 55.2354 4.79781 54.6832 4.79781H10.317C9.76468 4.79781 9.31696 4.3501 9.31696 3.79781V1ZM34.4043 9.60641C34.4043 9.05412 34.852 8.60641 35.4043 8.60641H40.345C40.8972 8.60641 41.345 9.05412 41.345 9.60641V13.8817C41.345 14.434 40.8972 14.8817 40.345 14.8817H35.4043C34.852 14.8817 34.4043 14.434 34.4043 13.8817V9.60641ZM23.6261 9.60641C23.6261 9.05412 24.0738 8.60641 24.6261 8.60641H29.5957C30.148 8.60641 30.5957 9.05412 30.5957 9.60641V13.8817C30.5957 14.434 30.148 14.8817 29.5957 14.8817H24.6261C24.0738 14.8817 23.6261 14.434 23.6261 13.8817V9.60641ZM23.6261 19.6903C23.6261 19.138 24.0738 18.6903 24.6261 18.6903H29.5957C30.148 18.6903 30.5957 19.138 30.5957 19.6903V23.7129C30.5957 24.2652 30.148 24.7129 29.5957 24.7129H24.6261C24.0738 24.7129 23.6261 24.2652 23.6261 23.7129V19.6903ZM55.9028 27.5835C55.9028 28.1358 56.3505 28.5835 56.9028 28.5835H64C64.5523 28.5835 65 28.1358 65 27.5835V22.6903C65 22.3265 64.8024 21.9913 64.484 21.8152L57.3868 17.89C56.7203 17.5214 55.9028 18.0034 55.9028 18.7651V27.5835ZM12.9058 19.6903C12.9058 19.138 13.3535 18.6903 13.9058 18.6903H18.8175C19.3698 18.6903 19.8175 19.138 19.8175 19.6903V23.7129C19.8175 24.2652 19.3698 24.7129 18.8175 24.7129H13.9058C13.3535 24.7129 12.9058 24.2652 12.9058 23.7129V19.6903ZM45.1535 19.6903C45.1535 19.138 45.6013 18.6903 46.1535 18.6903H51.0942C51.6465 18.6903 52.0942 19.138 52.0942 19.6903V23.7129C52.0942 24.2652 51.6465 24.7129 51.0942 24.7129H46.1535C45.6013 24.7129 45.1535 24.2652 45.1535 23.7129V19.6903ZM34.4043 19.6903C34.4043 19.138 34.852 18.6903 35.4043 18.6903H40.345C40.8972 18.6903 41.345 19.138 41.345 19.6903V23.7129C41.345 24.2652 40.8972 24.7129 40.345 24.7129H35.4043C34.852 24.7129 34.4043 24.2652 34.4043 23.7129V19.6903Z" fill="#51A747"/>
</svg>
