<svg width="75" height="75" viewBox="0 0 75 75" fill="none" xmlns="http://www.w3.org/2000/svg">
<g clip-path="url(#clip0_1240_113534)">
<path fill-rule="evenodd" clip-rule="evenodd" d="M27.9087 22.832L20.5391 25.6279V30.8782L27.8568 28.3682L27.9383 28.6383L27.9087 22.832ZM20.5391 31.4819V36.2476L27.879 34.1983L27.9383 34.4684V28.9401L20.5391 31.4819ZM20.5391 36.8195V41.5853L27.8864 39.9967L27.9383 40.2747V34.7464L20.5391 36.8195ZM20.5391 42.181V46.9467L27.8939 45.795L27.9383 46.081V40.5209L20.5391 42.181ZM20.5391 47.5186V52.2844L27.9161 51.5933V51.8872V46.359L20.5391 47.5186ZM20.5391 52.8721V57.6379L27.9532 57.4076V57.7014V52.1414L20.5391 52.8721ZM20.5391 58.2098V62.9755L27.9532 63.2138V57.9794L20.5391 58.2098ZM20.5391 63.5633V68.3291L27.9532 69.028V63.468V63.7619L20.5391 63.5633ZM20.5391 68.901V73.9527L27.9532 75.0011V69.2981V69.584L20.5391 68.901Z" fill="white"/>
<path d="M27.4749 73.9513V74.9998L23.7678 74.4755C22.5371 74.3008 21.2989 74.134 20.0608 73.9513H27.4749ZM19.7197 60.8614C19.6854 60.8547 19.6502 60.8547 19.6159 60.8614H9.80706C9.52532 60.8614 9.38445 61.0679 9.38445 61.473V72.2674L2 71.0998V33.1723L9.41411 30.1699V50.472C9.41411 50.8771 9.55498 51.0598 9.83671 51.028C11.4604 50.8453 13.1063 50.6468 14.7374 50.4482C16.3685 50.2496 18.0071 50.0669 19.6456 49.8684H19.7494L19.7197 60.8614Z" fill="white"/>
<path d="M41.0262 50.6685L54.8832 70.8912L46.3643 72.2256L36.9929 57.7139C36.8595 57.5233 36.726 57.4518 36.5703 57.4994V42.3205L36.9929 42.257L46.3273 29.9375L54.5643 33.2815L41.0262 50.6685Z" fill="white"/>
<path fill-rule="evenodd" clip-rule="evenodd" d="M28.4844 22.8301L35.8985 25.626V30.8763L28.5808 28.3663L28.4992 28.6364L28.4844 22.8301ZM35.8985 31.4799V36.2457L28.5585 34.1964L28.4992 34.4665V28.9382L35.8985 31.4799ZM35.8985 36.8176V41.5833L28.5511 39.9947L28.4992 40.2727V34.7445L35.8985 36.8176ZM35.8985 42.1631V46.9289L28.5289 45.7772V46.0631V40.5031L35.8985 42.1631ZM35.8985 47.5008V52.2665L28.4844 51.5755V51.8694V46.357L35.8985 47.5008ZM35.8985 52.8543V57.6201L28.4844 57.3897V52.1633L35.8985 52.8543ZM35.8985 58.192V62.9577L28.4844 63.196V57.9775L35.8985 58.192ZM35.8985 63.5455V68.3112L28.4844 69.0102V63.7838L35.8985 63.5455ZM35.8985 68.8831V73.9507L28.4844 74.9992V69.2962V69.5821L35.8985 68.8831Z" fill="white"/>
<path d="M9.14626 11.9968H9.23523C8.6914 10.853 8.40932 9.58701 8.41226 8.30336C8.39778 6.38308 9.01004 4.51774 10.1432 3.02979C11.2763 1.54185 12.8592 0.524839 14.618 0.154573C16.3769 -0.215693 18.2012 0.0840615 19.7756 1.00202C21.3501 1.91997 22.5756 3.39842 23.2405 5.18179C23.6977 3.8446 24.5261 2.68942 25.6142 1.87152C26.7024 1.05363 27.9982 0.612233 29.3275 0.60667C30.9613 0.602525 32.5339 1.27282 33.7185 2.47832C34.9031 3.68382 35.6087 5.33187 35.6888 7.08015C35.6888 7.12781 35.6888 7.18341 35.6888 7.22312V7.42964C35.6893 8.24248 35.5563 9.04908 35.2958 9.81251C35.102 10.6776 34.7408 11.4894 34.2356 12.1954C35.6292 11.5781 37.1011 11.1872 38.6025 11.0357L39.5515 10.9404L40.1965 10.8927H40.938H41.1752L41.6423 10.9484H41.8276C41.8768 10.94 41.9268 10.94 41.9759 10.9484C42.7163 11.0811 43.4368 11.3188 44.1186 11.6553C45.6637 12.3945 46.9759 13.5972 47.8969 15.118C48.8178 16.6389 49.3081 18.4128 49.3085 20.2257C49.3085 22.7368 48.3789 25.1455 46.7235 26.9234C45.0682 28.7012 42.8222 29.7032 40.4783 29.7095C39.904 29.7258 39.3297 29.6752 38.7656 29.5586C39.2025 29.4419 39.6291 29.2851 40.0408 29.09C45.2307 26.8739 46.5504 23.935 46.5504 20.3528C46.5415 18.3824 45.8567 16.4842 44.6263 15.0196C43.396 13.555 41.7059 12.6262 39.8777 12.4098C39.1049 12.4057 38.3324 12.4508 37.5645 12.5449C36.8971 12.6179 36.2355 12.7427 35.585 12.9182C33.0716 13.5933 31.27 14.5068 30.9882 14.4353C31.5984 13.9439 32.1802 13.4134 32.7305 12.8467C32.8343 12.7196 32.9381 12.5766 33.0493 12.4098C33.1441 12.2895 33.2308 12.1621 33.3088 12.0286C33.489 11.702 33.6476 11.3623 33.7833 11.0119C33.8058 10.9666 33.8232 10.9186 33.8352 10.8689C34.1276 9.93054 34.2014 8.9298 34.0502 7.95387C34.0502 7.77913 33.9909 7.62027 33.9465 7.44552C33.9465 7.44552 33.9465 7.39787 33.9465 7.38992C33.6436 6.14421 32.9644 5.04089 32.0149 4.25208C31.0654 3.46326 29.8988 3.0333 28.6973 3.02926C27.6475 3.02327 26.6169 3.33074 25.7212 3.91719C24.8254 4.50364 24.0999 5.34587 23.626 6.3494C23.2806 7.08926 23.1003 7.90501 23.0996 8.73228C23.0996 8.92291 23.0996 9.24062 23.0996 9.43125C23.0996 9.32005 23.0403 9.20885 23.0181 9.09765V9.05794C23.0031 8.90327 22.9808 8.74951 22.9513 8.59725C22.7381 7.67412 22.3572 6.80503 21.8305 6.03959C21.3038 5.27415 20.6415 4.62736 19.8814 4.13614C19.1213 3.64492 18.2784 3.31889 17.4007 3.17667C16.523 3.03445 15.6278 3.07883 14.7662 3.30726C13.9045 3.5357 13.0933 3.94372 12.3788 4.50803C11.6643 5.07234 11.0606 5.78189 10.6021 6.59616C10.1435 7.41044 9.83921 8.31349 9.70646 9.25377C9.57371 10.194 9.61513 11.1531 9.82836 12.0762C9.9025 12.3145 9.99147 12.5449 10.073 12.7752C9.98174 12.7671 9.88999 12.7671 9.7987 12.7752H9.62076C8.82702 12.8107 8.06032 13.0942 7.41518 13.5909C6.77004 14.0875 6.27465 14.7756 5.9901 15.5702C5.70555 16.3648 5.64428 17.2313 5.81382 18.0628C5.98337 18.8942 6.37634 19.6544 6.94427 20.2495L7.13704 20.4481V20.6228V20.7181V20.7658V20.8849V21.5283V21.5998V21.6395C7.13704 21.7507 7.13704 21.854 7.13704 21.9731C7.139 23.5664 7.73118 25.0938 8.78351 26.2197C9.83584 27.3456 11.2623 27.978 12.7495 27.978C13.222 27.9819 13.693 27.9205 14.1508 27.7953H14.2694C14.2648 27.7825 14.2648 27.7684 14.2694 27.7556V27.8112V27.8509C14.2914 27.96 14.3237 28.0665 14.3658 28.1686C14.5646 28.6529 14.8937 29.0628 15.3111 29.3457C15.7284 29.6287 16.215 29.7719 16.7087 29.7572C16.8656 29.7614 17.0224 29.7454 17.1757 29.7095C17.5531 29.7867 17.9423 29.7649 18.3101 29.646C18.5059 29.4827 18.6761 29.287 18.8143 29.0661C18.7896 29.4153 18.6934 29.7542 18.5325 30.059C18.2237 30.6325 17.7227 31.0585 17.1313 31.2505C16.8679 31.3429 16.5928 31.3912 16.3157 31.3934C15.6814 31.4215 15.0624 31.1803 14.5932 30.7223C14.1239 30.2642 13.8424 29.6262 13.8097 28.947C13.8097 28.947 13.8097 28.8993 13.8097 28.8914C13.1778 29.1392 12.5106 29.2682 11.8376 29.2727C10.3491 29.2727 8.9215 28.6392 7.86896 27.5116C6.81642 26.3839 6.2251 24.8546 6.2251 23.2599C6.2236 22.5703 6.3314 21.8854 6.54391 21.2344C6.42528 21.1471 6.26959 21.0359 5.93595 20.7658C5.01963 19.7826 4.4891 18.4612 4.45313 17.0723C4.45113 15.7338 4.94354 14.4488 5.82283 13.4979C6.70212 12.5469 7.89688 12.0073 9.14626 11.9968Z" fill="white"/>
<path d="M20.064 18.9799C20.1011 18.9164 20.1085 18.8767 20.064 18.8211C20.0092 18.8202 19.9551 18.807 19.9053 18.7824C19.8555 18.7577 19.8111 18.7222 19.7749 18.6781C19.6785 18.551 19.7749 18.4318 19.849 18.3445C19.8917 18.3077 19.9227 18.2578 19.938 18.2015C19.938 18.0982 19.8935 18.0824 19.849 18.0188C19.8045 17.9553 19.7156 17.8044 19.8045 17.709C19.8935 17.6137 20.0566 17.709 20.1827 17.709C20.3087 17.709 20.3309 17.709 20.3754 17.6296C20.4199 17.5502 20.3754 17.5264 20.4792 17.5025C20.583 17.4787 20.6275 17.6296 20.7239 17.6932C20.8203 17.7567 20.887 17.5264 20.9611 17.4866C21.2799 17.3119 21.317 17.7646 21.4579 17.9473C21.495 18.0029 21.5543 18.0347 21.5987 17.9473C21.6432 17.86 21.5987 17.8123 21.5987 17.7488C21.5987 17.6852 21.836 17.7488 21.8953 17.852C21.9806 17.9612 22.0369 18.0928 22.0584 18.2333C22.0864 18.3725 22.1339 18.5064 22.1993 18.6304C22.266 18.7416 22.3995 18.8131 22.4143 18.6304C22.4291 18.4477 22.4143 18.4795 22.4884 18.4636C22.5189 18.4568 22.5505 18.4583 22.5804 18.468C22.6102 18.4777 22.6372 18.4953 22.659 18.5192C22.8666 18.7178 22.7776 19.0435 22.8666 19.3135C22.9555 19.5836 22.9852 19.5836 23.0519 19.385C23.0519 19.3294 23.0964 19.2817 23.1631 19.3056C23.2299 19.3294 23.2447 19.4088 23.2521 19.4803C23.2595 19.5518 23.2521 19.6551 23.2521 19.7345C23.2731 19.8311 23.3055 19.9246 23.3485 20.0125C22.8251 19.9424 22.3205 19.7586 21.8657 19.4724C21.394 19.1773 20.9518 18.8313 20.5459 18.4398C20.9043 18.9232 21.3353 19.3392 21.8212 19.6709C22.4043 19.9911 23.012 20.2568 23.6376 20.4652C23.5713 20.5581 23.4911 20.6386 23.4004 20.7035C23.2922 20.7873 23.172 20.8517 23.0445 20.8942C22.9185 20.9339 22.444 21.0848 22.3846 20.8386C22.3846 20.7909 22.4291 20.7432 22.4217 20.6876C22.4143 20.632 22.355 20.6162 22.2957 20.6162C22.1711 20.6296 22.0473 20.6508 21.925 20.6797C21.7961 20.7153 21.6609 20.7153 21.532 20.6797C21.3912 20.6241 21.3615 20.5447 21.4801 20.4335C21.5987 20.3223 21.7322 20.2349 21.6136 20.1555C21.495 20.076 21.4801 20.1555 21.4282 20.1555H21.2503C21.1227 20.1793 20.9923 20.1793 20.8648 20.1555C20.8054 20.1555 20.7165 20.1555 20.6868 20.076C20.6572 19.9966 20.6868 19.9728 20.6868 19.9172C20.8277 19.5756 20.3606 19.6312 20.1827 19.5756C20.1211 19.5611 20.063 19.5331 20.012 19.4935C19.961 19.4538 19.9181 19.4034 19.8861 19.3453C19.8638 19.1467 20.0047 19.1467 20.064 18.9799Z" fill="white"/>
<path d="M26.7097 16.0717C26.8877 16.3973 26.4725 16.4688 26.3094 16.6277C26.2649 16.6753 26.2352 16.7389 26.3094 16.7786C26.3835 16.8183 26.4354 16.7786 26.4947 16.7786C26.554 16.7786 26.4947 17.0328 26.4206 17.1043C26.3247 17.205 26.2037 17.274 26.0721 17.3028C25.9444 17.3474 25.8224 17.4088 25.7088 17.4855C25.6124 17.557 25.5531 17.7079 25.7088 17.7159C25.8645 17.7238 25.8423 17.7159 25.8645 17.7794C25.8788 17.8088 25.8863 17.8415 25.8863 17.8747C25.8863 17.9079 25.8788 17.9406 25.8645 17.97C25.6866 18.2083 25.3826 18.1289 25.1231 18.2401C24.8636 18.3513 24.8784 18.3831 25.0638 18.4466C25.1157 18.4466 25.1676 18.4863 25.1453 18.5658C25.1231 18.6452 25.0564 18.6531 24.9896 18.6611C24.9229 18.669 24.8265 18.6611 24.7524 18.6611C24.664 18.6892 24.5793 18.7292 24.5003 18.7802C24.5359 18.2268 24.6745 17.6867 24.9081 17.1916C25.1485 16.6664 25.4418 16.171 25.783 15.7142C25.3528 16.1274 24.9917 16.6164 24.7153 17.1599C24.4692 17.8033 24.2733 18.4675 24.1296 19.1456C24.0414 19.0773 23.9617 18.9972 23.8924 18.9073C23.809 18.7969 23.7415 18.6737 23.6922 18.5419C23.6477 18.399 23.4772 17.9065 23.6922 17.8271C23.7367 17.8271 23.7811 17.8668 23.833 17.8271C23.8849 17.7874 23.8998 17.7476 23.8924 17.692C23.8731 17.5579 23.8459 17.4253 23.8108 17.2949C23.7655 17.1602 23.7528 17.0153 23.7737 16.8739C23.8182 16.7151 23.8924 16.6833 23.9962 16.8024C24.0999 16.9216 24.2037 17.0645 24.2705 16.9216C24.3372 16.7786 24.2705 16.7865 24.2705 16.7309C24.2669 16.6675 24.2669 16.6038 24.2705 16.5403C24.2445 16.4014 24.2445 16.2583 24.2705 16.1193C24.2705 16.0637 24.2705 15.9684 24.3372 15.9287C24.4039 15.889 24.4262 15.9287 24.4855 15.9287C24.8117 16.0558 24.7301 15.5633 24.7672 15.3727C24.7771 15.3042 24.7999 15.2385 24.8343 15.1798C24.8688 15.121 24.914 15.0704 24.9674 15.0312C25.1157 14.9279 25.1602 15.0312 25.2862 15.1344C25.4122 15.2377 25.39 15.1741 25.4345 15.1344C25.4314 15.0754 25.4405 15.0164 25.4609 14.9615C25.4814 14.9066 25.5129 14.8572 25.5531 14.8167C25.6643 14.7055 25.7755 14.8167 25.8645 14.8723C25.8992 14.9158 25.946 14.9464 25.998 14.9597C26.1018 14.9597 26.1166 14.9041 26.1685 14.8485C26.2204 14.7929 26.3613 14.6896 26.4502 14.7849C26.5392 14.8802 26.4947 15.047 26.5021 15.19C26.5095 15.333 26.5021 15.3489 26.5837 15.3886C26.6652 15.4283 26.6875 15.3886 26.7171 15.4839C26.7468 15.5792 26.6059 15.6586 26.554 15.7619C26.5021 15.8652 26.6652 15.9684 26.7097 16.0717Z" fill="white"/>
<path d="M21.5601 8.66921C21.7899 9.02664 21.3154 9.13784 21.1375 9.32847C21.093 9.38407 21.0559 9.45556 21.1375 9.50321C21.219 9.55087 21.2783 9.50321 21.345 9.50321C21.4118 9.50321 21.345 9.7971 21.2783 9.87653C21.1739 9.99351 21.0439 10.0808 20.9002 10.1307C20.7543 10.1852 20.6168 10.2628 20.4924 10.361C20.3886 10.4484 20.3293 10.6232 20.4924 10.6152C20.5666 10.6152 20.6407 10.6152 20.6778 10.6788C20.6941 10.7132 20.7026 10.7513 20.7026 10.79C20.7026 10.8286 20.6941 10.8667 20.6778 10.9012C20.4924 11.1792 20.1365 11.1156 19.8919 11.2586C19.7658 11.3301 19.6176 11.4413 19.84 11.4889C19.8993 11.4889 19.9586 11.5287 19.9364 11.624C19.9141 11.7193 19.84 11.7272 19.7658 11.7431C19.6917 11.759 19.5805 11.7431 19.4989 11.7908C19.3992 11.8309 19.3045 11.8843 19.2172 11.9496C19.2205 11.312 19.3467 10.6819 19.5879 10.0989C19.8433 9.47837 20.1616 8.88972 20.5369 8.34355C20.0718 8.84638 19.6884 9.42894 19.4026 10.0672C19.15 10.8211 18.959 11.5971 18.8317 12.3865C18.7269 12.3135 18.6321 12.2253 18.5499 12.1244C18.4459 12.0049 18.3607 11.8681 18.2978 11.7193C18.2385 11.5684 18.0161 11.0124 18.2608 10.925C18.3127 10.925 18.372 10.925 18.4239 10.925C18.4758 10.925 18.498 10.8297 18.4906 10.7661C18.4832 10.7026 18.4016 10.4643 18.3646 10.3134C18.3117 10.1641 18.2915 10.0038 18.3053 9.84476C18.3053 9.65413 18.4239 9.62236 18.5573 9.7415C18.6908 9.86065 18.8094 10.0274 18.8687 9.86859C18.928 9.70973 18.8687 9.70973 18.8317 9.64619C18.8109 9.57571 18.7936 9.50413 18.7798 9.43173C18.7502 9.27445 18.7502 9.11243 18.7798 8.95515C18.7798 8.88367 18.7798 8.78041 18.8391 8.73275C18.8984 8.68509 18.9429 8.73275 19.0096 8.73275C19.3877 8.85984 19.2691 8.30383 19.2988 8.08143C19.3033 8.00277 19.3243 7.92622 19.3602 7.85746C19.3962 7.7887 19.4461 7.72951 19.5063 7.68429C19.6695 7.5572 19.7362 7.68429 19.8771 7.7796C20.0179 7.87492 19.9957 7.81932 20.0476 7.7796C20.041 7.71374 20.0474 7.64712 20.0666 7.58414C20.0858 7.52116 20.1172 7.46325 20.1588 7.41423C20.2848 7.2792 20.4183 7.36657 20.5221 7.45394C20.5686 7.49922 20.6245 7.53191 20.6852 7.54926C20.7964 7.54926 20.8112 7.47777 20.8705 7.41423C20.9299 7.35068 21.0781 7.21565 21.1894 7.31891C21.3006 7.42217 21.2561 7.6128 21.2709 7.77166C21.2857 7.93052 21.2709 7.95435 21.3747 7.99406C21.4785 8.03377 21.4933 7.99406 21.5304 8.09732C21.5675 8.20058 21.4192 8.30383 21.3599 8.42298C21.3006 8.54212 21.5082 8.57389 21.5601 8.66921Z" fill="white"/>
<path d="M17.7155 14.187C17.7674 14.1393 17.8193 14.0996 17.8786 14.187C17.9379 14.2744 17.8786 14.3379 17.8786 14.4173C17.8346 14.5023 17.795 14.5898 17.76 14.6795C17.7454 14.7901 17.7454 14.9024 17.76 15.0131C17.2651 14.6549 16.8458 14.1895 16.5292 13.6469C16.187 13.0863 15.9035 12.4869 15.684 11.8597C15.8099 12.5541 16.0456 13.2203 16.3809 13.8296C16.8269 14.4743 17.323 15.0774 17.8638 15.6326C17.7512 15.6877 17.631 15.7226 17.5079 15.7359C17.3583 15.7638 17.2053 15.7638 17.0556 15.7359C16.8999 15.7359 16.3142 15.5929 16.4032 15.3149C16.4032 15.2593 16.4922 15.2434 16.5144 15.1799C16.5366 15.1163 16.5144 15.0687 16.4254 15.0369C16.2897 14.9809 16.151 14.9332 16.0102 14.8939C15.8635 14.8597 15.7264 14.789 15.6099 14.6874C15.4913 14.5444 15.5061 14.4491 15.6766 14.4094C15.8471 14.3697 16.0325 14.3379 15.9435 14.1949C15.8545 14.052 15.8101 14.1235 15.7507 14.1076C15.6838 14.0894 15.6191 14.0627 15.558 14.0281C15.4169 13.9761 15.2879 13.8922 15.1799 13.7819C15.128 13.7343 15.0464 13.6787 15.039 13.6072C15.0316 13.5357 15.0835 13.496 15.1354 13.4563C15.4468 13.1862 14.9426 12.9876 14.7943 12.8288C14.7363 12.7807 14.6889 12.7194 14.6555 12.6494C14.6222 12.5793 14.6038 12.5023 14.6016 12.4237C14.6016 12.2092 14.7573 12.241 14.8833 12.1457C15.0093 12.0504 14.9797 12.0662 14.9574 11.9789C14.9009 11.9475 14.8513 11.9036 14.8117 11.8503C14.7721 11.7969 14.7434 11.7352 14.7276 11.6691C14.7276 11.4864 14.8388 11.4229 14.9649 11.3752C15.0269 11.3615 15.0836 11.3283 15.128 11.2799C15.2021 11.1925 15.128 11.1369 15.128 11.0416C15.128 10.9463 15.128 10.7477 15.2318 10.708C15.3356 10.6683 15.4987 10.8113 15.6321 10.8907C15.6654 10.9171 15.7056 10.9314 15.747 10.9314C15.7884 10.9314 15.8287 10.9171 15.862 10.8907C15.9287 10.8907 15.9435 10.8033 16.0251 10.8192C16.1066 10.8351 16.1215 11.0337 16.1882 11.1528C16.2549 11.272 16.4328 11.0734 16.5292 11.0734C16.937 11.0734 16.7591 11.5579 16.811 11.82C16.811 11.8915 16.8629 11.963 16.9444 11.9074C17.026 11.8518 16.9963 11.7644 17.063 11.7247C17.1298 11.685 17.2855 11.8915 17.3151 11.9948C17.3522 12.1511 17.3522 12.315 17.3151 12.4713C17.276 12.6293 17.2585 12.7925 17.2632 12.9558C17.2632 13.0988 17.3819 13.2577 17.4782 13.0829C17.5746 12.9082 17.545 12.932 17.6339 12.9479C17.6681 12.961 17.6991 12.982 17.7248 13.0095C17.7504 13.0369 17.77 13.0702 17.7822 13.1068C17.9008 13.4324 17.6488 13.7025 17.6191 14.0043C17.5746 14.1632 17.5746 14.3776 17.7155 14.187Z" fill="white"/>
<path d="M22.1425 12.3867C22.3501 12.3867 22.3056 12.5535 22.3872 12.6965C22.4687 12.8395 22.4613 12.8077 22.5429 12.7839C22.5754 12.7269 22.6185 12.6778 22.6695 12.6395C22.7205 12.6012 22.7784 12.5747 22.8394 12.5615C23.01 12.5615 23.0693 12.6886 23.1064 12.8315C23.1141 12.8964 23.14 12.9573 23.1805 13.0063C23.2621 13.0937 23.3214 13.0063 23.4029 13.0063C23.4845 13.0063 23.6772 13.0063 23.7143 13.1334C23.7514 13.2605 23.6031 13.4193 23.5215 13.5543C23.44 13.6894 23.44 13.7132 23.4845 13.8006C23.529 13.8879 23.566 13.8879 23.5438 13.9833C23.5215 14.0786 23.3436 14.0706 23.225 14.1342C23.1064 14.1977 23.2843 14.3963 23.2769 14.5075C23.2769 14.9364 22.8172 14.722 22.5355 14.7617C22.4687 14.7617 22.402 14.8093 22.4465 14.9046C22.491 15 22.58 14.9682 22.617 15.0397C22.6541 15.1112 22.4465 15.27 22.3501 15.2938C22.2011 15.3206 22.0481 15.307 21.9053 15.2541C21.7591 15.2033 21.6066 15.1765 21.453 15.1747C21.3196 15.1747 21.1713 15.278 21.327 15.3971C21.4827 15.5162 21.4678 15.4765 21.4382 15.5718C21.4247 15.6067 21.4045 15.6381 21.379 15.6641C21.3534 15.6901 21.3231 15.7101 21.2899 15.7228C20.9859 15.826 20.7413 15.5401 20.4595 15.5004C20.3187 15.5004 20.1407 15.5004 20.2816 15.6513C20.3261 15.6989 20.3557 15.7545 20.2816 15.8181C20.2074 15.8816 20.1481 15.8181 20.074 15.8181C19.9998 15.8181 19.9183 15.7148 19.8367 15.683C19.7358 15.6492 19.631 15.6304 19.5253 15.6274C19.8971 15.1146 20.3642 14.69 20.897 14.3804C21.4412 14.0485 22.0181 13.7822 22.617 13.5861C21.9629 13.6834 21.3287 13.8982 20.7413 14.2216C20.116 14.661 19.5258 15.1552 18.9767 15.6989C18.9334 15.5768 18.9084 15.4482 18.9026 15.3177C18.8762 15.1574 18.8762 14.9934 18.9026 14.8332C18.9396 14.6664 19.0731 14.0786 19.3252 14.158C19.3771 14.158 19.3919 14.2613 19.4438 14.2851C19.4957 14.3089 19.555 14.2851 19.5847 14.1977C19.6143 14.1104 19.6885 13.8959 19.7404 13.7609C19.7804 13.6045 19.8541 13.4603 19.9554 13.3399C20.0888 13.2207 20.1778 13.2446 20.2149 13.4273C20.2519 13.6099 20.2593 13.8165 20.3928 13.7291C20.5262 13.6417 20.4669 13.5861 20.4818 13.5226C20.5069 13.4542 20.5366 13.3878 20.5707 13.324C20.6274 13.1739 20.7133 13.0385 20.8228 12.9269C20.8673 12.8792 20.9266 12.7918 20.9933 12.7839C21.0601 12.7759 21.0897 12.8395 21.1268 12.903C21.364 13.2525 21.579 12.7203 21.7273 12.5694C21.7779 12.5057 21.842 12.4559 21.9142 12.4241C21.9865 12.3923 22.0647 12.3795 22.1425 12.3867Z" fill="white"/>
<path d="M18.6068 20.734C18.6521 20.8563 18.682 20.9845 18.6958 21.1152C18.722 21.2755 18.722 21.4394 18.6958 21.5997C18.6958 21.7665 18.5401 22.3543 18.2806 22.2828C18.2287 22.2828 18.2139 22.1796 18.162 22.1557C18.1101 22.1319 18.0508 22.1557 18.0211 22.2511C17.9643 22.3928 17.9172 22.5388 17.8802 22.6879C17.8429 22.8462 17.7718 22.993 17.6726 23.1168C17.5318 23.236 17.4502 23.2122 17.4132 23.0374C17.3761 22.8627 17.3613 22.6482 17.2204 22.7356C17.0795 22.8229 17.1537 22.8785 17.1388 22.9421C17.1162 23.0103 17.0889 23.0767 17.0573 23.1407C16.9988 23.2902 16.916 23.4273 16.8126 23.5458C16.7681 23.5934 16.7088 23.6808 16.6421 23.6887C16.5754 23.6967 16.5457 23.6331 16.5012 23.5775C16.264 23.236 16.0564 23.7682 15.9081 23.9191C15.8617 23.9808 15.803 24.0307 15.7363 24.0651C15.6696 24.0995 15.5966 24.1174 15.5226 24.1176C15.3224 24.1176 15.3594 23.9429 15.2779 23.7999C15.1963 23.657 15.2038 23.6967 15.1222 23.7205C15.0901 23.7786 15.0473 23.8291 14.9963 23.8687C14.9452 23.9083 14.8872 23.9363 14.8256 23.9508C14.6551 23.9508 14.5958 23.8238 14.5587 23.6808C14.5453 23.6163 14.5173 23.5563 14.4772 23.506C14.3956 23.4266 14.3363 23.506 14.2547 23.506C14.1732 23.506 13.9804 23.506 13.9434 23.379C13.9063 23.2519 14.0546 23.093 14.1287 22.958C14.2028 22.8229 14.2103 22.7991 14.1658 22.7117C14.1213 22.6244 14.0768 22.6244 14.099 22.5291C14.1213 22.4337 14.2992 22.4417 14.4104 22.3702C14.5217 22.2987 14.3511 22.1081 14.3511 21.9969C14.3511 21.568 14.8108 21.7745 15.0925 21.7268C15.1593 21.7268 15.226 21.6792 15.1741 21.5839C15.1222 21.4885 15.0481 21.5283 15.011 21.4568C14.9739 21.3853 15.1741 21.2185 15.2705 21.1946C15.416 21.1513 15.5698 21.1513 15.7153 21.1946C15.8617 21.2434 16.0143 21.2675 16.1676 21.2661C16.301 21.2661 16.4493 21.1549 16.2862 21.0358C16.1231 20.9166 16.1528 20.9643 16.175 20.869C16.1862 20.8318 16.2055 20.798 16.2312 20.7704C16.257 20.7428 16.2886 20.7221 16.3233 20.7101C16.6273 20.5989 16.8719 20.8849 17.1537 20.9246C17.3019 20.9246 17.4725 20.9246 17.3242 20.7657C17.1759 20.6069 17.25 20.6545 17.3242 20.5989C17.3983 20.5433 17.4651 20.5989 17.5318 20.5989C17.5985 20.5989 17.6875 20.6942 17.7764 20.726C17.8775 20.758 17.9824 20.774 18.0878 20.7737C17.736 21.2918 17.2864 21.7248 16.7681 22.0445C16.2338 22.3932 15.6642 22.6756 15.0703 22.8865C15.7227 22.7752 16.3522 22.5442 16.9312 22.2034C17.529 21.7673 18.0897 21.2756 18.6068 20.734Z" fill="white"/>
<path d="M11.72 16.9376C11.72 16.8184 11.846 16.8025 11.9424 16.8105C12.0388 16.8184 12.0536 16.8502 12.1055 16.8105C12.1321 16.771 12.1475 16.7241 12.15 16.6755C12.15 16.5643 12.1945 16.4531 12.3205 16.4531C12.3665 16.4572 12.4113 16.4713 12.4521 16.4945C12.4928 16.5177 12.5288 16.5495 12.5577 16.5881C12.6171 16.5881 12.6393 16.5881 12.6615 16.5087C12.6838 16.4292 12.6615 16.2783 12.8172 16.2545C12.9263 16.242 13.0356 16.2762 13.1212 16.3498C13.2398 16.4531 13.44 16.8184 13.5883 16.5404C13.5883 16.4928 13.5883 16.4531 13.6773 16.4451C13.7662 16.4372 13.7811 16.5087 13.8181 16.5325C13.9034 16.609 13.9761 16.7003 14.0332 16.8025C14.0646 16.8472 14.0919 16.8951 14.1147 16.9455C14.1147 16.9932 14.1147 17.0647 14.1963 17.0805C14.2778 17.0964 14.3001 16.9137 14.3075 16.8423C14.3149 16.7708 14.3816 16.6834 14.4854 16.7628C14.5703 16.8401 14.6364 16.9382 14.6782 17.0488C14.7301 17.1441 14.7672 17.2632 14.8265 17.3585C14.8858 17.4539 14.8932 17.438 14.9377 17.4062C14.9822 17.3744 14.9822 17.3188 15.0192 17.3029C15.1972 17.2235 15.3455 17.6445 15.3825 17.7636C15.4238 17.875 15.4464 17.9933 15.4492 18.1131C15.4618 18.2106 15.4618 18.3095 15.4492 18.407C15.002 18.0558 14.5284 17.745 14.0332 17.4777C13.5726 17.2934 13.0863 17.194 12.5948 17.1838C13.0533 17.2727 13.5009 17.4166 13.9294 17.6127C14.337 17.7956 14.7053 18.0659 15.0118 18.407C14.9346 18.4182 14.8596 18.4423 14.7894 18.4785C14.7301 18.4785 14.6782 18.5659 14.6189 18.5976C14.5596 18.6294 14.5225 18.6691 14.4706 18.5976C14.4187 18.5262 14.4335 18.5182 14.4706 18.4706C14.5077 18.4229 14.4335 18.3435 14.3297 18.3752C14.2259 18.407 13.9664 18.6691 13.7366 18.6215C13.7099 18.6148 13.6849 18.6022 13.6632 18.5844C13.6415 18.5666 13.6235 18.544 13.6106 18.5182C13.6106 18.4547 13.6106 18.4229 13.6773 18.3832C13.744 18.3435 13.6773 18.2164 13.5661 18.2323C13.4533 18.2454 13.3432 18.2776 13.2398 18.3276C13.1416 18.382 13.0314 18.4067 12.921 18.3991C12.8469 18.3991 12.6615 18.3514 12.6986 18.2323C12.7357 18.1131 12.795 18.1767 12.8172 18.1211C12.8395 18.0655 12.8172 18.0337 12.7357 18.0258C12.5503 18.0258 12.2389 18.2164 12.187 17.9066C12.187 17.8272 12.2686 17.6524 12.187 17.6207C12.1055 17.5889 11.9794 17.6763 11.935 17.5412C11.8905 17.4062 11.935 17.4618 11.935 17.3983C11.935 17.3347 11.935 17.2871 11.8831 17.2235C11.8312 17.16 11.7051 17.0805 11.72 16.9376Z" fill="white"/>
<path d="M23.7444 21.4256C23.7444 21.2826 23.7963 21.1317 23.8185 20.9887C23.8408 20.8457 23.8852 20.7028 23.9149 20.5677C23.9801 20.3218 24.0593 20.0804 24.1522 19.8449C24.2263 19.6384 24.3227 19.4796 24.3672 19.3604L24.4561 19.1777L24.3894 19.3684C24.3287 19.5346 24.2767 19.7043 24.2337 19.8767C24.1648 20.1158 24.1128 20.36 24.078 20.6075C24.0555 20.7441 24.0406 20.882 24.0335 21.0205C24.0335 21.1635 24.0335 21.3064 24.0335 21.4494C24.0217 21.7407 24.0266 22.0325 24.0484 22.3231C24.0484 22.4582 24.0484 22.5932 24.1003 22.7123C24.1522 22.8315 24.1447 22.9427 24.167 23.038C24.1998 23.2125 24.2419 23.3849 24.293 23.5543V23.6337L23.8037 23.8243C23.8037 23.8243 23.8037 23.737 23.8037 23.6734C23.8037 23.6099 23.7444 23.3716 23.7295 23.1333C23.7295 23.0221 23.7295 22.895 23.7295 22.76C23.7221 22.6224 23.7221 22.4845 23.7295 22.347C23.7113 22.0399 23.7162 21.7318 23.7444 21.4256Z" fill="white"/>
<path d="M18.2659 19.7955C18.0689 18.8122 17.9917 17.8056 18.0361 16.801C18.2457 15.3372 18.5858 13.8982 19.0518 12.5039H19.0963C18.7211 13.926 18.4582 15.3794 18.3104 16.8487C18.3137 17.8911 18.4382 18.9291 18.6811 19.9385C19.4036 20.2326 20.0926 20.6136 20.7348 21.0743C21.7743 21.859 22.6904 22.8162 23.4484 23.9099L22.7589 24.2277C22.1509 23.1422 21.3529 22.1928 20.4086 21.4317C18.7647 20.3573 17.0265 19.458 15.2188 18.747C16.2501 19.0422 17.2671 19.3921 18.2659 19.7955Z" fill="white"/>
</g>
<defs>
<clipPath id="clip0_1240_113534">
<rect width="75" height="75" fill="white"/>
</clipPath>
</defs>
</svg>
