<svg width="59" height="59" viewBox="0 0 59 59" fill="none" xmlns="http://www.w3.org/2000/svg">
<path d="M49.6467 52.5291V3.71485C49.6467 2.05799 48.3035 0.714844 46.6467 0.714844H12.3466C10.6898 0.714844 9.34665 2.05799 9.34665 3.71484V52.5291H1.71094C1.15865 52.5291 0.710938 52.9768 0.710938 53.5291V57.2863C0.710938 57.8386 1.15865 58.2863 1.71094 58.2863H57.2824C57.8347 58.2863 58.2824 57.8386 58.2824 57.2863V53.5291C58.2824 52.9768 57.8347 52.5291 57.2824 52.5291H49.6467ZM26.6181 7.47203C26.6181 6.91974 27.0658 6.47203 27.6181 6.47203H31.3752C31.9275 6.47203 32.3752 6.91974 32.3752 7.47203V11.2292C32.3752 11.7815 31.9275 12.2292 31.3752 12.2292H27.6181C27.0658 12.2292 26.6181 11.7815 26.6181 11.2292V7.47203ZM26.6181 18.9863C26.6181 18.434 27.0658 17.9863 27.6181 17.9863H31.3752C31.9275 17.9863 32.3752 18.434 32.3752 18.9863V22.7434C32.3752 23.2957 31.9275 23.7434 31.3752 23.7434H27.6181C27.0658 23.7434 26.6181 23.2957 26.6181 22.7434V18.9863ZM26.6181 30.5005C26.6181 29.9482 27.0658 29.5005 27.6181 29.5005H31.3752C31.9275 29.5005 32.3752 29.9482 32.3752 30.5005V34.2577C32.3752 34.81 31.9275 35.2577 31.3752 35.2577H27.6181C27.0658 35.2577 26.6181 34.81 26.6181 34.2577V30.5005ZM20.8609 34.2577C20.8609 34.81 20.4132 35.2577 19.8609 35.2577H16.1037C15.5514 35.2577 15.1037 34.81 15.1037 34.2577V30.5005C15.1037 29.9482 15.5514 29.5005 16.1037 29.5005H19.8609C20.4132 29.5005 20.8609 29.9482 20.8609 30.5005V34.2577ZM20.8609 22.7434C20.8609 23.2957 20.4132 23.7434 19.8609 23.7434H16.1037C15.5514 23.7434 15.1037 23.2957 15.1037 22.7434V18.9863C15.1037 18.434 15.5514 17.9863 16.1037 17.9863H19.8609C20.4132 17.9863 20.8609 18.434 20.8609 18.9863V22.7434ZM20.8609 11.2291C20.8609 11.7814 20.4132 12.2291 19.8609 12.2291H16.1037C15.5514 12.2291 15.1037 11.7814 15.1037 11.2291V7.47203C15.1037 6.91974 15.5514 6.47203 16.1037 6.47203H19.8609C20.4132 6.47203 20.8609 6.91974 20.8609 7.47203V11.2291ZM35.2538 51.5291C35.2538 52.0814 34.8061 52.5291 34.2538 52.5291H24.7395C24.1873 52.5291 23.7395 52.0814 23.7395 51.5291V42.0149C23.7395 41.4626 24.1873 41.0149 24.7395 41.0149H34.2538C34.8061 41.0149 35.2538 41.4626 35.2538 42.0149V51.5291ZM43.8895 34.2577C43.8895 34.81 43.4418 35.2577 42.8895 35.2577H39.1323C38.58 35.2577 38.1323 34.81 38.1323 34.2577V30.5005C38.1323 29.9482 38.58 29.5005 39.1323 29.5005H42.8895C43.4418 29.5005 43.8895 29.9482 43.8895 30.5005V34.2577ZM43.8895 22.7434C43.8895 23.2957 43.4418 23.7434 42.8895 23.7434H39.1323C38.58 23.7434 38.1323 23.2957 38.1323 22.7434V18.9863C38.1323 18.434 38.58 17.9863 39.1323 17.9863H42.8895C43.4418 17.9863 43.8895 18.434 43.8895 18.9863V22.7434ZM43.8895 11.2291C43.8895 11.7814 43.4418 12.2291 42.8895 12.2291H39.1323C38.58 12.2291 38.1323 11.7814 38.1323 11.2291V7.47203C38.1323 6.91974 38.58 6.47203 39.1323 6.47203H42.8895C43.4418 6.47203 43.8895 6.91974 43.8895 7.47203V11.2291Z" fill="#51A747"/>
</svg>
