<svg width="81" height="54" viewBox="0 0 81 54" fill="none" xmlns="http://www.w3.org/2000/svg">
<g clip-path="url(#clip0_1240_113145)">
<path d="M3.92112 40.3018L7.99993 44.8516H5.15537L2.42606 41.793C2.40849 41.7724 2.38436 41.7581 2.35746 41.7523C2.33057 41.7465 2.30242 41.7494 2.27746 41.7607C2.25226 41.7702 2.23093 41.7873 2.2167 41.8095C2.20248 41.8317 2.19613 41.8578 2.19861 41.8838V44.8516H0V35.7695H2.20165V38.7314C2.19896 38.7567 2.20532 38.7822 2.21966 38.8035C2.23401 38.8248 2.25547 38.8407 2.28049 38.8486C2.3064 38.857 2.3343 38.8579 2.36071 38.8512C2.38713 38.8444 2.41091 38.8303 2.42909 38.8105L5.15841 35.7637H7.99083L3.92112 40.3018Z" fill="white"/>
<path d="M17.359 35.8145L17.1043 36.5029C17.1043 36.5029 17.0649 36.6201 16.983 36.834C16.9011 37.0479 16.801 37.3203 16.6797 37.6572L16.2703 38.791C16.1187 39.2129 15.9671 39.626 15.8064 40.0361C15.6456 40.4463 15.5031 40.8359 15.3636 41.208L15.0209 42.1104C14.8239 42.6309 14.5402 43.1168 14.1809 43.5488C13.8979 43.8866 13.5498 44.1682 13.1559 44.3779C12.7963 44.5675 12.4053 44.6953 12.0005 44.7559C11.5992 44.8165 11.1936 44.8469 10.7875 44.8467H10.2446V42.7754H10.7814C11.1815 42.7872 11.5795 42.7163 11.9489 42.5674L9.45312 35.8291H11.7215L13.3985 40.3672L15.0907 35.8291L17.359 35.8145Z" fill="white"/>
<path d="M25.0649 40.2472C25.2949 40.4938 25.4749 40.78 25.5956 41.0909C25.7147 41.4023 25.7753 41.7316 25.7745 42.0636C25.7771 42.4328 25.7017 42.7986 25.5531 43.1388C25.3361 43.641 24.9694 44.0696 24.4996 44.3701C24.0298 44.6706 23.4782 44.8294 22.9148 44.8263H18.6328V42.7491H22.9148C23.0102 42.7523 23.1051 42.7359 23.1934 42.701C23.2818 42.6662 23.3615 42.6137 23.4273 42.547C23.4923 42.4833 23.5435 42.4078 23.5779 42.3248C23.6123 42.2418 23.6291 42.153 23.6275 42.0636C23.6301 41.871 23.555 41.685 23.4182 41.545C23.3561 41.4748 23.2789 41.4185 23.1919 41.3801C23.105 41.3416 23.0104 41.3219 22.9148 41.3224H19.3849V39.2569H22.8481C22.9424 39.2565 23.0355 39.2367 23.1213 39.1988C23.207 39.1609 23.2834 39.1058 23.3454 39.0372C23.4853 38.8986 23.5627 38.7122 23.5607 38.5186C23.5638 38.427 23.5467 38.3358 23.5106 38.2509C23.4745 38.1661 23.4203 38.0896 23.3515 38.0265C23.2854 37.9629 23.2068 37.9128 23.1204 37.8791C23.0339 37.8453 22.9413 37.8287 22.8481 37.8302H18.6328V35.7794H22.9148C23.2937 35.7763 23.669 35.8512 24.0156 35.9991C24.3463 36.1389 24.6467 36.3377 24.9011 36.5851C25.1614 36.8365 25.3675 37.1352 25.5077 37.464C25.6511 37.7993 25.7242 38.1588 25.723 38.5216C25.7274 39.1558 25.4997 39.7711 25.0801 40.2589" fill="white"/>
<path d="M34.5214 35.7637V44.8457H32.3744V42.502C32.3769 42.4845 32.3752 42.4666 32.3694 42.4499C32.3636 42.4331 32.3538 42.4179 32.3409 42.4054C32.3279 42.3929 32.3122 42.3835 32.2948 42.3779C32.2775 42.3723 32.2591 42.3706 32.2409 42.373H29.3934C29.3145 42.373 29.2751 42.417 29.2751 42.502V44.8457H27.125V35.7637H29.2751V40.1846C29.2751 40.2695 29.3145 40.3135 29.3934 40.3135H32.2409C32.2591 40.3159 32.2775 40.3143 32.2948 40.3086C32.3122 40.303 32.3279 40.2936 32.3409 40.2811C32.3538 40.2686 32.3636 40.2534 32.3694 40.2366C32.3752 40.2199 32.3769 40.2021 32.3744 40.1846V35.7637H34.5214Z" fill="white"/>
<path d="M38.3331 37.8633C38.3187 37.8613 38.304 37.8626 38.2902 37.8671C38.2764 37.8716 38.2638 37.8791 38.2536 37.889C38.2433 37.8989 38.2355 37.9111 38.2309 37.9244C38.2263 37.9377 38.2249 37.9519 38.2269 37.9658V39.6914C38.2269 39.7676 38.2603 39.8086 38.3331 39.8086H42.6969V41.8594H38.3331C38.2603 41.8594 38.2269 41.8975 38.2269 41.9766V42.6504C38.2269 42.7207 38.2603 42.7559 38.3331 42.7559H43.7311V44.8301H36.0859V35.748H43.7371V37.8486L38.3331 37.8633Z" fill="white"/>
<path d="M52.1573 35.7734V44.8379H50.0345V42.5439C49.9111 42.5615 49.7838 42.5762 49.6524 42.5879C49.5214 42.6011 49.3898 42.607 49.2581 42.6055C48.7522 42.6054 48.2509 42.5119 47.7813 42.3301C47.2993 42.1433 46.8572 41.8722 46.4773 41.5303C46.0602 41.1642 45.7266 40.7182 45.4977 40.2207C45.2741 39.7266 45.1605 39.1926 45.1641 38.6533V35.7734H47.3051V38.6533C47.3037 38.9052 47.3563 39.1546 47.4598 39.3857C47.5583 39.6049 47.6993 39.8038 47.8753 39.9717C48.0491 40.1424 48.2549 40.2796 48.4818 40.376C48.7216 40.4739 48.9796 40.5237 49.2399 40.5225C49.5072 40.5251 49.772 40.4721 50.0163 40.3672V35.7734H52.1573Z" fill="white"/>
<path d="M55.7721 35.7637V40.5098L55.7842 40.542L55.8115 40.5215L59.1412 35.7637H61.0882V44.8516H58.9381V39.8359L58.9259 39.8008L58.8986 39.8213L55.5295 44.8516H53.625V35.7637H55.7721Z" fill="white"/>
<path d="M67.7866 40.3018V40.3545L70.8889 44.8516H68.3112L66.5129 42.2471H66.431L64.6327 44.8516H62.0429L65.1574 40.3545V40.2871L62.0156 35.7637H64.6054L66.431 38.3945H66.5129L68.3385 35.7637H70.9284L67.7866 40.3018Z" fill="white"/>
<path d="M74.7392 41.6016C74.7286 41.6194 74.723 41.6396 74.723 41.6602C74.723 41.6807 74.7286 41.7009 74.7392 41.7187C74.7516 41.7355 74.768 41.749 74.787 41.7582C74.806 41.7674 74.8271 41.772 74.8484 41.7715H77.1713C77.2866 41.7715 77.326 41.7158 77.2896 41.6016L76.1342 38.4902C76.1255 38.463 76.1077 38.4392 76.0835 38.4228C76.0594 38.4064 76.0303 38.3982 76.0008 38.3994C75.9727 38.3969 75.9448 38.4049 75.9227 38.4219C75.9007 38.4388 75.8863 38.4633 75.8825 38.4902L74.7392 41.6016ZM80.8044 44.8564H78.5239L78.163 43.9453C78.1567 43.919 78.1412 43.8956 78.1191 43.879C78.097 43.8625 78.0696 43.8538 78.0417 43.8545H73.9962C73.9688 43.8557 73.9424 43.8651 73.9207 43.8814C73.899 43.8976 73.883 43.92 73.8749 43.9453L73.5383 44.8652H71.2578L74.6422 35.7832H77.42L80.8013 44.8652L80.8044 44.8564Z" fill="white"/>
<path d="M7.81139 22.8008V32.1758H5.59761V29.7676C5.60076 29.7492 5.59933 29.7303 5.59343 29.7126C5.58754 29.6949 5.57735 29.6787 5.56371 29.6656C5.55007 29.6524 5.53338 29.6425 5.51501 29.6368C5.49664 29.6311 5.47714 29.6298 5.45811 29.6328H2.52561C2.4407 29.6328 2.40128 29.6768 2.40128 29.7676V32.1758H0.1875V22.8008H2.40128V27.3594C2.40128 27.4502 2.4407 27.4941 2.52561 27.4941H5.46114C5.48017 27.4972 5.49968 27.4958 5.51804 27.4901C5.53641 27.4844 5.5531 27.4746 5.56674 27.4614C5.58038 27.4482 5.59057 27.4321 5.59647 27.4143C5.60236 27.3966 5.60379 27.3778 5.60064 27.3594V22.8008H7.81139Z" fill="white"/>
<path d="M15.7127 27.3621C15.7127 26.9343 15.7127 26.533 15.6824 26.1521C15.6815 25.8464 15.6056 25.5452 15.461 25.2732C15.3806 25.1275 15.248 25.015 15.088 24.9568C14.9173 24.883 14.7381 24.8289 14.5543 24.7957C14.262 24.7456 13.9655 24.7231 13.6688 24.7283C13.3741 24.7233 13.0795 24.7459 12.7893 24.7957C12.6077 24.8255 12.4305 24.8767 12.2616 24.948C12.163 24.9884 12.0742 25.0483 12.0008 25.1238C11.9603 25.1668 11.9247 25.214 11.8947 25.2644C11.7499 25.5363 11.674 25.8375 11.6733 26.1433C11.6551 26.5105 11.646 26.9011 11.646 27.3152V27.3416C11.646 27.7693 11.646 28.1736 11.6733 28.5515C11.6763 28.857 11.752 29.1578 11.8947 29.4304C11.9129 29.4568 11.9493 29.5007 12.0008 29.5623C12.0727 29.6408 12.1618 29.7028 12.2616 29.7439C12.4305 29.8152 12.6077 29.8664 12.7893 29.8962C13.0793 29.9475 13.374 29.9701 13.6688 29.9636C13.9655 29.9703 14.2622 29.9477 14.5543 29.8962C14.7346 29.8651 14.9107 29.814 15.0789 29.7439C15.1816 29.7033 15.2738 29.6413 15.3488 29.5623C15.4004 29.5007 15.4337 29.4568 15.4519 29.4304C15.598 29.159 15.674 28.8575 15.6733 28.5515C15.6915 28.1853 15.7036 27.7898 15.7036 27.3621H15.7127ZM17.414 24.1951C17.6824 24.652 17.8448 25.1598 17.8901 25.6834C17.9356 26.2136 17.9599 26.7732 17.9599 27.3621V28.2732H17.9447C17.9284 28.6662 17.8848 29.0577 17.8143 29.4451C17.7442 29.8199 17.611 30.1811 17.4201 30.5144C17.0917 31.0821 16.5745 31.526 15.9523 31.7742C15.2336 32.0585 14.46 32.1904 13.6839 32.1609C12.9071 32.1873 12.1332 32.0555 11.4125 31.7742C10.7993 31.5182 10.2893 31.0759 9.95993 30.5144C9.68887 30.051 9.52538 29.5362 9.48078 29.0056C9.43529 28.4695 9.41406 27.9128 9.41406 27.3328V26.4275C9.43258 26.0349 9.47409 25.6437 9.5384 25.2556C9.60516 24.8786 9.74179 24.5164 9.94173 24.1863C10.2711 23.6248 10.7811 23.1825 11.3943 22.9265C12.1204 22.6506 12.8985 22.5258 13.6779 22.5603C14.4539 22.5308 15.2275 22.6627 15.9462 22.947C16.5684 23.1952 17.0856 23.6391 17.414 24.2068" fill="white"/>
<path d="M21.4721 29.8975C21.4721 29.9795 21.5175 30.0176 21.6116 30.0176H24.45C24.5472 30.0187 24.6436 30.0011 24.7336 29.9659C24.8237 29.9307 24.9056 29.8786 24.9747 29.8125C25.0463 29.746 25.103 29.6658 25.1411 29.5771C25.1792 29.4883 25.1979 29.393 25.1961 29.2969C25.1906 29.1 25.1095 28.912 24.9686 28.7696C24.9055 28.7 24.8276 28.6443 24.7402 28.6064C24.6528 28.5685 24.558 28.5492 24.4622 28.5498H21.6116C21.5175 28.5498 21.4721 28.5879 21.4721 28.667V29.8975ZM21.4721 26.2881C21.4721 26.3672 21.5175 26.4082 21.6116 26.4082H24.3773C24.4742 26.4079 24.5701 26.3882 24.6588 26.3504C24.7475 26.3126 24.8272 26.2575 24.8928 26.1885C24.9638 26.119 25.02 26.0367 25.058 25.9462C25.0959 25.8557 25.115 25.7588 25.1142 25.6612C25.1203 25.5657 25.1048 25.4701 25.0686 25.381C25.0325 25.2919 24.9766 25.2116 24.9049 25.1455C24.8358 25.0786 24.7535 25.0258 24.6628 24.99C24.5722 24.9543 24.4751 24.9365 24.3773 24.9375H21.6116C21.5175 24.9375 21.4721 24.9785 21.4721 25.0577V26.2881ZM26.6608 27.4366C26.8997 27.6933 27.0859 27.9916 27.2097 28.3155C27.3345 28.6368 27.3981 28.9772 27.3977 29.3203C27.401 29.699 27.3225 30.0742 27.1672 30.4219C26.8698 31.1021 26.3095 31.6434 25.6054 31.9307C25.2438 32.0784 24.8548 32.1532 24.4622 32.1504H19.2734V22.8106H24.4622C24.8606 22.8087 25.2554 22.8834 25.6236 23.0303C25.9815 23.176 26.303 23.3937 26.5668 23.669C26.8065 23.9273 26.9965 24.2249 27.1278 24.5479C27.2623 24.8944 27.3301 25.2618 27.3279 25.6319C27.3399 26.2873 27.1025 26.9242 26.6608 27.4219" fill="white"/>
<path d="M31.6856 28.8184C31.6743 28.836 31.6683 28.8563 31.6683 28.877C31.6683 28.8977 31.6743 28.9179 31.6856 28.9355C31.6979 28.9532 31.7146 28.9676 31.7343 28.9774C31.7539 28.9871 31.7758 28.9919 31.7978 28.9912H34.1905C34.3118 28.9912 34.3512 28.9355 34.3148 28.8184L33.1261 25.5957C33.1162 25.568 33.0973 25.5441 33.0721 25.5277C33.0469 25.5113 33.0169 25.5033 32.9866 25.5049C32.958 25.5029 32.9296 25.511 32.9067 25.5277C32.8839 25.5444 32.868 25.5686 32.8622 25.5957L31.6735 28.8184H31.6856ZM37.9266 32.1758H35.5734L35.2155 31.2266C35.2098 31.1992 35.1941 31.1747 35.1713 31.1575C35.1485 31.1403 35.1201 31.1316 35.0912 31.1328H30.9093C30.8808 31.1332 30.8532 31.1425 30.8308 31.1595C30.8083 31.1764 30.7922 31.2 30.7849 31.2266L30.4392 32.1758H28.0859L31.5734 22.8008H34.4392L37.9266 32.1758Z" fill="white"/>
<path d="M42.0421 28.8223H44.7714C44.7866 28.8242 44.8021 28.8227 44.8166 28.818C44.8311 28.8132 44.8443 28.8053 44.8551 28.7948C44.866 28.7843 44.8742 28.7716 44.8791 28.7576C44.8841 28.7435 44.8856 28.7286 44.8836 28.7139V25.0518C44.8836 24.9698 44.8442 24.9288 44.7714 24.9288H42.0148C41.7457 24.9279 41.4793 24.9807 41.2324 25.084C40.9926 25.1844 40.7745 25.3275 40.5895 25.5059C40.405 25.6829 40.2596 25.8942 40.1619 26.127C40.0591 26.3665 40.0075 26.6236 40.0103 26.8829C40.0083 27.1426 40.062 27.4 40.168 27.6387C40.2712 27.869 40.4195 28.0779 40.6047 28.2539C40.791 28.4285 41.0089 28.5685 41.2476 28.667C41.494 28.7717 41.7607 28.8246 42.03 28.8223M42.03 22.7901H47.1126V32.1797H44.8836V31.0811C44.8836 31.002 44.8442 30.961 44.7714 30.961H42.873C42.8602 30.9589 42.8471 30.9594 42.8345 30.9625C42.8219 30.9656 42.8101 30.9712 42.7998 30.9789C42.7896 30.9866 42.7811 30.9963 42.7749 31.0073C42.7687 31.0183 42.7649 31.0305 42.7638 31.043L42.3211 32.1797H39.9405L40.5228 30.6944C39.8265 30.4479 39.2131 30.0224 38.7487 29.4639C38.4399 29.1023 38.1959 28.6934 38.027 28.2539C37.8637 27.8141 37.7806 27.3502 37.7813 26.8829C37.7778 26.3363 37.8903 25.7949 38.1119 25.292C38.3243 24.8043 38.6334 24.3615 39.0217 23.9883C39.4096 23.6166 39.8664 23.3185 40.3681 23.1094C40.8863 22.8944 41.4448 22.7847 42.0087 22.7871" fill="white"/>
<path fill-rule="evenodd" clip-rule="evenodd" d="M0.148438 53.999H34.5196V47.9082H0.148438V53.999ZM5.50925 49.7969V51.1094L4.43572 49.7969H3.81101L4.9088 51.1064L3.71094 52.501H4.36294L5.50925 51.1299V52.501H6.06421V51.1299L7.21053 52.501H7.86859L6.6677 51.1064L7.76852 49.7969H7.14078L6.06421 51.1094V49.7969H5.50925ZM11.1886 49.8008V51.1865C11.1886 51.3477 11.1886 51.585 11.1461 51.8984L12.5502 49.8008H13.278V52.5049H12.7049V51.1455V51.1455C12.7049 51.0693 12.7049 50.9463 12.72 50.7793C12.7296 50.6741 12.7343 50.5852 12.738 50.5155L12.7381 50.5154L12.7381 50.5153L12.7381 50.5151C12.7402 50.4743 12.7421 50.4401 12.7443 50.4131L11.3463 52.5049H10.6094V49.8008H11.1886ZM18.1489 52.501H18.7554H18.7676V49.7969H16.8874C16.8592 50.3743 16.7821 50.9485 16.6569 51.5137C16.5538 51.8887 16.4234 52.0762 16.2505 52.0762C16.1861 52.0758 16.1224 52.0639 16.0625 52.041V52.4893C16.1664 52.5298 16.278 52.5487 16.39 52.5449C16.486 52.5483 16.5813 52.5295 16.6683 52.4903C16.7553 52.4511 16.8314 52.3925 16.8904 52.3193C17.0456 52.1071 17.1492 51.8637 17.1936 51.6074C17.2901 51.1592 17.354 50.7049 17.3847 50.248H18.1489V52.501ZM22.3887 51.1428C22.3887 51.7668 22.6253 52.0773 23.1044 52.0773C23.5836 52.0773 23.811 51.7668 23.811 51.1428C23.811 50.5187 23.5745 50.217 23.0984 50.217C22.9941 50.2084 22.8893 50.226 22.7942 50.2681C22.6991 50.3102 22.6169 50.3753 22.5555 50.4572C22.4308 50.6647 22.3727 50.9033 22.3887 51.1428ZM24.4236 51.1428C24.4474 51.5173 24.3215 51.8865 24.0718 52.174C23.9461 52.3008 23.7935 52.3997 23.6244 52.464C23.4552 52.5282 23.2737 52.5562 23.0923 52.5461C22.8501 52.5513 22.611 52.4925 22.4009 52.3762C22.1991 52.2602 22.0375 52.0889 21.9369 51.884C21.8258 51.6519 21.7708 51.3984 21.7762 51.1428C21.7531 50.7705 21.8778 50.4038 22.1249 50.1174C22.2515 49.9912 22.4049 49.8929 22.5745 49.8292C22.744 49.7655 22.9258 49.7378 23.1075 49.7482C23.2865 49.7398 23.4653 49.7693 23.6313 49.8345C23.7974 49.8998 23.9467 49.9993 24.0688 50.1262C24.3175 50.4086 24.4445 50.7725 24.4236 51.1428ZM28.7448 49.468C28.4697 49.489 28.1951 49.4231 27.9621 49.2803C27.8722 49.2017 27.801 49.1052 27.7534 48.9975C27.7058 48.8897 27.6828 48.7733 27.6862 48.6562H28.2229C28.2264 48.7508 28.2502 48.8435 28.2927 48.9287C28.3258 48.9926 28.3818 49.0426 28.4504 49.0693C28.5476 49.1026 28.6506 49.1175 28.7536 49.1133C28.888 49.1224 29.0213 49.085 29.1297 49.0078C29.2263 48.914 29.2826 48.7885 29.2874 48.6562H29.8363C29.8345 48.7738 29.8065 48.8897 29.7542 48.9959C29.7018 49.102 29.6264 49.196 29.533 49.2715C29.299 49.4174 29.0225 49.4863 28.7448 49.468ZM28.0046 51.1875V49.8018H27.4375V52.5059H28.1502L29.5482 50.4141C29.5468 50.4308 29.5448 50.4504 29.5425 50.4725C29.5347 50.5471 29.5239 50.6515 29.5239 50.7803V51.1465V52.5059H30.094V49.8018H29.3692L27.9652 51.8994C28.0046 51.586 28.0046 51.3487 28.0046 51.1875V51.1875Z" fill="white"/>
<path fill-rule="evenodd" clip-rule="evenodd" d="M81.0019 53.999H35.1797V47.9082H81.0019V53.999ZM39.6253 49.7969H40.2773L39.1218 51.1006L40.3743 52.501H39.692L38.485 51.1299V52.501H37.8906V49.7969H38.485V51.1094L39.6253 49.7969ZM44.331 52.0773C43.8518 52.0773 43.6153 51.7668 43.6153 51.1428C43.5993 50.9033 43.6574 50.6647 43.7821 50.4572C43.8434 50.3753 43.9257 50.3102 44.0208 50.2681C44.1159 50.226 44.2207 50.2084 44.3249 50.217C44.801 50.217 45.0376 50.5187 45.0376 51.1428C45.0376 51.7668 44.8101 52.0773 44.331 52.0773ZM45.2984 52.174C45.548 51.8865 45.674 51.5173 45.6502 51.1428C45.6711 50.7725 45.5441 50.4086 45.2953 50.1262C45.1732 49.9993 45.024 49.8998 44.8579 49.8345C44.6919 49.7693 44.5131 49.7398 44.334 49.7482C44.1524 49.7378 43.9706 49.7655 43.801 49.8292C43.6315 49.8929 43.4781 49.9912 43.3515 50.1174C43.1044 50.4038 42.9796 50.7705 43.0027 51.1428C42.9958 51.3985 43.0509 51.6523 43.1634 51.884C43.2641 52.0889 43.4256 52.2602 43.6274 52.3762C43.8376 52.4925 44.0767 52.5513 44.3189 52.5461C44.5003 52.5562 44.6818 52.5282 44.8509 52.464C45.02 52.3997 45.1727 52.3008 45.2984 52.174ZM50.3004 51.8311L50.2702 51.9284C50.2152 51.6931 50.1463 51.461 50.0638 51.2334L49.4573 49.8008H48.6719V52.5283H49.2147V50.3457C49.2787 50.588 49.3566 50.8267 49.4482 51.0605L50.0547 52.5254H50.5036L51.1101 51.0605C51.1616 50.9287 51.2253 50.7383 51.3011 50.4746L51.3496 50.3281V52.5107H51.8955V49.8066H51.104L50.4793 51.2715C50.4277 51.4033 50.3671 51.5879 50.3004 51.8311ZM57.5224 52.501V49.7969H55.0781V52.501H55.6695V50.2539H56.925V52.501H57.5224ZM62.9911 52.501H62.3846V50.248H61.6113C61.5836 50.7052 61.5197 51.1597 61.4202 51.6074C61.3757 51.8637 61.2721 52.107 61.117 52.3193C61.0567 52.3919 60.9799 52.45 60.8926 52.4891C60.8053 52.5282 60.7098 52.5473 60.6135 52.5449C60.5026 52.5484 60.392 52.5294 60.2891 52.4893V52.041C60.3489 52.0642 60.4127 52.0761 60.4771 52.0762C60.6469 52.0762 60.7803 51.8887 60.8804 51.5137C61.007 50.9486 61.0851 50.3744 61.1139 49.7969H62.9911V52.501ZM67.0454 50.222C67.1232 50.1922 67.2065 50.1783 67.29 50.1812C67.3729 50.1771 67.4556 50.1905 67.5326 50.2203C67.6096 50.2502 67.6789 50.2958 67.7358 50.354C67.8547 50.4971 67.9141 50.6778 67.9026 50.8609H66.632C66.6404 50.6744 66.713 50.4961 66.8382 50.354C66.8971 50.2967 66.9677 50.2517 67.0454 50.222ZM66.8497 52.4664C67.0252 52.5294 67.2123 52.5564 67.3992 52.5454V52.5337C67.57 52.5364 67.7407 52.5226 67.9087 52.4927C68.0611 52.465 68.209 52.4177 68.3484 52.3521V51.8863C68.2016 51.9513 68.0481 52.0013 67.8905 52.0357C67.738 52.067 67.5824 52.0827 67.4265 52.0825C67.3193 52.0886 67.2121 52.0726 67.1117 52.0358C67.0114 51.9989 66.9202 51.942 66.8443 51.8687C66.6945 51.7015 66.6155 51.4861 66.6229 51.2652H68.4879V50.9517C68.5026 50.6296 68.3874 50.3145 68.1665 50.0728C68.0521 49.9623 67.915 49.8763 67.764 49.8203C67.613 49.7643 67.4516 49.7395 67.29 49.7476C67.1146 49.7392 66.9394 49.7688 66.7773 49.8342C66.6151 49.8995 66.4702 49.9991 66.353 50.1255C66.1105 50.4198 65.9885 50.79 66.0103 51.1656C65.9997 51.3497 66.0269 51.5341 66.0904 51.7081C66.1539 51.8821 66.2524 52.0422 66.3803 52.1792C66.5143 52.3055 66.6742 52.4033 66.8497 52.4664ZM73.222 49.7969H73.874L72.7186 51.1006L73.9711 52.501H73.2888L72.0788 51.1299V52.501H71.4844V49.7969H72.0788V51.1094L73.222 49.7969ZM77.3688 52.4724C77.5355 52.5342 77.7142 52.5596 77.8923 52.547C78.0388 52.5497 78.1853 52.537 78.329 52.5089C78.45 52.4852 78.5659 52.4416 78.6717 52.38V51.879C78.4419 52.0036 78.183 52.0691 77.9196 52.0694C77.8186 52.0755 77.7176 52.0579 77.6252 52.0181C77.5328 51.9783 77.4517 51.9175 77.3889 51.8409C77.2531 51.6385 77.1892 51.3989 77.2069 51.1583C77.2069 50.5372 77.4495 50.2267 77.9347 50.2267C78.1489 50.2378 78.3594 50.2854 78.5564 50.3673L78.7353 49.9073C78.4857 49.7991 78.2144 49.7451 77.9408 49.7491C77.757 49.7366 77.5725 49.7629 77.4002 49.8261C77.2279 49.8894 77.072 49.988 76.9431 50.1153C76.6942 50.4099 76.5706 50.7848 76.5974 51.1642C76.571 51.5339 76.689 51.8997 76.9279 52.1896C77.0515 52.314 77.2021 52.4106 77.3688 52.4724Z" fill="white"/>
<path d="M54.197 26.3965L52.0347 25.8164L50.4062 26.3525V25.7666L52.0347 25.2012L54.197 25.8135V26.3965Z" fill="white"/>
<path d="M54.197 27.5654L52.0347 27.0469L50.4062 27.5273V26.9414L52.0347 26.4316L54.197 26.9824V27.5654Z" fill="white"/>
<path d="M54.197 28.7373L52.0347 28.2773L50.4062 28.7021V28.1162L52.0347 27.6621L54.197 28.1514V28.7373Z" fill="white"/>
<path d="M54.197 29.9033L52.0347 29.5078L50.4062 29.874V29.2881L52.0347 28.8926L54.197 29.3203V29.9033Z" fill="white"/>
<path d="M54.197 31.0723L52.0347 30.7354L50.4062 31.0459V30.46L52.0347 30.123L54.197 30.4893V31.0723Z" fill="white"/>
<path d="M54.197 32.2402L52.0347 31.9648L50.4062 32.2168V31.6309L52.0347 31.3496L54.197 31.6543V32.2402Z" fill="white"/>
<path d="M62.4844 13.6152V14.8574L64.8407 13.7207L68.4434 14.9512V13.7148L64.8407 12.4199L62.4844 13.6152Z" fill="white"/>
<path d="M62.4844 16.1025V17.3447L64.8407 16.3281L68.4434 17.4297V16.1934L64.8407 15.0273L62.4844 16.1025Z" fill="white"/>
<path d="M62.4844 18.5869V19.8291L64.8407 18.9326L68.4434 19.9053V18.6689L64.8407 17.6289L62.4844 18.5869Z" fill="white"/>
<path d="M62.4844 21.0684V22.3105L64.8407 21.5342L68.4434 22.3779V21.1387L64.8407 20.2305L62.4844 21.0684Z" fill="white"/>
<path d="M62.4844 23.5537V24.7959L64.8407 24.1396L68.4434 24.8516V23.6152L64.8407 22.8359L62.4844 23.5537Z" fill="white"/>
<path d="M62.4844 26.041V27.2832L64.8407 26.7471L68.4434 27.3301V26.0908L64.8407 25.4434L62.4844 26.041Z" fill="white"/>
<path d="M62.4844 28.5225V29.7676L64.8407 29.3486L68.4434 29.7998V28.5635L64.8407 28.0449L62.4844 28.5225Z" fill="white"/>
<path d="M62.4844 31.0078V32.2529L64.8407 31.9541L68.4434 32.2764V31.04L64.8407 30.6504L62.4844 31.0078Z" fill="white"/>
<path d="M69.9943 10.3666V10.2699C70.0304 10.2692 70.0661 10.2612 70.0989 10.2466C70.1318 10.232 70.1612 10.211 70.1853 10.1849C70.246 10.1058 70.1853 10.0414 70.1368 9.98573L70.0761 9.90077C70.061 9.83924 70.1065 9.82752 70.1368 9.78944C70.1671 9.75135 70.2247 9.66053 70.1641 9.60487C70.1034 9.54921 70.0003 9.58436 69.9124 9.60487C69.8244 9.62538 69.8123 9.60487 69.785 9.55799C69.7577 9.51112 69.7668 9.49354 69.7183 9.47889C69.6152 9.44667 69.6182 9.55506 69.5515 9.59315C69.4848 9.63124 69.4484 9.49647 69.3938 9.4701C69.1846 9.36756 69.1573 9.6371 69.0633 9.74842C69.039 9.77772 69.0026 9.80116 68.9723 9.74842V9.63417C68.9238 9.55799 68.8146 9.65174 68.7752 9.69276C68.7196 9.75892 68.682 9.83749 68.666 9.92128C68.6474 10.0055 68.6157 10.0865 68.572 10.1615C68.5295 10.226 68.4386 10.2728 68.4295 10.1615C68.4295 10.1176 68.4295 10.0736 68.3809 10.059L68.2657 10.0941C68.1262 10.2172 68.1899 10.4076 68.1292 10.557C68.0959 10.6332 68.0504 10.7182 68.0049 10.6039C68.0049 10.5687 67.9746 10.5394 67.9291 10.5541C67.8836 10.5687 67.8775 10.6156 67.8745 10.6596C67.8715 10.7035 67.8745 10.7621 67.8745 10.8119C67.86 10.8692 67.8375 10.9244 67.8078 10.976C68.153 10.9355 68.4856 10.8257 68.7843 10.6537C69.099 10.4782 69.3929 10.27 69.6607 10.0326C69.4249 10.3248 69.1386 10.5756 68.8146 10.7738C68.4247 10.962 68.0188 11.1179 67.6016 11.2396C67.6471 11.2953 67.7013 11.3437 67.7623 11.3832C67.833 11.4329 67.9119 11.4706 67.9958 11.4945C68.0837 11.5209 68.3991 11.6117 68.4355 11.4652L68.4113 11.3744C68.4113 11.3305 68.4567 11.3275 68.4931 11.3305C68.5779 11.3375 68.662 11.3502 68.7448 11.3685C68.8305 11.389 68.92 11.389 69.0056 11.3685C69.0997 11.3334 69.1148 11.2865 69.039 11.2221C68.9632 11.1576 68.8692 11.099 68.9511 11.0521H69.0754C69.1137 11.055 69.1523 11.055 69.1906 11.0521C69.278 11.061 69.3662 11.0551 69.4514 11.0346L69.5697 10.9848C69.6 10.9408 69.5697 10.9262 69.5545 10.891C69.4575 10.6859 69.7699 10.7182 69.8851 10.6889C69.9265 10.6795 69.9655 10.6622 69.9999 10.6381C70.0343 10.6139 70.0633 10.5834 70.0852 10.5482C70.1429 10.4457 70.0519 10.4223 70.0094 10.3432" fill="white"/>
<path d="M65.5677 8.62146C65.4495 8.81775 65.7285 8.8617 65.8346 8.95838C65.8619 8.98474 65.8862 9.02283 65.8346 9.0492H65.7133C65.6314 9.09021 65.7133 9.20154 65.7649 9.24255C65.8283 9.30143 65.9068 9.34289 65.9923 9.36267C66.0774 9.38671 66.1582 9.42328 66.2319 9.47107C66.2986 9.51502 66.338 9.60584 66.2319 9.60877C66.1894 9.60877 66.1439 9.60877 66.1257 9.64685L66.153 9.76111C66.2683 9.90466 66.4714 9.85486 66.62 9.92517C66.6989 9.96033 66.7838 10.0101 66.6595 10.0453C66.6231 10.0453 66.5927 10.0687 66.6049 10.1156C66.617 10.1625 66.6655 10.1713 66.711 10.1771C66.7629 10.1799 66.8145 10.1858 66.8657 10.1947C66.9246 10.2113 66.9808 10.2359 67.0325 10.2679C67.0139 9.93315 66.923 9.60582 66.7656 9.30701C66.6033 8.99481 66.4071 8.70019 66.1803 8.4281C66.4671 8.67971 66.7072 8.97699 66.8899 9.30701C67.0592 9.6947 67.1941 10.0956 67.2933 10.5053C67.3521 10.4654 67.4043 10.4169 67.4479 10.3617C67.506 10.2959 67.5513 10.2205 67.5814 10.139C67.6117 10.057 67.7269 9.76111 67.5814 9.71423L67.4874 9.73181C67.4419 9.73181 67.4449 9.68494 67.4479 9.64978C67.461 9.56941 67.4803 9.49009 67.5056 9.41248C67.5321 9.3311 67.5394 9.24498 67.5268 9.16052C67.4995 9.06677 67.4479 9.0492 67.3782 9.11658C67.3084 9.18396 67.2387 9.27185 67.1962 9.18982L67.2175 9.07556C67.2175 9.03455 67.2175 8.99939 67.2387 8.96131C67.2539 8.87796 67.2539 8.7927 67.2387 8.70935L67.1962 8.59216C67.1538 8.55994 67.1356 8.59216 67.0992 8.59216C66.8778 8.67127 66.9354 8.37244 66.9112 8.26111C66.9049 8.22023 66.8898 8.18108 66.8668 8.14625C66.8438 8.11141 66.8135 8.08166 66.7777 8.05896C66.6777 7.99451 66.6443 8.0824 66.5624 8.11755C66.4805 8.15271 66.4957 8.14099 66.4654 8.11755C66.467 8.08222 66.4608 8.04697 66.4472 8.01413C66.4336 7.9813 66.4129 7.95164 66.3865 7.92713C66.3107 7.86267 66.2379 7.90955 66.1773 7.96228L66.0863 8.01209C66.0226 8.02673 66.0135 7.97986 65.9771 7.94763C65.9407 7.91541 65.8498 7.85095 65.7861 7.90662C65.7224 7.96228 65.7558 8.06482 65.7558 8.14978C65.7558 8.23474 65.7558 8.24646 65.6981 8.2699C65.6405 8.29334 65.6314 8.2699 65.6132 8.32849C65.5738 8.42517 65.683 8.43103 65.7194 8.49548C65.7558 8.55994 65.6102 8.59216 65.5799 8.63904" fill="white"/>
<path d="M69 4.18202C68.8514 4.39588 69.1668 4.47499 69.282 4.58338C69.3123 4.61268 69.3366 4.65956 69.282 4.68299C69.2274 4.70643 69.191 4.66249 69.1455 4.68299C69.0485 4.72694 69.1455 4.85878 69.188 4.90858C69.2576 4.97943 69.3455 5.03102 69.4427 5.05799C69.5386 5.09134 69.6287 5.13877 69.7096 5.19862C69.7824 5.25135 69.8218 5.35975 69.6944 5.35389C69.6429 5.35389 69.5913 5.33631 69.5701 5.39198C69.5631 5.41407 69.5613 5.43742 69.565 5.46026C69.5687 5.4831 69.5777 5.50484 69.5913 5.52381C69.7157 5.69081 69.9522 5.64979 70.119 5.73768C70.2039 5.78163 70.2979 5.84608 70.1524 5.87831C70.1099 5.87831 70.0735 5.90174 70.0856 5.95448C70.0978 6.00721 70.1524 6.02186 70.2009 6.03065C70.2494 6.03944 70.3222 6.03065 70.3798 6.05995C70.4471 6.08174 70.5105 6.11335 70.5678 6.1537C70.5653 5.77 70.4807 5.39096 70.3191 5.04042C70.1586 4.66981 69.9551 4.31795 69.7126 3.99159C70.0236 4.29106 70.279 4.63987 70.4677 5.02284C70.638 5.47473 70.7658 5.94046 70.8498 6.41444C70.9198 6.37156 70.9831 6.31928 71.0379 6.25917C71.1078 6.18709 71.1642 6.10382 71.2047 6.01307C71.2441 5.92225 71.3957 5.5912 71.2289 5.52967H71.1197C71.0682 5.52967 71.0743 5.47401 71.0773 5.43299C71.0773 5.3451 71.1349 5.25135 71.1592 5.16639C71.1983 5.07365 71.2128 4.97297 71.2016 4.87342C71.1743 4.76502 71.1197 4.74159 71.0348 4.81483C70.9499 4.88807 70.865 4.98475 70.8226 4.88807C70.8074 4.84999 70.8225 4.79725 70.8529 4.75624C70.8658 4.71494 70.876 4.67285 70.8832 4.63026C70.9037 4.53361 70.9037 4.43394 70.8832 4.33729C70.8832 4.29628 70.8832 4.23182 70.8438 4.20253C70.8044 4.17323 70.774 4.20253 70.7316 4.20253C70.4768 4.2787 70.5587 3.94178 70.5375 3.80995C70.5338 3.76323 70.5197 3.71784 70.4961 3.67688C70.4726 3.63592 70.4401 3.60036 70.401 3.57264C70.2888 3.49647 70.2464 3.59315 70.1524 3.62831C70.1038 3.64588 70.0735 3.65174 70.0371 3.61073C70.0424 3.5705 70.0384 3.52964 70.0253 3.49112C70.0121 3.4526 69.9903 3.4174 69.9613 3.38807C69.8794 3.3119 69.7945 3.3617 69.7217 3.41444C69.6918 3.44134 69.6553 3.46049 69.6156 3.4701C69.5398 3.4701 69.5337 3.42909 69.4913 3.38807C69.4488 3.34706 69.3548 3.27381 69.279 3.33241C69.2032 3.391 69.2335 3.50819 69.2274 3.60487C69.2214 3.70155 69.2123 3.71327 69.1546 3.73963C69.097 3.766 69.0758 3.73963 69.0546 3.80116C69 3.90956 69.1273 3.92128 69.1637 3.99745C69.2001 4.07362 69.0333 4.10292 68.9969 4.15565" fill="white"/>
<path d="M71.5659 7.49397C71.5326 7.46468 71.4992 7.44417 71.4598 7.49397C71.4204 7.54378 71.4416 7.58479 71.4598 7.62874C71.478 7.67268 71.5205 7.73128 71.5386 7.78694C71.5534 7.85337 71.5605 7.92116 71.5599 7.98909C71.888 7.77262 72.1667 7.49343 72.3787 7.16878C72.6045 6.83158 72.7926 6.47213 72.9397 6.09651C72.8531 6.50966 72.6952 6.9058 72.4727 7.26839C72.179 7.65625 71.8513 8.01893 71.4932 8.35237C71.5697 8.38334 71.6503 8.40404 71.7327 8.4139C71.833 8.4318 71.9358 8.4318 72.036 8.4139C72.1391 8.39632 72.5091 8.32893 72.4666 8.16194L72.3938 8.08284C72.3756 8.03597 72.4151 8.01546 72.4545 7.99495C72.5448 7.96181 72.6369 7.93345 72.7304 7.90999C72.8281 7.88956 72.9195 7.84743 72.9973 7.78694C73.0762 7.70198 73.0671 7.64632 72.9549 7.61702C72.8972 7.61702 72.7153 7.576 72.7729 7.49104C72.8002 7.45589 72.8608 7.45003 72.9033 7.43831C72.9473 7.42705 72.99 7.41133 73.0307 7.39143C73.124 7.35769 73.2102 7.30808 73.2854 7.24495C73.3157 7.21565 73.3703 7.18343 73.3764 7.13655C73.3824 7.08968 73.3491 7.07503 73.3127 7.04573C73.1065 6.8846 73.4401 6.75276 73.5401 6.67366C73.5779 6.64406 73.6087 6.6071 73.6307 6.5652C73.6526 6.5233 73.6652 6.4774 73.6675 6.4305C73.6675 6.29866 73.5644 6.31917 73.4825 6.26058C73.4006 6.20198 73.4158 6.2137 73.431 6.16097C73.4678 6.14234 73.5002 6.11661 73.5263 6.08536C73.5524 6.05411 73.5716 6.01802 73.5826 5.97933C73.6008 5.868 73.5129 5.82698 73.4249 5.80061L73.3157 5.74495C73.2672 5.68929 73.3157 5.65413 73.3157 5.6014C73.3157 5.54866 73.337 5.42561 73.243 5.39925C73.1489 5.37288 73.0671 5.4637 72.9791 5.50765C72.8912 5.55159 72.879 5.55745 72.8275 5.52522C72.7759 5.493 72.7729 5.46956 72.7153 5.47835C72.594 5.49886 72.6516 5.60725 72.6091 5.67757C72.5667 5.74788 72.4484 5.63362 72.3787 5.63362C72.1118 5.63362 72.2301 5.92659 72.1937 6.08186C72.1937 6.12581 72.1603 6.16683 72.1027 6.1346C72.0451 6.10237 72.0693 6.04671 72.0269 6.02327C71.9359 5.97054 71.8783 6.12288 71.8571 6.1844C71.8337 6.28151 71.8389 6.38301 71.8722 6.47737C71.8965 6.57316 71.9057 6.67192 71.8995 6.77034C71.8995 6.8553 71.8267 6.94905 71.76 6.84358C71.7327 6.80257 71.7176 6.75276 71.6569 6.76448C71.6337 6.77124 71.6125 6.78327 71.5951 6.79959C71.5776 6.8159 71.5645 6.83601 71.5568 6.85823C71.481 7.05159 71.6478 7.21565 71.666 7.39729C71.666 7.49104 71.666 7.60237 71.5659 7.50569" fill="white"/>
<path d="M68.6094 6.41016C68.476 6.41016 68.5033 6.51563 68.4487 6.60059C68.4214 6.6416 68.4002 6.66504 68.3456 6.65332C68.324 6.61901 68.2954 6.58935 68.2615 6.56616C68.2276 6.54298 68.1891 6.52678 68.1485 6.51855C68.0332 6.51855 67.9938 6.59473 67.9726 6.68262L67.921 6.78809C67.8695 6.83789 67.827 6.78809 67.7724 6.78809C67.7179 6.78809 67.5905 6.78809 67.5662 6.86719C67.542 6.94629 67.642 7.03418 67.6966 7.11621C67.7512 7.19824 67.7512 7.21289 67.7209 7.2627C67.6906 7.3125 67.6663 7.31836 67.6784 7.37402C67.7057 7.48828 67.8149 7.42676 67.8907 7.46484C67.9665 7.50293 67.8513 7.62305 67.8574 7.6875C67.8574 7.94531 68.1606 7.81934 68.3304 7.84277C68.3759 7.84277 68.4214 7.87207 68.3881 7.92773C68.3547 7.9834 68.3001 7.96582 68.2789 8.00684C68.2273 8.09766 68.3911 8.14746 68.4548 8.16211C68.5565 8.17837 68.6609 8.1693 68.758 8.13574C68.856 8.10495 68.9583 8.08914 69.0613 8.08887C69.1492 8.08887 69.2493 8.15332 69.1432 8.22363C69.1007 8.25 69.0522 8.26758 69.0673 8.32617C69.0761 8.34751 69.0895 8.36672 69.1068 8.38243C69.1241 8.39813 69.1448 8.40993 69.1674 8.41699C69.3736 8.48145 69.5344 8.30859 69.7224 8.28223C69.8164 8.26758 69.9316 8.26465 69.8376 8.37305C69.8103 8.40527 69.7891 8.4375 69.8376 8.47559C69.8861 8.51367 69.9316 8.47559 69.9771 8.47559C70.0226 8.47559 70.0802 8.41113 70.1378 8.39062C70.2051 8.37254 70.2743 8.36173 70.3441 8.3584C70.1004 8.05355 69.7937 7.80111 69.4434 7.61719C69.0815 7.41654 68.6982 7.25446 68.3001 7.13379C68.7353 7.19184 69.1568 7.32165 69.5465 7.51758C69.9626 7.77813 70.3552 8.07214 70.7201 8.39648C70.7491 8.32223 70.7665 8.24423 70.7717 8.16504C70.7829 8.06695 70.7758 7.96769 70.7504 7.87207C70.7292 7.77539 70.6413 7.42383 70.4684 7.4707L70.3926 7.54687C70.3441 7.56738 70.3198 7.5293 70.2955 7.49121C70.2572 7.40615 70.2238 7.3191 70.1955 7.23047C70.1676 7.13742 70.1189 7.05142 70.0529 6.97852C69.962 6.9082 69.9043 6.91992 69.8801 7.03125C69.8801 7.08691 69.8498 7.2627 69.7588 7.20996C69.7194 7.18945 69.7133 7.12793 69.6981 7.08984C69.6823 7.04883 69.6641 7.00872 69.6435 6.96973C69.6045 6.88089 69.5478 6.80028 69.4767 6.73242C69.4464 6.70312 69.407 6.65332 69.3585 6.64746C69.31 6.6416 69.2978 6.67969 69.2705 6.71484C69.1128 6.92578 68.9673 6.60937 68.8733 6.51562C68.8401 6.48065 68.7998 6.4527 68.7549 6.43354C68.7101 6.41438 68.6615 6.40442 68.6125 6.4043" fill="white"/>
<path d="M70.9654 11.3984C70.9327 11.472 70.9122 11.5501 70.9047 11.6299C70.8928 11.7277 70.8979 11.8267 70.9199 11.9229C70.9442 12.0225 71.023 12.374 71.1959 12.3301L71.2747 12.2568C71.3232 12.2363 71.3475 12.2744 71.3687 12.3125C71.406 12.3986 71.4384 12.4866 71.4658 12.5762C71.4901 12.6702 71.5369 12.7575 71.6022 12.8311C71.6932 12.9043 71.7508 12.8926 71.7751 12.7812C71.7751 12.7285 71.8084 12.5498 71.9024 12.6055C71.9388 12.626 71.9449 12.6875 71.957 12.7285C71.9692 12.7695 71.9934 12.8105 72.0116 12.8486C72.0492 12.9384 72.1048 13.0201 72.1754 13.0889C72.2027 13.1182 72.2421 13.1709 72.2876 13.1738C72.3331 13.1768 72.3513 13.1445 72.3786 13.1094C72.5393 12.9014 72.6818 13.2207 72.7728 13.3145C72.8043 13.3508 72.8438 13.3799 72.8884 13.3996C72.9329 13.4194 72.9815 13.4293 73.0306 13.4287C73.164 13.4287 73.1397 13.3262 73.1974 13.2441C73.255 13.1621 73.2459 13.1826 73.2974 13.1943C73.3187 13.2292 73.3471 13.2594 73.3811 13.2831C73.415 13.3068 73.4536 13.3235 73.4945 13.332C73.6098 13.332 73.6492 13.2588 73.6735 13.1709L73.7281 13.0684C73.7826 13.0186 73.819 13.0537 73.8767 13.0684C73.9343 13.083 74.0586 13.0859 74.0829 12.9951C74.1071 12.9043 74.0101 12.8252 73.9585 12.7432C73.907 12.6611 73.9039 12.6465 73.9373 12.5937C73.9707 12.541 73.9919 12.541 73.9828 12.4854C73.9585 12.3682 73.8463 12.4297 73.7705 12.3916C73.6947 12.3535 73.813 12.2334 73.8099 12.1689C73.8099 11.9082 73.5067 12.0313 73.3399 12.0049C73.2944 12.0049 73.2489 11.9727 73.2823 11.9199C73.3156 11.8672 73.3702 11.8818 73.3945 11.8408C73.446 11.7529 73.2853 11.7002 73.2216 11.6826C73.1203 11.6628 73.0152 11.671 72.9184 11.7061C72.8199 11.7337 72.7176 11.7466 72.6151 11.7441C72.5241 11.7441 72.4271 11.6797 72.5332 11.6094C72.5757 11.583 72.6242 11.5654 72.609 11.5068C72.601 11.4853 72.5882 11.4657 72.5714 11.4495C72.5546 11.4332 72.5343 11.4208 72.512 11.4131C72.3088 11.3486 72.1451 11.5156 71.954 11.5391C71.86 11.5391 71.7448 11.5391 71.8418 11.4453C71.8691 11.4131 71.8903 11.3809 71.8418 11.3457C71.7933 11.3105 71.7508 11.3457 71.7053 11.3457C71.6598 11.3457 71.5992 11.4072 71.5416 11.4248C71.4745 11.4433 71.4051 11.4532 71.3354 11.4541C71.5697 11.7628 71.8669 12.0221 72.2087 12.2158C72.5663 12.4239 72.9467 12.5929 73.3429 12.7197C72.9155 12.6487 72.5035 12.5091 72.1238 12.3066C71.7134 12.0364 71.3279 11.7325 70.9714 11.3984" fill="white"/>
<mask id="mask0_1240_113145" style="mask-type:luminance" maskUnits="userSpaceOnUse" x="0" y="0" width="81" height="54">
<path d="M0 54H81V0H0V54Z" fill="white"/>
</mask>
<g mask="url(#mask0_1240_113145)">
<path d="M75.5395 9.14254C75.5395 9.07515 75.4606 9.06637 75.3969 9.0693C75.3333 9.07222 75.3211 9.09273 75.2878 9.05172L75.2605 8.96969C75.2605 8.9023 75.2301 8.83492 75.1452 8.83492C75.1144 8.83667 75.0842 8.84491 75.057 8.85908C75.0298 8.87325 75.006 8.893 74.9875 8.91695C74.9451 8.91695 74.933 8.9023 74.9178 8.87008C74.9026 8.83785 74.9178 8.72945 74.8147 8.71773C74.7784 8.71222 74.7414 8.71462 74.7062 8.72476C74.6711 8.7349 74.6387 8.75252 74.6115 8.77633C74.5296 8.83492 74.3962 9.0693 74.3082 8.89058C74.29 8.86129 74.3082 8.83492 74.2476 8.83199L74.1536 8.88472C74.0957 8.92986 74.0465 8.98438 74.008 9.04586L73.9565 9.13082L73.9019 9.21578C73.8291 9.24508 73.8321 9.11324 73.8291 9.0693C73.8261 9.02535 73.7806 8.97262 73.7078 9.01949C73.6519 9.06666 73.6083 9.12587 73.5804 9.19234C73.5513 9.25592 73.5179 9.31758 73.4804 9.37691L73.4045 9.40914L73.356 9.34762C73.2347 9.29781 73.1377 9.54976 73.1134 9.62008C73.0859 9.68726 73.0715 9.75877 73.071 9.83101C73.0682 9.89015 73.0743 9.94936 73.0892 10.0068C73.3864 9.79621 73.7019 9.61094 74.0323 9.45308C74.3364 9.34002 74.6587 9.27953 74.9845 9.27437C74.6812 9.32786 74.3852 9.41435 74.102 9.53219C73.8327 9.64202 73.5892 9.80348 73.3863 10.0068C73.4376 10.0152 73.4876 10.03 73.5349 10.0507C73.5742 10.0724 73.6117 10.0969 73.6471 10.124L73.7502 10.1416V10.0654C73.6926 9.9775 73.7745 9.98922 73.8443 10.0068C73.9807 10.042 74.0838 10.1826 74.2385 10.1533L74.3234 10.0947C74.3234 10.0537 74.3052 10.0361 74.2779 10.0127C74.2051 9.95113 74.2779 9.91305 74.3507 9.92183C74.4256 9.9283 74.4986 9.94817 74.566 9.98043C74.634 10.012 74.709 10.0271 74.7844 10.0244C74.8329 10.0244 74.9572 9.99508 74.9269 9.92476L74.8511 9.85738C74.8329 9.81344 74.8693 9.80172 74.9026 9.79879C75.027 9.79879 75.2332 9.91304 75.2665 9.72554C75.2665 9.67867 75.215 9.5732 75.2665 9.55855C75.3181 9.5439 75.403 9.59078 75.4333 9.50582C75.4333 9.46773 75.4333 9.45894 75.4121 9.42379C75.3909 9.38863 75.4121 9.35347 75.4424 9.31539C75.4728 9.2773 75.5698 9.23336 75.5577 9.14254" fill="white"/>
<path d="M77.3043 8.10472H77.2375C77.6473 7.32705 77.8604 6.4666 77.8592 5.59398C77.8572 4.29927 77.3902 3.04535 76.538 2.04613C75.6858 1.0469 74.5011 0.364272 73.1861 0.114681C71.871 -0.13491 70.5071 0.0640018 69.3269 0.677485C68.1467 1.29097 67.2234 2.28102 66.7145 3.47874C66.3714 2.56429 65.7453 1.77402 64.9212 1.21529C64.0971 0.656553 63.1149 0.356434 62.108 0.355696C60.8775 0.351226 59.6926 0.805151 58.7996 1.62308C57.9067 2.441 57.3744 3.55997 57.3135 4.7473V4.84691V4.98167C57.3156 5.5328 57.4183 6.07925 57.6168 6.59593C57.7625 7.18354 58.0354 7.73469 58.4174 8.21312C57.3677 7.79316 56.2585 7.52847 55.1271 7.42796C54.8875 7.40159 54.6479 7.37816 54.4114 7.36351C54.2506 7.34593 54.1081 7.33714 53.9353 7.32835H53.723H53.3864L53.2105 7.343C53.071 7.343 52.9588 7.36937 52.8587 7.38109C52.8119 7.38454 52.7653 7.39041 52.7192 7.39866L52.607 7.41917C52.0481 7.51374 51.5046 7.67924 50.9906 7.91136C49.6126 8.51234 48.4897 9.55165 47.809 10.8559C47.1284 12.1601 46.9313 13.6504 47.2506 15.0781C47.57 16.5057 48.3864 17.7844 49.5637 18.7008C50.7411 19.6172 52.208 20.1158 53.7199 20.1135C54.1523 20.1221 54.5844 20.0857 55.0088 20.0051C54.6803 19.9261 54.3596 19.8192 54.0505 19.6858C50.1324 18.1828 49.1468 16.1877 49.1468 13.7707C49.1442 12.4264 49.6589 11.1291 50.5908 10.1307C51.5228 9.13238 52.8056 8.50428 54.19 8.36839H54.2052C54.7866 8.36864 55.3676 8.39798 55.9459 8.45628C56.4465 8.50654 56.9429 8.58974 57.4318 8.7053C59.3272 9.16527 60.6888 9.76292 60.892 9.73655C60.434 9.40528 59.9975 9.04719 59.5849 8.66429C59.5061 8.57347 59.4273 8.47386 59.3423 8.37132C59.274 8.28871 59.2102 8.20265 59.1513 8.11351C59.0148 7.88927 58.8942 7.6563 58.7904 7.41624L58.7571 7.32249C58.5374 6.68583 58.4822 6.00693 58.5963 5.34495C58.6176 5.22777 58.6388 5.11058 58.6661 4.99632V4.95823C58.8925 4.11357 59.4022 3.36514 60.1154 2.82983C60.8286 2.29451 61.7053 2.00245 62.6084 1.99925C63.3988 1.99616 64.1744 2.20552 64.8487 2.6039C65.523 3.00228 66.0692 3.57399 66.4264 4.25511C66.6838 4.76315 66.8176 5.32131 66.8176 5.88695C66.8176 6.01585 66.8176 6.23558 66.8176 6.35863C66.8389 6.28538 66.8571 6.20921 66.8752 6.13597V6.10374C66.885 6.00537 66.9002 5.90758 66.9207 5.81077C67.0946 4.56328 67.7584 3.42813 68.7746 2.64031C69.7908 1.85248 71.0816 1.4723 72.38 1.57845C73.6783 1.6846 74.8847 2.26897 75.7494 3.21058C76.6141 4.15219 77.0709 5.37896 77.0253 6.63695C77.0265 7.14735 76.9436 7.65468 76.7796 8.13988C76.7281 8.30101 76.6644 8.45628 76.5977 8.61155H76.8039H76.9373C77.5341 8.63578 78.1105 8.82804 78.5956 9.16468C79.0807 9.50132 79.4534 9.96764 79.6677 10.5063C79.882 11.0449 79.9286 11.6323 79.8018 12.1961C79.675 12.76 79.3803 13.2758 78.954 13.6799L78.7963 13.8176C78.8669 14.0793 78.9096 14.3473 78.9237 14.6174C78.9237 14.6907 78.9237 14.761 78.9237 14.8371C78.9237 15.9195 78.4786 16.9575 77.6864 17.7229C76.8941 18.4882 75.8197 18.9182 74.6993 18.9182C74.3455 18.9184 73.993 18.876 73.65 18.7922L73.559 18.7688L73.5408 18.7366V18.8215C73.5421 19.0222 73.5029 19.2212 73.4256 19.4074C73.2758 19.7377 73.0277 20.0174 72.7129 20.2109C72.398 20.4045 72.0307 20.5032 71.6576 20.4944C71.207 20.4952 70.7691 20.3497 70.4143 20.0813C70.2718 19.9635 70.1491 19.8251 70.0504 19.6711C70.0636 19.9082 70.1342 20.139 70.2566 20.345C70.4889 20.7339 70.8665 21.0221 71.3119 21.1506C71.5077 21.2125 71.7124 21.2441 71.9184 21.2444C72.394 21.2604 72.8572 21.0958 73.2087 20.7858C73.5602 20.4759 73.7719 20.0452 73.7986 19.5862V19.5481C74.2733 19.722 74.7769 19.8103 75.2846 19.8088C75.9618 19.8079 76.6289 19.6505 77.2303 19.3498C77.8317 19.0491 78.3499 18.6138 78.7417 18.0802C79.1335 17.5466 79.3874 16.9302 79.4824 16.2824C79.5774 15.6347 79.5105 14.9744 79.2876 14.3567C79.3725 14.2981 79.4877 14.219 79.7394 14.0373C80.2307 13.6799 80.8584 12.5227 80.8584 11.5354C80.8576 10.6252 80.4828 9.75265 79.8164 9.10936C79.1499 8.46607 78.2464 8.10472 77.3043 8.10472Z" fill="white"/>
</g>
<path d="M54.6131 17.1768C54.5737 17.1973 54.5252 17.209 54.5312 17.2646C54.537 17.2854 54.5473 17.3048 54.5614 17.3215C54.5756 17.3381 54.5932 17.3517 54.6131 17.3613C54.792 17.4404 54.9619 17.3027 55.1347 17.3027C55.2257 17.3027 55.3318 17.3027 55.2287 17.3994L55.2136 17.4902C55.2469 17.5312 55.2954 17.5166 55.3409 17.4902C55.3864 17.4639 55.444 17.4463 55.4986 17.4346C55.562 17.4258 55.6263 17.4258 55.6897 17.4346C55.5104 17.1267 55.2667 16.8582 54.974 16.6465C54.6692 16.4177 54.3397 16.2213 53.9914 16.0605C54.3814 16.166 54.7497 16.3354 55.0801 16.5615C55.4288 16.8511 55.7505 17.1697 56.0414 17.5137C56.0773 17.4494 56.1029 17.3803 56.1173 17.3086C56.1409 17.2207 56.148 17.1294 56.1385 17.0391C56.1385 16.9482 56.093 16.6143 55.9292 16.6377L55.8504 16.6963C55.8019 16.6963 55.7837 16.6729 55.7716 16.6377C55.7438 16.5546 55.7235 16.4693 55.7109 16.3828C55.6963 16.2948 55.6622 16.2108 55.6108 16.1367C55.538 16.0605 55.4835 16.0664 55.4471 16.1631C55.4289 16.2129 55.3894 16.374 55.3136 16.3154L55.2742 16.1953C55.2653 16.1554 55.2531 16.1162 55.2378 16.0781C55.2142 15.992 55.1729 15.9113 55.1165 15.8408C55.0923 15.8115 55.0619 15.7588 55.0195 15.75C54.977 15.7412 54.9588 15.7734 54.9285 15.8027C54.7617 15.9756 54.6707 15.668 54.5919 15.5713C54.5671 15.5345 54.5341 15.5035 54.4952 15.4807C54.4564 15.4579 54.4127 15.4438 54.3675 15.4395C54.2431 15.4395 54.2553 15.5215 54.1946 15.5918C54.134 15.6621 54.14 15.6445 54.0945 15.6299C54.0802 15.5953 54.058 15.5642 54.0297 15.5389C54.0014 15.5135 53.9676 15.4946 53.9308 15.4834C53.8277 15.457 53.7822 15.5332 53.7488 15.6094L53.6882 15.7002C53.6336 15.7412 53.6033 15.7002 53.5487 15.7002C53.4941 15.7002 53.3849 15.668 53.3516 15.7471C53.3182 15.8262 53.4001 15.9111 53.4395 15.9902C53.4789 16.0693 53.4789 16.0869 53.4395 16.1309C53.4001 16.1748 53.3819 16.1719 53.3879 16.2246C53.3879 16.3359 53.5032 16.2891 53.5699 16.3359C53.6366 16.3828 53.5123 16.4766 53.5093 16.5352C53.488 16.7725 53.7731 16.6904 53.9217 16.7344C53.9641 16.7344 54.0005 16.7725 53.9672 16.8193L53.855 16.8779C53.7973 16.9541 53.9399 17.0186 53.9945 17.042C54.085 17.0639 54.1798 17.0639 54.2704 17.042C54.3639 17.0288 54.4589 17.0288 54.5525 17.042C54.6343 17.042 54.7162 17.124 54.6101 17.1738" fill="white"/>
<path d="M59.3211 15.5793C59.3615 15.5439 59.398 15.5046 59.4303 15.4621C59.5079 15.3758 59.5685 15.2765 59.6092 15.1692C59.6244 15.1223 59.6638 15.0579 59.6456 15.0051C59.6274 14.9524 59.5789 14.9582 59.5273 14.9465C59.2241 14.8879 59.497 14.5832 59.5516 14.4338C59.5764 14.3835 59.5893 14.3284 59.5893 14.2727C59.5893 14.2169 59.5764 14.1619 59.5516 14.1116C59.4849 13.9739 59.3848 14.05 59.2483 14.0354C59.1877 14.0354 59.1513 14.0178 59.1392 13.9563C59.167 13.9175 59.1858 13.8732 59.1942 13.8267C59.2026 13.7801 59.2004 13.7324 59.1877 13.6868C59.1483 13.5579 59.03 13.5637 58.9208 13.5813C58.8743 13.5946 58.8248 13.5946 58.7783 13.5813C58.6964 13.552 58.7176 13.4934 58.6994 13.4289C58.6813 13.3645 58.6206 13.2356 58.5084 13.2561C58.3962 13.2766 58.3598 13.4172 58.2961 13.5139C58.2324 13.6106 58.2173 13.6194 58.1445 13.6135C58.0717 13.6077 58.0535 13.5842 58.002 13.6135C57.8837 13.6985 58.002 13.7805 58.002 13.8801C58.002 13.9797 57.8048 13.9182 57.7351 13.9563C57.4561 14.0969 57.7351 14.3371 57.7988 14.5246C57.7988 14.5745 57.7988 14.633 57.7351 14.6272C57.6714 14.6213 57.6471 14.5569 57.5926 14.551C57.4652 14.551 57.4894 14.7356 57.5046 14.8088C57.5367 14.9199 57.5984 15.0209 57.6835 15.1018C57.7636 15.1897 57.83 15.2884 57.8807 15.3948C57.9231 15.4885 57.9049 15.6203 57.7745 15.5471C57.723 15.5178 57.6775 15.4739 57.6229 15.5207C57.6023 15.5398 57.5867 15.5632 57.5772 15.5892C57.5677 15.6151 57.5647 15.6429 57.5683 15.6702C57.6017 15.9133 57.8716 15.9954 57.9959 16.177C58.0565 16.2707 58.1202 16.3879 57.9504 16.344C57.9019 16.344 57.8534 16.3264 57.8352 16.3879C57.817 16.4495 57.8685 16.4934 57.911 16.5286C57.9534 16.5637 58.0323 16.6047 58.0808 16.6545C58.1371 16.7136 58.185 16.7796 58.2233 16.8508C58.4426 16.4502 58.5747 16.0106 58.6115 15.5588C58.6537 15.0845 58.6435 14.6072 58.5812 14.135C58.7313 14.6161 58.7949 15.1185 58.7692 15.6203C58.6884 16.1851 58.5564 16.7419 58.375 17.2844C58.4727 17.2784 58.5689 17.2576 58.66 17.2229C58.7702 17.1855 58.8728 17.13 58.9633 17.0588C59.0603 16.9856 59.4091 16.719 59.2665 16.5666L59.1452 16.5227C59.0997 16.4817 59.1452 16.4377 59.1604 16.3967C59.234 16.3129 59.3141 16.2345 59.4 16.1623C59.4899 16.0866 59.5613 15.9925 59.6092 15.887C59.6426 15.758 59.6092 15.7053 59.4667 15.7346C59.4 15.7522 59.1907 15.8225 59.2059 15.6995C59.2059 15.6467 59.2726 15.6086 59.309 15.5764" fill="white"/>
<path d="M57.0555 19.4199L57.004 19.2822C56.9767 19.2285 56.9397 19.1799 56.8948 19.1387C56.8493 19.0947 56.6825 18.9424 56.6128 19.0215L56.5976 19.083H56.5309C56.4809 19.0522 56.4333 19.0179 56.3883 18.9805C56.3437 18.9409 56.2895 18.9127 56.2307 18.8984C56.1579 18.8984 56.1336 18.8984 56.1579 18.9775C56.1821 19.0566 56.2216 19.1064 56.1579 19.1064L56.0851 19.0654L56.0153 19.0215C55.9656 18.9868 55.9087 18.9629 55.8486 18.9512H55.7606L55.7363 19.0127C55.7363 19.1709 55.5453 19.0537 55.4634 19.0361C55.4343 19.0288 55.4039 19.0273 55.3741 19.0319C55.3444 19.0364 55.3159 19.0468 55.2906 19.0625C55.2238 19.1064 55.2724 19.1504 55.2724 19.2119L55.239 19.2705H55.0904C55.0267 19.2998 55.0389 19.3584 55.054 19.4111V19.4814C55.054 19.5225 55.0116 19.5166 54.9812 19.5312C54.9509 19.5459 54.8812 19.5811 54.9024 19.6367C54.9236 19.6924 54.9964 19.6982 55.051 19.7246L55.1177 19.792V19.8623C55.1723 19.915 55.2056 19.8623 55.2602 19.8418L55.3179 19.9678C55.4119 20.0967 55.521 19.9385 55.6211 19.9004L55.6818 19.9238L55.6514 20C55.6514 20.0615 55.7545 20.0352 55.794 20.0234C55.8507 20.0003 55.8999 19.9629 55.9365 19.915C55.9765 19.8693 56.0236 19.8298 56.076 19.7979C56.1245 19.7686 56.1943 19.7686 56.1639 19.8389V19.9209L56.2489 19.9355C56.3732 19.9033 56.4005 19.7627 56.4884 19.6895C56.5764 19.6162 56.5885 19.6133 56.5764 19.6895L56.6097 19.7422L56.6795 19.6953L56.7341 19.6016L56.8281 19.5195C56.6003 19.4384 56.3577 19.4035 56.1154 19.417C55.8613 19.4273 55.609 19.4646 55.3633 19.5283C55.6077 19.421 55.8692 19.3546 56.1366 19.332C56.442 19.3354 56.7464 19.3648 57.0464 19.4199" fill="white"/>
<path d="M56 22.5957V23.3691L58.1258 22.6631L60.6429 23.4277V22.6572L58.1258 21.8516L56 22.5957Z" fill="white"/>
<path d="M56 24.0762V24.8496L58.1258 24.2168L60.6429 24.9023V24.1318L58.1258 23.4082L56 24.0762Z" fill="white"/>
<path d="M56 25.5557V26.3291L58.1258 25.7695L60.6429 26.376V25.6055L58.1258 24.9609L56 25.5557Z" fill="white"/>
<path d="M56 27.0352V27.8086L58.1258 27.3252L60.6429 27.8496V27.0791L58.1258 26.5137L56 27.0352Z" fill="white"/>
<path d="M56 28.5127V29.2861L58.1258 28.876L60.6429 29.3184V28.5478L58.1258 28.0645L56 28.5127Z" fill="white"/>
<path d="M56 29.9932V30.7666L58.1258 30.4297L60.6429 30.793V30.0225L58.1258 29.6211L56 29.9932Z" fill="white"/>
<path d="M56 31.4697V32.2432L58.1258 31.9824L60.6429 32.2666V31.4961L58.1258 31.1738L56 31.4697Z" fill="white"/>
<path d="M67.5512 11.8398C67.536 11.749 67.5178 11.6611 67.4997 11.5732C67.4839 11.4878 67.4616 11.4036 67.4329 11.3213C67.3916 11.1735 67.3399 11.0287 67.2783 10.8877C67.2298 10.7646 67.1661 10.668 67.1327 10.5947C67.0994 10.5215 67.0781 10.4863 67.0781 10.4863L67.1206 10.6006C67.1448 10.6738 67.1934 10.7764 67.2267 10.8936C67.2711 11.0375 67.3046 11.1844 67.3268 11.333C67.3426 11.4154 67.3537 11.4985 67.3602 11.582L67.3783 11.8398C67.3783 12.0127 67.3783 12.1855 67.348 12.3467C67.348 12.4258 67.3329 12.5049 67.3147 12.5752C67.2965 12.6455 67.2843 12.7129 67.2692 12.7744C67.248 12.8975 67.2025 13.0088 67.1843 13.0674V13.1143L67.5087 13.2314C67.5087 13.2109 67.5088 13.1787 67.5239 13.1377C67.5462 13.0312 67.5624 12.9236 67.5724 12.8154C67.5724 12.748 67.5876 12.6719 67.5937 12.5928C67.5997 12.5137 67.5937 12.4316 67.5937 12.3437C67.5933 12.1664 67.5812 11.9893 67.5573 11.8135" fill="white"/>
<path d="M71.198 10.8584C71.3261 10.2673 71.377 9.66294 71.3497 9.05957C71.2103 8.18248 70.9849 7.3202 70.6764 6.48438L70.6491 6.50488C70.6491 6.50488 71.1768 8.33008 71.1859 9.08887C71.1828 9.72153 71.093 10.351 70.919 10.9609C70.4389 11.14 69.9803 11.3688 69.5513 11.6436C68.8613 12.1151 68.2532 12.6896 67.75 13.3457L68.22 13.5127C68.623 12.8614 69.1535 12.2922 69.7818 11.8369C70.9433 11.0488 73.2481 10.2314 73.2481 10.2314C72.5536 10.4047 71.8692 10.614 71.198 10.8584Z" fill="white"/>
<path d="M57.1971 19.0098C57.3214 19.1416 57.4245 19.2822 57.5428 19.4316L57.8764 19.8857C58.2878 20.4332 58.6356 21.0227 58.9135 21.6436C58.9584 21.7557 58.9969 21.8701 59.0288 21.9863V22.0303L59.4776 22.1738C59.4593 22.074 59.4319 21.976 59.3957 21.8809C59.351 21.7529 59.2983 21.6277 59.238 21.5059C59.0257 21.0693 58.6618 20.627 58.3282 20.082C58.2016 19.8637 58.1193 19.6241 58.0856 19.376C57.9583 18.8691 58.0553 17 58.0553 17C58.0553 17 57.7794 18.7783 57.8885 19.3965C57.9067 19.4844 57.9279 19.5723 57.9492 19.6396V19.666C57.8521 19.5518 57.7521 19.4375 57.6459 19.3232C57.5398 19.209 57.3972 19.0303 57.2638 18.9219L56.8969 18.5586C56.7756 18.4473 56.6755 18.3301 56.5572 18.2422L55.8203 17.6299C55.8203 17.6299 56.7119 18.5088 56.8211 18.626L57.1637 19.0098" fill="white"/>
</g>
<defs>
<clipPath id="clip0_1240_113145">
<rect width="81" height="54" fill="white"/>
</clipPath>
</defs>
</svg>
