<svg width="75" height="75" viewBox="0 0 75 75" fill="none" xmlns="http://www.w3.org/2000/svg">
<path d="M29.0078 12.8906H22.8555V25.1953H29.0078C30.6395 25.1953 32.2044 24.5471 33.3582 23.3933C34.512 22.2395 35.1602 20.6747 35.1602 19.043C35.1602 17.4113 34.512 15.8464 33.3582 14.6926C32.2044 13.5388 30.6395 12.8906 29.0078 12.8906ZM22.5625 72.3633C22.5628 72.9071 22.779 73.4285 23.1635 73.8131C23.548 74.1976 24.0695 74.4138 24.6133 74.4141H28.7148C29.2586 74.4138 29.7801 74.1976 30.1646 73.8131C30.5492 73.4285 30.7653 72.9071 30.7656 72.3633V58.5938H22.5625V72.3633Z" fill="white"/>
<path d="M46.582 0H6.73828C4.95175 0.0018613 3.23892 0.712383 1.97565 1.97565C0.712383 3.23892 0.0018613 4.95175 0 6.73828V47.7539C0.0018613 49.5404 0.712383 51.2533 1.97565 52.5165C3.23892 53.7798 4.95175 54.4903 6.73828 54.4922H46.582C48.3686 54.4903 50.0814 53.7798 51.3447 52.5165C52.6079 51.2533 53.3185 49.5404 53.3203 47.7539V6.73828C53.3185 4.95175 52.6079 3.23892 51.3447 1.97565C50.0814 0.712383 48.3686 0.0018613 46.582 0ZM29.0039 29.2969H22.8516V43.6523C22.8516 44.1962 22.6355 44.7179 22.2509 45.1025C21.8663 45.4871 21.3447 45.7031 20.8008 45.7031C20.2569 45.7031 19.7353 45.4871 19.3507 45.1025C18.9661 44.7179 18.75 44.1962 18.75 43.6523V10.8398C18.7498 10.5705 18.8028 10.3037 18.9058 10.0549C19.0088 9.80598 19.1599 9.57984 19.3503 9.38938C19.5408 9.19892 19.7669 9.04786 20.0158 8.94486C20.2647 8.84185 20.5314 8.78891 20.8008 8.78906H29.0039C31.7234 8.78906 34.3315 9.86938 36.2545 11.7924C38.1775 13.7153 39.2578 16.3235 39.2578 19.043C39.2578 21.7625 38.1775 24.3706 36.2545 26.2936C34.3315 28.2166 31.7234 29.2969 29.0039 29.2969Z" fill="white"/>
</svg>
