<svg width="72" height="27" viewBox="0 0 72 27" fill="none" xmlns="http://www.w3.org/2000/svg">
<g clip-path="url(#clip0_1625_96806)">
<path fill-rule="evenodd" clip-rule="evenodd" d="M4.89182 0L3.6681 3.50436H20.6261L21.8498 0H4.89182ZM3.05586 5.25575L1.83214 8.75932H18.7901L20.0138 5.25575H3.05586ZM1.22372 10.5115L0 14.0151H16.958L18.1809 10.5115H1.22372Z" fill="#009FDF"/>
<mask id="mask0_1625_96806" style="mask-type:luminance" maskUnits="userSpaceOnUse" x="25" y="5" width="47" height="22">
<path d="M25.4453 26.7906H71.8659V5.32422H25.4453V26.7906Z" fill="#0A2973"/>
</mask>
<g mask="url(#mask0_1625_96806)">
<path fill-rule="evenodd" clip-rule="evenodd" d="M36.0545 15.3516V15.4255C36.8295 15.7229 37.5698 16.2429 37.9577 16.5769C39.156 17.6169 39.685 18.9909 39.685 20.7736C39.685 23.7084 38.2044 25.825 35.7723 26.4937C35.032 26.7164 34.257 26.7911 32.8112 26.7911H25.4453V5.32422H31.966C33.3055 5.32422 34.2216 5.39816 35.032 5.62079C37.394 6.2895 38.9447 7.99824 38.9447 10.7088C38.9447 12.1576 38.4512 13.3837 37.6407 14.2002C37.2883 14.5716 36.7948 15.0176 36.0545 15.3516ZM29.5338 17.6169V23.2623H32.3539C33.199 23.2623 33.9748 23.1884 34.5393 22.631C35.103 22.0736 35.3497 21.3683 35.3497 20.4396C35.3497 19.7343 35.1731 19.0656 34.8207 18.583C34.2216 17.803 33.4813 17.6169 32.2128 17.6169H29.5338ZM29.4984 13.9029H31.7894C32.4942 13.9029 32.8466 13.9029 33.199 13.7915C34.1514 13.4942 34.7505 12.6036 34.7505 11.3775C34.7505 9.92961 34.1159 9.29747 33.199 9.00089C32.8112 8.88958 32.424 8.8522 31.6483 8.8522H29.4984V13.9029ZM45.8178 26.7911V8.92614H39.9318V5.32422H56.2867L55.1238 8.92614H49.9064V26.7911H45.8178ZM57.5552 26.7911V5.32422H70.8086L69.6458 8.92614H61.609V13.6802H64.8871C67.5306 13.6802 68.9055 14.3489 69.8571 15.2029C70.5973 15.8716 71.8659 17.3569 71.8659 20.2917C71.8659 23.1884 70.5619 24.785 69.4692 25.6024C68.2007 26.5303 66.8612 26.7911 64.1468 26.7911H57.5552ZM61.609 23.1884H64.6758C65.8387 23.1884 66.5435 22.891 67.037 22.2223C67.2838 21.8884 67.6362 21.2936 67.6362 20.1796C67.6362 19.0656 67.2838 18.2856 66.579 17.7282C66.1564 17.3943 65.5919 17.209 64.6404 17.209H61.609V23.1884Z" fill="#0A2973"/>
</g>
</g>
<defs>
<clipPath id="clip0_1625_96806">
<rect width="72" height="27" fill="white"/>
</clipPath>
</defs>
</svg>
