<svg width="56" height="63" viewBox="0 0 56 63" fill="none" xmlns="http://www.w3.org/2000/svg">
<path d="M22.4991 5.15133C21.8178 5.04664 21.1228 5.21619 20.5663 5.62286C20.0098 6.02952 19.6371 6.64016 19.5299 7.32103C18.6797 12.7836 14.5106 15.1496 11.6441 16.148C11.1965 15.5509 10.6162 15.066 9.94911 14.7317C9.28197 14.3973 8.54624 14.2226 7.8 14.2214C6.61945 14.2233 5.48033 14.6568 4.59724 15.4403C3.71415 16.2237 3.14805 17.3031 3.0056 18.475L0 42.8214H5.2V59.7214C5.2 60.411 5.47393 61.0723 5.96152 61.5599C6.44912 62.0475 7.11044 62.3214 7.8 62.3214C8.48956 62.3214 9.15088 62.0475 9.63848 61.5599C10.1261 61.0723 10.4 60.411 10.4 59.7214V42.8214H15.6L12.9324 21.2115C17.615 19.6645 23.4702 15.8243 24.6701 8.12053C24.7224 7.78311 24.7078 7.43867 24.627 7.1069C24.5463 6.77513 24.4009 6.46251 24.1993 6.18692C23.9977 5.91132 23.7438 5.67813 23.4521 5.50066C23.1604 5.3232 22.8365 5.20364 22.4991 5.15133Z" fill="#51A747"/>
<path d="M7.79531 11.7C11.0262 11.7 13.6453 9.08087 13.6453 5.85C13.6453 2.61913 11.0262 0 7.79531 0C4.56445 0 1.94531 2.61913 1.94531 5.85C1.94531 9.08087 4.56445 11.7 7.79531 11.7Z" fill="#51A747"/>
<path d="M43.706 45.6529L44.252 42.1039C39.3991 38.5718 34.983 30.5755 40.274 29.2729C40.534 29.2079 40.807 29.1689 41.08 29.1689C42.549 29.1689 43.849 30.1699 44.213 31.5999C44.239 31.7169 44.564 32.8479 45.474 34.1869C46.1318 29.945 43.4733 28.2212 41.353 28.0509C40.5883 27.9855 39.8193 28.11 39.1142 28.4132C38.4091 28.7164 37.7898 29.189 37.3113 29.789C36.6743 29.3561 35.8306 29.334 35.0337 29.477L35.1481 28.3044L29.5412 27.7584C28.8549 27.6914 28.1701 27.8997 27.6374 28.3375C27.1047 28.7754 26.7677 29.4069 26.7007 30.0932L25.6919 40.4451C25.6252 41.1314 25.8339 41.8161 26.272 42.3485C26.7101 42.8809 27.3417 43.2176 28.028 43.2843L33.6349 43.8303L33.8026 42.1078C34.1068 42.1507 34.4266 42.1819 34.7711 42.1819C34.9973 42.1819 35.2391 42.1559 35.4783 42.1299L35.269 44.6519C35.1832 45.7699 35.5446 46.8359 36.2102 47.6601C36.4767 53.8039 30.1236 58.7361 30.0235 58.8115C29.6104 59.123 29.338 59.5859 29.2662 60.0982C29.1945 60.6105 29.3291 61.1304 29.6406 61.5435C29.9521 61.9565 30.415 62.2289 30.9273 62.3007C31.4397 62.3725 31.9595 62.2378 32.3726 61.9263C32.6716 61.7014 38.5775 57.18 39.8866 50.6124C40.9175 52.2335 41.6923 55.0779 40.6666 59.9685C40.612 60.2199 40.6077 60.4796 40.6539 60.7326C40.7001 60.9857 40.7959 61.2271 40.9358 61.443C41.0757 61.6588 41.2569 61.8449 41.4691 61.9904C41.6812 62.1359 41.92 62.238 42.1717 62.2908C42.4235 62.3437 42.6832 62.3461 42.9359 62.2982C43.1887 62.2502 43.4294 62.1526 43.6442 62.0112C43.8591 61.8698 44.0439 61.6873 44.1879 61.4741C44.3319 61.261 44.4323 61.0214 44.4834 60.7693C45.8874 54.0743 44.4678 50.1119 42.679 47.8109C43.2219 47.2054 43.5785 46.4561 43.706 45.6529ZM33.93 40.8078L34.9024 30.8329C35.5732 30.6782 36.2297 30.6444 36.6886 30.8589C36.1686 32.051 36.3051 32.2109 35.5888 40.8143C35.0388 40.8974 34.4793 40.8952 33.93 40.8078Z" fill="#51A747"/>
<path d="M54.0662 40.2795C45.1014 39.545 43.0461 32.265 42.9564 31.9296C42.8276 31.4286 42.5051 30.9993 42.0598 30.7362C41.6145 30.473 41.0829 30.3975 40.582 30.5263C40.081 30.655 39.6517 30.9775 39.3885 31.4228C39.1253 31.8681 39.0498 32.3997 39.1786 32.9007C40.0847 36.4588 44.2941 43.3917 53.7477 44.1665C54.2631 44.2087 54.7743 44.0445 55.1686 43.7099C55.5629 43.3753 55.8082 42.8977 55.8504 42.3823C55.8927 41.8668 55.7284 41.3557 55.3938 40.9614C55.0592 40.567 54.5816 40.3217 54.0662 40.2795Z" fill="#51A747"/>
<path d="M43.55 25.9203C46.0629 25.9203 48.1 23.8832 48.1 21.3703C48.1 18.8574 46.0629 16.8203 43.55 16.8203C41.0371 16.8203 39 18.8574 39 21.3703C39 23.8832 41.0371 25.9203 43.55 25.9203Z" fill="#51A747"/>
</svg>
