<svg width="50" height="44" viewBox="0 0 50 44" fill="none" xmlns="http://www.w3.org/2000/svg">
<path d="M10.7143 6.08173C10.7183 5.10736 10.4518 4.15067 9.94389 3.31642C9.43597 2.48216 8.70624 1.80252 7.8346 1.35191C6.96297 0.901299 5.98304 0.697101 5.00212 0.761675C4.02121 0.826248 3.07713 1.1571 2.27328 1.71801C1.46942 2.27892 0.83679 3.04825 0.444651 3.94175C0.0525123 4.83525 -0.0840091 5.81848 0.050037 6.78376C0.184083 7.74904 0.583527 8.65915 1.20463 9.41442C1.82573 10.1697 2.64454 10.741 3.57139 11.0658V41.4801C3.57139 41.9495 3.75953 42.3997 4.09441 42.7316C4.4293 43.0635 4.8835 43.25 5.3571 43.25C5.83071 43.25 6.28491 43.0635 6.6198 42.7316C6.95468 42.3997 7.14282 41.9495 7.14282 41.4801V11.0658C8.18373 10.7011 9.08552 10.0265 9.72481 9.13431C10.3641 8.24215 10.7097 7.176 10.7143 6.08173ZM41.0714 0.771981H23.2143C20.8471 0.774791 18.5778 1.70806 16.9039 3.36707C15.2301 5.02608 14.2885 7.27537 14.2857 9.62157V32.6305C14.2903 33.7248 14.6358 34.7909 15.2751 35.6831C15.9144 36.5752 16.8162 37.2498 17.8571 37.6146V39.7102C17.8571 40.649 18.2334 41.5494 18.9032 42.2132C19.5729 42.8771 20.4813 43.25 21.4285 43.25H25C25.9472 43.25 26.8556 42.8771 27.5254 42.2132C28.1951 41.5494 28.5714 40.649 28.5714 39.7102V37.9402H35.7143V39.7102C35.7143 40.649 36.0905 41.5494 36.7603 42.2132C37.4301 42.8771 38.3385 43.25 39.2857 43.25H42.8571C43.8043 43.25 44.7127 42.8771 45.3825 42.2132C46.0523 41.5494 46.4286 40.649 46.4286 39.7102V37.6146C47.4695 37.2498 48.3713 36.5752 49.0106 35.6831C49.6498 34.7909 49.9954 33.7248 50 32.6305V9.62157C49.9972 7.27537 49.0556 5.02608 47.3817 3.36707C45.7079 1.70806 43.4386 0.774791 41.0714 0.771981ZM21.4285 30.8606C21.4285 30.5105 21.5333 30.1683 21.7295 29.8773C21.9257 29.5862 22.2046 29.3593 22.5309 29.2254C22.8572 29.0914 23.2162 29.0564 23.5626 29.1247C23.909 29.193 24.2272 29.3615 24.477 29.6091C24.7267 29.8566 24.8968 30.172 24.9657 30.5153C25.0346 30.8586 24.9992 31.2145 24.864 31.5379C24.7289 31.8613 24.5 32.1377 24.2064 32.3322C23.9127 32.5267 23.5674 32.6305 23.2143 32.6305C22.7407 32.6305 22.2865 32.444 21.9516 32.1121C21.6167 31.7802 21.4285 31.33 21.4285 30.8606ZM39.2857 30.8606C39.2857 30.5105 39.3904 30.1683 39.5867 29.8773C39.7829 29.5862 40.0618 29.3593 40.3881 29.2254C40.7144 29.0914 41.0734 29.0564 41.4198 29.1247C41.7662 29.193 42.0844 29.3615 42.3341 29.6091C42.5839 29.8566 42.7539 30.172 42.8228 30.5153C42.8917 30.8586 42.8564 31.2145 42.7212 31.5379C42.586 31.8613 42.3572 32.1377 42.0635 32.3322C41.7699 32.5267 41.4246 32.6305 41.0714 32.6305C40.5978 32.6305 40.1436 32.444 39.8087 32.1121C39.4738 31.7802 39.2857 31.33 39.2857 30.8606ZM46.4286 22.011C46.4286 22.4804 46.2404 22.9306 45.9055 23.2625C45.5707 23.5944 45.1165 23.7809 44.6429 23.7809H19.6428C19.1692 23.7809 18.715 23.5944 18.3801 23.2625C18.0453 22.9306 17.8571 22.4804 17.8571 22.011V11.3915C17.8571 10.4527 18.2334 9.55229 18.9032 8.88844C19.5729 8.2246 20.4813 7.85165 21.4285 7.85165H42.8571C43.8043 7.85165 44.7127 8.2246 45.3825 8.88844C46.0523 9.55229 46.4286 10.4527 46.4286 11.3915V22.011Z" fill="#51A747"/>
</svg>
