<svg width="65" height="56" viewBox="0 0 65 56" fill="none" xmlns="http://www.w3.org/2000/svg">
<path d="M13.9285 6.93125C13.9338 5.66457 13.5873 4.42087 12.9271 3.33634C12.2668 2.25181 11.3181 1.36827 10.185 0.78248C9.05186 0.196688 7.77795 -0.0687687 6.50276 0.0151771C5.22757 0.0991228 4.00027 0.529235 2.95526 1.25841C1.91025 1.98759 1.08783 2.98772 0.578047 4.14928C0.068266 5.31083 -0.109212 6.58902 0.0650481 7.84389C0.239308 9.09875 0.758586 10.2819 1.56602 11.2638C2.37345 12.2456 3.4379 12.9883 4.64281 13.4106V52.9491C4.64281 53.5593 4.88738 54.1446 5.32274 54.5761C5.75809 55.0076 6.34855 55.25 6.96424 55.25C7.57992 55.25 8.17038 55.0076 8.60573 54.5761C9.04109 54.1446 9.28567 53.5593 9.28567 52.9491V13.4106C10.6388 12.9364 11.8112 12.0594 12.6423 10.8996C13.4733 9.73979 13.9226 8.3538 13.9285 6.93125ZM53.3928 0.0285749H30.1785C27.1013 0.0322284 24.1511 1.24548 21.9751 3.40219C19.7992 5.5589 18.5751 8.48299 18.5714 11.533V41.4446C18.5773 42.8672 19.0266 44.2532 19.8577 45.413C20.6887 46.5728 21.8611 47.4498 23.2143 47.924V50.6482C23.2143 51.8687 23.7034 53.0392 24.5741 53.9022C25.4448 54.7652 26.6257 55.25 27.8571 55.25H32.5C33.7313 55.25 34.9123 54.7652 35.783 53.9022C36.6537 53.0392 37.1428 51.8687 37.1428 50.6482V48.3473H46.4286V50.6482C46.4286 51.8687 46.9177 53.0392 47.7884 53.9022C48.6591 54.7652 49.8401 55.25 51.0714 55.25H55.7143C56.9456 55.25 58.1266 54.7652 58.9973 53.9022C59.868 53.0392 60.3571 51.8687 60.3571 50.6482V47.924C61.7103 47.4498 62.8826 46.5728 63.7137 45.413C64.5448 44.2532 64.994 42.8672 65 41.4446V11.533C64.9963 8.48299 63.7722 5.5589 61.5963 3.40219C59.4203 1.24548 56.4701 0.0322284 53.3928 0.0285749ZM27.8571 39.1438C27.8571 38.6887 27.9933 38.2438 28.2483 37.8654C28.5034 37.4871 28.866 37.1922 29.2902 37.018C29.7144 36.8439 30.1811 36.7983 30.6314 36.8871C31.0817 36.9758 31.4954 37.195 31.82 37.5168C32.1447 37.8386 32.3658 38.2485 32.4554 38.6949C32.5449 39.1412 32.499 39.6038 32.3233 40.0243C32.1476 40.4447 31.85 40.8041 31.4683 41.0569C31.0865 41.3097 30.6377 41.4446 30.1785 41.4446C29.5629 41.4446 28.9724 41.2022 28.537 40.7707C28.1017 40.3392 27.8571 39.754 27.8571 39.1438ZM51.0714 39.1438C51.0714 38.6887 51.2076 38.2438 51.4626 37.8654C51.7177 37.4871 52.0803 37.1922 52.5045 37.018C52.9287 36.8439 53.3954 36.7983 53.8457 36.8871C54.2961 36.9758 54.7097 37.195 55.0343 37.5168C55.359 37.8386 55.5801 38.2485 55.6697 38.6949C55.7592 39.1412 55.7133 39.6038 55.5376 40.0243C55.3619 40.4447 55.0643 40.8041 54.6826 41.0569C54.3008 41.3097 53.852 41.4446 53.3928 41.4446C52.7772 41.4446 52.1867 41.2022 51.7513 40.7707C51.316 40.3392 51.0714 39.754 51.0714 39.1438ZM60.3571 27.6393C60.3571 28.2495 60.1126 28.8348 59.6772 29.2663C59.2419 29.6978 58.6514 29.9402 58.0357 29.9402H25.5357C24.92 29.9402 24.3295 29.6978 23.8942 29.2663C23.4588 28.8348 23.2143 28.2495 23.2143 27.6393V13.8339C23.2143 12.6135 23.7034 11.443 24.5741 10.58C25.4448 9.71698 26.6257 9.23215 27.8571 9.23215H55.7143C56.9456 9.23215 58.1266 9.71698 58.9973 10.58C59.868 11.443 60.3571 12.6135 60.3571 13.8339V27.6393Z" fill="#51A747"/>
</svg>
