<svg width="60" height="61" viewBox="0 0 60 61" fill="none" xmlns="http://www.w3.org/2000/svg">
<path d="M34.1901 40.8398H25.5234V45.1732H34.1912V43.0108L34.1901 43.0065L34.1912 43.0022L34.1901 40.8398Z" fill="#51A747"/>
<path d="M36.3568 45.1732C36.3568 45.7478 36.1285 46.2989 35.7222 46.7052C35.3158 47.1116 34.7647 47.3398 34.1901 47.3398H25.5234C24.9488 47.3398 24.3977 47.1116 23.9914 46.7052C23.585 46.2989 23.3568 45.7478 23.3568 45.1732V44.0898H19.0234V49.5065C19.0234 49.7938 19.1376 50.0694 19.3407 50.2725C19.5439 50.4757 19.8195 50.5898 20.1068 50.5898H39.6068C39.8941 50.5898 40.1696 50.4757 40.3728 50.2725C40.576 50.0694 40.6901 49.7938 40.6901 49.5065V44.0898H36.3568V45.1732ZM22.2734 54.9232C22.2734 55.2105 22.3876 55.486 22.5907 55.6892C22.7939 55.8924 23.0695 56.0065 23.3568 56.0065C23.6441 56.0065 23.9196 55.8924 24.1228 55.6892C24.326 55.486 24.4401 55.2105 24.4401 54.9232V52.7565H22.2734V54.9232ZM35.2734 54.9232C35.2734 55.2105 35.3876 55.486 35.5907 55.6892C35.7939 55.8924 36.0695 56.0065 36.3568 56.0065C36.6441 56.0065 36.9196 55.8924 37.1228 55.6892C37.326 55.486 37.4401 55.2105 37.4401 54.9232V52.7565H35.2734V54.9232Z" fill="#51A747"/>
<path d="M7.10805 26.6836C6.42099 27.2535 6.02344 28.0999 6.02344 28.9926V59.2568C6.02344 59.5441 6.13757 59.8196 6.34074 60.0228C6.5439 60.2259 6.81945 60.3401 7.10677 60.3401H52.6068C52.8941 60.3401 53.1696 60.2259 53.3728 60.0228C53.576 59.8196 53.6901 59.5441 53.6901 59.2568V28.9926C53.6901 28.0999 53.2926 27.2535 52.6055 26.6836L31.7722 9.4014C30.6614 8.48001 29.0521 8.48001 27.9414 9.4014L7.10805 26.6836ZM42.8568 23.5068V49.5068C42.8568 50.3687 42.5144 51.1954 41.9049 51.8048C41.8134 51.8963 41.7171 51.9817 41.6165 52.0609C40.6761 52.8009 39.6068 53.7268 39.6068 54.9234C39.6068 55.7854 39.2644 56.612 38.6549 57.2215C38.0454 57.831 37.2187 58.1734 36.3568 58.1734C35.4948 58.1734 34.6682 57.831 34.0587 57.2215C33.4492 56.612 33.1068 55.7854 33.1068 54.9234C33.1068 53.7268 32.1367 52.7568 30.9401 52.7568H28.7734C27.5768 52.7568 26.6068 53.7268 26.6068 54.9234C26.6068 55.7854 26.2644 56.612 25.6549 57.2215C25.0454 57.831 24.2187 58.1734 23.3568 58.1734C22.4948 58.1734 21.6682 57.831 21.0587 57.2215C20.4492 56.612 20.1068 55.7854 20.1068 54.9234C20.1068 53.7268 19.0374 52.8009 18.097 52.0609C17.9964 51.9817 17.9001 51.8963 17.8087 51.8048C17.1992 51.1954 16.8568 50.3687 16.8568 49.5068V23.5068C16.8568 19.9502 23.3969 18.0901 29.8568 18.0901C36.3167 18.0901 42.8568 19.9502 42.8568 23.5068Z" fill="#51A747"/>
<path d="M19.0234 23.5059V41.9225H23.3568V40.8392C23.3568 40.2646 23.585 39.7135 23.9914 39.3071C24.3977 38.9008 24.9488 38.6725 25.5234 38.6725H34.1901C34.7647 38.6725 35.3158 38.9008 35.7222 39.3071C36.1285 39.7135 36.3568 40.2646 36.3568 40.8392V41.9225H40.6901V23.5059C40.6901 22.2124 36.3698 20.2559 29.8568 20.2559C23.3438 20.2559 19.0234 22.2124 19.0234 23.5059Z" fill="#51A747"/>
<path d="M0.268652 25.6635L1.53399 27.1054C1.72007 27.3174 1.9815 27.4485 2.26271 27.4707C2.54391 27.493 2.82271 27.4047 3.03982 27.2246L29.1677 5.56983C29.3622 5.40825 29.607 5.3198 29.8599 5.3198C30.1128 5.3198 30.3577 5.40825 30.5522 5.56983L56.6724 27.2365C56.8888 27.4165 57.1668 27.5051 57.4475 27.4837C57.7282 27.4622 57.9895 27.3324 58.1761 27.1217L59.4479 25.6852C59.5443 25.5765 59.6177 25.4495 59.664 25.3118C59.7103 25.1741 59.7284 25.0285 59.7173 24.8837C59.7062 24.7389 59.6661 24.5978 59.5993 24.4687C59.5326 24.3397 59.4405 24.2255 59.3287 24.1327L30.5619 0.249576C30.3675 0.0882811 30.1228 0 29.8702 0C29.6176 0 29.3729 0.0882811 29.1785 0.249576L0.393235 24.1143C0.281527 24.2066 0.189475 24.3204 0.122529 24.449C0.0555824 24.5775 0.0151028 24.7181 0.0034863 24.8626C-0.00813023 25.007 0.00935247 25.1523 0.0548993 25.2899C0.100446 25.4275 0.173131 25.5545 0.268652 25.6635ZM52.6099 6.17216H49.3599C49.0726 6.17216 48.797 6.2863 48.5939 6.48946C48.3907 6.69263 48.2766 6.96818 48.2766 7.25549V10.8583C48.2766 11.6642 48.6354 12.4282 49.2557 12.9428C51.0208 14.4071 53.6932 13.1518 53.6932 10.8583V7.25549C53.6932 6.96818 53.5791 6.69263 53.3759 6.48946C53.1728 6.2863 52.8972 6.17216 52.6099 6.17216Z" fill="#51A747"/>
</svg>
