<svg width="50" height="50" viewBox="0 0 50 50" fill="none" xmlns="http://www.w3.org/2000/svg">
<path d="M42.5 45V3C42.5 1.34314 41.1569 0 39.5 0H10.5C8.84314 0 7.49999 1.34315 7.49999 3V45H0.999999C0.447714 45 0 45.4477 0 46V49C0 49.5523 0.447715 50 1 50H49C49.5523 50 50 49.5523 50 49V46C50 45.4477 49.5523 45 49 45H42.5ZM22.5 6.00004C22.5 5.44775 22.9477 5.00004 23.5 5.00004H26.5C27.0523 5.00004 27.5 5.44775 27.5 6.00004V9.00007C27.5 9.55235 27.0523 10.0001 26.5 10.0001H23.5C22.9477 10.0001 22.5 9.55235 22.5 9.00007V6.00004ZM22.5 16C22.5 15.4477 22.9477 15 23.5 15H26.5C27.0523 15 27.5 15.4477 27.5 16V19C27.5 19.5523 27.0523 20 26.5 20H23.5C22.9477 20 22.5 19.5523 22.5 19V16ZM22.5 25.9999C22.5 25.4477 22.9477 24.9999 23.5 24.9999H26.5C27.0523 24.9999 27.5 25.4477 27.5 25.9999V29C27.5 29.5523 27.0523 30 26.5 30H23.5C22.9477 30 22.5 29.5523 22.5 29V25.9999ZM17.4999 29C17.4999 29.5523 17.0522 30 16.4999 30H13.4999C12.9476 30 12.4999 29.5523 12.4999 29V25.9999C12.4999 25.4477 12.9476 24.9999 13.4999 24.9999H16.4999C17.0522 24.9999 17.4999 25.4477 17.4999 25.9999V29ZM17.4999 19C17.4999 19.5523 17.0522 20 16.4999 20H13.4999C12.9476 20 12.4999 19.5523 12.4999 19V16C12.4999 15.4477 12.9476 15 13.4999 15H16.4999C17.0522 15 17.4999 15.4477 17.4999 16V19ZM17.4999 8.99995C17.4999 9.55224 17.0522 9.99995 16.4999 9.99995H13.4999C12.9476 9.99995 12.4999 9.55224 12.4999 8.99995V6.00003C12.4999 5.44775 12.9476 5.00004 13.4999 5.00004H16.4999C17.0522 5.00004 17.4999 5.44775 17.4999 6.00004V8.99995ZM30 44C30 44.5522 29.5523 45 29 45H21C20.4477 45 20 44.5522 20 44V36C20 35.4477 20.4477 35 21 35H29C29.5523 35 30 35.4477 30 36V44ZM37.5 29C37.5 29.5523 37.0523 30 36.5 30H33.4999C32.9477 30 32.4999 29.5523 32.4999 29V25.9999C32.4999 25.4477 32.9477 24.9999 33.4999 24.9999H36.5C37.0523 24.9999 37.5 25.4477 37.5 25.9999V29ZM37.5 19C37.5 19.5523 37.0523 20 36.5 20H33.4999C32.9477 20 32.4999 19.5523 32.4999 19V16C32.4999 15.4477 32.9477 15 33.4999 15H36.5C37.0523 15 37.5 15.4477 37.5 16V19ZM37.5 8.99995C37.5 9.55224 37.0523 9.99995 36.5 9.99995H33.4999C32.9477 9.99995 32.4999 9.55224 32.4999 8.99995V6.00003C32.4999 5.44775 32.9477 5.00004 33.4999 5.00004H36.5C37.0523 5.00004 37.5 5.44775 37.5 6.00004V8.99995Z" fill="#51A747"/>
</svg>
