<svg width="75" height="75" viewBox="0 0 75 75" fill="none" xmlns="http://www.w3.org/2000/svg">
<g clip-path="url(#clip0_1240_113522)">
<path d="M15.8823 18.2647H0V3.17651C0 1.42214 1.42214 0 3.17651 0H15.8824V4.76466C15.8824 5.64184 16.5935 6.35291 17.4707 6.35291C18.3479 6.35291 19.0589 5.64184 19.0589 4.76466V0H50.8236C52.5779 0 54 1.42214 54 3.17651V18.2648H46.0588C45.1817 18.2648 44.4706 18.9758 44.4706 19.853C44.4706 20.7302 45.1817 21.4413 46.0588 21.4413H54V50.8236C54 52.5779 52.5779 54 50.8235 54H3.17651C1.42214 54 0 52.5779 0 50.8235V38.1177H12.102L18.7978 44.0695C19.4534 44.6522 20.4572 44.5931 21.0401 43.9375C21.6228 43.2819 21.5638 42.2781 20.9082 41.6953L13.7611 35.3424C13.4704 35.0839 13.0949 34.9412 12.7059 34.9412H0V21.4412H28.5883V34.9412H25.4117C24.5346 34.9412 23.8235 35.6522 23.8235 36.5294C23.8235 37.4066 24.5346 38.1177 25.4117 38.1177H30.1764C31.0536 38.1177 31.7647 37.4066 31.7647 36.5294V21.4412H34.9412C35.8183 21.4412 36.5294 20.7301 36.5294 19.8529C36.5294 18.9757 35.8183 18.2647 34.9412 18.2647H19.0588V15.0881C19.0588 14.211 18.3478 13.4999 17.4706 13.4999C16.5934 13.4999 15.8823 14.211 15.8823 15.0881V18.2647Z" fill="white"/>
</g>
<defs>
<clipPath id="clip0_1240_113522">
<rect width="54" height="54" fill="white"/>
</clipPath>
</defs>
</svg>
