<svg width="168" height="115" viewBox="0 0 168 115" fill="none" xmlns="http://www.w3.org/2000/svg">
<g clip-path="url(#clip0_1625_105516)">
<path d="M8.13268 85.8285L16.5924 95.5179H10.6926L5.03182 89.0042C4.99539 88.9605 4.94535 88.9301 4.88956 88.9176C4.83377 88.9052 4.7754 88.9115 4.72362 88.9356C4.67136 88.9557 4.62712 88.9922 4.59761 89.0395C4.5681 89.0867 4.55493 89.1423 4.56009 89.1976V95.5179H0V76.1765H4.56638V82.4843C4.56081 82.5382 4.57399 82.5923 4.60374 82.6377C4.6335 82.6831 4.67802 82.7171 4.72991 82.7339C4.78365 82.7518 4.8415 82.7537 4.89629 82.7393C4.95109 82.7248 5.0004 82.6948 5.03811 82.6528L10.6989 76.1641H16.5736L8.13268 85.8285Z" fill="#F37528"/>
<path d="M35.999 76.2656L35.4707 77.7318C35.4707 77.7318 35.3889 77.9814 35.2191 78.4369C35.0493 78.8923 34.8417 79.4725 34.5901 80.1901L33.741 82.6046C33.4265 83.503 33.112 84.3828 32.7787 85.2562C32.4453 86.1297 32.1497 86.9595 31.8603 87.7519L31.1496 89.6736C30.741 90.782 30.1525 91.8168 29.4073 92.737C28.8204 93.4564 28.0985 94.056 27.2814 94.5027C26.5355 94.9063 25.7247 95.1786 24.885 95.3075C24.0527 95.4367 23.2115 95.5014 22.3691 95.5009H21.2432V91.0898H22.3565C23.1863 91.1151 24.0119 90.964 24.7781 90.6469L19.6016 76.2968H24.3063L27.7846 85.9613L31.2943 76.2968L35.999 76.2656Z" fill="#F37528"/>
<path d="M51.9812 85.7102C52.4583 86.2355 52.8317 86.845 53.082 87.5071C53.3289 88.1701 53.4546 88.8716 53.4531 89.5785C53.4583 90.3647 53.3021 91.1438 52.9939 91.8683C52.5437 92.9379 51.7831 93.8507 50.8088 94.4906C49.8344 95.1305 48.6903 95.4686 47.5218 95.462H38.6406V91.0384H47.5218C47.7196 91.0451 47.9165 91.0102 48.0997 90.936C48.2829 90.8618 48.4482 90.75 48.5848 90.6079C48.7196 90.4724 48.8258 90.3116 48.8971 90.1348C48.9684 89.958 49.0033 89.7689 48.9999 89.5785C49.0053 89.1684 48.8497 88.7724 48.5659 88.4742C48.437 88.3246 48.2769 88.2047 48.0966 88.1228C47.9162 88.041 47.7201 87.999 47.5218 88H40.2005V83.6014H47.3834C47.579 83.6005 47.7721 83.5583 47.95 83.4776C48.1278 83.3969 48.2863 83.2796 48.4149 83.1334C48.7051 82.8383 48.8656 82.4413 48.8615 82.0291C48.8678 81.8339 48.8323 81.6396 48.7575 81.459C48.6827 81.2783 48.5703 81.1154 48.4275 80.9809C48.2905 80.8456 48.1275 80.7388 47.9482 80.667C47.7688 80.5952 47.5768 80.5598 47.3834 80.5629H38.6406V76.1955H47.5218C48.3077 76.1889 49.086 76.3484 49.805 76.6634C50.4908 76.9612 51.1139 77.3845 51.6416 77.9113C52.1814 78.4467 52.6089 79.0828 52.8996 79.783C53.197 80.4971 53.3488 81.2627 53.3461 82.0354C53.3553 83.386 52.8831 84.6964 52.0127 85.7352" fill="#F37528"/>
<path d="M71.5986 76.1641V95.5054H67.1454V90.5141C67.1506 90.4768 67.1471 90.4389 67.135 90.4032C67.123 90.3676 67.1027 90.3351 67.0759 90.3085C67.0491 90.2819 67.0164 90.2619 66.9805 90.2499C66.9445 90.2379 66.9062 90.2344 66.8687 90.2396H60.9626C60.799 90.2396 60.7173 90.3332 60.7173 90.5141V95.5054H56.2578V76.1641H60.7173V85.5789C60.7173 85.7599 60.799 85.8535 60.9626 85.8535H66.8687C66.9062 85.8586 66.9445 85.8551 66.9805 85.8432C67.0164 85.8312 67.0491 85.8111 67.0759 85.7845C67.1027 85.7579 67.123 85.7255 67.135 85.6898C67.1471 85.6542 67.1506 85.6162 67.1454 85.5789V76.1641H71.5986Z" fill="#F37528"/>
<path d="M79.5123 80.6375C79.4824 80.6333 79.452 80.6361 79.4233 80.6456C79.3947 80.6551 79.3687 80.6711 79.3474 80.6923C79.326 80.7134 79.3099 80.7392 79.3004 80.7676C79.2908 80.796 79.288 80.8262 79.2921 80.8558V84.5307C79.2921 84.6929 79.3613 84.7803 79.5123 84.7803H88.5633V89.1477H79.5123C79.3613 89.1477 79.2921 89.2288 79.2921 89.3972V90.8323C79.2921 90.982 79.3613 91.0569 79.5123 91.0569H90.7081V95.4742H74.8516V76.1328H90.7207V80.6063L79.5123 80.6375Z" fill="#F37528"/>
<path d="M108.184 76.1875V95.4914H103.781V90.6062C103.525 90.6436 103.261 90.6748 102.989 90.6998C102.717 90.7279 102.444 90.7404 102.171 90.7372C101.122 90.737 100.082 90.5379 99.1079 90.1507C98.1083 89.753 97.1914 89.1756 96.4033 88.4474C95.5383 87.6678 94.8464 86.718 94.3717 85.6585C93.908 84.6062 93.6722 83.469 93.6799 82.3206V76.1875H98.1204V82.3206C98.1174 82.8569 98.2266 83.3881 98.4412 83.8804C98.6454 84.3471 98.9379 84.7707 99.3029 85.1282C99.6635 85.4917 100.09 85.7839 100.561 85.9892C101.058 86.1977 101.593 86.3039 102.133 86.3012C102.688 86.3067 103.237 86.1939 103.744 85.9705V76.1875H108.184Z" fill="#F37528"/>
<path d="M115.672 76.1641V86.2715L115.697 86.3401L115.754 86.2964L122.66 76.1641H126.698V95.5179H122.238V84.8365L122.213 84.7616L122.157 84.8053L115.169 95.5179H111.219V76.1641H115.672Z" fill="#F37528"/>
<path d="M140.594 85.8285V85.9408L147.029 95.5179H141.683L137.953 89.9713H137.783L134.053 95.5179H128.682L135.141 85.9408V85.7973L128.625 76.1641H133.996L137.783 81.7668H137.953L141.739 76.1641H147.111L140.594 85.8285Z" fill="#F37528"/>
<path d="M155.018 88.5941C154.995 88.632 154.984 88.675 154.984 88.7189C154.984 88.7627 154.995 88.8057 155.018 88.8436C155.043 88.8793 155.077 88.9081 155.117 88.9277C155.156 88.9473 155.2 88.957 155.244 88.9559H160.062C160.301 88.9559 160.383 88.8374 160.307 88.5941L157.911 81.9681C157.893 81.91 157.856 81.8595 157.806 81.8245C157.756 81.7895 157.695 81.772 157.634 81.7747C157.576 81.7693 157.518 81.7865 157.472 81.8225C157.427 81.8585 157.397 81.9107 157.389 81.9681L155.018 88.5941ZM167.597 95.5258H162.867L162.119 93.5854C162.106 93.5293 162.073 93.4794 162.028 93.4442C161.982 93.409 161.925 93.3905 161.867 93.392H153.477C153.42 93.3946 153.365 93.4146 153.32 93.4492C153.275 93.4838 153.242 93.5314 153.225 93.5854L152.527 95.5445H147.797L154.816 76.2031H160.578L167.591 95.5445L167.597 95.5258Z" fill="#F37528"/>
<path d="M16.1875 48.5625V68.5278H11.596V63.3992C11.6025 63.36 11.5995 63.3199 11.5873 63.2821C11.5751 63.2443 11.5539 63.21 11.5257 63.1819C11.4974 63.1539 11.4627 63.1329 11.4247 63.1208C11.3866 63.1087 11.3461 63.1057 11.3066 63.1122H5.22442C5.04831 63.1122 4.96654 63.2058 4.96654 63.3992V68.5278H0.375V48.5625H4.96654V58.2706C4.96654 58.464 5.04831 58.5576 5.22442 58.5576H11.3129C11.3524 58.5641 11.3928 58.5612 11.4309 58.549C11.469 58.5369 11.5037 58.5159 11.5319 58.4879C11.5602 58.4598 11.5814 58.4255 11.5936 58.3877C11.6058 58.3499 11.6088 58.3098 11.6023 58.2706V48.5625H16.1875Z" fill="#51A747"/>
<path d="M32.6029 58.2692C32.6029 57.3583 32.6029 56.5035 32.54 55.6924C32.5381 55.0413 32.3807 54.3999 32.0809 53.8207C31.9141 53.5103 31.6391 53.2708 31.3072 53.1468C30.9531 52.9897 30.5815 52.8745 30.2002 52.8037C29.5941 52.6972 28.9791 52.6491 28.3636 52.6602C27.7524 52.6496 27.1415 52.6977 26.5396 52.8037C26.1628 52.8673 25.7953 52.9762 25.4452 53.1281C25.2406 53.2142 25.0563 53.3417 24.9042 53.5025C24.8202 53.5941 24.7464 53.6945 24.6841 53.802C24.3838 54.381 24.2264 55.0225 24.2249 55.6737C24.1872 56.4557 24.1683 57.2876 24.1683 58.1694V58.2255C24.1683 59.1364 24.1683 59.9974 24.2249 60.8023C24.2311 61.4529 24.3882 62.0934 24.6841 62.674C24.7218 62.7302 24.7973 62.8238 24.9042 62.9548C25.0534 63.122 25.2381 63.2541 25.4452 63.3416C25.7953 63.4935 26.1628 63.6025 26.5396 63.6661C27.1411 63.7752 27.7523 63.8233 28.3636 63.8096C28.9792 63.8238 29.5945 63.7757 30.2002 63.6661C30.5743 63.5998 30.9395 63.4909 31.2884 63.3416C31.5015 63.2552 31.6926 63.1231 31.8482 62.9548C31.9551 62.8238 32.0243 62.7302 32.062 62.674C32.3651 62.096 32.5226 61.4538 32.5212 60.8023C32.5589 60.0224 32.5841 59.1801 32.5841 58.2692H32.6029ZM36.1315 51.5247C36.6882 52.4978 37.0251 53.5792 37.119 54.6942C37.2133 55.8234 37.2637 57.0151 37.2637 58.2692V60.2096H37.2322C37.1985 61.0465 37.1081 61.8803 36.9617 62.7052C36.8163 63.5035 36.5401 64.2728 36.1441 64.9825C35.4631 66.1915 34.3903 67.1369 33.0998 67.6653C31.6091 68.2709 30.0047 68.5518 28.3951 68.4889C26.7839 68.5451 25.1788 68.2645 23.684 67.6653C22.4122 67.1202 21.3544 66.1782 20.6712 64.9825C20.109 63.9956 19.7699 62.8992 19.6774 61.7694C19.5831 60.6276 19.5391 59.4422 19.5391 58.2068V56.2789C19.5775 55.4429 19.6636 54.6096 19.7969 53.7832C19.9354 52.9804 20.2188 52.2089 20.6335 51.506C21.3166 50.3102 22.3744 49.3683 23.6463 48.8231C25.1521 48.2354 26.766 47.9697 28.3825 48.0432C29.9921 47.9803 31.5966 48.2612 33.0872 48.8668C34.3778 49.3953 35.4505 50.3406 36.1315 51.5496" fill="#51A747"/>
<path d="M44.5288 63.6785C44.5288 63.8532 44.6232 63.9343 44.8182 63.9343H50.7054C50.9069 63.9366 51.1068 63.8991 51.2936 63.8242C51.4804 63.7492 51.6503 63.6382 51.7935 63.4976C51.9422 63.3558 52.0597 63.1851 52.1387 62.9961C52.2177 62.8071 52.2565 62.604 52.2527 62.3995C52.2414 61.98 52.0732 61.5798 51.781 61.2764C51.65 61.1282 51.4884 61.0097 51.3072 60.9289C51.1259 60.8482 50.9293 60.8071 50.7306 60.8085H44.8182C44.6232 60.8085 44.5288 60.8896 44.5288 61.0581V63.6785ZM44.5288 55.9919C44.5288 56.1603 44.6232 56.2477 44.8182 56.2477H50.5544C50.7556 56.247 50.9544 56.2051 51.1384 56.1245C51.3224 56.044 51.4876 55.9266 51.6237 55.7797C51.7711 55.6318 51.8875 55.4564 51.9663 55.2637C52.0451 55.0709 52.0847 54.8647 52.0829 54.6567C52.0956 54.4533 52.0633 54.2497 51.9884 54.06C51.9134 53.8703 51.7975 53.6992 51.6489 53.5586C51.5054 53.4161 51.3347 53.3035 51.1468 53.2274C50.9588 53.1514 50.7574 53.1133 50.5544 53.1156H44.8182C44.6232 53.1156 44.5288 53.203 44.5288 53.3714V55.9919ZM55.2907 58.4376C55.7861 58.9844 56.1725 59.6196 56.4291 60.3094C56.6879 60.9936 56.82 61.7186 56.8191 62.4494C56.826 63.2558 56.6632 64.0548 56.341 64.7953C55.7242 66.2438 54.5621 67.3966 53.1018 68.0085C52.3518 68.3231 51.5449 68.4823 50.7306 68.4764H39.9688V48.586H50.7306C51.5569 48.5821 52.3758 48.7411 53.1395 49.0539C53.8817 49.3641 54.5486 49.8278 55.0957 50.4141C55.593 50.9642 55.987 51.5981 56.2593 52.2858C56.5382 53.0238 56.6789 53.8062 56.6744 54.5943C56.6991 55.9902 56.2068 57.3466 55.2907 58.4064" fill="#51A747"/>
<path d="M65.7238 61.3777C65.7004 61.4152 65.688 61.4584 65.688 61.5025C65.688 61.5466 65.7004 61.5898 65.7238 61.6273C65.7493 61.6649 65.784 61.6956 65.8247 61.7163C65.8654 61.737 65.9108 61.7472 65.9565 61.7458H70.9191C71.1707 61.7458 71.2525 61.6273 71.177 61.3777L68.7114 54.5146C68.691 54.4556 68.6517 54.4047 68.5995 54.3698C68.5472 54.3349 68.485 54.3178 68.4221 54.3212C68.3628 54.317 68.3039 54.3343 68.2565 54.3698C68.2091 54.4054 68.1763 54.4569 68.1642 54.5146L65.6986 61.3777H65.7238ZM78.6681 68.5278H73.7873L73.0451 66.5063C73.0331 66.448 73.0006 66.3958 72.9533 66.3592C72.906 66.3226 72.8471 66.304 72.7872 66.3066H64.1136C64.0545 66.3074 63.9973 66.3274 63.9508 66.3634C63.9042 66.3995 63.8708 66.4496 63.8557 66.5063L63.1387 68.5278H58.2578L65.4911 48.5625H71.4349L78.6681 68.5278Z" fill="#51A747"/>
<path d="M87.1967 61.3762H92.8575C92.889 61.3803 92.9211 61.3771 92.9512 61.367C92.9813 61.3568 93.0087 61.3399 93.0312 61.3176C93.0536 61.2953 93.0707 61.2682 93.0809 61.2383C93.0911 61.2084 93.0943 61.1766 93.0902 61.1453V53.3464C93.0902 53.1717 93.0084 53.0843 92.8575 53.0843H87.1401C86.582 53.0825 86.0295 53.1951 85.5173 53.415C85.0199 53.6287 84.5675 53.9335 84.1839 54.3135C83.8013 54.6904 83.4996 55.1404 83.297 55.6362C83.0838 56.1462 82.9768 56.6937 82.9825 57.2459C82.9785 57.799 83.0898 58.3471 83.3096 58.8556C83.5237 59.346 83.8313 59.7909 84.2153 60.1658C84.6018 60.5374 85.0538 60.8356 85.5488 61.0455C86.06 61.2684 86.6131 61.3812 87.1715 61.3762M87.1715 48.5298H97.7132V68.5262H93.0902V66.1866C93.0902 66.0181 93.0084 65.9307 92.8575 65.9307H88.9201C88.8935 65.9263 88.8663 65.9275 88.8401 65.934C88.814 65.9406 88.7895 65.9524 88.7682 65.9688C88.747 65.9853 88.7294 66.0059 88.7165 66.0294C88.7037 66.0529 88.6959 66.0788 88.6936 66.1054L87.7753 68.5262H82.8379L84.0455 65.363C82.6014 64.8381 81.3291 63.932 80.366 62.7425C79.7255 61.9725 79.2195 61.1016 78.869 60.1658C78.5303 59.229 78.358 58.2411 78.3595 57.2459C78.3523 56.082 78.5856 54.9289 79.0451 53.858C79.4857 52.8194 80.1267 51.8763 80.9321 51.0816C81.7368 50.29 82.684 49.6551 83.7247 49.2098C84.7995 48.752 85.9578 48.5184 87.1275 48.5235" fill="#51A747"/>
<path d="M167.999 115.002H72.9609V102.031H167.999V115.002Z" fill="#99482E"/>
<path d="M71.6009 115.002H0.3125V102.031H71.6009V115.002Z" fill="#51A747"/>
<path d="M11.4252 108.85V106.055H12.5762V108.85L14.8091 106.055H16.111L13.8278 108.844L16.3186 111.813H14.9537L12.5762 108.894V111.813H11.4252V108.894L9.04762 111.813H7.69531L10.1798 108.844L7.90288 106.055H9.19857L11.4252 108.85Z" fill="white"/>
<path d="M23.2092 106.066V109.018C23.2092 109.361 23.2092 109.866 23.1211 110.534L26.0333 106.066H27.5428V111.825H26.3541V108.93C26.3541 108.768 26.354 108.506 26.3855 108.15C26.4169 107.795 26.4232 107.526 26.4358 107.37L23.5362 111.825H22.0078V106.066H23.2092Z" fill="white"/>
<path d="M38.9056 111.813H37.6477V107.016H36.0627C35.9989 107.989 35.8665 108.956 35.6664 109.91C35.5743 110.456 35.3593 110.975 35.0374 111.427C34.9151 111.582 34.7572 111.707 34.5768 111.791C34.3964 111.874 34.1986 111.914 33.9996 111.907C33.7673 111.915 33.5359 111.875 33.3203 111.788V110.834C33.4445 110.883 33.5767 110.908 33.7103 110.909C34.0688 110.909 34.3393 110.509 34.5531 109.711C34.8129 108.507 34.9728 107.284 35.0311 106.055H38.9308V111.813H38.9056Z" fill="white"/>
<path d="M46.4324 108.924C46.4324 110.253 46.923 110.914 47.9168 110.914C48.9106 110.914 49.3823 110.253 49.3823 108.924C49.3823 107.595 48.8917 106.952 47.9042 106.952C47.688 106.934 47.4707 106.971 47.2734 107.061C47.0761 107.151 46.9056 107.289 46.7784 107.464C46.5197 107.905 46.3992 108.414 46.4324 108.924ZM50.6529 108.924C50.7023 109.721 50.4411 110.507 49.9232 111.12C49.6626 111.39 49.346 111.601 48.9952 111.737C48.6444 111.874 48.2679 111.934 47.8916 111.912C47.3893 111.923 46.8935 111.798 46.4576 111.55C46.039 111.303 45.704 110.938 45.4952 110.502C45.2648 110.008 45.1508 109.468 45.1619 108.924C45.114 108.131 45.3727 107.35 45.8852 106.74C46.1479 106.471 46.4659 106.262 46.8176 106.126C47.1693 105.99 47.5464 105.932 47.9231 105.954C48.2945 105.936 48.6653 105.999 49.0097 106.138C49.3541 106.277 49.6637 106.489 49.917 106.759C50.4328 107.36 50.6962 108.135 50.6529 108.924Z" fill="white"/>
<path d="M59.6234 105.353C59.0511 105.399 58.4792 105.259 57.9944 104.954C57.8079 104.787 57.6602 104.581 57.5614 104.352C57.4626 104.122 57.4151 103.874 57.422 103.625H58.5353C58.5425 103.826 58.5917 104.024 58.68 104.205C58.7485 104.341 58.8649 104.448 59.007 104.505C59.2087 104.576 59.4222 104.607 59.636 104.598C59.9146 104.618 60.1911 104.538 60.4159 104.374C60.6163 104.174 60.7331 103.907 60.743 103.625H61.8815C61.8778 103.875 61.8197 104.122 61.7112 104.348C61.6026 104.574 61.4462 104.775 61.2525 104.935C60.7653 105.247 60.1892 105.394 59.6109 105.353M58.0824 106.065V109.016C58.0824 109.359 58.0824 109.864 58.0007 110.532L60.9128 106.065H62.4161V111.823H61.2336V108.928C61.2336 108.766 61.2336 108.504 61.2336 108.148C61.2336 107.793 61.2714 107.524 61.2839 107.368L58.3843 111.823H56.9062V106.065H58.0824Z" fill="white"/>
<path d="M82.1837 106.055H83.536L81.1396 108.831L83.7373 111.813H82.3221L79.8187 108.894V111.813H78.5859V106.055H79.8187V108.85L82.1837 106.055Z" fill="white"/>
<path d="M90.4637 108.924C90.4637 110.253 90.9543 110.914 91.948 110.914C92.9418 110.914 93.4136 110.253 93.4136 108.924C93.4136 107.595 92.923 106.952 91.9355 106.952C91.7193 106.934 91.502 106.971 91.3047 107.061C91.1074 107.151 90.9368 107.289 90.8096 107.464C90.5509 107.905 90.4305 108.414 90.4637 108.924ZM94.6841 108.924C94.7335 109.721 94.4723 110.507 93.9545 111.12C93.6938 111.39 93.3772 111.601 93.0264 111.737C92.6757 111.874 92.2992 111.934 91.9229 111.912C91.4206 111.923 90.9248 111.798 90.4888 111.55C90.0703 111.303 89.7353 110.938 89.5265 110.502C89.293 110.009 89.1789 109.468 89.1931 108.924C89.1453 108.131 89.4039 107.35 89.9165 106.74C90.1791 106.471 90.4972 106.262 90.8489 106.126C91.2006 105.99 91.5776 105.932 91.9543 105.954C92.3257 105.936 92.6966 105.999 93.0409 106.138C93.3853 106.277 93.695 106.489 93.9482 106.759C94.4641 107.36 94.7275 108.135 94.6841 108.924Z" fill="white"/>
<path d="M104.263 110.64L104.339 110.39C104.477 109.872 104.603 109.479 104.71 109.198L106.005 106.079H107.647V111.838H106.515V107.189L106.414 107.501C106.257 108.063 106.125 108.468 106.018 108.749L104.76 111.869H103.829L102.571 108.749C102.381 108.251 102.219 107.743 102.087 107.227V111.875H100.961V106.066H102.59L103.848 109.117C104.025 109.62 104.172 110.132 104.288 110.652" fill="white"/>
<path d="M119.304 106.055V111.813H118.065V107.028H115.461V111.813H114.234V106.055H119.304Z" fill="white"/>
<path d="M130.659 111.813H129.401V107.016H127.797C127.74 107.989 127.607 108.957 127.401 109.91C127.308 110.456 127.093 110.974 126.772 111.427C126.647 111.581 126.488 111.705 126.306 111.788C126.125 111.871 125.927 111.912 125.728 111.907C125.497 111.914 125.268 111.874 125.055 111.788V110.834C125.179 110.883 125.311 110.909 125.445 110.909C125.797 110.909 126.074 110.509 126.281 109.711C126.544 108.507 126.706 107.285 126.765 106.055H130.659V111.813Z" fill="white"/>
<path d="M139.566 106.88C139.392 106.874 139.22 106.903 139.058 106.967C138.897 107.03 138.751 107.126 138.629 107.248C138.369 107.55 138.218 107.93 138.201 108.327H140.836C140.86 107.937 140.737 107.552 140.49 107.248C140.372 107.124 140.228 107.027 140.069 106.963C139.909 106.899 139.737 106.871 139.566 106.88ZM139.792 111.915C139.405 111.938 139.016 111.881 138.652 111.746C138.288 111.612 137.957 111.404 137.679 111.135C137.414 110.843 137.209 110.502 137.077 110.132C136.946 109.761 136.889 109.368 136.911 108.976C136.866 108.176 137.119 107.388 137.622 106.761C137.865 106.492 138.166 106.28 138.502 106.141C138.838 106.001 139.202 105.938 139.566 105.956C139.901 105.939 140.236 105.992 140.549 106.111C140.862 106.23 141.146 106.414 141.383 106.649C141.842 107.164 142.081 107.835 142.05 108.521V109.188H138.182C138.167 109.659 138.331 110.118 138.641 110.473C138.799 110.63 138.988 110.751 139.196 110.829C139.404 110.908 139.626 110.942 139.849 110.929C140.172 110.929 140.495 110.896 140.811 110.829C141.138 110.756 141.456 110.649 141.761 110.511V111.503C141.472 111.643 141.165 111.743 140.849 111.802C140.5 111.866 140.146 111.895 139.792 111.89" fill="white"/>
<path d="M151.87 106.055H153.222L150.826 108.831L153.423 111.813H152.008L149.498 108.894V111.813H148.266V106.055H149.498V108.85L151.87 106.055Z" fill="white"/>
<path d="M161.553 111.91C161.183 111.937 160.813 111.883 160.467 111.751C160.121 111.62 159.809 111.414 159.552 111.149C159.057 110.532 158.812 109.753 158.867 108.965C158.811 108.157 159.068 107.359 159.584 106.732C159.851 106.461 160.175 106.25 160.532 106.116C160.889 105.981 161.272 105.925 161.653 105.952C162.221 105.943 162.783 106.058 163.301 106.289L162.93 107.268C162.521 107.094 162.085 106.992 161.641 106.969C160.634 106.969 160.131 107.63 160.131 108.953C160.094 109.465 160.227 109.975 160.509 110.407C160.639 110.57 160.807 110.699 160.999 110.784C161.19 110.869 161.4 110.906 161.609 110.893C162.156 110.893 162.693 110.753 163.169 110.488V111.555C162.95 111.686 162.709 111.779 162.458 111.829C162.16 111.889 161.857 111.916 161.553 111.91Z" fill="white"/>
<path d="M112.409 56.2214L107.924 54.986L104.547 56.1278V54.8799L107.924 53.6758L112.409 54.9798V56.2214Z" fill="#F37528"/>
<path d="M112.409 58.7114L107.924 57.6071L104.547 58.6303V57.3825L107.924 56.2969L112.409 57.4698V58.7114Z" fill="#F37528"/>
<path d="M112.409 61.1999L107.924 60.2204L104.547 61.1251V59.8772L107.924 58.9102L112.409 59.9521V61.1999Z" fill="#F37528"/>
<path d="M112.409 63.6838L107.924 62.8415L104.547 63.6214V62.3735L107.924 61.5312L112.409 62.4422V63.6838Z" fill="#F37528"/>
<path d="M112.409 66.1699L107.924 65.4524L104.547 66.1138V64.8659L107.924 64.1484L112.409 64.9283V66.1699Z" fill="#F37528"/>
<path d="M112.409 68.6623L107.924 68.0758L104.547 68.6124V67.3646L107.924 66.7656L112.409 67.4145V68.6623Z" fill="#F37528"/>
<path d="M129.594 28.9987V31.6441L134.481 29.2233L141.953 31.8437V29.2108L134.481 26.4531L129.594 28.9987Z" fill="#51A747"/>
<path d="M129.594 34.2898V36.9352L134.481 34.7702L141.953 37.1161V34.4832L134.481 32L129.594 34.2898Z" fill="#51A747"/>
<path d="M129.594 39.5793V42.2247L134.481 40.3155L141.953 42.3869V39.754L134.481 37.5391L129.594 39.5793Z" fill="#51A747"/>
<path d="M129.594 44.8703V47.5157L134.481 45.8624L141.953 47.6592V45.0201L134.481 43.0859L129.594 44.8703Z" fill="#51A747"/>
<path d="M129.594 50.1653V52.8107L134.481 51.4131L141.953 52.9293V50.2963L134.481 48.6367L129.594 50.1653Z" fill="#51A747"/>
<path d="M129.594 55.4525V58.0979L134.481 56.9561L141.953 58.1977V55.5585L134.481 54.1797L129.594 55.4525Z" fill="#51A747"/>
<path d="M129.594 60.7435V63.3952L134.481 62.503L141.953 63.4638V60.8309L134.481 59.7266L129.594 60.7435Z" fill="#51A747"/>
<path d="M129.594 66.0346V68.6862L134.481 68.0499L141.953 68.7362V66.1032L134.481 65.2734L129.594 66.0346Z" fill="#51A747"/>
<path d="M145.174 22.0828V21.8769C145.249 21.8753 145.322 21.8584 145.391 21.8273C145.459 21.7962 145.52 21.7515 145.57 21.696C145.696 21.5275 145.57 21.3903 145.469 21.2717L145.343 21.0908C145.312 20.9598 145.406 20.9348 145.469 20.8537C145.532 20.7726 145.652 20.5792 145.526 20.4606C145.4 20.3421 145.186 20.417 145.004 20.4606C144.821 20.5043 144.796 20.4606 144.74 20.3608C144.683 20.261 144.702 20.2235 144.601 20.1924C144.387 20.1237 144.394 20.3546 144.255 20.4357C144.117 20.5168 144.041 20.2298 143.928 20.1736C143.494 19.9553 143.438 20.5293 143.243 20.7664C143.192 20.8287 143.117 20.8787 143.054 20.7664V20.523C142.953 20.3608 142.727 20.5605 142.645 20.6478C142.53 20.7887 142.452 20.956 142.419 21.1345C142.38 21.3138 142.314 21.4863 142.224 21.6461C142.136 21.7833 141.947 21.8832 141.928 21.6461C141.928 21.5525 141.928 21.4589 141.827 21.4277L141.588 21.5026C141.299 21.7646 141.431 22.1702 141.305 22.4884C141.236 22.6506 141.142 22.8315 141.047 22.5882C141.047 22.5133 140.985 22.4509 140.89 22.4821C140.796 22.5133 140.783 22.6131 140.777 22.7067C140.771 22.8003 140.777 22.9251 140.777 23.0312C140.747 23.1532 140.7 23.2708 140.639 23.3806C141.355 23.2944 142.044 23.0606 142.664 22.6943C143.317 22.3206 143.926 21.877 144.482 21.3716C143.993 21.9939 143.399 22.5279 142.727 22.9501C141.918 23.3509 141.076 23.6828 140.211 23.9421C140.305 24.0606 140.418 24.1638 140.544 24.2478C140.691 24.3537 140.855 24.4339 141.029 24.4849C141.211 24.541 141.865 24.7345 141.941 24.4225L141.89 24.2291C141.89 24.1355 141.985 24.1293 142.06 24.1355C142.236 24.1504 142.41 24.1775 142.582 24.2166C142.76 24.2602 142.945 24.2602 143.123 24.2166C143.318 24.1417 143.35 24.0419 143.192 23.9046C143.035 23.7674 142.84 23.6426 143.01 23.5428H143.268C143.347 23.5489 143.427 23.5489 143.507 23.5428C143.688 23.5617 143.871 23.549 144.048 23.5053L144.293 23.3993C144.356 23.3057 144.293 23.2745 144.262 23.1996C144.06 22.7629 144.708 22.8315 144.947 22.7691C145.033 22.7492 145.114 22.7125 145.185 22.661C145.257 22.6096 145.317 22.5445 145.362 22.4696C145.482 22.2513 145.293 22.2014 145.205 22.0329" fill="#51A747"/>
<path d="M135.989 18.358C135.744 18.776 136.323 18.8696 136.543 19.0755C136.599 19.1316 136.65 19.2127 136.543 19.2689H136.291C136.121 19.3562 136.291 19.5933 136.398 19.6806C136.53 19.806 136.692 19.8943 136.87 19.9365C137.046 19.9877 137.214 20.0655 137.367 20.1673C137.505 20.2609 137.587 20.4543 137.367 20.4605C137.279 20.4605 137.184 20.4605 137.146 20.5417L137.203 20.785C137.442 21.0907 137.864 20.9846 138.172 21.1344C138.335 21.2092 138.511 21.3153 138.253 21.3902C138.178 21.3902 138.115 21.4401 138.14 21.5399C138.165 21.6397 138.266 21.6585 138.36 21.6709C138.468 21.6769 138.575 21.6894 138.681 21.7084C138.803 21.7436 138.92 21.7962 139.027 21.8644C138.989 21.1514 138.8 20.4543 138.474 19.8179C138.137 19.1531 137.73 18.5256 137.26 17.9462C137.855 18.482 138.352 19.1151 138.732 19.8179C139.082 20.6436 139.362 21.4972 139.568 22.3697C139.69 22.2848 139.798 22.1816 139.889 22.064C140.009 21.9239 140.103 21.7632 140.166 21.5898C140.228 21.4151 140.467 20.785 140.166 20.6852L139.971 20.7226C139.876 20.7226 139.883 20.6228 139.889 20.5479C139.916 20.3767 139.956 20.2078 140.008 20.0425C140.063 19.8692 140.078 19.6858 140.052 19.506C139.996 19.3063 139.889 19.2689 139.744 19.4124C139.599 19.5559 139.455 19.743 139.367 19.5683L139.411 19.325C139.411 19.2377 139.411 19.1628 139.455 19.0817C139.486 18.9042 139.486 18.7226 139.455 18.5451L139.367 18.2956C139.279 18.2269 139.241 18.2956 139.166 18.2956C138.706 18.464 138.826 17.8276 138.776 17.5905C138.763 17.5035 138.731 17.4201 138.684 17.3459C138.636 17.2717 138.573 17.2084 138.499 17.16C138.291 17.0228 138.222 17.2099 138.052 17.2848C137.882 17.3597 137.914 17.3347 137.851 17.2848C137.854 17.2096 137.841 17.1345 137.813 17.0646C137.785 16.9946 137.742 16.9315 137.687 16.8793C137.53 16.742 137.379 16.8418 137.253 16.9541L137.065 17.0602C136.933 17.0914 136.914 16.9916 136.838 16.9229C136.763 16.8543 136.574 16.7171 136.442 16.8356C136.31 16.9541 136.379 17.1725 136.379 17.3534C136.379 17.5344 136.379 17.5593 136.26 17.6093C136.14 17.6592 136.121 17.6093 136.084 17.734C136.002 17.9399 136.228 17.9524 136.304 18.0897C136.379 18.2269 136.077 18.2956 136.014 18.3954" fill="#51A747"/>
<path d="M143.12 8.90278C142.812 9.35824 143.466 9.5267 143.705 9.75755C143.768 9.81994 143.818 9.91977 143.705 9.96968C143.592 10.0196 143.516 9.926 143.422 9.96968C143.221 10.0633 143.422 10.344 143.51 10.4501C143.654 10.601 143.837 10.7108 144.038 10.7683C144.237 10.8393 144.424 10.9403 144.592 11.0678C144.743 11.1801 144.825 11.4109 144.56 11.3984C144.453 11.3984 144.347 11.361 144.303 11.4796C144.288 11.5266 144.284 11.5763 144.292 11.625C144.3 11.6736 144.318 11.7199 144.347 11.7603C144.604 12.1159 145.095 12.0286 145.441 12.2158C145.617 12.3094 145.812 12.4466 145.51 12.5153C145.422 12.5153 145.347 12.5652 145.372 12.6775C145.397 12.7898 145.51 12.821 145.611 12.8397C145.711 12.8584 145.862 12.8397 145.982 12.9021C146.121 12.9485 146.253 13.0158 146.372 13.1017C146.367 12.2846 146.191 11.4774 145.856 10.7309C145.523 9.94159 145.101 9.19228 144.598 8.49724C145.243 9.135 145.773 9.87785 146.164 10.6934C146.517 11.6558 146.783 12.6476 146.957 13.657C147.102 13.5657 147.233 13.4544 147.347 13.3263C147.492 13.1728 147.609 12.9955 147.693 12.8023C147.774 12.6088 148.089 11.9038 147.743 11.7728H147.517C147.41 11.7728 147.422 11.6542 147.429 11.5669C147.429 11.3797 147.548 11.1801 147.598 10.9991C147.679 10.8016 147.71 10.5872 147.686 10.3752C147.63 10.1444 147.517 10.0945 147.34 10.2504C147.164 10.4064 146.988 10.6123 146.9 10.4064C146.869 10.3253 146.9 10.213 146.963 10.1257C146.99 10.0377 147.011 9.94808 147.026 9.85737C147.069 9.65154 147.069 9.43929 147.026 9.23346C147.026 9.14611 147.026 9.00885 146.944 8.94646C146.862 8.88407 146.8 8.94646 146.711 8.94646C146.183 9.10868 146.353 8.39117 146.309 8.11041C146.301 8.01092 146.272 7.91425 146.223 7.82703C146.174 7.7398 146.107 7.66408 146.026 7.60504C145.793 7.44282 145.705 7.64872 145.51 7.72359C145.41 7.76102 145.347 7.7735 145.271 7.68615C145.282 7.60049 145.274 7.51347 145.247 7.43143C145.219 7.3494 145.174 7.27442 145.114 7.21198C144.944 7.04976 144.768 7.15582 144.617 7.26813C144.555 7.32542 144.479 7.3662 144.397 7.38667C144.24 7.38667 144.227 7.29932 144.139 7.21198C144.051 7.12463 143.856 6.96865 143.699 7.09343C143.541 7.21821 143.604 7.46778 143.592 7.67367C143.579 7.87956 143.56 7.90452 143.441 7.96067C143.321 8.01683 143.277 7.96067 143.233 8.0917C143.12 8.32254 143.384 8.3475 143.46 8.50972C143.535 8.67194 143.189 8.73433 143.114 8.84663" fill="#51A747"/>
<path d="M148.438 15.9632C148.369 15.9008 148.3 15.8572 148.218 15.9632C148.136 16.0693 148.18 16.1566 148.218 16.2502C148.256 16.3438 148.344 16.4686 148.382 16.5871C148.412 16.7286 148.427 16.873 148.426 17.0176C149.106 16.5566 149.684 15.9621 150.124 15.2707C150.592 14.5526 150.982 13.7871 151.288 12.9871C151.108 13.867 150.78 14.7106 150.319 15.4828C149.71 16.3088 149.03 17.0812 148.287 17.7913C148.446 17.8573 148.613 17.9013 148.784 17.9223C148.992 17.9604 149.205 17.9604 149.413 17.9223C149.627 17.8849 150.394 17.7414 150.306 17.3857L150.155 17.2173C150.118 17.1175 150.199 17.0738 150.281 17.0301C150.469 16.9595 150.66 16.8991 150.854 16.8492C151.056 16.8057 151.246 16.716 151.407 16.5871C151.571 16.4062 151.552 16.2877 151.319 16.2253C151.199 16.2253 150.822 16.1379 150.942 15.957C150.998 15.8821 151.124 15.8696 151.212 15.8447C151.303 15.8207 151.392 15.7872 151.476 15.7449C151.67 15.673 151.849 15.5673 152.005 15.4329C152.067 15.3705 152.181 15.3019 152.193 15.202C152.206 15.1022 152.137 15.071 152.061 15.0086C151.633 14.6655 152.325 14.3847 152.533 14.2163C152.611 14.1532 152.675 14.0745 152.721 13.9853C152.766 13.896 152.792 13.7983 152.797 13.6984C152.797 13.4176 152.583 13.4613 152.413 13.3365C152.244 13.2118 152.275 13.2367 152.306 13.1244C152.383 13.0847 152.45 13.0299 152.504 12.9634C152.558 12.8969 152.598 12.82 152.621 12.7376C152.659 12.5005 152.476 12.4131 152.294 12.357L152.067 12.2385C151.967 12.1199 152.067 12.045 152.067 11.9327C152.067 11.8204 152.111 11.5584 151.917 11.5022C151.722 11.4461 151.552 11.6395 151.369 11.7331C151.187 11.8267 151.162 11.8391 151.055 11.7705C150.948 11.7019 150.942 11.652 150.822 11.6707C150.57 11.7144 150.69 11.9452 150.602 12.0949C150.514 12.2447 150.269 12.0014 150.124 12.0014C149.57 12.0014 149.816 12.6253 149.74 12.956C149.74 13.0495 149.671 13.1369 149.552 13.0683C149.432 12.9996 149.482 12.8811 149.394 12.8312C149.206 12.7189 149.086 13.0433 149.042 13.1743C148.994 13.3811 149.004 13.5973 149.074 13.7982C149.124 14.0022 149.143 14.2125 149.13 14.4222C149.13 14.6031 148.979 14.8027 148.841 14.5781C148.784 14.4908 148.753 14.3847 148.627 14.4097C148.579 14.4241 148.535 14.4497 148.499 14.4844C148.463 14.5192 148.435 14.562 148.419 14.6093C148.262 15.0211 148.608 15.3705 148.646 15.7573C148.646 15.957 148.646 16.1941 148.438 15.9882" fill="#51A747"/>
<path d="M142.304 13.6531C142.027 13.6531 142.084 13.8777 141.971 14.0586C141.914 14.146 141.87 14.1959 141.757 14.171C141.712 14.0979 141.653 14.0347 141.583 13.9853C141.512 13.936 141.433 13.9015 141.348 13.884C141.109 13.884 141.027 14.0462 140.983 14.2333L140.876 14.458C140.77 14.564 140.681 14.458 140.568 14.458C140.455 14.458 140.191 14.458 140.141 14.6264C140.09 14.7949 140.298 14.982 140.411 15.1567C140.524 15.3314 140.524 15.3626 140.461 15.4687C140.398 15.5748 140.348 15.5872 140.373 15.7058C140.43 15.9491 140.656 15.8181 140.814 15.8992C140.971 15.9803 140.732 16.2361 140.744 16.3734C140.744 16.9224 141.373 16.6541 141.726 16.704C141.82 16.704 141.914 16.7664 141.845 16.885C141.776 17.0035 141.663 16.9661 141.619 17.0534C141.512 17.2469 141.851 17.3529 141.983 17.3841C142.195 17.4188 142.411 17.3994 142.612 17.328C142.816 17.2624 143.028 17.2287 143.241 17.2281C143.424 17.2281 143.631 17.3654 143.411 17.5151C143.323 17.5713 143.223 17.6087 143.254 17.7335C143.272 17.7789 143.3 17.8199 143.336 17.8533C143.372 17.8867 143.415 17.9119 143.462 17.9269C143.889 18.0642 144.223 17.6961 144.613 17.6399C144.808 17.6087 145.047 17.6025 144.852 17.8333C144.795 17.902 144.751 17.9706 144.852 18.0517C144.952 18.1328 145.047 18.0517 145.141 18.0517C145.235 18.0517 145.355 17.9144 145.474 17.8708C145.614 17.8323 145.757 17.8092 145.902 17.8021C145.397 17.1529 144.76 16.6153 144.034 16.2236C143.283 15.7963 142.488 15.4512 141.663 15.1942C142.565 15.3178 143.44 15.5943 144.248 16.0115C145.111 16.5664 145.925 17.1925 146.682 17.8832C146.742 17.7251 146.778 17.559 146.789 17.3904C146.812 17.1815 146.797 16.9701 146.745 16.7664C146.701 16.5605 146.518 15.8118 146.16 15.9117L146.003 16.0739C145.902 16.1176 145.852 16.0365 145.801 15.9553C145.722 15.7742 145.653 15.5888 145.594 15.4001C145.536 15.2019 145.435 15.0188 145.298 14.8635C145.109 14.7138 144.99 14.7387 144.94 14.9758C144.94 15.0943 144.877 15.4687 144.688 15.3564C144.606 15.3127 144.594 15.1817 144.562 15.1006C144.529 15.0132 144.492 14.9278 144.449 14.8448C144.368 14.6556 144.25 14.4839 144.103 14.3394C144.04 14.277 143.958 14.171 143.858 14.1585C143.757 14.146 143.732 14.2271 143.675 14.302C143.348 14.7512 143.046 14.0774 142.851 13.8777C142.783 13.8032 142.699 13.7437 142.606 13.7029C142.513 13.6621 142.412 13.6409 142.311 13.6406" fill="#51A747"/>
<path d="M147.178 24.2706C147.11 24.4273 147.068 24.5936 147.052 24.7635C147.027 24.9717 147.038 25.1826 147.084 25.3874C147.134 25.5995 147.297 26.3482 147.656 26.2546L147.819 26.0987C147.92 26.055 147.97 26.1361 148.014 26.2172C148.092 26.4006 148.159 26.588 148.216 26.7787C148.266 26.979 148.363 27.1649 148.499 27.3215C148.687 27.4775 148.807 27.4525 148.857 27.2155C148.857 27.1032 148.926 26.7226 149.121 26.8411C149.197 26.8848 149.21 27.0158 149.235 27.1032C149.26 27.1905 149.31 27.2778 149.348 27.359C149.426 27.5502 149.541 27.7241 149.688 27.8706C149.744 27.933 149.826 28.0453 149.92 28.0515C150.015 28.0577 150.052 27.9891 150.109 27.9142C150.442 27.4713 150.738 28.1513 150.927 28.351C150.992 28.4283 151.074 28.4903 151.166 28.5324C151.259 28.5745 151.36 28.5956 151.461 28.5943C151.738 28.5943 151.688 28.3759 151.807 28.2012C151.927 28.0265 151.908 28.0702 152.015 28.0952C152.059 28.1694 152.118 28.2338 152.188 28.2842C152.259 28.3347 152.339 28.3702 152.424 28.3884C152.663 28.3884 152.744 28.2324 152.795 28.0453L152.908 27.8269C153.021 27.7208 153.097 27.7957 153.216 27.8269C153.336 27.8581 153.593 27.8643 153.644 27.6709C153.694 27.4775 153.493 27.309 153.386 27.1343C153.279 26.9597 153.273 26.9285 153.342 26.8162C153.411 26.7038 153.455 26.7038 153.436 26.5853C153.386 26.3357 153.153 26.4668 152.996 26.3857C152.839 26.3045 153.084 26.0487 153.078 25.9115C153.078 25.3562 152.449 25.6182 152.103 25.5621C152.008 25.5621 151.914 25.4935 151.983 25.3811C152.052 25.2688 152.166 25.3 152.216 25.2127C152.323 25.0255 151.99 24.9132 151.858 24.8758C151.647 24.8336 151.429 24.8509 151.229 24.9257C151.024 24.9846 150.812 25.012 150.6 25.0068C150.411 25.0068 150.21 24.8695 150.43 24.7198C150.518 24.6636 150.618 24.6262 150.587 24.5014C150.57 24.4555 150.544 24.4137 150.509 24.3792C150.474 24.3447 150.432 24.3183 150.386 24.3018C149.964 24.1645 149.625 24.5201 149.228 24.5701C149.033 24.5701 148.794 24.5701 148.996 24.3704C149.052 24.3018 149.096 24.2331 148.996 24.1583C148.895 24.0834 148.807 24.1583 148.713 24.1583C148.618 24.1583 148.492 24.2893 148.373 24.3267C148.234 24.3662 148.09 24.3872 147.945 24.3891C148.431 25.0466 149.048 25.5987 149.757 26.0113C150.498 26.4545 151.287 26.8144 152.109 27.0844C151.223 26.9331 150.368 26.6358 149.581 26.2047C148.729 25.6292 147.93 24.9821 147.19 24.2706" fill="#51A747"/>
<mask id="mask0_1625_105516" style="mask-type:luminance" maskUnits="userSpaceOnUse" x="0" y="0" width="168" height="115">
<path d="M0 115H168V0H0V115Z" fill="white"/>
</mask>
<g mask="url(#mask0_1625_105516)">
<path d="M156.676 19.4694C156.676 19.3259 156.512 19.3072 156.38 19.3134C156.248 19.3197 156.223 19.3634 156.154 19.276L156.097 19.1013C156.097 18.9578 156.034 18.8143 155.858 18.8143C155.794 18.818 155.732 18.8356 155.675 18.8658C155.619 18.8959 155.57 18.938 155.531 18.989C155.443 18.989 155.418 18.9578 155.386 18.8892C155.355 18.8206 155.386 18.5897 155.173 18.5647C155.097 18.553 155.021 18.5581 154.948 18.5797C154.875 18.6013 154.808 18.6388 154.751 18.6895C154.581 18.8143 154.305 19.3134 154.122 18.9329C154.085 18.8705 154.122 18.8143 153.996 18.8081L153.801 18.9204C153.681 19.0165 153.579 19.1326 153.5 19.2635L153.393 19.4445L153.279 19.6254C153.128 19.6878 153.135 19.407 153.128 19.3134C153.122 19.2199 153.028 19.1076 152.877 19.2074C152.761 19.3078 152.67 19.4339 152.613 19.5755C152.552 19.7109 152.483 19.8422 152.405 19.9686L152.248 20.0372L152.147 19.9062C151.896 19.8001 151.694 20.3367 151.644 20.4864C151.587 20.6295 151.557 20.7818 151.556 20.9356C151.55 21.0616 151.563 21.1877 151.594 21.31C152.21 20.8615 152.865 20.4669 153.55 20.1308C154.181 19.89 154.849 19.7612 155.525 19.7502C154.896 19.8641 154.282 20.0483 153.695 20.2992C153.136 20.5331 152.631 20.877 152.21 21.31C152.317 21.3279 152.42 21.3594 152.518 21.4036C152.6 21.4497 152.678 21.5019 152.751 21.5595L152.965 21.597V21.4348C152.845 21.2476 153.015 21.2725 153.16 21.31C153.443 21.3848 153.657 21.6843 153.978 21.6219L154.154 21.4971C154.154 21.4098 154.116 21.3724 154.059 21.3224C153.908 21.1914 154.059 21.1103 154.21 21.129C154.366 21.1428 154.517 21.1851 154.657 21.2538C154.798 21.3211 154.953 21.3532 155.11 21.3474C155.21 21.3474 155.468 21.285 155.405 21.1353L155.248 20.9918C155.21 20.8982 155.286 20.8732 155.355 20.867C155.613 20.867 156.041 21.1103 156.11 20.711C156.11 20.6112 156.003 20.3866 156.11 20.3554C156.217 20.3242 156.393 20.424 156.456 20.2431C156.456 20.162 156.456 20.1433 156.412 20.0684C156.368 19.9935 156.412 19.9186 156.475 19.8375C156.538 19.7564 156.739 19.6628 156.714 19.4694" fill="#51A747"/>
<path d="M160.338 17.2588H160.2C161.049 15.6026 161.491 13.7702 161.489 11.9118C161.485 9.15458 160.516 6.48421 158.749 4.35623C156.981 2.22825 154.524 0.774498 151.797 0.242962C149.069 -0.288574 146.24 0.135034 143.792 1.44153C141.345 2.74802 139.43 4.85645 138.374 7.40717C137.662 5.45972 136.364 3.77675 134.655 2.58685C132.945 1.39695 130.908 0.757806 128.82 0.756235C126.268 0.746715 123.81 1.71341 121.958 3.45528C120.106 5.19716 119.002 7.58016 118.876 10.1087V10.3209V10.6079C118.88 11.7815 119.093 12.9453 119.505 14.0456C119.807 15.297 120.373 16.4708 121.165 17.4896C118.988 16.5953 116.687 16.0316 114.341 15.8175C113.844 15.7614 113.347 15.7115 112.856 15.6803C112.523 15.6428 112.227 15.6241 111.869 15.6054H111.429H110.73L110.366 15.6366C110.076 15.6366 109.844 15.6928 109.636 15.7177C109.539 15.7251 109.442 15.7376 109.347 15.7552L109.114 15.7988C107.955 16.0002 106.828 16.3527 105.762 16.847C102.903 18.1269 100.574 20.3402 99.1626 23.1178C97.751 25.8953 97.3422 29.069 98.0045 32.1094C98.6668 35.1498 100.36 37.8729 102.802 39.8245C105.244 41.776 108.287 42.838 111.422 42.8331C112.319 42.8513 113.215 42.7739 114.095 42.6022C113.414 42.4339 112.749 42.2063 112.108 41.9221C103.982 38.7215 101.937 34.4726 101.937 29.3253C101.932 26.4623 102.999 23.6995 104.932 21.5734C106.865 19.4473 109.526 18.1097 112.397 17.8203H112.429C113.635 17.8208 114.84 17.8833 116.039 18.0075C117.077 18.1145 118.107 18.2917 119.121 18.5378C123.052 19.5174 125.876 20.7901 126.298 20.734C125.348 20.0285 124.442 19.2659 123.587 18.4505C123.423 18.257 123.26 18.0449 123.084 17.8265C122.942 17.6506 122.81 17.4674 122.687 17.2775C122.404 16.7999 122.154 16.3038 121.939 15.7926L121.87 15.5929C121.414 14.2371 121.3 12.7913 121.536 11.3815C121.58 11.1319 121.624 10.8824 121.681 10.639V10.5579C122.151 8.75912 123.208 7.16524 124.687 6.02522C126.166 4.88519 127.984 4.26321 129.858 4.2564C131.497 4.24983 133.106 4.69567 134.504 5.54407C135.903 6.39248 137.036 7.61001 137.777 9.06054C138.31 10.1425 138.588 11.3312 138.588 12.5357C138.588 12.8103 138.588 13.2782 138.588 13.5403C138.632 13.3843 138.67 13.2221 138.707 13.0661V12.9974C138.728 12.788 138.759 12.5797 138.802 12.3735C139.162 9.71682 140.539 7.29939 142.647 5.62161C144.754 3.94383 147.432 3.13418 150.125 3.36025C152.817 3.58632 155.319 4.8308 157.113 6.83608C158.906 8.84137 159.854 11.4539 159.759 14.133C159.762 15.2199 159.59 16.3004 159.25 17.3337C159.143 17.6768 159.011 18.0075 158.872 18.3382H159.3H159.577C160.815 18.3897 162.01 18.7992 163.016 19.5161C164.022 20.233 164.795 21.2261 165.24 22.3732C165.684 23.5202 165.781 24.7711 165.518 25.972C165.255 27.1728 164.644 28.2712 163.76 29.1319L163.433 29.4251C163.579 29.9825 163.667 30.5532 163.697 31.1284C163.697 31.2844 163.697 31.4341 163.697 31.5964C163.697 33.9014 162.774 36.112 161.13 37.7419C159.487 39.3718 157.259 40.2875 154.935 40.2875C154.201 40.2878 153.47 40.1977 152.759 40.0192L152.57 39.9693L152.532 39.9007V40.0816C152.535 40.509 152.454 40.9328 152.293 41.3294C151.983 42.0327 151.468 42.6283 150.815 43.0405C150.162 43.4527 149.4 43.6629 148.626 43.6441C147.692 43.6459 146.783 43.3361 146.048 42.7644C145.752 42.5136 145.498 42.2189 145.293 41.8909C145.32 42.3959 145.467 42.8874 145.721 43.326C146.202 44.1542 146.986 44.7681 147.909 45.0417C148.315 45.1735 148.74 45.2408 149.167 45.2414C150.154 45.2755 151.114 44.925 151.843 44.2649C152.572 43.6047 153.012 42.6876 153.067 41.71V41.6289C154.051 41.9992 155.096 42.1874 156.149 42.1842C157.553 42.1823 158.937 41.8471 160.185 41.2067C161.432 40.5663 162.507 39.6392 163.319 38.5028C164.132 37.3664 164.659 36.0537 164.856 34.6743C165.053 33.2948 164.914 31.8887 164.451 30.5731C164.628 30.4483 164.867 30.2799 165.389 29.8931C166.408 29.1319 167.71 26.6674 167.71 24.5648C167.708 22.6266 166.931 20.7683 165.548 19.3983C164.166 18.0283 162.292 17.2588 160.338 17.2588Z" fill="#51A747"/>
</g>
<path d="M113.258 36.5748C113.176 36.6185 113.075 36.6434 113.088 36.762C113.1 36.8063 113.121 36.8475 113.151 36.883C113.18 36.9185 113.216 36.9474 113.258 36.9679C113.629 37.1363 113.981 36.8431 114.34 36.8431C114.528 36.8431 114.748 36.8431 114.535 37.049L114.503 37.2424C114.572 37.3298 114.673 37.2986 114.767 37.2424C114.862 37.1863 114.981 37.1488 115.094 37.1239C115.226 37.1053 115.359 37.1053 115.491 37.1239C115.119 36.4681 114.613 35.8965 114.006 35.4455C113.374 34.9583 112.691 34.54 111.968 34.1977C112.777 34.4222 113.541 34.7831 114.226 35.2646C114.95 35.8813 115.617 36.5598 116.22 37.2923C116.295 37.1555 116.348 37.0082 116.377 36.8556C116.426 36.6684 116.441 36.474 116.422 36.2816C116.422 36.0882 116.327 35.3769 115.988 35.4268L115.824 35.5516C115.723 35.5516 115.686 35.5017 115.66 35.4268C115.603 35.2498 115.561 35.0682 115.535 34.884C115.504 34.6965 115.434 34.5177 115.327 34.3599C115.176 34.1977 115.063 34.2102 114.987 34.4161C114.95 34.5221 114.868 34.8653 114.711 34.7405L114.629 34.4847C114.61 34.3997 114.585 34.3162 114.553 34.2351C114.504 34.0517 114.419 33.8799 114.302 33.7298C114.252 33.6674 114.189 33.5551 114.101 33.5364C114.013 33.5176 113.975 33.5863 113.912 33.6487C113.566 34.0168 113.377 33.3617 113.214 33.1558C113.162 33.0773 113.094 33.0114 113.013 32.9628C112.933 32.9142 112.842 32.8842 112.748 32.875C112.49 32.875 112.516 33.0497 112.39 33.1994C112.264 33.3492 112.277 33.3117 112.182 33.2805C112.152 33.2069 112.106 33.1407 112.048 33.0867C111.989 33.0328 111.919 32.9924 111.843 32.9686C111.629 32.9124 111.534 33.0747 111.465 33.2369L111.339 33.4303C111.226 33.5176 111.163 33.4303 111.05 33.4303C110.937 33.4303 110.71 33.3617 110.641 33.5301C110.572 33.6986 110.742 33.8795 110.824 34.048C110.905 34.2164 110.905 34.2539 110.824 34.3474C110.742 34.441 110.704 34.4348 110.717 34.5471C110.717 34.7842 110.956 34.6844 111.094 34.7842C111.232 34.884 110.975 35.0837 110.968 35.2084C110.924 35.7138 111.515 35.5391 111.824 35.6327C111.912 35.6327 111.987 35.7138 111.918 35.8136L111.685 35.9384C111.566 36.1006 111.861 36.2379 111.975 36.2878C112.163 36.3346 112.359 36.3346 112.547 36.2878C112.741 36.2597 112.938 36.2597 113.132 36.2878C113.302 36.2878 113.472 36.4625 113.251 36.5686" fill="#51A747"/>
<path d="M123.028 33.1789C123.111 33.1033 123.187 33.0197 123.254 32.9293C123.415 32.7454 123.541 32.534 123.625 32.3054C123.657 32.2056 123.738 32.0683 123.701 31.956C123.663 31.8437 123.562 31.8562 123.455 31.8312C122.826 31.7064 123.393 31.0576 123.506 30.7394C123.557 30.6322 123.584 30.5149 123.584 30.3962C123.584 30.2775 123.557 30.1603 123.506 30.053C123.367 29.7598 123.16 29.922 122.877 29.8908C122.751 29.8908 122.675 29.8534 122.65 29.7224C122.708 29.6397 122.747 29.5455 122.764 29.4464C122.782 29.3473 122.777 29.2456 122.751 29.1484C122.669 28.8739 122.424 28.8863 122.197 28.9238C122.101 28.952 121.998 28.952 121.902 28.9238C121.732 28.8614 121.776 28.7366 121.738 28.5993C121.701 28.4621 121.575 28.1875 121.342 28.2312C121.109 28.2749 121.034 28.5744 120.902 28.7803C120.77 28.9862 120.738 29.0049 120.587 28.9924C120.436 28.9799 120.399 28.93 120.292 28.9924C120.046 29.1733 120.292 29.348 120.292 29.5602C120.292 29.7723 119.883 29.6413 119.738 29.7224C119.16 30.0219 119.738 30.5335 119.87 30.9328C119.87 31.0388 119.87 31.1636 119.738 31.1511C119.606 31.1387 119.556 31.0014 119.443 30.9889C119.178 30.9889 119.229 31.382 119.26 31.538C119.327 31.7746 119.455 31.9897 119.631 32.1619C119.797 32.3491 119.935 32.5593 120.04 32.7858C120.128 32.9854 120.09 33.2662 119.82 33.1102C119.713 33.0478 119.619 32.9543 119.505 33.0541C119.463 33.0946 119.43 33.1445 119.411 33.1998C119.391 33.2551 119.385 33.3141 119.392 33.3723C119.461 33.8901 120.021 34.0648 120.279 34.4516C120.405 34.6513 120.537 34.9009 120.185 34.8073C120.084 34.8073 119.983 34.7698 119.946 34.9009C119.908 35.0319 120.015 35.1255 120.103 35.2003C120.191 35.2752 120.355 35.3626 120.455 35.4686C120.572 35.5944 120.671 35.735 120.751 35.8867C121.206 35.0336 121.48 34.0972 121.556 33.1352C121.643 32.1251 121.622 31.1086 121.493 30.103C121.804 31.1275 121.936 32.1974 121.883 33.2662C121.715 34.4689 121.442 35.6547 121.065 36.81C121.268 36.7972 121.468 36.753 121.657 36.679C121.885 36.5995 122.098 36.4813 122.286 36.3296C122.487 36.1737 123.21 35.6059 122.915 35.2815L122.663 35.1879C122.569 35.1005 122.663 35.0069 122.694 34.9196C122.847 34.741 123.013 34.5742 123.191 34.4205C123.378 34.2591 123.526 34.0588 123.625 33.834C123.694 33.5595 123.625 33.4471 123.33 33.5095C123.191 33.547 122.757 33.6967 122.789 33.4347C122.789 33.3224 122.927 33.2413 123.003 33.1726" fill="#51A747"/>
<path d="M118.349 41.3606L118.242 41.0673C118.185 40.9529 118.109 40.8494 118.016 40.7616C117.921 40.668 117.575 40.3436 117.431 40.512L117.399 40.6431H117.261C117.157 40.5774 117.058 40.5044 116.965 40.4247C116.873 40.3403 116.76 40.2803 116.638 40.25C116.487 40.25 116.437 40.25 116.487 40.4185C116.537 40.5869 116.619 40.693 116.487 40.693L116.336 40.6056L116.192 40.512C116.088 40.4383 115.97 40.3872 115.846 40.3623H115.663L115.613 40.4933C115.613 40.8302 115.217 40.5807 115.047 40.5432C114.986 40.5276 114.923 40.5245 114.862 40.5341C114.8 40.5438 114.741 40.566 114.688 40.5994C114.55 40.693 114.651 40.7866 114.651 40.9176L114.581 41.0424H114.273C114.141 41.1048 114.166 41.2295 114.198 41.3419V41.4916C114.198 41.5789 114.11 41.5665 114.047 41.5977C113.984 41.6288 113.839 41.7037 113.883 41.8223C113.927 41.9408 114.078 41.9533 114.191 42.0094L114.33 42.1529V42.3027C114.443 42.415 114.512 42.3027 114.625 42.259L114.745 42.5273C114.94 42.8018 115.166 42.4649 115.374 42.3838L115.5 42.4337L115.437 42.5959C115.437 42.7269 115.651 42.6708 115.732 42.6458C115.85 42.5966 115.952 42.5169 116.028 42.415C116.111 42.3176 116.209 42.2335 116.317 42.1654C116.418 42.103 116.563 42.103 116.5 42.2528V42.4275L116.676 42.4587C116.934 42.39 116.99 42.0905 117.173 41.9346C117.355 41.7786 117.38 41.7724 117.355 41.9346L117.424 42.0469L117.569 41.947L117.682 41.7474L117.877 41.5727C117.405 41.3999 116.902 41.3255 116.399 41.3543C115.872 41.3762 115.349 41.4557 114.839 41.5914C115.346 41.3628 115.888 41.2214 116.443 41.1734C117.076 41.1806 117.708 41.2432 118.33 41.3606" fill="#51A747"/>
<path d="M116.141 48.1238V49.7709L120.55 48.2673L125.77 49.8957V48.2548L120.55 46.5391L116.141 48.1238Z" fill="#9D472A"/>
<path d="M116.141 51.2741V52.9212L120.55 51.5736L125.77 53.0335V51.3926L120.55 49.8516L116.141 51.2741Z" fill="#9D472A"/>
<path d="M116.141 54.4267V56.0738L120.55 54.8822L125.77 56.1737V54.5328L120.55 53.1602L116.141 54.4267Z" fill="#9D472A"/>
<path d="M116.141 57.5754V59.2225L120.55 58.1931L125.77 59.3099V57.669L120.55 56.4648L116.141 57.5754Z" fill="#9D472A"/>
<path d="M116.141 60.728V62.3752L120.55 61.5017L125.77 62.4438V60.8029L120.55 59.7734L116.141 60.728Z" fill="#9D472A"/>
<path d="M116.141 63.8783V65.5254L120.55 64.8079L125.77 65.5816V63.9407L120.55 63.0859L116.141 63.8783Z" fill="#9D472A"/>
<path d="M116.141 67.0208V68.6679L120.55 68.1126L125.77 68.7178V67.0769L120.55 66.3906L116.141 67.0208Z" fill="#9D472A"/>
<path d="M140.106 25.2145C140.075 25.0211 140.037 24.8339 139.999 24.6468C139.967 24.4648 139.92 24.2854 139.861 24.1102C139.775 23.7955 139.668 23.487 139.54 23.1868C139.439 22.9247 139.307 22.7189 139.238 22.5629C139.169 22.4069 139.125 22.332 139.125 22.332L139.213 22.5754C139.263 22.7313 139.364 22.9497 139.433 23.1993C139.525 23.5058 139.595 23.8186 139.641 24.1351C139.673 24.3105 139.697 24.4876 139.71 24.6655L139.748 25.2145C139.748 25.5826 139.748 25.9507 139.685 26.2939C139.685 26.4623 139.653 26.6308 139.616 26.7805C139.578 26.9303 139.553 27.0738 139.521 27.2048C139.477 27.4668 139.383 27.7039 139.345 27.8287V27.9285L140.018 28.1781C140.018 28.1344 140.018 28.0658 140.05 27.9785C140.096 27.7517 140.129 27.5226 140.15 27.2922C140.15 27.1487 140.182 26.9864 140.194 26.818C140.207 26.6495 140.194 26.4748 140.194 26.2877C140.194 25.91 140.168 25.5328 140.119 25.1584" fill="#9D472A"/>
<path d="M147.667 23.1275C147.933 21.8686 148.038 20.5817 147.982 19.2967C147.693 17.4288 147.225 15.5925 146.585 13.8125L146.529 13.8562C146.529 13.8562 147.623 17.7432 147.642 19.3591C147.635 20.7064 147.449 22.047 147.088 23.3459C146.093 23.7272 145.141 24.2146 144.252 24.7996C142.82 25.8038 141.559 27.0274 140.516 28.4246L141.491 28.7802C142.326 27.3931 143.427 26.1809 144.73 25.2114C147.139 23.5331 151.919 21.7924 151.919 21.7924C150.479 22.1613 149.059 22.607 147.667 23.1275Z" fill="#9D472A"/>
<path d="M118.637 40.4871C118.895 40.7678 119.109 41.0673 119.354 41.3855L120.046 42.3526C120.899 43.5184 121.62 44.7738 122.197 46.0961C122.29 46.3349 122.37 46.5786 122.436 46.8261V46.9197L123.367 47.2254C123.329 47.0128 123.272 46.804 123.197 46.6015C123.104 46.329 122.995 46.0623 122.87 45.8028C122.43 44.8732 121.675 43.9311 120.983 42.7706C120.72 42.3057 120.549 41.7954 120.48 41.267C120.216 40.1876 120.417 36.207 120.417 36.207C120.417 36.207 119.844 39.9942 120.071 41.3107C120.109 41.4978 120.153 41.685 120.197 41.8285V41.8847C119.995 41.6413 119.788 41.398 119.568 41.1547C119.348 40.9114 119.052 40.5308 118.775 40.2999L118.014 39.5263C117.763 39.2892 117.555 39.0396 117.31 38.8524L115.781 37.5484C115.781 37.5484 117.63 39.4202 117.857 39.6698L118.568 40.4871" fill="#9D472A"/>
</g>
<defs>
<clipPath id="clip0_1625_105516">
<rect width="168" height="115" fill="white"/>
</clipPath>
</defs>
</svg>
