<svg width="50" height="50" viewBox="0 0 50 50" fill="none" xmlns="http://www.w3.org/2000/svg">
<path d="M1.25 45.5833H48.75V48.75H1.25V45.5833ZM45.5833 42.4167V16.2917C44.0531 16.9343 42.3903 17.1979 40.7363 17.0601C39.0823 16.9222 37.4861 16.3871 36.0833 15.5C34.4278 16.5556 32.5051 17.1164 30.5417 17.1164C28.5782 17.1164 26.6556 16.5556 25 15.5C23.3444 16.5556 21.4218 17.1164 19.4583 17.1164C17.4949 17.1164 15.5722 16.5556 13.9167 15.5C12.5165 16.3922 10.9216 16.9329 9.2676 17.0763C7.61358 17.2196 5.94941 16.9613 4.41667 16.3233V42.4167H16.2917V29.75C16.2917 28.4902 16.7921 27.282 17.6829 26.3912C18.5737 25.5004 19.7819 25 21.0417 25H28.9583C30.2181 25 31.4263 25.5004 32.3171 26.3912C33.2079 27.282 33.7083 28.4902 33.7083 29.75V42.4167H45.5833Z" fill="#51A747"/>
<path d="M21.0417 28.1667C20.6217 28.1667 20.219 28.3335 19.9221 28.6304C19.6251 28.9273 19.4583 29.3301 19.4583 29.75V42.4167H30.5417V29.75C30.5417 29.3301 30.3749 28.9273 30.0779 28.6304C29.781 28.3335 29.3783 28.1667 28.9583 28.1667H21.0417ZM47.1667 1.25H2.83333C2.41341 1.25 2.01068 1.41681 1.71375 1.71375C1.41682 2.01068 1.25 2.41341 1.25 2.83333V6.79167C1.24949 8.26529 1.7059 9.70282 2.55638 10.9063C3.40687 12.1097 4.60957 13.0198 5.99883 13.5113C7.38809 14.0027 8.89555 14.0513 10.3136 13.6504C11.7316 13.2494 12.9904 12.4187 13.9167 11.2725C14.5846 12.099 15.4288 12.7656 16.3877 13.2235C17.3466 13.6815 18.3957 13.9192 19.4583 13.9192C20.5209 13.9192 21.5701 13.6815 22.529 13.2235C23.4878 12.7656 24.3321 12.099 25 11.2725C25.6679 12.099 26.5122 12.7656 27.471 13.2235C28.4299 13.6815 29.4791 13.9192 30.5417 13.9192C31.6043 13.9192 32.6534 13.6815 33.6123 13.2235C34.5712 12.7656 35.4154 12.099 36.0833 11.2725C37.0096 12.4187 38.2684 13.2494 39.6864 13.6504C41.1045 14.0513 42.6119 14.0027 44.0012 13.5113C45.3904 13.0198 46.5931 12.1097 47.4436 10.9063C48.2941 9.70282 48.7505 8.26529 48.75 6.79167V2.83333C48.75 2.41341 48.5832 2.01068 48.2863 1.71375C47.9893 1.41681 47.5866 1.25 47.1667 1.25Z" fill="#51A747"/>
</svg>
