<svg width="68" height="60" viewBox="0 0 68 60" fill="none" xmlns="http://www.w3.org/2000/svg">
<path d="M4 30.1991C4 46.5114 17.3427 59.755 33.8583 59.755C34.2651 59.755 34.6719 59.755 35.0787 59.755V48.5302H33.8583C23.6072 48.5302 15.3901 40.2933 15.3901 30.1991C15.3901 20.1049 23.6886 11.868 33.8583 11.868H35.0787V0.5625C34.6719 0.5625 34.2651 0.5625 33.8583 0.5625C17.3427 0.5625 4 13.8061 4 30.1991Z" fill="#DA5155"/>
<path d="M39.7823 1.13281V16.5568H33.8432C26.1956 16.5568 20.0938 22.6133 20.0938 30.2041C20.0938 37.7142 26.2769 43.8515 33.8432 43.8515H39.7823V59.2755C53.3691 56.5298 63.6202 44.5783 63.6202 30.2849C63.6202 15.83 53.3691 3.87844 39.7823 1.13281Z" fill="#213A8B"/>
</svg>
