<svg width="62" height="62" viewBox="0 0 62 62" fill="none" xmlns="http://www.w3.org/2000/svg">
<path d="M0 57.6357H61.75V61.7523H0V57.6357ZM57.6333 53.519V19.5565C55.644 20.3919 53.4824 20.7346 51.3322 20.5554C49.182 20.3763 47.1069 19.6805 45.2833 18.5273C43.1311 19.8997 40.6317 20.6287 38.0792 20.6287C35.5266 20.6287 33.0272 19.8997 30.875 18.5273C28.7228 19.8997 26.2234 20.6287 23.6708 20.6287C21.1183 20.6287 18.6189 19.8997 16.4667 18.5273C14.6465 19.6872 12.5731 20.3902 10.4229 20.5765C8.27266 20.7629 6.10923 20.4271 4.11667 19.5977V53.519H19.5542V37.0523C19.5542 35.4146 20.2047 33.844 21.3628 32.686C22.5208 31.5279 24.0915 30.8773 25.7292 30.8773H36.0208C37.6585 30.8773 39.2292 31.5279 40.3872 32.686C41.5453 33.844 42.1958 35.4146 42.1958 37.0523V53.519H57.6333Z" fill="#51A747"/>
<path d="M25.7292 34.9917C25.1833 34.9917 24.6597 35.2085 24.2737 35.5945C23.8877 35.9805 23.6708 36.5041 23.6708 37.05V53.5167H38.0792V37.05C38.0792 36.5041 37.8623 35.9805 37.4763 35.5945C37.0903 35.2085 36.5667 34.9917 36.0208 34.9917H25.7292ZM59.6917 0H2.05833C1.51243 0 0.988885 0.216859 0.602872 0.602872C0.21686 0.988884 5.66355e-07 1.51243 5.66355e-07 2.05833V7.20417C-0.000669173 9.11988 0.592673 10.9887 1.6983 12.5531C2.80392 14.1176 4.36744 15.3007 6.17347 15.9396C7.97951 16.5785 9.93922 16.6417 11.7827 16.1205C13.6261 15.5992 15.2626 14.5192 16.4667 13.0293C17.3349 14.1037 18.4325 14.9703 19.679 15.5656C20.9255 16.1609 22.2894 16.4699 23.6708 16.4699C25.0522 16.4699 26.4161 16.1609 27.6626 15.5656C28.9092 14.9703 30.0067 14.1037 30.875 13.0293C31.7433 14.1037 32.8408 14.9703 34.0874 15.5656C35.3339 16.1609 36.6978 16.4699 38.0792 16.4699C39.4606 16.4699 40.8245 16.1609 42.071 15.5656C43.3175 14.9703 44.4151 14.1037 45.2833 13.0293C46.4874 14.5192 48.1239 15.5992 49.9673 16.1205C51.8108 16.6417 53.7705 16.5785 55.5765 15.9396C57.3826 15.3007 58.9461 14.1176 60.0517 12.5531C61.1573 10.9887 61.7507 9.11988 61.75 7.20417V2.05833C61.75 1.51243 61.5331 0.988884 61.1471 0.602872C60.7611 0.216859 60.2376 0 59.6917 0Z" fill="#51A747"/>
</svg>
