<svg width="90" height="90" viewBox="0 0 90 90" fill="none" xmlns="http://www.w3.org/2000/svg">
<g clip-path="url(#clip0_1378_309889)">
<g clip-path="url(#clip1_1378_309889)">
<path d="M33.286 13.6864C32.7224 13.7529 32.1796 13.4809 31.8708 13.0048C30.1985 10.4265 27.2949 8.71875 24.0001 8.71875H23.312C18.0914 8.71875 13.8824 12.9478 13.8901 18.1519L13.967 81.2812H15.5116C16.3107 81.2812 17.0082 81.8846 17.0594 82.6821C17.073 82.887 17.0444 83.0925 16.9753 83.2859C16.9063 83.4793 16.7982 83.6564 16.6579 83.8063C16.5176 83.9563 16.348 84.0758 16.1595 84.1575C15.9711 84.2392 15.768 84.2813 15.5626 84.2812H1.55111C0.751983 84.2812 0.0544835 83.6779 0.00329595 82.8804C-0.0103105 82.6755 0.0183064 82.47 0.0873735 82.2766C0.15644 82.0832 0.264486 81.9061 0.404815 81.7562C0.545144 81.6062 0.714767 81.4867 0.903173 81.405C1.09158 81.3233 1.29475 81.2812 1.50011 81.2812H10.967L10.8901 18.1556C10.8824 11.2875 16.4365 5.71875 23.312 5.71875H24.0001C28.3705 5.71875 32.2197 7.9965 34.4223 11.4266C34.9797 12.2949 34.5084 13.5418 33.286 13.6864ZM34.8751 16.5938C29.0851 16.5938 24.3751 21.3038 24.3751 27.0938V29.7188C24.3751 30.5475 25.0464 31.2188 25.8751 31.2188H43.8751C44.7039 31.2188 45.3751 30.5475 45.3751 29.7188V27.0938C45.3751 21.3038 40.6651 16.5938 34.8751 16.5938ZM71.2612 82.7374C71.221 81.4236 71.2464 78.6107 71.2497 71.7199C71.2498 71.5228 71.2111 71.3277 71.1358 71.1456C71.0604 70.9635 70.95 70.798 70.8107 70.6586C70.6714 70.5192 70.506 70.4086 70.324 70.3331C70.1419 70.2577 69.9468 70.2188 69.7497 70.2188H40.1255C39.9284 70.2188 39.7333 70.2577 39.5513 70.3331C39.3692 70.4086 39.2038 70.5192 39.0645 70.6586C38.9252 70.798 38.8148 70.9635 38.7394 71.1456C38.6641 71.3277 38.6254 71.5228 38.6255 71.7199C38.629 78.6114 38.6544 81.4239 38.6142 82.7376C38.5884 83.5832 39.2675 84.2814 40.1135 84.2814H69.7619C70.6079 84.2812 71.2869 83.583 71.2612 82.7374ZM83.2745 57.8438H80.9757C77.267 57.8438 74.2501 60.8606 74.2501 64.5694V82.7812C74.2501 83.61 74.9214 84.2812 75.7501 84.2812H83.2745C86.9832 84.2812 90.0001 81.2644 90.0001 77.5556V64.5694C90.0001 60.8606 86.9832 57.8438 83.2745 57.8438ZM28.8995 57.8438H26.6007C22.892 57.8438 19.8751 60.8606 19.8751 64.5694V77.5556C19.8751 81.2644 22.892 84.2812 26.6007 84.2812H34.1251C34.9539 84.2812 35.6251 83.61 35.6251 82.7812V64.5694C35.6251 60.8606 32.6082 57.8438 28.8995 57.8438ZM51.9376 40.0312H34.2826C29.8464 40.0312 26.2501 43.6275 26.2501 48.0638V53.3438C26.25 53.7414 26.4079 54.1228 26.6889 54.4041C26.97 54.6854 27.3513 54.8436 27.749 54.8438L28.898 54.8439C34.2699 54.8439 38.6251 59.1984 38.6251 64.5703V65.7189C38.6251 66.1168 38.7831 66.4983 39.0644 66.7796C39.3458 67.0609 39.7273 67.2189 40.1251 67.2189H51.9376C52.3354 67.2189 52.717 67.0609 52.9983 66.7796C53.2796 66.4983 53.4376 66.1168 53.4376 65.7189V41.5314C53.4376 41.3344 53.3989 41.1394 53.3235 40.9574C53.2481 40.7753 53.1376 40.61 52.9983 40.4707C52.859 40.3313 52.6937 40.2208 52.5117 40.1454C52.3297 40.0701 52.1346 40.0312 51.9376 40.0312ZM75.2176 40.0312H57.9376C57.5398 40.0312 57.1583 40.1893 56.877 40.4706C56.5956 40.7519 56.4376 41.1334 56.4376 41.5312V65.7188C56.4376 66.1166 56.5956 66.4981 56.877 66.7794C57.1583 67.0607 57.5398 67.2188 57.9376 67.2188H69.7501C70.1479 67.2188 70.5295 67.0607 70.8108 66.7794C71.0921 66.4981 71.2501 66.1166 71.2501 65.7188V64.5694C71.2501 59.2114 75.6082 54.8438 80.9757 54.8438H81.7501C82.1479 54.8438 82.5295 54.6857 82.8108 54.4044C83.0921 54.1231 83.2501 53.7416 83.2501 53.3438V48.0638C83.2501 43.6275 79.6539 40.0312 75.2176 40.0312Z" fill="#51A747"/>
</g>
</g>
<defs>
<clipPath id="clip0_1378_309889">
<rect width="90" height="90" fill="white"/>
</clipPath>
<clipPath id="clip1_1378_309889">
<rect width="90" height="90" fill="white"/>
</clipPath>
</defs>
</svg>
