<svg width="90" height="90" viewBox="0 0 90 90" fill="none" xmlns="http://www.w3.org/2000/svg">
<path d="M18.6467 37.4613C30.2818 32.4719 38.4528 20.9008 38.4528 7.45586V0H10.0983C9.06864 0 8.23098 0.837665 8.23098 1.86728V37.4613H18.6467ZM43.2395 7.45586C43.2395 20.9008 51.4105 32.4719 63.0456 37.4615H73.4613V1.86728C73.4613 0.837665 72.6237 0 71.594 0H43.2395V7.45586ZM5.56194 54.6268H12.8168V70.3709H5.56194V54.6268ZM26.6665 54.6268H33.9213V70.3709H26.6665V54.6268ZM47.771 54.6268H55.0258V70.3709H47.771V54.6268ZM68.8755 54.6268H76.1304V70.3709H68.8755V54.6268ZM74.2631 81.6923C75.2927 81.6923 76.1304 80.8546 76.1304 79.8249V75.1576H5.56194V79.8249C5.56194 80.8546 6.3996 81.6923 7.42921 81.6923H74.2631ZM79.8249 42.248H1.86743C0.837665 42.248 0 43.0857 0 44.1154V47.9727C0 49.0025 0.837665 49.8401 1.86743 49.8401H79.8249C80.8546 49.8401 81.6923 49.0025 81.6923 47.9727V44.1154C81.6923 43.0857 80.8546 42.248 79.8249 42.248Z" fill="#51A747"/>
</svg>
