<svg width="90" height="90" viewBox="0 0 90 90" fill="none" xmlns="http://www.w3.org/2000/svg">
<g clip-path="url(#clip0_1378_309900)">
<g clip-path="url(#clip1_1378_309900)">
<path d="M84.375 44.8359H5.625C2.52369 44.8359 0 47.3596 0 50.4609C0 53.5622 2.52369 56.0859 5.625 56.0859H84.375C87.4763 56.0859 90 53.5622 90 50.4609C90 47.3596 87.4763 44.8359 84.375 44.8359Z" fill="#51A747"/>
<path d="M84.8865 52.4048C83.8703 52.1198 82.8502 52.6973 82.569 53.6948L82.4227 54.2086H7.56893L7.41899 53.6948C7.13774 52.6973 6.1103 52.1274 5.10149 52.4048C4.10393 52.6897 3.53018 53.7286 3.8153 54.7223L8.98274 72.8123C10.5839 78.4185 15.7741 82.3335 21.6015 82.3335H68.3827C74.2139 82.3335 79.4002 78.4185 81.0015 72.8123L86.169 54.7223C86.4578 53.7284 85.8802 52.6897 84.8865 52.4048ZM21.6052 74.8334C19.1077 74.8334 16.8802 73.1572 16.1977 70.7534L13.764 62.2259C13.4791 61.2283 14.0565 60.1933 15.0502 59.9084C16.0551 59.6234 17.0864 60.2045 17.3677 61.1984L19.8014 69.7259C20.0339 70.5247 20.7726 71.0872 21.6051 71.0872C22.6401 71.0872 23.4801 71.9272 23.4801 72.9622C23.4803 73.9972 22.6402 74.8334 21.6052 74.8334Z" fill="#51A747"/>
<path d="M25.2135 78.7793C24.2873 78.3256 23.166 78.6893 22.6972 79.6193L18.9473 87.1194C18.486 88.0456 18.861 89.1706 19.7873 89.6357C20.0076 89.7463 20.2475 89.8124 20.4934 89.83C20.7392 89.8477 20.9862 89.8166 21.22 89.7386C21.4538 89.6605 21.6699 89.5371 21.8558 89.3753C22.0418 89.2135 22.194 89.0166 22.3036 88.7958L26.0536 81.2958C26.5148 80.3692 26.1397 79.2442 25.2135 78.7793ZM71.0573 87.1231L67.3073 79.623C66.8424 78.693 65.7174 78.3217 64.791 78.783C63.8648 79.2479 63.4897 80.3729 63.9509 81.2993L67.7009 88.7993C67.8567 89.1104 68.0961 89.372 68.3921 89.5548C68.6881 89.7375 69.0292 89.8344 69.3771 89.8343C69.6584 89.8343 69.9433 89.7705 70.2172 89.6394C71.1436 89.1743 71.5185 88.0493 71.0573 87.1231ZM75.321 0.167969C73.4085 0.167969 71.6085 0.91416 70.2548 2.26803L64.3036 8.21928C63.5723 8.95053 63.5723 10.1393 64.3036 10.8706C65.0348 11.6018 66.2236 11.6018 66.9549 10.8706L72.9059 4.92303C73.5472 4.27809 74.4059 3.92178 75.3396 3.92178C77.2221 3.92178 78.7521 5.45178 78.7521 7.33422V46.7092C78.7521 47.7442 79.5921 48.5843 80.6271 48.5843C81.6621 48.5843 82.5022 47.7442 82.5059 46.7055V7.33053C82.5061 3.38178 79.2959 0.167969 75.321 0.167969Z" fill="#51A747"/>
<path d="M68.8284 10.0939L65.0785 6.344C64.651 5.9165 64.0547 5.7177 63.4472 5.81895L54.0723 7.35651C53.7346 7.41206 53.4186 7.55878 53.1582 7.78084C52.8978 8.00289 52.703 8.29184 52.5949 8.61651C52.4866 8.94168 52.4699 9.29038 52.5467 9.6244C52.6234 9.95842 52.7906 10.2649 53.0299 10.5102L64.2799 22.0977C64.4539 22.278 64.6625 22.4214 64.8931 22.5194C65.1238 22.6173 65.3718 22.6678 65.6224 22.6678C65.7987 22.6678 65.9787 22.6416 66.1548 22.589C66.4827 22.4932 66.7781 22.3094 67.0088 22.0575C67.2395 21.8056 67.3968 21.4953 67.4635 21.1603L69.3386 11.7853C69.3991 11.4832 69.3842 11.1708 69.2952 10.8758C69.2062 10.5808 69.0459 10.3122 68.8284 10.0939ZM44.4497 22.8852C43.7184 22.1539 42.5296 22.1539 41.7984 22.8852L38.0484 26.6351C37.3172 27.3664 37.3172 28.5552 38.0484 29.2864C38.416 29.6501 38.8959 29.834 39.3759 29.834C39.856 29.834 40.3359 29.6503 40.6997 29.2864L44.4497 25.5365C45.1809 24.8051 45.1809 23.6164 44.4497 22.8852ZM51.9497 30.3851C51.2185 29.6538 50.0297 29.6538 49.2984 30.3851L45.5485 34.135C44.8172 34.8663 44.8172 36.0551 45.5485 36.7863C45.9013 37.137 46.3786 37.3338 46.876 37.3339C47.3561 37.3339 47.8359 37.1502 48.1998 36.7863L51.9497 33.0364C52.681 32.3051 52.681 31.1163 51.9497 30.3851ZM55.6997 19.1351C54.9684 18.4038 53.7796 18.4038 53.0484 19.1351L49.2984 22.885C48.5672 23.6163 48.5672 24.8051 49.2984 25.5363C49.666 25.9 50.1459 26.0839 50.6259 26.0839C51.106 26.0839 51.5859 25.9002 51.9497 25.5363L55.6997 21.7864C56.4309 21.0551 56.4309 19.8663 55.6997 19.1351Z" fill="#51A747"/>
</g>
</g>
<defs>
<clipPath id="clip0_1378_309900">
<rect width="90" height="90" fill="white"/>
</clipPath>
<clipPath id="clip1_1378_309900">
<rect width="90" height="90" fill="white"/>
</clipPath>
</defs>
</svg>
