<svg width="70" height="70" viewBox="0 0 70 70" fill="none" xmlns="http://www.w3.org/2000/svg">
<path d="M5.94993 35.7L4.69211 61.0312C4.66496 61.6233 4.7579 62.2148 4.96535 62.77C5.1728 63.3252 5.49047 63.8326 5.89922 64.2618C6.30798 64.691 6.79936 65.033 7.34379 65.2673C7.88822 65.5016 8.47442 65.6233 9.06711 65.625H60.9327C61.5254 65.6231 62.1115 65.5013 62.6559 65.267C63.2002 65.0327 63.6916 64.6907 64.1003 64.2615C64.509 63.8323 64.8267 63.3249 65.0342 62.7698C65.2417 62.2147 65.3347 61.6233 65.3077 61.0312L64.0499 35.7H5.94993ZM30.0015 41.6828H56.8749C57.165 41.6828 57.4432 41.798 57.6483 42.0032C57.8534 42.2083 57.9687 42.4865 57.9687 42.7766C57.9687 43.0666 57.8534 43.3448 57.6483 43.55C57.4432 43.7551 57.165 43.8703 56.8749 43.8703H30.0015C29.7114 43.8703 29.4332 43.7551 29.2281 43.55C29.023 43.3448 28.9077 43.0666 28.9077 42.7766C28.9077 42.4865 29.023 42.2083 29.2281 42.0032C29.4332 41.798 29.7114 41.6828 30.0015 41.6828ZM56.8749 58.5156C57.165 58.5156 57.4432 58.6309 57.6483 58.836C57.8534 59.0411 57.9687 59.3193 57.9687 59.6094C57.9687 59.8995 57.8534 60.1777 57.6483 60.3828C57.4432 60.5879 57.165 60.7031 56.8749 60.7031H17.0952C16.8052 60.7031 16.527 60.5879 16.3218 60.3828C16.1167 60.1777 16.0015 59.8995 16.0015 59.6094C16.0015 59.3193 16.1167 59.0411 16.3218 58.836C16.527 58.6309 16.8052 58.5156 17.0952 58.5156H56.8749ZM30.7015 53.9984C30.7011 53.8547 30.7291 53.7123 30.7839 53.5794C30.8387 53.4465 30.9192 53.3257 31.0209 53.2241C31.1225 53.1224 31.2433 53.0419 31.3762 52.9871C31.5091 52.9322 31.6515 52.9043 31.7952 52.9047H56.8749C57.165 52.9047 57.4432 53.0199 57.6483 53.225C57.8534 53.4302 57.9687 53.7084 57.9687 53.9984C57.9687 54.2885 57.8534 54.5667 57.6483 54.7718C57.4432 54.977 57.165 55.0922 56.8749 55.0922H31.7952C31.6515 55.0926 31.5091 55.0646 31.3762 55.0098C31.2433 54.955 31.1225 54.8745 31.0209 54.7728C30.9192 54.6712 30.8387 54.5504 30.7839 54.4175C30.7291 54.2846 30.7011 54.1422 30.7015 53.9984ZM30.0015 47.2938H56.8749C57.165 47.2938 57.4432 47.409 57.6483 47.6141C57.8534 47.8192 57.9687 48.0974 57.9687 48.3875C57.9687 48.6776 57.8534 48.9558 57.6483 49.1609C57.4432 49.366 57.165 49.4813 56.8749 49.4813H30.0015C29.7114 49.4813 29.4332 49.366 29.2281 49.1609C29.023 48.9558 28.9077 48.6776 28.9077 48.3875C28.9077 48.0974 29.023 47.8192 29.2281 47.6141C29.4332 47.409 29.7114 47.2938 30.0015 47.2938ZM11.2109 41.5625C11.2135 40.6931 11.56 39.86 12.1748 39.2452C12.7896 38.6304 13.6227 38.2838 14.4921 38.2812H23.1546C24.0241 38.2838 24.8572 38.6304 25.4719 39.2452C26.0867 39.86 26.4333 40.6931 26.4359 41.5625V50.2141C26.4353 51.0841 26.0894 51.9184 25.4742 52.5336C24.8589 53.1488 24.0247 53.4947 23.1546 53.4953H14.4921C13.6221 53.4947 12.7878 53.1488 12.1726 52.5336C11.5573 51.9184 11.2114 51.0841 11.2109 50.2141V41.5625ZM64.0499 33.5125L65.3077 8.96875C65.3337 8.37698 65.2399 7.78607 65.032 7.23142C64.8241 6.67676 64.5063 6.16978 64.0978 5.74085C63.6893 5.31192 63.1984 4.96986 62.6546 4.73516C62.1107 4.50047 61.5251 4.37797 60.9327 4.375H9.06711C8.47479 4.37797 7.88915 4.50047 7.34529 4.73516C6.80143 4.96986 6.31055 5.31192 5.90204 5.74085C5.49353 6.16978 5.17581 6.67676 4.96791 7.23142C4.76 7.78607 4.6662 8.37698 4.69211 8.96875L5.94993 33.5125H64.0499Z" fill="white"/>
<path d="M23.1547 40.4688H14.4922C13.8881 40.4688 13.3984 40.9584 13.3984 41.5625V50.2141C13.3984 50.8181 13.8881 51.3078 14.4922 51.3078H23.1547C23.7587 51.3078 24.2484 50.8181 24.2484 50.2141V41.5625C24.2484 40.9584 23.7587 40.4688 23.1547 40.4688Z" fill="white"/>
</svg>
