<svg width="60" height="60" viewBox="0 0 60 60" fill="none" xmlns="http://www.w3.org/2000/svg">
<path d="M41.4727 19.3477H40.6875V16.4297C40.6875 7.35937 33.3281 0 24.2578 0C15.1875 0 7.82813 7.35937 7.82813 16.4297V19.3477H7.04297C3.15234 19.3477 0 22.5 0 26.3906V52.9688C0 56.8477 3.15234 60 7.04297 60H41.4727C45.3516 60 48.5039 56.8477 48.5039 52.9688V26.3906C48.5156 22.5 45.3633 19.3477 41.4727 19.3477ZM14.0625 16.4297C14.0625 10.8047 18.6211 6.24609 24.2461 6.24609C29.8711 6.24609 34.4297 10.8047 34.4297 16.4297V19.3477H14.0625V16.4297ZM27.9258 45.0938C27.9258 47.1211 26.2852 48.7617 24.2578 48.7617C22.2305 48.7617 20.5898 47.1211 20.5898 45.0938V37.043C20.5898 35.0156 22.2305 33.375 24.2578 33.375C26.2852 33.375 27.9258 35.0156 27.9258 37.043V45.0938Z" fill="#51A747"/>
</svg>
