<svg width="60" height="60" viewBox="0 0 60 60" fill="none" xmlns="http://www.w3.org/2000/svg">
<path d="M5.27344 60H40.4297C43.3376 60 45.7031 57.6345 45.7031 54.7266V17.5781H33.3984C30.4905 17.5781 28.125 15.2126 28.125 12.3047V0H5.27344C2.36555 0 0 2.36555 0 5.27344V54.7266C0 57.6345 2.36555 60 5.27344 60ZM12.3047 24.7266H33.3984C34.37 24.7266 35.1562 25.5128 35.1562 26.4844C35.1562 27.456 34.37 28.2422 33.3984 28.2422H12.3047C11.3331 28.2422 10.5469 27.456 10.5469 26.4844C10.5469 25.5128 11.3331 24.7266 12.3047 24.7266ZM12.3047 31.7578H33.3984C34.37 31.7578 35.1562 32.544 35.1562 33.5156C35.1562 34.4872 34.37 35.2734 33.3984 35.2734H12.3047C11.3331 35.2734 10.5469 34.4872 10.5469 33.5156C10.5469 32.544 11.3331 31.7578 12.3047 31.7578ZM12.3047 38.7891H33.3984C34.37 38.7891 35.1562 39.5753 35.1562 40.5469C35.1562 41.5185 34.37 42.3047 33.3984 42.3047H12.3047C11.3331 42.3047 10.5469 41.5185 10.5469 40.5469C10.5469 39.5753 11.3331 38.7891 12.3047 38.7891ZM12.3047 45.8203H26.3672C27.3388 45.8203 28.125 46.6065 28.125 47.5781C28.125 48.5497 27.3388 49.3359 26.3672 49.3359H12.3047C11.3331 49.3359 10.5469 48.5497 10.5469 47.5781C10.5469 46.6065 11.3331 45.8203 12.3047 45.8203Z" fill="#51A747"/>
<path d="M33.3984 14.0638H44.6732L31.6406 1.03125V12.306C31.6406 13.2758 32.4286 14.0638 33.3984 14.0638Z" fill="#51A747"/>
</svg>
