<svg width="60" height="60" viewBox="0 0 60 60" fill="none" xmlns="http://www.w3.org/2000/svg">
<g clip-path="url(#clip0_1321_166423)">
<path d="M17.4325 34.2625C19.1187 34.2625 20.7485 34.1536 22.2908 33.9508V17.0462C20.7487 16.8436 19.1187 16.7347 17.4325 16.7347C7.80491 16.7347 0.000149402 20.2744 0.000149402 24.6412V26.3558C0.000149402 30.7224 7.80491 34.2625 17.4325 34.2625ZM17.4325 43.0895C19.1187 43.0895 20.7485 42.9805 22.2908 42.7781V37.823C20.7482 38.0256 19.1191 38.136 17.4325 38.136C9.02866 38.136 2.01439 35.4387 0.366782 31.8489C0.126842 32.3718 0.000149402 32.9132 0.000149402 33.4683V35.183C0.000149402 39.5497 7.80491 43.0895 17.4325 43.0895ZM22.2906 47.0355V46.6503C20.7481 46.8529 19.119 46.9633 17.4324 46.9633C9.02851 46.9633 2.01424 44.266 0.366633 40.6762C0.126693 41.1989 0 41.7404 0 42.2954V44.0101C0 48.377 7.80476 51.9167 17.4324 51.9167C19.3577 51.9167 21.2096 51.7748 22.9413 51.5134C22.512 50.6353 22.2906 49.7093 22.2906 48.75V47.0355ZM42.5676 3.34375C32.94 3.34375 25.1352 6.88353 25.1352 11.2503V12.9649C25.1352 17.3317 32.94 20.8714 42.5676 20.8714C52.1951 20.8714 60 17.3317 60 12.9649V11.2503C60 6.88353 52.1951 3.34375 42.5676 3.34375Z" fill="#51A747"/>
<path d="M42.5652 24.7442C34.1613 24.7442 27.147 22.047 25.4994 18.457C25.2595 18.9798 25.1328 19.5212 25.1328 20.0764V21.7911C25.1328 26.1578 32.9376 29.6976 42.5652 29.6976C52.1927 29.6976 59.9976 26.1578 59.9976 21.7911V20.0764C59.9976 19.5212 59.8709 18.9798 59.6309 18.457C57.9833 22.047 50.9691 24.7442 42.5652 24.7442Z" fill="#51A747"/>
<path d="M42.5652 33.5723C34.1613 33.5723 27.147 30.875 25.4994 27.2852C25.2595 27.8079 25.1328 28.3493 25.1328 28.9045V30.6192C25.1328 34.9861 32.9376 38.5259 42.5652 38.5259C52.1927 38.5259 59.9976 34.9861 59.9976 30.6192V28.9045C59.9976 28.3493 59.8709 27.8079 59.6309 27.2852C57.9833 30.8751 50.9691 33.5723 42.5652 33.5723Z" fill="#51A747"/>
<path d="M42.5652 42.877C34.1613 42.877 27.147 40.1797 25.4994 36.5898C25.2595 37.1128 25.1328 37.654 25.1328 38.2091V39.9239C25.1328 44.2906 32.9376 47.8304 42.5652 47.8304C52.1927 47.8304 59.9976 44.2906 59.9976 39.9239V38.2091C59.9976 37.654 59.8709 37.1125 59.6309 36.5898C57.9833 40.1795 50.9691 42.877 42.5652 42.877Z" fill="#51A747"/>
<path d="M42.5652 51.7012C34.1613 51.7012 27.147 49.004 25.4994 45.4142C25.2595 45.9371 25.1328 46.4787 25.1328 47.0334V48.7481C25.1328 53.1148 32.9376 56.6546 42.5652 56.6546C52.1927 56.6546 59.9976 53.1148 59.9976 48.7481V47.0333C59.9976 46.4783 59.8709 45.9367 59.6309 45.4141C57.9833 49.0039 50.9691 51.7012 42.5652 51.7012Z" fill="#51A747"/>
</g>
<defs>
<clipPath id="clip0_1321_166423">
<rect width="60" height="60" fill="white"/>
</clipPath>
</defs>
</svg>
