<svg width="60" height="60" viewBox="0 0 60 60" fill="none" xmlns="http://www.w3.org/2000/svg">
<path d="M23.875 37.0009C23.625 37.5009 23.75 38.1259 24.25 38.3759C24.5 38.6259 24.75 38.7509 25.125 38.7509C25.375 38.7509 25.5 38.7509 25.75 38.6259L33.75 34.0009L27.25 29.1259L23.875 37.0009ZM35.625 32.2509L53.125 11.5009C53.75 10.7509 54.125 9.75086 54 8.62586C53.75 6.87586 51.5 5.25086 51.5 5.25086C50 4.37586 48.125 4.12586 46.25 6.00086L28.625 27.0009L35.625 32.2509ZM7.5 38.7509V6.25086C1.75 6.25086 0 11.7509 0 13.7509V42.5009C2 39.6259 7.5 38.7509 7.5 38.7509Z" fill="#51A747"/>
<path d="M53.75 20H49.125L36.625 34.875C36.375 35.25 36 35.5 35.625 35.75L26.875 40.75C25.5 41.5 23.75 41.375 22.5 40.25C21.25 39.125 20.875 37.5 21.5 36L25.25 27.25C25.375 27 31.25 20 31.25 20H10V41.25H7.5C3.5 41.5 0.25 44.75 0 48.875C0 54.75 3.625 57.5 8.125 57.5H53.75C54.5 57.5 55 57 55 56.25V21.25C55 20.5 54.5 20 53.75 20Z" fill="#51A747"/>
</svg>
