<svg width="86" height="86" viewBox="0 0 86 86" fill="none" xmlns="http://www.w3.org/2000/svg">
<path fill-rule="evenodd" clip-rule="evenodd" d="M0.8125 23.3125C0.8125 10.8855 10.8855 0.8125 23.3125 0.8125H62.6875C75.1145 0.8125 85.1875 10.8855 85.1875 23.3125V62.6875C85.1875 75.1145 75.1145 85.1875 62.6875 85.1875H23.3125C10.8855 85.1875 0.8125 75.1145 0.8125 62.6875V23.3125ZM63.4483 30.7305C63.6837 30.4459 63.8608 30.1177 63.9695 29.7647C64.0781 29.4117 64.1161 29.0407 64.0814 28.673C64.0467 28.3053 63.9398 27.948 63.767 27.6216C63.5942 27.2951 63.3588 27.0059 63.0742 26.7705C62.7896 26.535 62.4615 26.3579 62.1084 26.2493C61.7554 26.1407 61.3845 26.1026 61.0167 26.1374C60.649 26.1721 60.2918 26.2789 59.9653 26.4517C59.6389 26.6245 59.3497 26.86 59.1142 27.1445L38.0669 52.585L26.928 38.4466C26.6993 38.1564 26.4158 37.9142 26.0936 37.7337C25.7713 37.5531 25.4167 37.4378 25.0499 37.3943C24.6831 37.3508 24.3113 37.38 23.9558 37.4802C23.6002 37.5804 23.2679 37.7497 22.9778 37.9783C22.6877 38.2069 22.4454 38.4904 22.2649 38.8127C22.0844 39.1349 21.9691 39.4896 21.9256 39.8564C21.8821 40.2232 21.9113 40.595 22.0115 40.9505C22.1117 41.306 22.2809 41.6383 22.5095 41.9284L35.8056 58.8034C36.0654 59.1331 36.3956 59.4004 36.772 59.5858C37.1485 59.7713 37.5617 59.8701 37.9813 59.8751C38.4009 59.8801 38.8164 59.7911 39.1971 59.6147C39.5779 59.4382 39.9144 59.1788 40.1819 58.8555L63.4483 30.7305Z" fill="#51A747"/>
</svg>
