<svg width="90" height="90" viewBox="0 0 90 90" fill="none" xmlns="http://www.w3.org/2000/svg">
<path d="M81.7156 0H42.1752C37.5993 0 33.8906 3.70934 33.8906 8.28439V27.761C35.9808 28.7998 38.2395 29.9232 40.3472 30.9711L43.5725 24.5181C45.5254 20.6158 50.2857 19.0303 54.1867 20.9797C58.0957 22.9361 59.6798 27.6834 57.7229 31.5933L51.9736 43.0947C52.1276 44.6211 51.9877 46.1629 51.5616 47.6367H55.3574L45.3461 75.1658C44.752 76.7985 45.9002 78.7039 47.8248 78.7039C48.9008 78.7039 49.9131 78.04 50.3016 76.9674L60.968 47.6367H62.8158L73.5905 76.9764C73.9825 78.0434 74.992 78.7039 76.0672 78.7039C77.8655 78.7039 79.1838 76.9078 78.5405 75.1588L68.4332 47.6367H81.7158C86.2907 47.6367 90 43.9274 90 39.3523V8.28457C90 3.70934 86.2907 0 81.7156 0ZM76.066 36.3407H64.2357C62.7799 36.3407 61.599 35.1598 61.599 33.7039C61.599 32.2469 62.7799 31.0672 64.2357 31.0672H76.0658C77.523 31.0672 78.7025 32.2469 78.7025 33.7039C78.7025 35.1598 77.5232 36.3407 76.066 36.3407ZM76.066 26.4551H64.2357C62.7799 26.4551 61.599 25.2756 61.599 23.8184C61.599 22.3627 62.7799 21.1816 64.2357 21.1816H76.0658C77.523 21.1816 78.7025 22.3627 78.7025 23.8184C78.7025 25.2756 77.5232 26.4551 76.066 26.4551ZM76.066 16.5709H47.8248C46.3676 16.5709 45.1881 15.3896 45.1881 13.9342C45.1881 12.4787 46.3676 11.2975 47.8248 11.2975H76.0658C77.5229 11.2975 78.7025 12.4784 78.7025 13.9342C78.7025 15.39 77.523 16.5709 76.066 16.5709Z" fill="#51A747"/>
<path d="M46.3925 46.5057C46.8689 45.1099 46.8656 43.6514 46.4632 42.3207L53.007 29.2345C53.6579 27.932 53.1306 26.348 51.828 25.6969C50.5262 25.0453 48.9421 25.5734 48.2904 26.8761L42.7094 38.0368C39.3736 36.3756 34.3055 33.8558 30.2228 31.8254C26.4241 29.9364 23.7132 28.2424 19.0881 28.2424H16.7583C20.3597 28.2424 23.5738 26.5848 25.6778 23.9906C27.2832 22.0166 28.2431 19.5006 28.2431 16.759C28.2431 10.415 23.1015 5.27344 16.7569 5.27344C10.415 5.27344 5.27344 10.415 5.27344 16.759C5.27344 19.8056 6.45996 22.5742 8.39566 24.6287C10.4885 26.8541 13.461 28.2424 16.7562 28.2431C12.3383 28.2431 8.01932 30.0331 4.91221 33.1485C1.74463 36.3078 0 40.5169 0 45.0007V53.4734C0 57.1208 2.3683 60.2242 5.64838 61.3285V76.0665C5.64838 77.523 6.82875 78.7032 8.2851 78.7032H25.2301C26.6864 78.7032 27.8668 77.523 27.8668 76.0665V46.4414C30.3669 47.6912 33.6512 49.333 36.3085 50.6623C38.1712 51.5934 40.3479 51.677 42.2891 50.8874C44.2248 50.091 45.7168 48.5056 46.3822 46.5369L46.3925 46.5057Z" fill="#51A747"/>
</svg>
