<svg width="120" height="119" viewBox="0 0 120 119" fill="none" xmlns="http://www.w3.org/2000/svg">
<path d="M44.8407 6.24878C53.234 -2.08293 66.766 -2.08293 75.1593 6.24878L78.5563 9.62082L83.3233 9.22399C95.1017 8.24349 105.468 16.9526 106.549 28.7371L106.986 33.5065L110.893 36.2706C120.545 43.1001 122.895 56.4433 116.157 66.1663L113.431 70.1015L114.649 74.7331C117.658 86.177 110.892 97.9108 99.4895 101.023L94.8744 102.283L92.8341 106.615C87.793 117.318 75.0771 121.952 64.344 116.997L60 114.992L55.656 116.997C44.9229 121.952 32.207 117.318 27.1659 106.615L25.1256 102.283L20.5105 101.023C9.10752 97.9108 2.34156 86.177 5.35124 74.7331L6.56933 70.1015L3.8426 66.1663C-2.89467 56.4433 -0.544876 43.1001 9.10737 36.2706L13.0139 33.5065L13.4513 28.7371C14.5323 16.9527 24.8983 8.24349 36.6767 9.22399L41.4437 9.62082L44.8407 6.24878Z" fill="#51A747"/>
<path d="M40.6797 79.6059L56.9509 94.5754L82.3746 71.1855" stroke="white" stroke-width="2" stroke-linecap="round" stroke-linejoin="round"/>
<g clip-path="url(#clip0_1398_313226)">
<path fill-rule="evenodd" clip-rule="evenodd" d="M61.1752 33.9941L56.3047 35.7482V39.0421L61.1409 37.4674L61.1948 37.6368L61.1752 33.9941ZM56.3047 39.4208V42.4107L61.1556 41.1251L61.1948 41.2945V37.8262L56.3047 39.4208ZM56.3047 42.7695V45.7594L61.1605 44.7628L61.1948 44.9372V41.4689L56.3047 42.7695ZM56.3047 46.1332V49.1231L61.1654 48.4005L61.1948 48.5799V45.0917L56.3047 46.1332ZM56.3047 49.4818V52.4717L61.1801 52.0382V52.2226V48.7543L56.3047 49.4818ZM56.3047 52.8405V55.8304L61.2046 55.6859V55.8703V52.3821L56.3047 52.8405ZM56.3047 56.1892V59.1791L61.2046 59.3286V56.0447L56.3047 56.1892ZM56.3047 59.5479V62.5378L61.2046 62.9763V59.4881V59.6724L56.3047 59.5479ZM56.3047 62.8965V66.0658L61.2046 66.7236V63.1457V63.3251L56.3047 62.8965Z" fill="white"/>
<path d="M60.8907 66.0649V66.7227L58.4407 66.3938C57.6274 66.2842 56.8091 66.1795 55.9908 66.0649H60.8907ZM55.7654 57.8526C55.7427 57.8484 55.7195 57.8484 55.6968 57.8526H49.2143C49.0281 57.8526 48.935 57.9822 48.935 58.2363V65.0085L44.0547 64.276V40.4813L48.9546 38.5977V51.3346C48.9546 51.5888 49.0477 51.7034 49.2339 51.6835C50.3069 51.5689 51.3947 51.4443 52.4727 51.3197C53.5507 51.1951 54.6335 51.0805 55.7164 50.9559H55.785L55.7654 57.8526Z" fill="white"/>
<path d="M69.8433 51.4592L79.0012 64.1464L73.3712 64.9835L67.1777 55.8793C67.0895 55.7597 67.0013 55.7148 66.8984 55.7447V46.2219L67.1777 46.182L73.3467 38.4531L78.7905 40.551L69.8433 51.4592Z" fill="white"/>
<path fill-rule="evenodd" clip-rule="evenodd" d="M61.5547 33.9941L66.4546 35.7482V39.0421L61.6184 37.4674L61.5645 37.6368L61.5547 33.9941ZM66.4546 39.4208V42.4107L61.6037 41.1251L61.5645 41.2945V37.8262L66.4546 39.4208ZM66.4546 42.7695V45.7594L61.5988 44.7628L61.5645 44.9372V41.4689L66.4546 42.7695ZM66.4546 46.1232V49.1131L61.5841 48.3905V48.5699V45.0817L66.4546 46.1232ZM66.4546 49.4719V52.4618L61.5547 52.0282V52.2126V48.7543L66.4546 49.4719ZM66.4546 52.8305V55.8204L61.5547 55.6759V52.397L66.4546 52.8305ZM66.4546 56.1792V59.1691L61.5547 59.3186V56.0447L66.4546 56.1792ZM66.4546 59.5379V62.5278L61.5547 62.9663V59.6874L66.4546 59.5379ZM66.4546 62.8866V66.0658L61.5547 66.7236V63.1457V63.3251L66.4546 62.8866Z" fill="white"/>
<path d="M48.7813 27.1964H48.8401C48.4807 26.4788 48.2943 25.6846 48.2962 24.8792C48.2867 23.6745 48.6913 22.5042 49.4402 21.5707C50.1891 20.6372 51.2351 19.9992 52.3975 19.7669C53.5599 19.5346 54.7656 19.7227 55.8061 20.2986C56.8467 20.8745 57.6566 21.802 58.096 22.9208C58.3982 22.0819 58.9456 21.3572 59.6648 20.8441C60.3839 20.3309 61.2403 20.054 62.1188 20.0505C63.1986 20.0479 64.2379 20.4685 65.0208 21.2248C65.8037 21.981 66.27 23.015 66.3229 24.1118C66.3229 24.1417 66.3229 24.1766 66.3229 24.2015V24.3311C66.3233 24.841 66.2354 25.3471 66.0632 25.826C65.9351 26.3687 65.6964 26.878 65.3625 27.321C66.2836 26.9337 67.2563 26.6885 68.2486 26.5934L68.8757 26.5336L69.302 26.5037H69.792H69.9488L70.2575 26.5386H70.38C70.4125 26.5334 70.4455 26.5334 70.478 26.5386C70.9673 26.6219 71.4435 26.7711 71.8941 26.9821C72.9152 27.4459 73.7824 28.2004 74.3911 29.1546C74.9997 30.1087 75.3237 31.2216 75.324 32.359C75.324 33.9344 74.7096 35.4455 73.6156 36.5609C72.5216 37.6763 71.0373 38.3049 69.4882 38.3089C69.1087 38.3191 68.7292 38.2873 68.3564 38.2142C68.6451 38.141 68.927 38.0426 69.1991 37.9202C72.6291 36.5299 73.5012 34.6861 73.5012 32.4387C73.4954 31.2025 73.0428 30.0117 72.2296 29.0928C71.4165 28.174 70.2995 27.5912 69.0913 27.4555C68.5806 27.4529 68.0701 27.4812 67.5626 27.5402C67.1215 27.5861 66.6843 27.6643 66.2543 27.7745C64.5932 28.198 63.4026 28.7711 63.2164 28.7262C63.6196 28.418 64.0042 28.0851 64.3679 27.7296C64.4365 27.6499 64.505 27.5602 64.5785 27.4555C64.6412 27.38 64.6985 27.3001 64.75 27.2163C64.8691 27.0115 64.9739 26.7983 65.0636 26.5785C65.0785 26.55 65.09 26.5199 65.0979 26.4888C65.2912 25.9001 65.34 25.2722 65.24 24.66C65.24 24.5503 65.2008 24.4507 65.1714 24.341C65.1714 24.341 65.1714 24.3111 65.1714 24.3062C64.9713 23.5246 64.5224 22.8324 63.8949 22.3376C63.2674 21.8427 62.4964 21.5729 61.7023 21.5704C61.0085 21.5666 60.3275 21.7595 59.7355 22.1275C59.1435 22.4954 58.664 23.0238 58.3508 23.6534C58.1225 24.1175 58.0034 24.6293 58.0029 25.1483C58.0029 25.2679 58.0029 25.4672 58.0029 25.5868C58.0029 25.5171 57.9637 25.4473 57.949 25.3775V25.3526C57.9391 25.2556 57.9244 25.1591 57.9049 25.0636C57.764 24.4845 57.5123 23.9392 57.1642 23.459C56.8161 22.9788 56.3783 22.573 55.876 22.2648C55.3737 21.9566 54.8166 21.7521 54.2366 21.6629C53.6565 21.5737 53.0649 21.6015 52.4954 21.7448C51.926 21.8881 51.3898 22.1441 50.9176 22.4981C50.4455 22.8522 50.0465 23.2973 49.7434 23.8082C49.4404 24.319 49.2393 24.8856 49.1515 25.4755C49.0638 26.0654 49.0912 26.6671 49.2321 27.2462C49.2811 27.3957 49.3399 27.5402 49.3938 27.6848C49.3335 27.6796 49.2728 27.6796 49.2125 27.6848H49.0949C48.5703 27.707 48.0636 27.8849 47.6373 28.1965C47.2109 28.5081 46.8835 28.9397 46.6955 29.4382C46.5074 29.9368 46.4669 30.4804 46.579 31.002C46.691 31.5237 46.9507 32.0006 47.3261 32.3739L47.4534 32.4985V32.6081V32.6679V32.6978V32.7726V33.1762V33.2211V33.246C47.4534 33.3157 47.4534 33.3805 47.4534 33.4553C47.4547 34.4549 47.8461 35.4131 48.5416 36.1194C49.2371 36.8258 50.1798 37.2225 51.1627 37.2225C51.4749 37.225 51.7862 37.1865 52.0887 37.1079H52.1671C52.1641 37.0999 52.1641 37.091 52.1671 37.083V37.1179V37.1428C52.1817 37.2113 52.203 37.2781 52.2308 37.3421C52.3622 37.646 52.5797 37.9031 52.8555 38.0806C53.1313 38.2582 53.4529 38.348 53.7792 38.3388C53.8829 38.3414 53.9865 38.3314 54.0879 38.3089C54.3373 38.3573 54.5945 38.3436 54.8376 38.269C54.967 38.1666 55.0795 38.0438 55.1708 37.9052C55.1545 38.1243 55.0909 38.3369 54.9846 38.5281C54.7805 38.8879 54.4494 39.1552 54.0585 39.2756C53.8845 39.3336 53.7026 39.3639 53.5195 39.3653C53.1003 39.3829 52.6912 39.2316 52.3811 38.9442C52.071 38.6568 51.8849 38.2566 51.8633 37.8305C51.8633 37.8305 51.8633 37.8006 51.8633 37.7956C51.4457 37.9511 51.0047 38.032 50.56 38.0348C49.5762 38.0348 48.6328 37.6374 47.9372 36.9299C47.2416 36.2225 46.8508 35.263 46.8508 34.2625C46.8498 33.8299 46.921 33.4002 47.0615 32.9918C46.9831 32.937 46.8802 32.8673 46.6597 32.6978C46.0541 32.081 45.7035 31.252 45.6797 30.3807C45.6784 29.5409 46.0038 28.7347 46.5849 28.1381C47.166 27.5415 47.9556 27.203 48.7813 27.1964Z" fill="white"/>
<path d="M55.9991 31.5768C56.0236 31.5369 56.0285 31.512 55.9991 31.4771C55.9629 31.4766 55.9271 31.4683 55.8942 31.4528C55.8613 31.4374 55.832 31.4151 55.808 31.3874C55.7443 31.3077 55.808 31.2329 55.857 31.1781C55.8852 31.1551 55.9057 31.1237 55.9158 31.0884C55.9158 31.0236 55.8864 31.0137 55.857 30.9738C55.8276 30.9339 55.7688 30.8393 55.8276 30.7795C55.8864 30.7197 55.9942 30.7795 56.0775 30.7795C56.1608 30.7795 56.1755 30.7795 56.2049 30.7296C56.2343 30.6798 56.2049 30.6649 56.2735 30.6499C56.3421 30.635 56.3715 30.7296 56.4352 30.7695C56.4989 30.8094 56.543 30.6649 56.592 30.6399C56.8027 30.5303 56.8272 30.8143 56.9203 30.929C56.9448 30.9638 56.984 30.9838 57.0134 30.929C57.0428 30.8741 57.0134 30.8442 57.0134 30.8044C57.0134 30.7645 57.1702 30.8044 57.2094 30.8692C57.2657 30.9376 57.303 31.0202 57.3172 31.1084C57.3357 31.1957 57.3671 31.2797 57.4103 31.3575C57.4544 31.4273 57.5426 31.4721 57.5524 31.3575C57.5622 31.2429 57.5524 31.2628 57.6014 31.2529C57.6215 31.2486 57.6424 31.2495 57.6621 31.2556C57.6818 31.2617 57.6997 31.2728 57.7141 31.2878C57.8513 31.4123 57.7925 31.6166 57.8513 31.7861C57.9101 31.9555 57.9297 31.9555 57.9738 31.8309C57.9738 31.796 58.0032 31.7661 58.0473 31.7811C58.0914 31.796 58.1012 31.8459 58.1061 31.8907C58.111 31.9356 58.1061 32.0003 58.1061 32.0502C58.12 32.1108 58.1414 32.1694 58.1698 32.2246C57.8238 32.1806 57.4904 32.0653 57.1898 31.8857C56.8781 31.7006 56.5858 31.4836 56.3176 31.2379C56.5544 31.5412 56.8392 31.8022 57.1604 32.0103C57.5457 32.2111 57.9474 32.3779 58.3609 32.5086C58.317 32.5669 58.264 32.6174 58.2041 32.6581C58.1326 32.7107 58.0531 32.7511 57.9689 32.7777C57.8856 32.8026 57.572 32.8973 57.5328 32.7428C57.5328 32.7129 57.5622 32.683 57.5573 32.6482C57.5524 32.6133 57.5132 32.6033 57.474 32.6033C57.3916 32.6117 57.3098 32.625 57.229 32.6432C57.1438 32.6655 57.0545 32.6655 56.9693 32.6432C56.8762 32.6083 56.8566 32.5585 56.935 32.4887C57.0134 32.4189 57.1016 32.3641 57.0232 32.3143C56.9448 32.2645 56.935 32.3143 56.9007 32.3143H56.7831C56.6988 32.3293 56.6126 32.3293 56.5283 32.3143C56.4891 32.3143 56.4303 32.3143 56.4107 32.2645C56.3911 32.2146 56.4107 32.1997 56.4107 32.1648C56.5038 31.9505 56.1951 31.9854 56.0775 31.9505C56.0368 31.9414 55.9985 31.9238 55.9647 31.899C55.931 31.8741 55.9027 31.8425 55.8815 31.806C55.8668 31.6814 55.9599 31.6814 55.9991 31.5768Z" fill="white"/>
<path d="M60.3926 29.7516C60.5102 29.9559 60.2358 30.0007 60.128 30.1004C60.0986 30.1303 60.079 30.1701 60.128 30.1951C60.177 30.22 60.2113 30.1951 60.2505 30.1951C60.2897 30.1951 60.2505 30.3545 60.2015 30.3994C60.1381 30.4626 60.0582 30.5059 59.9712 30.524C59.8868 30.5519 59.8062 30.5904 59.7311 30.6386C59.6674 30.6834 59.6282 30.7781 59.7311 30.7831C59.834 30.7881 59.8193 30.7831 59.834 30.8229C59.8434 30.8414 59.8484 30.8619 59.8484 30.8827C59.8484 30.9036 59.8434 30.9241 59.834 30.9425C59.7164 31.092 59.5155 31.0422 59.344 31.112C59.1725 31.1817 59.1823 31.2017 59.3048 31.2415C59.3391 31.2415 59.3734 31.2664 59.3587 31.3163C59.344 31.3661 59.2999 31.3711 59.2558 31.3761C59.2117 31.3811 59.148 31.3761 59.099 31.3761C59.0406 31.3937 58.9846 31.4188 58.9324 31.4508C58.9559 31.1036 59.0476 30.7648 59.2019 30.4542C59.3608 30.1247 59.5547 29.8139 59.7801 29.5273C59.4958 29.7865 59.2572 30.0933 59.0745 30.4343C58.9119 30.8379 58.7824 31.2546 58.6874 31.68C58.6291 31.6372 58.5764 31.5869 58.5306 31.5306C58.4755 31.4613 58.4309 31.384 58.3983 31.3013C58.3689 31.2116 58.2562 30.9027 58.3983 30.8528C58.4277 30.8528 58.4571 30.8778 58.4914 30.8528C58.5257 30.8279 58.5355 30.803 58.5306 30.7681C58.5179 30.684 58.4999 30.6008 58.4767 30.519C58.4468 30.4344 58.4384 30.3436 58.4522 30.2549C58.4816 30.1552 58.5306 30.1353 58.5992 30.21C58.6678 30.2848 58.7364 30.3745 58.7805 30.2848C58.8246 30.1951 58.7805 30.2 58.7805 30.1652C58.7782 30.1253 58.7782 30.0854 58.7805 30.0456C58.7634 29.9584 58.7634 29.8686 58.7805 29.7815C58.7805 29.7466 58.7805 29.6868 58.8246 29.6619C58.8687 29.6369 58.8834 29.6619 58.9226 29.6619C59.1382 29.7416 59.0843 29.4326 59.1088 29.313C59.1153 29.27 59.1304 29.2288 59.1532 29.192C59.1759 29.1551 59.2059 29.1234 59.2411 29.0988C59.3391 29.034 59.3685 29.0988 59.4518 29.1635C59.5351 29.2283 59.5204 29.1885 59.5498 29.1635C59.5478 29.1265 59.5538 29.0895 59.5673 29.055C59.5808 29.0206 59.6016 28.9896 59.6282 28.9642C59.7017 28.8945 59.7752 28.9642 59.834 28.9991C59.8569 29.0264 59.8878 29.0456 59.9222 29.0539C59.9908 29.0539 60.0006 29.019 60.0349 28.9842C60.0692 28.9493 60.1623 28.8845 60.2211 28.9443C60.2799 29.0041 60.2505 29.1087 60.2554 29.1984C60.2603 29.2881 60.2554 29.2981 60.3093 29.323C60.3632 29.3479 60.3779 29.323 60.3975 29.3828C60.4171 29.4426 60.324 29.4924 60.2897 29.5572C60.2554 29.622 60.3632 29.6868 60.3926 29.7516Z" fill="white"/>
<path d="M56.9813 25.109C57.1332 25.3333 56.8196 25.4031 56.702 25.5227C56.6726 25.5575 56.6481 25.6024 56.702 25.6323C56.7559 25.6622 56.7951 25.6323 56.8392 25.6323C56.8833 25.6323 56.8392 25.8167 56.7951 25.8665C56.726 25.9399 56.6402 25.9947 56.5452 26.026C56.4487 26.0601 56.3579 26.1088 56.2757 26.1705C56.2071 26.2253 56.1679 26.3349 56.2757 26.3299C56.3247 26.3299 56.3737 26.3299 56.3982 26.3698C56.4089 26.3914 56.4145 26.4153 56.4145 26.4396C56.4145 26.4638 56.4089 26.4877 56.3982 26.5093C56.2757 26.6837 56.0405 26.6439 55.8788 26.7336C55.7955 26.7784 55.6975 26.8482 55.8445 26.8781C55.8837 26.8781 55.9229 26.903 55.9082 26.9628C55.8935 27.0226 55.8445 27.0276 55.7955 27.0375C55.7465 27.0475 55.673 27.0375 55.6191 27.0674C55.5532 27.0926 55.4906 27.1261 55.4329 27.1671C55.4351 26.767 55.5185 26.3718 55.6779 26.006C55.8467 25.6167 56.057 25.2474 56.3051 24.9047C55.9977 25.2202 55.7443 25.5857 55.5554 25.9861C55.3885 26.4591 55.2622 26.946 55.1781 27.4412C55.1088 27.3954 55.0462 27.34 54.9919 27.2767C54.9231 27.2018 54.8669 27.116 54.8253 27.0226C54.7861 26.9279 54.6391 26.5791 54.8008 26.5243C54.8351 26.5243 54.8743 26.5243 54.9086 26.5243C54.9429 26.5243 54.9576 26.4645 54.9527 26.4246C54.9478 26.3847 54.8939 26.2352 54.8694 26.1406C54.8345 26.0469 54.8211 25.9463 54.8302 25.8466C54.8302 25.727 54.9086 25.707 54.9968 25.7818C55.085 25.8565 55.1634 25.9612 55.2026 25.8615C55.2418 25.7618 55.2026 25.7618 55.1781 25.722C55.1644 25.6778 55.1529 25.6329 55.1438 25.5874C55.1243 25.4888 55.1243 25.3871 55.1438 25.2884C55.1438 25.2436 55.1438 25.1788 55.183 25.1489C55.2222 25.119 55.2516 25.1489 55.2957 25.1489C55.5456 25.2286 55.4672 24.8798 55.4868 24.7403C55.4898 24.6909 55.5037 24.6429 55.5274 24.5998C55.5512 24.5566 55.5842 24.5195 55.624 24.4911C55.7318 24.4114 55.7759 24.4911 55.869 24.5509C55.9621 24.6107 55.9474 24.5758 55.9817 24.5509C55.9773 24.5096 55.9816 24.4678 55.9943 24.4283C56.0069 24.3888 56.0277 24.3525 56.0552 24.3217C56.1385 24.237 56.2267 24.2918 56.2953 24.3466C56.326 24.375 56.363 24.3955 56.4031 24.4064C56.4766 24.4064 56.4864 24.3616 56.5256 24.3217C56.5648 24.2818 56.6628 24.1971 56.7363 24.2619C56.8098 24.3267 56.7804 24.4463 56.7902 24.546C56.8 24.6456 56.7902 24.6606 56.8588 24.6855C56.9274 24.7104 56.9372 24.6855 56.9617 24.7503C56.9862 24.815 56.8882 24.8798 56.849 24.9546C56.8098 25.0293 56.947 25.0493 56.9813 25.109Z" fill="white"/>
<path d="M54.4408 28.5717C54.4751 28.5418 54.5094 28.5169 54.5486 28.5717C54.5878 28.6265 54.5486 28.6664 54.5486 28.7162C54.5195 28.7695 54.4933 28.8244 54.4702 28.8806C54.4605 28.9501 54.4605 29.0205 54.4702 29.0899C54.1431 28.8652 53.866 28.5732 53.6568 28.2328C53.4306 27.8811 53.2433 27.5051 53.0982 27.1116C53.1814 27.5472 53.3372 27.9652 53.5588 28.3474C53.8535 28.7519 54.1814 29.1303 54.5388 29.4786C54.4644 29.5132 54.3849 29.5351 54.3036 29.5434C54.2047 29.5609 54.1036 29.5609 54.0047 29.5434C53.9018 29.5434 53.5147 29.4537 53.5735 29.2793C53.5735 29.2444 53.6323 29.2344 53.647 29.1946C53.6617 29.1547 53.647 29.1248 53.5882 29.1049C53.4985 29.0698 53.4068 29.0398 53.3138 29.0152C53.2168 28.9937 53.1262 28.9493 53.0492 28.8856C52.9708 28.7959 52.9806 28.7361 53.0933 28.7112C53.206 28.6863 53.3285 28.6664 53.2697 28.5767C53.2109 28.487 53.1815 28.5318 53.1423 28.5219C53.098 28.5105 53.0553 28.4937 53.0149 28.472C52.9217 28.4394 52.8364 28.3867 52.765 28.3175C52.7307 28.2876 52.6768 28.2528 52.6719 28.2079C52.667 28.1631 52.7013 28.1381 52.7356 28.1132C52.9414 27.9438 52.6082 27.8192 52.5102 27.7196C52.4718 27.6894 52.4405 27.651 52.4185 27.607C52.3965 27.5631 52.3843 27.5147 52.3828 27.4654C52.3828 27.3309 52.4857 27.3508 52.569 27.291C52.6523 27.2312 52.6327 27.2412 52.618 27.1864C52.5807 27.1667 52.5478 27.1392 52.5217 27.1057C52.4955 27.0722 52.4766 27.0335 52.4661 26.992C52.4661 26.8774 52.5396 26.8375 52.6229 26.8076C52.6639 26.799 52.7014 26.7782 52.7307 26.7478C52.7797 26.693 52.7307 26.6581 52.7307 26.5983C52.7307 26.5385 52.7307 26.414 52.7993 26.3891C52.8679 26.3641 52.9757 26.4538 53.0639 26.5037C53.0859 26.5203 53.1125 26.5292 53.1398 26.5292C53.1672 26.5292 53.1938 26.5203 53.2158 26.5037C53.2599 26.5037 53.2697 26.4489 53.3236 26.4588C53.3775 26.4688 53.3873 26.5934 53.4314 26.6681C53.4755 26.7429 53.5931 26.6183 53.6568 26.6183C53.9263 26.6183 53.8087 26.9223 53.843 27.0867C53.843 27.1315 53.8773 27.1764 53.9312 27.1415C53.9851 27.1066 53.9655 27.0518 54.0096 27.0269C54.0537 27.002 54.1566 27.1315 54.1762 27.1963C54.2006 27.2944 54.2006 27.3972 54.1762 27.4953C54.1503 27.5944 54.1387 27.6968 54.1419 27.7993C54.1419 27.889 54.2203 27.9887 54.284 27.879C54.3477 27.7694 54.3281 27.7843 54.3869 27.7943C54.4094 27.8025 54.4299 27.8157 54.4469 27.8329C54.4638 27.8502 54.4768 27.871 54.4849 27.894C54.5633 28.0983 54.3967 28.2677 54.3771 28.4571C54.3477 28.5567 54.3477 28.6913 54.4408 28.5717Z" fill="white"/>
<path d="M57.3652 27.4407C57.5024 27.4407 57.473 27.5453 57.5269 27.635C57.5808 27.7247 57.5759 27.7048 57.6298 27.6898C57.6513 27.6541 57.6798 27.6233 57.7135 27.5993C57.7472 27.5753 57.7855 27.5586 57.8258 27.5503C57.9385 27.5503 57.9777 27.6301 58.0022 27.7197C58.0074 27.7605 58.0244 27.7987 58.0512 27.8294C58.1051 27.8842 58.1443 27.8294 58.1982 27.8294C58.2521 27.8294 58.3795 27.8294 58.404 27.9091C58.4285 27.9888 58.3305 28.0885 58.2766 28.1732C58.2227 28.2579 58.2227 28.2729 58.2521 28.3277C58.2815 28.3825 58.306 28.3825 58.2913 28.4423C58.2766 28.5021 58.159 28.4971 58.0806 28.537C58.0022 28.5769 58.1198 28.7014 58.1149 28.7712C58.1149 29.0403 57.8111 28.9057 57.6249 28.9307C57.5808 28.9307 57.5367 28.9606 57.5661 29.0204C57.5955 29.0802 57.6543 29.0602 57.6788 29.1051C57.7033 29.1499 57.5661 29.2496 57.5024 29.2645C57.4039 29.2813 57.3029 29.2728 57.2084 29.2396C57.1119 29.2077 57.0111 29.1909 56.9095 29.1898C56.8213 29.1898 56.7234 29.2546 56.8262 29.3293C56.9291 29.4041 56.9193 29.3791 56.8997 29.4389C56.8908 29.4608 56.8775 29.4805 56.8606 29.4968C56.8437 29.5132 56.8237 29.5257 56.8017 29.5336C56.6009 29.5984 56.4392 29.419 56.253 29.3941C56.1599 29.3941 56.0423 29.3941 56.1354 29.4888C56.1648 29.5187 56.1844 29.5536 56.1354 29.5934C56.0864 29.6333 56.0472 29.5934 55.9982 29.5934C55.9492 29.5934 55.8953 29.5286 55.8414 29.5087C55.7747 29.4874 55.7054 29.4757 55.6356 29.4738C55.8813 29.1521 56.1899 28.8857 56.5421 28.6915C56.9018 28.4833 57.283 28.3161 57.6788 28.1931C57.2465 28.2542 56.8274 28.389 56.4392 28.5918C56.026 28.8675 55.6359 29.1775 55.273 29.5187C55.2444 29.4421 55.2278 29.3613 55.224 29.2795C55.2066 29.1789 55.2066 29.0761 55.224 28.9755C55.2485 28.8709 55.3367 28.5021 55.5033 28.5519C55.5376 28.5519 55.5474 28.6167 55.5817 28.6317C55.616 28.6466 55.6552 28.6317 55.6748 28.5769C55.6944 28.522 55.7434 28.3875 55.7777 28.3028C55.8042 28.2047 55.8528 28.1142 55.9198 28.0387C56.008 27.9639 56.0668 27.9789 56.0913 28.0935C56.1158 28.2081 56.1207 28.3377 56.2089 28.2828C56.2971 28.228 56.2579 28.1931 56.2677 28.1533C56.2843 28.1104 56.3039 28.0687 56.3265 28.0287C56.3639 27.9345 56.4207 27.8496 56.4931 27.7795C56.5225 27.7496 56.5617 27.6948 56.6058 27.6898C56.6499 27.6849 56.6695 27.7247 56.694 27.7646C56.8507 27.9839 56.9928 27.65 57.0908 27.5553C57.1243 27.5153 57.1666 27.4841 57.2144 27.4641C57.2621 27.4442 57.3138 27.4361 57.3652 27.4407Z" fill="white"/>
<path d="M55.0312 32.6783C55.0611 32.7551 55.0809 32.8355 55.09 32.9175C55.1073 33.0181 55.1073 33.1209 55.09 33.2215C55.09 33.3262 54.9871 33.6949 54.8156 33.6501C54.7813 33.6501 54.7715 33.5853 54.7372 33.5703C54.7029 33.5554 54.6637 33.5703 54.6441 33.6301C54.6066 33.7191 54.5755 33.8107 54.551 33.9042C54.5263 34.0035 54.4794 34.0956 54.4138 34.1733C54.3207 34.248 54.2668 34.2331 54.2423 34.1235C54.2178 34.0138 54.208 33.8793 54.1149 33.9341C54.0218 33.9889 54.0708 34.0238 54.061 34.0637C54.046 34.1065 54.028 34.1481 54.0071 34.1882C53.9685 34.282 53.9137 34.3681 53.8454 34.4424C53.816 34.4723 53.7768 34.5271 53.7327 34.5321C53.6886 34.5371 53.669 34.4972 53.6396 34.4623C53.4828 34.248 53.3456 34.5819 53.2476 34.6766C53.217 34.7154 53.1782 34.7467 53.1341 34.7682C53.09 34.7898 53.0418 34.801 52.9929 34.8012C52.8606 34.8012 52.8851 34.6915 52.8312 34.6018C52.7773 34.5122 52.7822 34.5371 52.7283 34.552C52.7071 34.5885 52.6787 34.6201 52.645 34.645C52.6113 34.6698 52.5729 34.6874 52.5323 34.6965C52.4196 34.6965 52.3804 34.6168 52.3559 34.5271C52.347 34.4866 52.3285 34.449 52.302 34.4175C52.2481 34.3676 52.2089 34.4175 52.155 34.4175C52.1011 34.4175 51.9737 34.4175 51.9492 34.3377C51.9247 34.258 52.0227 34.1583 52.0717 34.0736C52.1207 33.9889 52.1256 33.974 52.0962 33.9192C52.0668 33.8643 52.0374 33.8643 52.0521 33.8045C52.0668 33.7447 52.1844 33.7497 52.2579 33.7049C52.3314 33.66 52.2187 33.5404 52.2187 33.4707C52.2187 33.2016 52.5225 33.3311 52.7087 33.3012C52.7528 33.3012 52.7969 33.2713 52.7626 33.2115C52.7283 33.1517 52.6793 33.1767 52.6548 33.1318C52.6303 33.087 52.7626 32.9823 52.8263 32.9674C52.9224 32.9402 53.0241 32.9402 53.1203 32.9674C53.217 32.9979 53.3178 33.0131 53.4191 33.0122C53.5073 33.0122 53.6053 32.9425 53.4975 32.8677C53.3897 32.793 53.4093 32.8229 53.424 32.7631C53.4314 32.7397 53.4442 32.7185 53.4612 32.7012C53.4783 32.6839 53.4991 32.6709 53.522 32.6634C53.7229 32.5936 53.8846 32.773 54.0708 32.7979C54.1688 32.7979 54.2815 32.7979 54.1835 32.6983C54.0855 32.5986 54.1345 32.6285 54.1835 32.5936C54.2325 32.5587 54.2766 32.5936 54.3207 32.5936C54.3648 32.5936 54.4236 32.6534 54.4824 32.6734C54.5492 32.6934 54.6186 32.7035 54.6882 32.7033C54.4557 33.0283 54.1585 33.3 53.816 33.5006C53.4629 33.7193 53.0865 33.8965 52.694 34.0288C53.1251 33.959 53.5412 33.814 53.9238 33.6002C54.3189 33.3266 54.6894 33.0181 55.0312 32.6783Z" fill="white"/>
<path d="M50.4852 30.2954C50.4852 30.2206 50.5685 30.2107 50.6322 30.2156C50.6959 30.2206 50.7057 30.2406 50.74 30.2156C50.7575 30.1909 50.7677 30.1614 50.7694 30.1309C50.7694 30.0612 50.7988 29.9914 50.8821 29.9914C50.9125 29.994 50.9421 30.0028 50.969 30.0174C50.996 30.032 51.0197 30.0519 51.0389 30.0761C51.0781 30.0761 51.0928 30.0761 51.1075 30.0263C51.1222 29.9764 51.1075 29.8818 51.2104 29.8668C51.2825 29.859 51.3547 29.8805 51.4112 29.9266C51.4896 29.9914 51.6219 30.2206 51.7199 30.0462C51.7199 30.0163 51.7199 29.9914 51.7787 29.9864C51.8375 29.9814 51.8473 30.0263 51.8718 30.0412C51.9282 30.0892 51.9762 30.1465 52.0139 30.2107C52.0347 30.2387 52.0528 30.2687 52.0678 30.3004C52.0678 30.3303 52.0678 30.3751 52.1217 30.3851C52.1756 30.395 52.1903 30.2804 52.1952 30.2356C52.2001 30.1907 52.2442 30.1359 52.3128 30.1857C52.3689 30.2342 52.4126 30.2958 52.4402 30.3651C52.4745 30.4249 52.499 30.4997 52.5382 30.5595C52.5774 30.6193 52.5823 30.6093 52.6117 30.5894C52.6411 30.5694 52.6411 30.5346 52.6656 30.5246C52.7832 30.4748 52.8812 30.7389 52.9057 30.8136C52.933 30.8835 52.9479 30.9577 52.9498 31.0329C52.9581 31.0941 52.9581 31.1561 52.9498 31.2173C52.6542 30.9969 52.3412 30.8019 52.0139 30.6342C51.7096 30.5186 51.3882 30.4563 51.0634 30.4499C51.3663 30.5056 51.6622 30.5959 51.9453 30.7189C52.2147 30.8337 52.4582 31.0033 52.6607 31.2173C52.6097 31.2243 52.5601 31.2394 52.5137 31.2621C52.4745 31.2621 52.4402 31.3169 52.401 31.3369C52.3618 31.3568 52.3373 31.3817 52.303 31.3369C52.2687 31.292 52.2785 31.287 52.303 31.2571C52.3275 31.2272 52.2785 31.1774 52.2099 31.1973C52.1413 31.2173 51.9698 31.3817 51.8179 31.3518C51.8003 31.3476 51.7838 31.3397 51.7694 31.3285C51.7551 31.3174 51.7432 31.3032 51.7346 31.287C51.7346 31.2472 51.7346 31.2272 51.7787 31.2023C51.8228 31.1774 51.7787 31.0977 51.7052 31.1076C51.6307 31.1159 51.558 31.1361 51.4896 31.1674C51.4247 31.2016 51.3519 31.2171 51.279 31.2123C51.23 31.2123 51.1075 31.1824 51.132 31.1076C51.1565 31.0329 51.1957 31.0727 51.2104 31.0379C51.2251 31.003 51.2104 30.9831 51.1565 30.9781C51.034 30.9781 50.8282 31.0977 50.7939 30.9033C50.7939 30.8535 50.8478 30.7439 50.7939 30.7239C50.74 30.704 50.6567 30.7588 50.6273 30.6741C50.5979 30.5894 50.6273 30.6243 50.6273 30.5844C50.6273 30.5445 50.6273 30.5146 50.593 30.4748C50.5587 30.4349 50.4754 30.3851 50.4852 30.2954Z" fill="white"/>
<path d="M58.4232 33.1114C58.4232 33.0217 58.4575 32.927 58.4722 32.8373C58.4869 32.7476 58.5163 32.6579 58.5359 32.5732C58.579 32.419 58.6313 32.2675 58.6927 32.1198C58.7417 31.9902 58.8054 31.8905 58.8348 31.8158L58.8936 31.7012L58.8495 31.8208C58.8093 31.925 58.775 32.0315 58.7466 32.1397C58.7011 32.2897 58.6667 32.4429 58.6437 32.5981C58.6288 32.6838 58.619 32.7704 58.6143 32.8573C58.6143 32.947 58.6143 33.0367 58.6143 33.1264C58.6064 33.3091 58.6097 33.4922 58.6241 33.6745C58.6241 33.7592 58.6241 33.8439 58.6584 33.9187C58.6927 33.9934 58.6878 34.0632 58.7025 34.123C58.7242 34.2325 58.752 34.3406 58.7858 34.4469V34.4967L58.4624 34.6163C58.4624 34.6163 58.4624 34.5615 58.4624 34.5216C58.4624 34.4818 58.4232 34.3323 58.4134 34.1828C58.4134 34.113 58.4134 34.0333 58.4134 33.9486C58.4084 33.8623 58.4084 33.7758 58.4134 33.6895C58.4013 33.4968 58.4046 33.3035 58.4232 33.1114Z" fill="white"/>
<path d="M54.8029 32.0902C54.6727 31.4733 54.6217 30.8418 54.651 30.2115C54.7895 29.2931 55.0143 28.3904 55.3223 27.5156H55.3517C55.1037 28.4078 54.93 29.3196 54.8323 30.2414C54.8344 30.8954 54.9167 31.5466 55.0773 32.1799C55.5548 32.3644 56.0101 32.6035 56.4346 32.8925C57.1216 33.3847 57.7269 33.9853 58.2279 34.6715L57.7722 34.8708C57.3704 34.1898 56.843 33.5942 56.219 33.1167C55.1326 32.4426 53.9838 31.8785 52.7891 31.4324C53.4707 31.6176 54.1428 31.8371 54.8029 32.0902Z" fill="white"/>
</g>
<defs>
<clipPath id="clip0_1398_313226">
<rect width="34.946" height="46.9963" fill="white" transform="translate(44.0547 19.7227)"/>
</clipPath>
</defs>
</svg>
